<svg width="26" height="14" viewBox="0 0 26 14" fill="none" xmlns="http://www.w3.org/2000/svg">
<path d="M19.0947 0.759911C18.7901 0.852686 18.6181 1.16519 18.6967 1.47769C18.7164 1.57046 19.5369 2.4152 21.1437 4.01677L23.5562 6.42402L12.1765 6.43379L0.791783 6.44844L0.654204 6.55098C0.580501 6.60469 0.48223 6.74141 0.442921 6.85372C0.379045 7.03438 0.383959 7.07344 0.457662 7.22481C0.501884 7.31759 0.600155 7.43477 0.673858 7.4836C0.80161 7.56661 1.32736 7.57149 12.1814 7.58614L23.5562 7.59591L21.1682 9.97874C19.8514 11.2873 18.7508 12.4202 18.7262 12.4934C18.6034 12.8108 18.7262 13.1086 19.0309 13.2356C19.3748 13.3772 19.306 13.4358 22.5096 10.2473C24.5242 8.24532 25.5069 7.23457 25.5266 7.1418C25.5462 7.06856 25.5462 6.95137 25.5266 6.87324C25.5069 6.78535 24.5291 5.77948 22.5391 3.79216C20.0136 1.27749 19.3748 0.676902 19.252 0.715965C19.2421 0.715965 19.1733 0.74038 19.0947 0.759911Z" fill="#DEA057"/>
</svg>
