<svg width="26" height="14" viewBox="0 0 26 14" fill="none" xmlns="http://www.w3.org/2000/svg">
<path d="M7.26821 13.2398C7.57342 13.147 7.74572 12.8345 7.66696 12.522C7.64727 12.4293 6.82514 11.5846 5.21536 9.98312L2.79823 7.57603L14.1996 7.56626L25.6059 7.55161L25.7437 7.44908C25.8176 7.39537 25.916 7.25866 25.9554 7.14636C26.0194 6.96571 26.0145 6.92665 25.9407 6.77529C25.8964 6.68252 25.7979 6.56534 25.7241 6.51651C25.5961 6.43351 25.0693 6.42863 14.1947 6.41398L2.79823 6.40422L5.19075 4.02154C6.51008 2.71302 7.6128 1.58027 7.63742 1.50703C7.76049 1.18967 7.63742 0.891832 7.3322 0.764886C6.9876 0.623292 7.05652 0.564702 3.8468 3.753C1.82843 5.75484 0.843853 6.76553 0.824161 6.8583C0.80447 6.93154 0.80447 7.04872 0.824161 7.12684C0.843853 7.21472 1.8235 8.22053 3.81727 10.2077C6.34763 12.7222 6.9876 13.3228 7.11067 13.2837C7.12052 13.2837 7.18944 13.2593 7.26821 13.2398Z" fill="#DEA057"/>
</svg>
