<svg width="14" height="14" viewBox="0 0 14 14" fill="none" xmlns="http://www.w3.org/2000/svg">
<path d="M4.73227 0.87756C4.07602 0.951387 3.45532 1.13186 2.85375 1.4217C0.141254 2.73693 -0.810308 5.84865 0.753754 8.29045L0.871332 8.47092L0.461176 9.75334C0.236957 10.4561 0.0537538 11.0686 0.0537538 11.1096C0.0537538 11.3092 0.258832 11.5115 0.46391 11.5115C0.548676 11.5115 1.0518 11.2682 2.44633 10.5545L3.07524 10.2319L3.32133 10.3276C3.61938 10.4424 4.08422 10.5655 4.40141 10.6119C4.62836 10.6447 4.63657 10.6502 4.80336 10.8033C5.27367 11.2381 5.65922 11.5033 6.20883 11.7713C7.59516 12.4412 9.22484 12.5096 10.7041 11.9572L10.9256 11.8752L12.1534 12.5014C12.9491 12.9061 13.4221 13.1358 13.4959 13.144C13.7147 13.1713 13.9444 12.9717 13.9444 12.753C13.9444 12.7119 13.7612 12.1022 13.537 11.3967L13.1268 10.1143L13.2444 9.93108C14.1467 8.53381 14.2397 6.78381 13.4905 5.31272C12.7577 3.8799 11.2538 2.81623 9.60492 2.57014C9.48734 2.551 9.37797 2.52912 9.36156 2.52092C9.34242 2.50998 9.21391 2.39787 9.07172 2.26936C8.6807 1.91936 8.34438 1.68967 7.86039 1.45178C7.2725 1.1592 6.89789 1.03615 6.27446 0.929512C5.89438 0.861153 5.09867 0.836544 4.73227 0.87756ZM5.84516 1.69787C6.18149 1.73342 6.55883 1.81545 6.87602 1.91662C7.14945 2.00686 7.69633 2.26389 7.92875 2.41428L8.07641 2.50998L7.96977 2.52912C7.22328 2.6467 6.76117 2.78615 6.2061 3.05139C3.71508 4.25178 2.66508 6.99436 3.78071 9.38693C3.84907 9.53186 3.89282 9.65217 3.87914 9.65217C3.86274 9.65217 3.69594 9.59201 3.50727 9.51545C3.29399 9.43068 3.12172 9.37873 3.05336 9.37873C2.96586 9.37873 2.76899 9.46897 2.06078 9.8299C1.57407 10.0787 1.17211 10.2811 1.16664 10.2811C1.15844 10.2811 1.28149 9.88459 1.44008 9.39787C1.59594 8.91389 1.72446 8.46818 1.72719 8.40803C1.72993 8.27951 1.71078 8.23576 1.4975 7.92131C1.20493 7.49201 1.00532 7.0299 0.895941 6.52678C0.816644 6.15764 0.811175 5.44397 0.882269 5.07756C1.20766 3.44787 2.55571 2.15178 4.30844 1.7799C4.81703 1.67053 5.3475 1.64318 5.84516 1.69787ZM9.1811 3.3385C9.79086 3.40412 10.2858 3.55178 10.8409 3.82795C12.033 4.42131 12.8698 5.48772 13.1159 6.72365C13.1815 7.04904 13.1815 7.77365 13.1159 8.10178C13.0092 8.63225 12.7604 9.2092 12.4487 9.64123C12.3639 9.75881 12.2846 9.89826 12.2737 9.94748C12.2491 10.0623 12.2627 10.1143 12.5854 11.1205C12.7276 11.5608 12.8397 11.9217 12.8342 11.9217C12.8288 11.9217 12.4268 11.7194 11.9401 11.4705C11.2209 11.1041 11.035 11.0194 10.942 11.0194C10.8709 11.0194 10.7178 11.0658 10.5346 11.1397C9.09086 11.7303 7.44477 11.6045 6.13774 10.8006C5.69203 10.5272 5.22172 10.0951 4.9018 9.66037C4.58735 9.23654 4.32485 8.63772 4.21821 8.10178C4.15258 7.76818 4.15258 7.05178 4.21821 6.71818C4.50805 5.26897 5.62367 4.0549 7.12211 3.55998C7.77563 3.34397 8.51117 3.26467 9.1811 3.3385Z" fill="#CA9457"/>
<path d="M6.80312 7.05734C6.68555 7.11749 6.58984 7.27882 6.58984 7.41007C6.58984 7.54678 6.68555 7.70264 6.80859 7.76553C7.01367 7.86943 7.23789 7.80381 7.34999 7.60694C7.42382 7.47296 7.42656 7.35811 7.35546 7.21866C7.25429 7.01906 7.0082 6.94797 6.80312 7.05734Z" fill="#CA9457"/>
<path d="M8.44375 7.05734C8.32617 7.11749 8.23047 7.27882 8.23047 7.41007C8.23047 7.54678 8.32617 7.70264 8.44922 7.76553C8.65429 7.86943 8.87851 7.80381 8.99062 7.60694C9.06445 7.47296 9.06718 7.35811 8.99609 7.21866C8.89492 7.01906 8.64883 6.94797 8.44375 7.05734Z" fill="#CA9457"/>
<path d="M10.0844 7.05709C9.9668 7.11725 9.87109 7.27857 9.87109 7.40982C9.87109 7.54653 9.9668 7.70239 10.0898 7.76528C10.2238 7.83364 10.3359 7.83364 10.4672 7.76801C10.5848 7.70786 10.6914 7.53833 10.6914 7.40982C10.6914 7.2813 10.5848 7.11178 10.4672 7.05162C10.3387 6.986 10.2129 6.986 10.0844 7.05709Z" fill="#CA9457"/>
</svg>
