<svg width="14" height="14" viewBox="0 0 14 14" fill="none" xmlns="http://www.w3.org/2000/svg">
<path d="M2.39807 0.232294C2.26135 0.278779 2.16565 0.369013 2.10276 0.505732C2.06175 0.595966 2.05081 0.683466 2.05081 0.989717V1.36433L1.44378 1.37253L0.834011 1.38073L0.650808 1.46823C0.442996 1.56667 0.22698 1.76354 0.13948 1.93581C-0.00544182 2.22292 2.69314e-05 1.94675 2.69314e-05 7.58776C2.69314e-05 12.1596 0.00549568 12.8323 0.0410426 12.9717C0.150418 13.3901 0.500417 13.7128 0.918777 13.7811C1.1594 13.8221 12.9418 13.8167 13.1305 13.7784C13.4614 13.71 13.7703 13.4639 13.9125 13.1577C14.0438 12.8788 14.0328 12.7721 13.5543 9.66589C13.3192 8.14558 12.9719 5.87604 12.7832 4.62097C12.5946 3.36589 12.425 2.28308 12.4114 2.21472C12.3703 2.03425 12.2309 1.79089 12.0942 1.66511C12.0285 1.60495 11.8918 1.51472 11.7906 1.46823L11.6074 1.38073L10.809 1.37253L10.0078 1.36433V0.989717C10.0078 0.568623 9.97503 0.451044 9.81917 0.319795C9.55667 0.0983105 9.09182 0.172138 8.91956 0.459248C8.8512 0.57956 8.84573 0.609638 8.83753 0.976045L8.82659 1.36706H7.7219H6.61721V0.989717C6.61721 0.653388 6.61174 0.598701 6.55706 0.49206C6.51878 0.420966 6.44495 0.336201 6.37659 0.286982C6.26995 0.213154 6.23713 0.20495 6.04846 0.20495C5.79143 0.20495 5.65745 0.265107 5.53714 0.434638C5.4551 0.549482 5.4551 0.557685 5.4469 0.959639L5.43596 1.36706H4.33401H3.23206L3.22112 0.962373C3.21292 0.571357 3.21018 0.552217 3.13635 0.440107C2.99417 0.226826 2.66878 0.133857 2.39807 0.232294ZM2.76721 0.64792C2.8137 0.688935 2.81643 0.757295 2.81643 1.64323C2.81643 2.47175 2.81096 2.60026 2.77268 2.63581C2.72346 2.68503 2.59221 2.69323 2.51292 2.65222C2.4637 2.62487 2.46096 2.58386 2.46096 1.65417C2.46096 0.811982 2.46643 0.680732 2.50471 0.645185C2.5594 0.587763 2.70432 0.590498 2.76721 0.64792ZM6.16331 0.645185C6.20159 0.680732 6.20706 0.809248 6.20706 1.6405C6.20706 2.6987 6.20979 2.67956 6.02932 2.67956C5.84885 2.67956 5.85159 2.6987 5.85159 1.6405C5.85159 0.582294 5.84885 0.601435 6.02932 0.601435C6.07854 0.601435 6.14143 0.620576 6.16331 0.645185ZM9.54573 0.628778C9.59495 0.656122 9.59768 0.697138 9.59768 1.63503C9.59768 2.35964 9.58948 2.62214 9.56487 2.64675C9.51838 2.69323 9.35159 2.68776 9.29143 2.63307C9.24495 2.59206 9.24221 2.5237 9.24221 1.64597C9.24221 0.806513 9.24768 0.697138 9.2887 0.650654C9.33792 0.595966 9.4637 0.585029 9.54573 0.628778ZM2.05081 2.01237C2.05081 2.23386 2.04534 2.25573 1.96878 2.35143C1.59964 2.81628 1.75823 3.48893 2.29143 3.72409C2.48557 3.80886 2.78362 3.80612 2.98596 3.71315C3.19378 3.61745 3.37151 3.43151 3.44534 3.2319C3.55745 2.93659 3.48635 2.5319 3.28948 2.34597C3.23206 2.29401 3.22659 2.26394 3.22659 2.03151V1.77722H4.33401H5.44143V2.03151C5.44143 2.26394 5.43596 2.29401 5.37854 2.34597C5.34299 2.37878 5.28557 2.46628 5.24729 2.53737C5.1926 2.64675 5.18167 2.70417 5.18167 2.92565C5.18167 3.12526 5.1926 3.20729 5.23362 3.28112C5.33753 3.47526 5.46878 3.60651 5.64924 3.69401C6.08674 3.91003 6.5926 3.73503 6.81135 3.29479C6.95628 2.99948 6.91799 2.63854 6.71292 2.38151C6.61995 2.26394 6.61721 2.25573 6.61721 2.02058V1.77722H7.72463H8.83206V2.02604C8.83206 2.26394 8.82659 2.28034 8.75276 2.36511C8.55588 2.59206 8.5012 3.01042 8.63518 3.28659C8.81292 3.64753 9.2094 3.84987 9.59221 3.77331C10.2512 3.63659 10.5164 2.87644 10.0871 2.35143C10.0133 2.26394 10.0078 2.23933 10.0078 2.01511V1.77448L10.7817 1.78269L11.5528 1.79089L11.6813 1.86745C11.7524 1.90847 11.8426 1.98229 11.8781 2.03151C12.0258 2.22565 12.0313 2.26667 12.0313 3.46159V4.56628H6.22073H0.410183V3.46159C0.410183 2.6905 0.421121 2.33229 0.442996 2.26667C0.516824 2.05339 0.702761 1.86198 0.891433 1.80456C0.935183 1.79362 1.21409 1.77995 1.51214 1.77995L2.05081 1.77722V2.01237ZM9.87112 3.03776C9.78909 3.34128 9.43088 3.47526 9.16838 3.30026C9.06995 3.23464 8.96877 3.07331 8.96877 2.98308C8.96877 2.92565 8.97151 2.92565 9.07815 2.99675C9.28596 3.13347 9.68792 3.10886 9.8301 2.953C9.89846 2.87917 9.90667 2.89831 9.87112 3.03776ZM2.28596 2.99401C2.47464 3.12253 2.78909 3.12526 2.97776 2.99948C3.08714 2.92565 3.08987 2.92565 3.08987 2.98308C3.08987 3.07878 2.97503 3.25104 2.87385 3.31667C2.68245 3.43151 2.39534 3.37683 2.26956 3.19636C2.21487 3.12526 2.14925 2.92565 2.17659 2.92565C2.18206 2.92565 2.23128 2.95573 2.28596 2.99401ZM5.77776 3.0487C5.96917 3.128 6.36565 3.07331 6.43674 2.95573C6.47503 2.89284 6.50237 2.92839 6.48049 3.01589C6.4094 3.33034 6.04573 3.48073 5.77776 3.303C5.66565 3.22917 5.57815 3.08698 5.57815 2.97761C5.57815 2.92018 5.58088 2.92018 5.62737 2.9612C5.65471 2.98581 5.72034 3.02409 5.77776 3.0487ZM12.0313 5.15417V5.3319H9.23401C6.45588 5.3319 6.43674 5.3319 6.37659 5.38659C6.28909 5.46862 6.29456 5.61081 6.38753 5.68464C6.46135 5.74206 6.46956 5.74206 9.24495 5.74206H12.0313V7.40729C12.0313 9.04792 12.0313 9.07253 12.0887 9.14362C12.1598 9.23386 12.3102 9.24206 12.3813 9.16003C12.425 9.10808 12.4278 8.95495 12.4414 7.1694L12.4551 5.2362L13.0129 8.85925C13.3192 10.8526 13.5762 12.5616 13.5817 12.66C13.6008 12.8897 13.5242 13.0839 13.3629 13.2233C13.1989 13.3628 13.043 13.3983 12.6 13.3983C12.3922 13.3983 12.2227 13.3901 12.2227 13.3819C12.2227 13.3737 12.2555 13.3135 12.2938 13.2452C12.436 13.0018 12.4414 12.9553 12.4414 11.3776V9.91472L12.3813 9.85182C12.2992 9.76159 12.1625 9.76706 12.0887 9.86003C12.0313 9.93112 12.0313 9.95847 12.0313 11.3858V12.8378L11.9656 12.9745C11.8864 13.144 11.7797 13.2534 11.6211 13.3272L11.4981 13.3846L6.27542 13.3928C0.46487 13.3983 0.872292 13.412 0.653542 13.2151C0.593386 13.1604 0.516824 13.0647 0.484011 13.0046L0.423855 12.8924L0.415652 9.31589L0.410183 5.74206H3.0051H5.60276L5.67112 5.67917C5.76956 5.59167 5.77776 5.47682 5.68753 5.38659C5.63284 5.3319 5.59729 5.3319 3.02151 5.3319H0.410183V5.15417V4.97643H6.22073H12.0313V5.15417Z" fill="#CA9457"/>
<path d="M3.94021 6.81133C3.79529 6.87148 3.75701 7.03008 3.86365 7.13125C3.9238 7.18867 3.95388 7.19141 4.3531 7.19141C4.74412 7.19141 4.77966 7.18594 4.82615 7.13672C4.89451 7.06016 4.88904 6.92891 4.81521 6.85508C4.76052 6.80039 4.72771 6.79492 4.38044 6.78945C4.17537 6.78672 3.97576 6.79492 3.94021 6.81133Z" fill="#CA9457"/>
<path d="M5.80841 6.81953C5.67716 6.87969 5.64435 7.03828 5.74278 7.13672C5.792 7.18594 5.83302 7.19141 6.2213 7.19141C6.60958 7.19141 6.6506 7.18594 6.69981 7.13672C6.77364 7.06289 6.77091 6.91524 6.69708 6.84688C6.64786 6.80313 6.5877 6.79492 6.26505 6.78672C5.99161 6.78125 5.8713 6.79219 5.80841 6.81953Z" fill="#CA9457"/>
<path d="M7.71094 6.80039C7.6207 6.8332 7.57422 6.90156 7.57422 7.00273C7.57422 7.17227 7.62617 7.19141 8.11289 7.19141C8.50664 7.19141 8.53125 7.18867 8.58594 7.13125C8.68711 7.02187 8.64609 6.86328 8.50117 6.81133C8.41367 6.78125 7.7875 6.77305 7.71094 6.80039Z" fill="#CA9457"/>
<path d="M9.57885 6.80859C9.49135 6.84414 9.42572 6.95625 9.4476 7.03281C9.49408 7.18594 9.51869 7.19141 9.98354 7.19141H10.4156L10.4703 7.12031C10.5031 7.0793 10.5277 7.03008 10.5277 7.01094C10.5277 6.93164 10.4593 6.83594 10.3828 6.80859C10.2843 6.77578 9.66362 6.77578 9.57885 6.80859Z" fill="#CA9457"/>
<path d="M2.01439 8.4793C1.88861 8.55312 1.90228 8.76641 2.039 8.8293C2.08001 8.8457 2.26322 8.85938 2.49017 8.85938C2.85931 8.85938 2.87572 8.85664 2.93861 8.79102C2.97689 8.75547 3.00697 8.69258 3.00697 8.6543C3.00697 8.61602 2.97689 8.55312 2.93861 8.51758C2.87572 8.45195 2.86205 8.44922 2.4683 8.44922C2.23587 8.44922 2.04173 8.46289 2.01439 8.4793Z" fill="#CA9457"/>
<path d="M3.86914 8.51758C3.83086 8.55312 3.80078 8.61602 3.80078 8.6543C3.80078 8.69258 3.83086 8.75547 3.86914 8.79102C3.93203 8.85664 3.94844 8.85938 4.31758 8.85938C4.73594 8.85938 4.82344 8.8375 4.86172 8.72266C4.8918 8.63516 4.84258 8.49297 4.77148 8.46563C4.74687 8.45742 4.54726 8.44922 4.33125 8.44922C3.9457 8.44922 3.93203 8.45195 3.86914 8.51758Z" fill="#CA9457"/>
<path d="M5.7478 8.51211C5.66303 8.60234 5.6685 8.73086 5.75874 8.80195C5.82436 8.85391 5.86811 8.85938 6.22085 8.85938C6.57358 8.85938 6.61733 8.85391 6.68295 8.80195C6.77592 8.72813 6.78139 8.59141 6.69116 8.50938C6.631 8.45195 6.60092 8.44922 6.21811 8.44922C5.82436 8.44922 5.80522 8.45195 5.7478 8.51211Z" fill="#CA9457"/>
<path d="M7.63489 8.50391C7.53919 8.59141 7.54466 8.70625 7.64583 8.79648C7.71146 8.85664 7.7388 8.85938 8.11067 8.85938C8.49622 8.85938 8.50989 8.85664 8.57278 8.79102C8.66575 8.70078 8.66302 8.58047 8.57005 8.50664C8.50442 8.45469 8.46067 8.44922 8.097 8.44922C7.7306 8.44922 7.68958 8.45469 7.63489 8.50391Z" fill="#CA9457"/>
<path d="M9.53392 8.4793C9.40814 8.55312 9.42181 8.76641 9.55853 8.8293C9.59955 8.8457 9.78275 8.85938 10.0097 8.85938C10.3788 8.85938 10.3952 8.85664 10.4581 8.79102C10.4964 8.75547 10.5265 8.69258 10.5265 8.6543C10.5265 8.61602 10.4964 8.55312 10.4581 8.51758C10.3952 8.45195 10.3816 8.44922 9.98783 8.44922C9.75541 8.44922 9.56126 8.46289 9.53392 8.4793Z" fill="#CA9457"/>
<path d="M2.05932 10.1172C1.97182 10.1527 1.90619 10.2676 1.92807 10.3414C1.97455 10.4945 1.99916 10.5 2.46401 10.5H2.89604L2.95072 10.4289C3.02455 10.3332 3.02182 10.273 2.94252 10.1801C2.8769 10.1035 2.87416 10.1035 2.49682 10.098C2.28901 10.0953 2.09213 10.1035 2.05932 10.1172Z" fill="#CA9457"/>
<path d="M3.94021 10.1172C3.79529 10.1801 3.75701 10.3387 3.86365 10.4398C3.9238 10.4973 3.95388 10.5 4.3531 10.5C4.74412 10.5 4.77966 10.4945 4.82615 10.4453C4.89451 10.3687 4.88904 10.2375 4.81521 10.1637C4.76052 10.109 4.72771 10.1035 4.38044 10.098C4.17263 10.0926 3.97576 10.1035 3.94021 10.1172Z" fill="#CA9457"/>
<path d="M5.80841 10.1281C5.67716 10.1883 5.64435 10.3469 5.74278 10.4453C5.792 10.4945 5.83302 10.5 6.2213 10.5C6.60958 10.5 6.65059 10.4945 6.69981 10.4453C6.76817 10.377 6.77091 10.2512 6.70255 10.1691C6.65333 10.1062 6.63145 10.1035 6.27052 10.0953C5.99435 10.0898 5.8713 10.1008 5.80841 10.1281Z" fill="#CA9457"/>
<path d="M7.72461 10.109C7.62617 10.1336 7.57422 10.202 7.57422 10.3086C7.57422 10.4863 7.61523 10.5 8.10196 10.5C8.49571 10.5 8.53672 10.4945 8.58594 10.4453C8.68985 10.3414 8.6461 10.1719 8.50118 10.1199C8.41641 10.0898 7.83399 10.0816 7.72461 10.109Z" fill="#CA9457"/>
<path d="M9.57885 10.1172C9.49135 10.1527 9.42572 10.2676 9.4476 10.3414C9.49408 10.4945 9.51869 10.5 9.98354 10.5H10.4156L10.4703 10.4289C10.5441 10.3332 10.5413 10.273 10.4621 10.1801C10.3964 10.1035 10.3937 10.1035 10.0163 10.098C9.80854 10.0953 9.61166 10.1035 9.57885 10.1172Z" fill="#CA9457"/>
<path d="M2.00517 11.7988C1.97509 11.8207 1.93954 11.8699 1.93134 11.9082C1.9122 11.9875 1.97236 12.1242 2.03798 12.1516C2.06259 12.1598 2.2622 12.168 2.47822 12.168C2.86376 12.168 2.87744 12.1652 2.94033 12.0996C2.97861 12.0641 3.00869 12.0012 3.00869 11.9629C3.00869 11.9246 2.97861 11.8617 2.94033 11.8262C2.87744 11.7605 2.86376 11.7578 2.47001 11.7578C2.15556 11.7578 2.05165 11.766 2.00517 11.7988Z" fill="#CA9457"/>
<path d="M3.86914 11.8262C3.83086 11.8617 3.80078 11.9246 3.80078 11.9629C3.80078 12.0012 3.83086 12.0641 3.86914 12.0996C3.93203 12.1652 3.9457 12.168 4.33945 12.168C4.77148 12.1652 4.81523 12.1543 4.86445 12.0285C4.89453 11.9465 4.84258 11.8016 4.77148 11.7742C4.74687 11.766 4.54726 11.7578 4.33125 11.7578C3.9457 11.7578 3.93203 11.7605 3.86914 11.8262Z" fill="#CA9457"/>
<path d="M5.75859 11.8152C5.70664 11.8563 5.6875 11.8973 5.6875 11.9629C5.6875 12.0285 5.70664 12.0695 5.75859 12.1105C5.82422 12.1625 5.86797 12.168 6.2207 12.168C6.57344 12.168 6.61719 12.1625 6.68281 12.1105C6.77578 12.0367 6.78125 11.9 6.69101 11.818C6.63086 11.7605 6.60078 11.7578 6.22891 11.7578C5.86797 11.7578 5.82422 11.7633 5.75859 11.8152Z" fill="#CA9457"/>
<path d="M7.65112 11.7961C7.53354 11.8836 7.54721 12.0777 7.673 12.1379C7.71401 12.1543 7.89721 12.168 8.12417 12.168C8.49331 12.168 8.50971 12.1652 8.5726 12.0996C8.66557 12.0094 8.66284 11.8891 8.56987 11.8152C8.50424 11.7633 8.46049 11.7578 8.09682 11.7578C7.81245 11.7605 7.68393 11.7688 7.65112 11.7961Z" fill="#CA9457"/>
</svg>
