<svg width="26" height="26" viewBox="0 0 26 26" fill="none" xmlns="http://www.w3.org/2000/svg">
<g clip-path="url(#clip0_788_969)">
<path d="M23.5117 3.30075H2.38674C1.04261 3.30075 -0.0507812 4.39414 -0.0507812 5.73827V20.3633C-0.0507812 21.7074 1.04261 22.8008 2.38674 22.8008H23.5117C24.8558 22.8008 25.9492 21.7074 25.9492 20.3633V5.73827C25.9492 4.39414 24.8558 3.30075 23.5117 3.30075ZM23.5117 4.92574C23.6221 4.92574 23.7271 4.94865 23.8231 4.98865L12.9492 14.4131L2.07526 4.98865C2.17127 4.9487 2.27629 4.92574 2.38668 4.92574H23.5117ZM23.5117 21.1757H2.38674C1.93844 21.1757 1.57421 20.8116 1.57421 20.3632V6.70547L12.4168 16.1024C12.57 16.2349 12.7596 16.3008 12.9492 16.3008C13.1388 16.3008 13.3285 16.2349 13.4816 16.1024L24.3242 6.70547V20.3633C24.3242 20.8116 23.96 21.1757 23.5117 21.1757Z" fill="#292B31"/>
</g>
<defs>
<clipPath id="clip0_788_969">
<rect width="26" height="26" fill="white"/>
</clipPath>
</defs>
</svg>
