<svg width="60" height="60" viewBox="0 0 60 60" fill="none" xmlns="http://www.w3.org/2000/svg">
<path d="M0.9375 30V59.0625L25.9922 59.0508C44.8594 59.0508 51.1172 59.0156 51.3867 58.9102C52.3711 58.5352 52.5117 58.2656 54.0117 54.2461L55.3125 50.7773V45.082V39.375H55.957C56.4961 39.375 56.6602 39.4219 56.8945 39.668C57.1758 39.9375 57.1875 40.0078 57.1875 41.543V43.125H58.125H59.0625V41.4375C59.0625 39.8203 59.0508 39.7383 58.7344 39.0938L58.3945 38.4375L58.7344 37.7812L59.0625 37.1133V33.832C59.0625 31.6406 59.0156 30.3984 58.9219 30.0938C58.8516 29.8359 58.5586 29.3672 58.2773 29.0625C57.6797 28.4062 57.0117 28.125 56.0039 28.125H55.3359L55.2891 26.625C55.2539 25.2539 55.2188 25.0781 54.8789 24.3516C54.3867 23.2969 53.707 22.5938 52.6992 22.0898C52.2539 21.8672 51.8086 21.6797 51.7266 21.6797C51.5859 21.6797 51.5625 19.9922 51.5625 11.3086V0.9375H39.1992C32.4023 0.9375 26.8359 0.949219 26.8359 0.972656C26.8359 0.984375 27.2812 2.34375 27.832 3.97266C28.3711 5.61328 28.8047 6.98438 28.7812 7.01953C28.7461 7.05469 27.9961 7.45312 27.0938 7.89844L25.4648 8.70703L24.7852 11.0039C24.4102 12.2695 24.0352 13.5469 23.9414 13.8516L23.7773 14.3906L23.1094 14.0977C22.7461 13.9336 22.3242 13.7578 22.1719 13.6992C21.9141 13.5938 21.9258 13.5703 22.793 11.8359C23.2734 10.875 23.6719 10.043 23.6719 9.99609C23.6719 9.9375 22.6406 9.29297 21.3867 8.55469C20.1328 7.81641 19.1016 7.17188 19.1016 7.11328C19.1016 7.06641 19.793 5.66016 20.625 3.98438L22.1484 0.9375H11.543H0.9375V30ZM18.6328 3.75L18.1641 4.6875H11.4258H4.6875V11.25V17.8125H11.7188H18.75V16.875V15.9375H12.6562H6.5625V11.25V6.5625H11.8945H17.2266L16.9102 7.20703C16.7344 7.55859 16.6172 7.86328 16.6523 7.88672C16.6758 7.91016 17.707 8.53125 18.9258 9.25781C20.1562 9.98438 21.1758 10.6055 21.2109 10.6289C21.2344 10.6523 20.8242 11.543 20.2969 12.6094C19.4648 14.2852 19.3594 14.543 19.5352 14.6133C19.6523 14.6602 21.2461 15.3398 23.0742 16.125L26.4141 17.5547L27.2812 20.5781C27.75 22.2539 28.1602 23.625 28.1836 23.6484C28.1953 23.6719 28.6055 23.5664 29.0859 23.4375L29.9648 23.1797L28.957 19.6758L27.9609 16.1836L26.7891 15.6797C26.1328 15.4102 25.582 15.1758 25.5703 15.1641C25.5469 15.1406 25.8633 13.9922 26.2734 12.5977L27.0117 10.0547L29.0859 9.01172L31.1602 7.96875L30.9375 7.3125C30.8086 6.9375 30.7031 6.62109 30.7031 6.59766C30.7031 6.58594 34.1367 6.5625 38.3203 6.5625H45.9375V11.25V15.9375H38.4375H30.9375V16.875V17.8125H39.375H47.8125V11.25V4.6875H38.9297H30.0469L29.7422 3.75L29.4375 2.8125H39.5625H49.6875V12.2461C49.6875 20.1445 49.6641 21.6797 49.5234 21.6797C49.4414 21.6797 48.9961 21.8672 48.5508 22.0898C47.543 22.5938 46.8633 23.2969 46.3711 24.3516L45.9961 25.1367L45.9609 37.957L45.9375 50.7773L47.1094 53.8945C47.7539 55.6172 48.2812 57.0586 48.2812 57.1055C48.2812 57.1523 38.0508 57.1875 25.5469 57.1875H2.8125V30V2.8125H10.957H19.1016L18.6328 3.75ZM51.4922 23.5781C52.1367 23.7656 53.1094 24.7383 53.2969 25.3828C53.3906 25.6992 53.4375 26.7539 53.4375 28.4062V30.9375H50.625H47.8125V28.4062C47.8125 25.3945 47.8711 25.1367 48.6914 24.3164C49.5117 23.4844 50.3906 23.2617 51.4922 23.5781ZM56.8945 30.293L57.1875 30.5742V33.75V36.9258L56.8945 37.207C56.6602 37.4531 56.4961 37.5 55.957 37.5H55.3125V33.75V30H55.957C56.4961 30 56.6602 30.0469 56.8945 30.293ZM53.4375 41.25V49.6875H50.625H47.8125V41.25V32.8125H50.625H53.4375V41.25ZM52.9688 51.6445C52.9688 51.9023 50.9648 57 50.8359 57.082C50.6484 57.2109 50.6016 57.2109 50.4141 57.082C50.2852 57 48.2812 51.9023 48.2812 51.6445C48.2812 51.5977 49.3359 51.5625 50.625 51.5625C51.9141 51.5625 52.9688 51.5977 52.9688 51.6445Z" fill="#CA9457"/>
<path d="M4.6875 20.625V21.5625H5.625H6.5625V20.625V19.6875H5.625H4.6875V20.625Z" fill="#CA9457"/>
<path d="M8.4375 20.625V21.5625H16.875H25.3125V20.625V19.6875H16.875H8.4375V20.625Z" fill="#CA9457"/>
<path d="M30.9375 20.625V21.5625H39.375H47.8125V20.625V19.6875H39.375H30.9375V20.625Z" fill="#CA9457"/>
<path d="M4.6875 24.375V25.3125H15H25.3125V24.375V23.4375H15H4.6875V24.375Z" fill="#CA9457"/>
<path d="M30.9375 24.375V25.3125H37.5H44.0625V24.375V23.4375H37.5H30.9375V24.375Z" fill="#CA9457"/>
<path d="M4.6875 28.125V29.0625H15H25.3125V28.125V27.1875H15H4.6875V28.125Z" fill="#CA9457"/>
<path d="M27.1875 28.125V29.0625H28.125H29.0625V28.125V27.1875H28.125H27.1875V28.125Z" fill="#CA9457"/>
<path d="M30.9375 28.125V29.0625H37.5H44.0625V28.125V27.1875H37.5H30.9375V28.125Z" fill="#CA9457"/>
<path d="M12.3049 34.9805C7.80492 37.7578 5.67211 39.1406 5.39086 39.4688C4.38305 40.5938 4.45336 42.082 5.56664 43.1953C6.25805 43.8867 6.93773 44.1328 7.8518 44.0273L8.43773 43.957V49.6289V55.3125H19.6877H30.9377V49.6289V43.957L31.5237 44.0273C32.4377 44.1328 33.1174 43.8867 33.8088 43.1953C34.6409 42.3633 34.8752 41.4727 34.5471 40.3945C34.2659 39.457 33.762 39.0938 26.9768 34.9219L20.4963 30.9375L19.6526 30.9492L18.8088 30.9609L12.3049 34.9805ZM26.1799 36.6328C29.6018 38.7305 32.4963 40.5586 32.6135 40.6875C33.0588 41.2031 32.7424 42.0117 32.051 42.1406C31.676 42.2109 31.2424 41.9648 25.7346 38.5664C22.4885 36.5625 19.7698 34.9219 19.6995 34.9219C19.6291 34.9219 16.9104 36.5508 13.6643 38.5547C9.78539 40.9453 7.65258 42.1875 7.45336 42.1875C6.79711 42.1875 6.31664 41.2734 6.71508 40.7461C6.94945 40.418 19.3713 32.8242 19.676 32.8125C19.8401 32.8125 22.4299 34.3359 26.1799 36.6328ZM24.4104 39.9492L29.0627 42.8203V48.1289V53.4375H27.1877H25.3127V49.6875V45.9375H19.6877H14.0627V49.6875V53.4375H12.1877H10.3127V48.1289V42.8203L14.9768 39.9375C17.5315 38.3555 19.6643 37.0664 19.6995 37.0781C19.7346 37.0781 21.8557 38.3789 24.4104 39.9492ZM23.4377 50.625V53.4375H19.6877H15.9377V50.625V47.8125H19.6877H23.4377V50.625Z" fill="#CA9457"/>
<path d="M18.7501 38.5898C18.1759 38.7773 17.1915 39.7852 17.0157 40.3828C16.6876 41.4844 16.922 42.3633 17.754 43.1836C18.9376 44.3789 20.4376 44.3789 21.6212 43.1836C22.7696 42.0469 22.8048 40.582 21.715 39.375C20.9532 38.5312 19.8634 38.2383 18.7501 38.5898ZM20.3321 40.6055C20.9181 41.1797 20.5079 42.1875 19.6876 42.1875C19.465 42.1875 19.2189 42.082 19.0431 41.8945C18.8556 41.7188 18.7501 41.4727 18.7501 41.25C18.7501 41.0273 18.8556 40.7812 19.0431 40.6055C19.2189 40.418 19.465 40.3125 19.6876 40.3125C19.9103 40.3125 20.1564 40.418 20.3321 40.6055Z" fill="#CA9457"/>
<path d="M30.9375 31.875V32.8125H37.5H44.0625V31.875V30.9375H37.5H30.9375V31.875Z" fill="#CA9457"/>
<path d="M36.5625 35.625V36.5625H40.3125H44.0625V35.625V34.6875H40.3125H36.5625V35.625Z" fill="#CA9457"/>
<path d="M36.5625 39.375V40.3125H40.3125H44.0625V39.375V38.4375H40.3125H36.5625V39.375Z" fill="#CA9457"/>
<path d="M36.5625 43.125V44.0625H40.3125H44.0625V43.125V42.1875H40.3125H36.5625V43.125Z" fill="#CA9457"/>
<path d="M32.8125 46.875V47.8125H38.4375H44.0625V46.875V45.9375H38.4375H32.8125V46.875Z" fill="#CA9457"/>
<path d="M34.8281 51.7148C34.6055 51.7851 34.2188 52.0781 33.9492 52.3593C33.6797 52.6523 33.3164 53.039 33.1406 53.2265C32.8477 53.5429 32.8125 53.6601 32.8125 54.4453C32.8125 55.3945 32.8359 55.4179 33.5273 55.1718C34.0547 54.996 34.3711 54.7382 34.9336 54.0351C35.2031 53.707 35.4961 53.4374 35.6133 53.4374C35.7188 53.4374 36.0938 53.7656 36.4336 54.1523C37.3594 55.1953 38.1797 55.5117 39.1523 55.1718C39.6797 54.996 39.9961 54.7382 40.5586 54.0351C40.8281 53.707 41.1328 53.4374 41.25 53.4374C41.3672 53.4374 41.6719 53.707 41.9414 54.0351C42.5039 54.7382 42.8203 54.996 43.3477 55.1718C44.0391 55.4179 44.0625 55.3945 44.0625 54.4453C44.0625 53.6601 44.0273 53.5429 43.7461 53.2265C43.5586 53.039 43.1953 52.6523 42.9375 52.3593C42.2461 51.621 41.4727 51.4101 40.5234 51.7031C40.1836 51.7968 39.8555 52.0664 39.3281 52.6406C38.9414 53.0742 38.5312 53.4374 38.4141 53.4374C38.3086 53.4374 38.0156 53.1679 37.7461 52.8398C37.1836 52.1367 36.8672 51.8789 36.3398 51.7031C35.8594 51.539 35.3555 51.539 34.8281 51.7148Z" fill="#CA9457"/>
</svg>
