<svg width="60" height="60" viewBox="0 0 60 60" fill="none" xmlns="http://www.w3.org/2000/svg">
<path d="M1.875 0.152344C1.30078 0.339844 0.316406 1.34766 0.140625 1.94531C0.0351562 2.32031 0 7.93359 0 26.4375V50.4492L0.28125 51.0352C0.609375 51.7383 1.05469 52.1719 1.75781 52.4883C2.26172 52.7109 2.50781 52.7344 6.48047 52.7344H10.6758L10.957 52.4414C11.3672 52.043 11.3555 51.4336 10.9453 51.1055C10.6406 50.8711 10.5 50.8594 6.53906 50.8594H2.44922L2.16797 50.5664L1.875 50.2852V26.3672V2.44922L2.16797 2.16797L2.44922 1.875H15.457H28.4648L28.5 5.17969C28.5352 8.42578 28.5469 8.50781 28.8281 9.08203C29.2148 9.87891 29.9883 10.5938 30.7734 10.8867C31.3594 11.1094 31.6758 11.1328 34.2773 11.1328H37.1484V13.1953V15.2578L37.5 15.6094C37.8047 15.9023 37.9219 15.9492 38.2383 15.8906C38.4492 15.8555 38.707 15.7031 38.8242 15.5625C39.0234 15.3281 39.0352 15.0703 39 12.375C38.9648 9.57422 38.9531 9.41016 38.707 9.02344C38.2148 8.25 30.9023 0.5625 30.4102 0.304688C29.9414 0.0585938 29.8594 0.0585938 16.1133 0.0351562C6.25781 0.0234375 2.16797 0.0585938 1.875 0.152344ZM33.2109 6.44531L35.7539 9.19922L33.6797 9.23438C31.4062 9.26953 31.1719 9.21094 30.6562 8.51953C30.4336 8.21484 30.4102 8.01562 30.375 5.76562C30.3398 3.64453 30.3633 3.36328 30.5156 3.51562C30.6094 3.60938 31.8164 4.93359 33.2109 6.44531Z" fill="#CA9457"/>
<path d="M41.9883 0.175808C41.8359 0.281277 41.6719 0.550808 41.6133 0.796902C41.3672 1.71096 40.7812 4.61721 40.7812 4.9219C40.7812 5.60159 41.7422 5.98831 42.293 5.53128C42.5273 5.34378 42.6445 4.94534 43.125 2.543L43.2656 1.86331L44.1562 1.89846L45.0469 1.93362L45.4102 3.59768C45.6562 4.793 45.832 5.33206 45.9961 5.49612C46.125 5.61331 46.6289 5.82425 47.1094 5.97659C47.5898 6.11721 48.4336 6.45706 48.9727 6.75003C49.5117 7.03128 50.0625 7.26565 50.2031 7.26565C50.332 7.26565 51.0938 6.84378 51.8906 6.32815C52.6875 5.81253 53.3789 5.39065 53.4258 5.39065C53.5312 5.39065 54.6094 6.4805 54.6094 6.58596C54.6094 6.63284 54.1875 7.31253 53.6719 8.09768C53.1562 8.89456 52.7344 9.64456 52.7344 9.7969C52.7344 9.93753 52.9688 10.4883 53.25 11.0274C53.543 11.5664 53.8828 12.4102 54.0234 12.8907C54.1758 13.3711 54.3867 13.875 54.5039 14.0039C54.668 14.168 55.207 14.3438 56.4023 14.5899L58.0664 14.9532L58.1016 15.8555C58.125 16.3477 58.0898 16.7578 58.043 16.7578C57.7148 16.7578 54.668 17.4844 54.5391 17.5899C54.4453 17.6602 54.2461 18.1524 54.082 18.6797C53.918 19.2071 53.5547 20.0977 53.2617 20.6602C52.9688 21.2227 52.7344 21.8086 52.7344 21.961C52.7344 22.6172 53.7539 23.0156 54.2695 22.5469C54.5625 22.2891 55.4297 20.5899 55.7109 19.7227L55.9102 19.125L56.6953 18.9492C57.1289 18.8555 57.9258 18.6797 58.4766 18.5625C60 18.2344 60 18.2344 60 15.9492C60 14.0391 59.918 13.5703 59.543 13.4063C59.4375 13.3594 58.5938 13.1602 57.668 12.961C56.5781 12.7266 55.9453 12.5391 55.8867 12.4219C55.8398 12.3282 55.6289 11.8242 55.4297 11.3086C55.2305 10.793 55.0078 10.2422 54.9375 10.0782C54.8203 9.80862 54.9141 9.62112 55.7812 8.27346C56.4492 7.25393 56.7539 6.668 56.7539 6.4219C56.7539 6.12893 56.5195 5.83596 55.3359 4.66409C54.1641 3.4805 53.8711 3.24612 53.5781 3.24612C53.332 3.24612 52.7461 3.55081 51.7148 4.21878C50.3789 5.08596 50.1797 5.168 49.9219 5.06253C49.7578 4.99221 49.125 4.7344 48.5156 4.47659L47.4023 4.01956L47.0859 2.50784C46.6406 0.43362 46.6641 0.503933 46.3828 0.234402C46.1484 0.0234642 45.9727 2.67029e-05 44.1797 2.67029e-05C42.6211 2.67029e-05 42.1875 0.035183 41.9883 0.175808Z" fill="#CA9457"/>
<path d="M43.5122 8.461C43.2426 8.74225 43.1723 9.17584 43.3129 9.55084C43.4301 9.83209 43.9926 10.0782 44.5668 10.0782C46.3481 10.0782 48.434 11.4727 49.3247 13.2657C50.0043 14.6251 50.0981 16.4063 49.559 17.9649C49.3129 18.7032 49.3012 18.7969 49.4653 19.0782C49.6762 19.4766 50.1684 19.6524 50.5903 19.5001C51.6801 19.1133 52.1723 15.5274 51.4106 13.3829C50.9887 12.1876 50.4614 11.3438 49.559 10.4415C48.1997 9.08209 46.5825 8.33209 44.7661 8.23834C43.8286 8.17975 43.7583 8.19146 43.5122 8.461Z" fill="#CA9457"/>
<path d="M5.42578 8.40234C5.09766 8.47266 4.6875 8.97656 4.6875 9.31641C4.6875 9.45703 4.79297 9.71484 4.93359 9.89062C5.15625 10.1719 5.25 10.1953 5.97656 10.1953C6.70312 10.1953 6.79688 10.1719 7.01953 9.89062C7.71094 9 6.75 8.10937 5.42578 8.40234Z" fill="#CA9457"/>
<path d="M10.582 8.40234C10.2539 8.46094 9.84375 8.97656 9.84375 9.31641C9.84375 9.45703 9.94922 9.71484 10.0898 9.89062L10.3242 10.1953H17.2852C23.7305 10.1953 24.2461 10.1836 24.4805 9.98438C24.8789 9.65625 24.9141 9.12891 24.5742 8.71875L24.2813 8.37891L17.5547 8.36719C13.8633 8.35547 10.7227 8.36719 10.582 8.40234Z" fill="#CA9457"/>
<path d="M4.97989 12.9492C4.59317 13.3359 4.60489 13.7695 5.02677 14.1914C5.30802 14.4727 5.47208 14.5312 5.91739 14.5312C6.51505 14.5312 7.07755 14.2969 7.19473 14.0039C7.33536 13.6172 7.25333 13.2305 6.97208 12.9492C6.7377 12.7031 6.57364 12.6562 5.97598 12.6562C5.37833 12.6562 5.21427 12.7031 4.97989 12.9492Z" fill="#CA9457"/>
<path d="M10.2071 12.8555C10.0782 12.9727 9.92583 13.2305 9.89067 13.4414C9.83208 13.7578 9.87895 13.875 10.1719 14.1797L10.5235 14.5312H17.3438H24.1641L24.5157 14.1797C24.8086 13.875 24.8555 13.7578 24.7969 13.4414C24.6446 12.6211 25.0079 12.6562 17.3438 12.6562C10.9571 12.6562 10.4415 12.668 10.2071 12.8555Z" fill="#CA9457"/>
<path d="M5.14509 17.0273C4.62946 17.4258 4.59431 18.2344 5.07478 18.5742C5.22712 18.6797 5.5904 18.75 6.01228 18.75C6.57478 18.75 6.73884 18.7031 6.97321 18.457C7.16071 18.2812 7.26618 18.0352 7.26618 17.8125C7.26618 17.5898 7.16071 17.3438 6.97321 17.168C6.73884 16.9219 6.57478 16.875 6.01228 16.875C5.63728 16.875 5.25056 16.9453 5.14509 17.0273Z" fill="#CA9457"/>
<path d="M10.3469 17.0156C10.0305 17.168 9.79612 17.707 9.90159 18.0469C9.94846 18.1758 10.0891 18.3984 10.2297 18.5156C10.4641 18.7383 10.6516 18.75 14.261 18.75H18.0578L18.3391 18.457C18.5266 18.2812 18.6321 18.0352 18.6321 17.8125C18.6321 17.5898 18.5266 17.3438 18.3391 17.168L18.0578 16.875L14.3313 16.8867C11.9758 16.8867 10.511 16.9336 10.3469 17.0156Z" fill="#CA9457"/>
<path d="M27.6094 18.0469C26.8711 18.3398 26.1797 18.9961 25.8281 19.7461C25.5586 20.3086 25.5469 20.4375 25.5469 22.9922V25.6523L20.8945 25.6875L16.2305 25.7227L15.5742 26.0273C14.5078 26.5312 13.6758 27.5156 13.3359 28.6523C13.2891 28.8516 13.2422 35.1797 13.2422 42.8555V56.7188L13.5 57.3867C13.6758 57.8789 13.9453 58.2656 14.4727 58.793C15.0938 59.4023 15.3164 59.543 16.0078 59.7539L16.8164 60L36.8555 59.9766L56.8945 59.9414L57.6797 59.5547C58.582 59.1094 59.2031 58.4766 59.6367 57.5508L59.9414 56.8945V42.832V28.7695L59.625 28.1016C59.2148 27.2109 58.4766 26.4375 57.668 26.0508L57.0117 25.7227L52.3594 25.6875L47.707 25.6523L47.6719 22.9336L47.6367 20.2148L47.2852 19.582C47.0977 19.2422 46.7344 18.7734 46.4766 18.5625C45.5859 17.8008 45.7266 17.8125 36.5156 17.8125C28.582 17.8242 28.1602 17.8359 27.6094 18.0469ZM45.375 20.1328L45.7617 20.5078V23.0625V25.6055H44.7656H43.7695L43.7344 23.6367L43.7109 21.6797H36.5625H29.4141V23.6719V25.6641H28.418H27.4219V23.2031C27.4219 21.2227 27.457 20.6602 27.5977 20.3906C27.9727 19.6641 27.6211 19.6875 36.7031 19.7227L45 19.7461L45.375 20.1328ZM41.8359 24.6094V25.6641L36.5977 25.6406L31.3477 25.6055L31.3125 24.5742L31.2773 23.5547H36.5625H41.8359V24.6094ZM56.9297 27.7852C57.2344 27.9375 57.5625 28.2305 57.75 28.5117L58.0664 28.9805L58.1016 32.4727C58.1367 35.7891 58.125 35.9883 57.9023 36.4336C57.6445 36.9258 57.2227 37.2773 56.5312 37.5703C56.2969 37.6758 52.957 38.3555 49.1133 39.0938C45.2695 39.8203 41.9883 40.4531 41.8125 40.5L41.4844 40.5703V38.8359C41.4844 37.3359 41.4492 37.043 41.25 36.6328C40.7695 35.6719 40.8398 35.6836 36.7383 35.6484C32.6719 35.6133 32.5547 35.6367 32.0273 36.4336C31.7695 36.8086 31.7578 36.9492 31.7578 38.6953C31.7578 40.418 31.7461 40.5586 31.5586 40.5C31.4414 40.4648 30.1875 40.2305 28.7695 39.9609C20.0273 38.3203 16.9102 37.6992 16.4531 37.4766C15.8906 37.2188 15.2695 36.5859 15.1758 36.1758C15.1406 36.0352 15.1172 34.3359 15.1406 32.3906L15.1758 28.8633L15.5039 28.4414C15.6797 28.1953 16.0312 27.9023 16.2656 27.7734C16.6875 27.5508 17.0977 27.5508 36.5508 27.5391H56.4141L56.9297 27.7852ZM39.5859 41.2734C39.5508 45.5859 39.5508 45.5742 38.5078 46.4883C36.9727 47.8359 34.6172 47.25 33.8086 45.3164C33.668 44.9648 33.6328 44.25 33.6328 41.1914V37.5H36.6328H39.6211L39.5859 41.2734ZM23.6602 40.8984C27.6328 41.6484 31.0664 42.3047 31.3125 42.3516L31.7344 42.4336L31.7812 43.9805C31.8164 45.4336 31.8398 45.5742 32.1914 46.2891C33.4102 48.7852 36.2812 49.793 38.7305 48.5859C40.5938 47.6719 41.4844 46.0312 41.4844 43.5703C41.4844 42.9375 41.5312 42.4219 41.5781 42.4219C41.7188 42.4219 54.3516 40.0078 55.7109 39.7148C56.3438 39.5859 57.1523 39.3516 57.4922 39.1992L58.125 38.918V47.6133C58.125 55.793 58.1016 56.332 57.9023 56.7773C57.6445 57.3516 57.0938 57.8438 56.5078 58.0078C56.2031 58.1016 50.1094 58.125 36.3164 58.1016L16.5703 58.0664L16.0781 57.7383C15.8086 57.5625 15.4805 57.2109 15.3516 56.9531C15.1172 56.5078 15.1172 56.2969 15.1172 47.707V38.918L15.7734 39.2227C16.2656 39.4453 18.2578 39.8672 23.6602 40.8984Z" fill="#CA9457"/>
<path d="M35.9185 43.4766C35.7896 43.6172 35.6958 43.8984 35.6958 44.1211C35.6958 44.6719 36.0239 45 36.563 45C37.395 45 37.8169 44.0508 37.231 43.5C36.8677 43.1602 36.2114 43.1602 35.9185 43.4766Z" fill="#CA9457"/>
</svg>
