<svg width="60" height="60" viewBox="0 0 60 60" fill="none" xmlns="http://www.w3.org/2000/svg">
<path d="M49.6055 0.164062C48.3633 0.5625 47.4023 1.44141 47.0039 2.50781L46.7812 3.10547L44.5781 3.16406C42.1289 3.23438 41.8594 3.30469 41.3438 4.00781L41.0742 4.39453L41.0391 10.3945L41.0039 16.4062H38.3789C36.082 16.4062 35.7422 16.3828 35.7422 16.2305C35.7422 15.8555 35.2617 15.1172 34.8984 14.9297C34.6992 14.8242 34.0898 14.6719 33.5391 14.5781C32.9883 14.4961 32.5078 14.3789 32.4609 14.332C32.4258 14.2734 32.2969 13.9219 32.1797 13.5352C32.0625 13.1484 31.7578 12.4219 31.5117 11.918C31.2539 11.4141 31.0547 10.957 31.0547 10.9219C31.0547 10.875 31.3125 10.4766 31.6406 10.0312C32.7773 8.47266 32.707 7.86328 31.1719 6.39844C29.8477 5.13281 29.2734 5.07422 27.9023 6.07031C27.4805 6.38672 27.0703 6.67969 27 6.71484C26.9297 6.76172 26.5547 6.62109 26.1797 6.42188C25.8047 6.22266 25.0195 5.88281 24.4453 5.68359L23.3789 5.32031L23.2383 4.32422C23.0859 3.17578 22.8398 2.66016 22.3242 2.34375C21.9961 2.14453 21.7383 2.10938 20.5078 2.10938C19.2773 2.10938 19.0195 2.14453 18.6914 2.34375C18.1758 2.66016 17.9297 3.17578 17.7773 4.32422L17.6367 5.32031L16.5703 5.68359C15.9961 5.88281 15.2109 6.22266 14.8359 6.42188C14.4609 6.62109 14.0859 6.76172 14.0156 6.71484C13.9453 6.67969 13.5352 6.38672 13.1133 6.07031C11.7422 5.07422 11.168 5.13281 9.84375 6.39844C8.3086 7.86328 8.23828 8.47266 9.375 10.0312C9.70313 10.4766 9.96094 10.875 9.96094 10.9102C9.96094 10.957 9.77344 11.3789 9.53906 11.8359C9.30469 12.293 8.98828 13.043 8.84766 13.5117L8.57813 14.3555L7.72266 14.5078C5.61328 14.8945 5.35547 15.1641 5.29688 17.0508C5.22656 19.2656 5.51953 19.6875 7.44141 20.0156L8.56641 20.2148L8.91797 21.2695C9.11719 21.8438 9.42188 22.6055 9.6211 22.957C9.8086 23.3086 9.96094 23.6484 9.96094 23.707C9.96094 23.7539 9.72656 24.1172 9.4336 24.5039C8.26172 26.0156 8.28516 26.543 9.58594 27.9141C10.6172 28.9922 10.9219 29.1797 11.6367 29.1797C12.1641 29.1797 12.293 29.1094 13.5352 28.2188L14.1094 27.7969L15 28.2422C15.4805 28.4766 16.2656 28.8047 16.7344 28.957C17.6719 29.2617 17.6133 29.168 17.8125 30.5273C18.0586 32.1328 18.6445 32.5781 20.5078 32.5781C22.3711 32.5781 22.957 32.1328 23.2031 30.5273C23.4023 29.168 23.3438 29.2617 24.2812 28.957C24.75 28.8047 25.5352 28.4766 26.0156 28.2422L26.9062 27.7969L27.4805 28.2188C28.7227 29.1094 28.8516 29.1797 29.3789 29.1797C30.082 29.1797 30.3867 28.9922 31.3594 27.9844C32.707 26.6016 32.7539 26.0391 31.6289 24.5625C31.3125 24.1406 31.0547 23.7539 31.0547 23.6953C31.0547 23.6367 31.207 23.3086 31.3945 22.957C31.5938 22.6055 31.8984 21.8438 32.0977 21.2695L32.4492 20.2148L33.5508 20.0273C34.1602 19.9219 34.7578 19.7695 34.8984 19.6992C35.2266 19.5234 35.6133 18.9609 35.6953 18.5273L35.7773 18.1641H38.3906H41.0039L41.0391 24.1758L41.0742 30.1992L41.4141 30.6328C41.9414 31.3359 42.2461 31.4062 44.6484 31.4062C46.5586 31.4062 46.7695 31.4297 46.8281 31.6172C47.168 32.7188 47.9883 33.7031 48.9727 34.1836C49.5469 34.4648 49.7695 34.5117 50.6836 34.5117C51.5742 34.5117 51.8438 34.4648 52.3945 34.207C53.2383 33.8086 53.9648 33.082 54.3633 32.2383C54.6211 31.6875 54.668 31.418 54.668 30.5859C54.668 29.6953 54.6211 29.4961 54.2813 28.8047C53.6016 27.4336 52.5 26.7188 50.918 26.625C49.7578 26.5664 48.9258 26.8477 48.1055 27.5625C47.5547 28.0547 46.875 29.0742 46.875 29.4375C46.875 29.625 46.6992 29.6484 44.8242 29.6484H42.7734V23.9062V18.1641L44.7773 18.1875L46.7812 18.2227L47.0156 18.832C47.4844 20.1094 48.9258 21.1641 50.3906 21.293C51.9609 21.4453 53.6133 20.4844 54.3398 19.0078C54.6328 18.4219 54.668 18.2109 54.6563 17.2852C54.6563 16.4297 54.6094 16.125 54.3867 15.6797C53.7656 14.4023 52.4883 13.4648 51.1289 13.3008C49.4414 13.0898 47.6367 14.2031 46.9805 15.8672L46.7812 16.3477L44.7773 16.3828L42.7734 16.4062L42.7969 10.6992L42.832 4.98047L44.7773 4.94531L46.7344 4.92188L47.0859 5.67188C48.5625 8.83594 52.875 8.8125 54.3633 5.63672C54.7734 4.75781 54.7969 3.28125 54.4102 2.4375C54.0586 1.67578 53.1797 0.761719 52.4414 0.398438C51.6797 0.0351562 50.3555 -0.0820312 49.6055 0.164062ZM51.6211 1.98047C53.8242 2.97656 53.0977 6.26953 50.6836 6.24609C50.0156 6.24609 49.5352 6.03516 49.0898 5.54297C48.6211 5.03906 48.5039 4.73438 48.5039 4.03125C48.5039 2.35547 50.1211 1.30078 51.6211 1.98047ZM21.5977 5.16797C21.7266 6.10547 21.8438 6.53906 21.9961 6.67969C22.1133 6.79688 22.6992 7.01953 23.2852 7.19531C24.2578 7.46484 24.9844 7.78125 26.4023 8.56641C26.6719 8.71875 26.9414 8.78906 27.1055 8.74219C27.2578 8.70703 27.8438 8.33203 28.4062 7.89844L29.4375 7.125L30.0117 7.6875C30.3281 8.00391 30.5859 8.29688 30.5859 8.35547C30.5859 8.42578 30.2461 8.94141 29.8242 9.52734C29.3906 10.125 29.0625 10.7109 29.0625 10.8633C29.0625 11.0156 29.2969 11.543 29.5898 12.0352C30.0703 12.8672 30.5039 13.9688 30.8203 15.2109C30.8906 15.4922 31.0547 15.7734 31.207 15.8672C31.4062 15.9961 33.4688 16.4062 33.9141 16.4062C33.9492 16.4062 33.9844 16.793 33.9844 17.2734C33.9844 18.2695 34.1133 18.1758 32.4258 18.4102C31.8516 18.4922 31.2773 18.6328 31.1602 18.7383C31.0195 18.8555 30.832 19.3008 30.6914 19.8516C30.4219 20.8828 29.9297 22.043 29.4141 22.8633C28.8984 23.6484 28.9453 23.8945 29.8242 25.0781C30.2461 25.6406 30.5859 26.1445 30.5859 26.2148C30.5859 26.2734 30.3281 26.5781 30.0117 26.8828L29.4375 27.457L28.3477 26.6602C27.668 26.1562 27.1406 25.8633 26.9648 25.8633C26.8008 25.8633 26.2383 26.0977 25.7227 26.4023C24.7969 26.9297 24.0352 27.2344 22.7227 27.5859C22.3594 27.6914 22.0078 27.8438 21.9258 27.9258C21.8555 28.0195 21.7031 28.6875 21.5859 29.4258L21.3867 30.7617H20.5078H19.6289L19.4297 29.4258C19.3125 28.6875 19.1602 28.0195 19.0898 27.9258C19.0078 27.8438 18.6563 27.6914 18.293 27.5859C16.9805 27.2344 16.2188 26.9297 15.293 26.4023C14.7773 26.0977 14.2148 25.8633 14.0508 25.8633C13.875 25.8633 13.3477 26.1562 12.668 26.6602L11.5781 27.457L11.0039 26.8828C10.6875 26.5781 10.4297 26.2734 10.4297 26.2148C10.4297 26.1445 10.7695 25.6406 11.1914 25.0781C11.6719 24.4336 11.9531 23.9414 11.9531 23.7539C11.9531 23.5781 11.8008 23.1797 11.6016 22.875C11.0508 21.9844 10.582 20.8711 10.3242 19.8516C10.1836 19.3008 9.9961 18.8555 9.85547 18.7383C9.73828 18.6328 9.16406 18.4922 8.58985 18.4102C6.90235 18.1758 7.03125 18.2695 7.03125 17.2734C7.03125 16.793 7.06641 16.4062 7.10156 16.4062C7.54688 16.4062 9.60938 15.9961 9.8086 15.8672C9.96094 15.7734 10.125 15.4922 10.1953 15.2109C10.5469 13.8633 10.8633 13.0195 11.3906 12.1172C11.6953 11.5781 11.9531 11.0039 11.9531 10.8516C11.9531 10.7109 11.6133 10.1133 11.1914 9.52734C10.7695 8.94141 10.4297 8.42578 10.4297 8.35547C10.4297 8.29688 10.6875 8.00391 11.0039 7.6875L11.5664 7.125L12.6094 7.89844C13.1836 8.33203 13.7695 8.70703 13.9102 8.74219C14.0742 8.78906 14.3555 8.71875 14.6133 8.56641C16.0313 7.78125 16.7578 7.46484 17.7305 7.19531C18.3164 7.01953 18.9023 6.79688 19.0195 6.67969C19.1719 6.53906 19.2891 6.10547 19.418 5.16797L19.6055 3.86719H20.5078H21.4102L21.5977 5.16797ZM51.7969 15.3398C53.0156 15.9609 53.3203 17.6836 52.4062 18.7734C51.0703 20.3555 48.5039 19.3828 48.5039 17.2969C48.5039 15.5625 50.2383 14.5312 51.7969 15.3398ZM51.75 28.5938C53.0508 29.2266 53.3438 30.9375 52.3477 32.0742C51.1641 33.4219 48.9258 32.8359 48.5391 31.0781C48.1172 29.2266 50.0156 27.7617 51.75 28.5938Z" fill="#CA9457"/>
<path d="M19.2773 10.7813C16.6758 11.3438 14.6367 13.3125 14.0625 15.8086C13.8633 16.6524 13.8984 18.1758 14.1211 19.0313C14.5664 20.6954 15.9726 22.4415 17.4726 23.168C19.1016 23.9649 21.1523 24.1172 22.6758 23.5547C23.543 23.2383 23.8008 22.9922 23.8125 22.5235C23.8359 21.7383 23.2734 21.4688 22.3008 21.8204C18.75 23.086 15.2695 20.3555 15.7148 16.6407C16.0195 13.9922 18.8437 11.9649 21.4336 12.5274C23.1914 12.9024 24.6328 14.2149 25.1484 15.9141C25.4297 16.8282 25.3711 18.1407 25.0078 19.0547C24.8437 19.4883 24.7031 19.9688 24.7031 20.1329C24.7031 20.4844 25.207 20.9766 25.5586 20.9766C26.4726 20.9766 27.3047 18.4922 27.0586 16.5118C26.8125 14.4844 25.6172 12.6329 23.918 11.625C22.6172 10.8633 20.5898 10.4883 19.2773 10.7813Z" fill="#CA9457"/>
<path d="M39.0118 34.7578C38.8478 34.793 36.0587 36.2109 32.8126 37.9102L26.9181 40.9922L26.4376 40.8281C23.004 39.6094 18.6915 39.4805 15.2579 40.4648C14.7306 40.6172 14.1915 40.8398 14.0626 40.957C13.5939 41.3789 13.9103 42.4219 14.5079 42.4219C14.6134 42.4219 15.34 42.2578 16.1134 42.0703C19.2189 41.2734 22.465 41.4141 25.7931 42.4922L27.0353 42.8906H33.0939C38.2853 42.8906 39.1993 42.9141 39.4923 43.0664C40.3946 43.5352 40.4298 45.0586 39.5509 45.6328C39.3165 45.7852 37.4532 46.0664 31.8985 46.7578C23.1446 47.8711 23.7423 47.7773 23.4845 48.0586C23.215 48.3633 23.2267 48.9375 23.5196 49.2305C23.7306 49.4414 24.2696 49.5352 27.5509 49.9453C30.9025 50.3672 31.6407 50.4258 33.8673 50.4258C36.6798 50.4258 38.5548 50.2031 41.0157 49.582C44.1564 48.7734 45.7032 48.082 51.4337 44.8945C53.9064 43.5234 56.086 42.3516 56.2853 42.293C57.7735 41.8711 58.8751 43.9102 57.7384 44.9766C57.5978 45.1055 55.6642 46.207 53.4376 47.4023C48.2696 50.2031 48.5157 50.0391 48.5157 50.6133C48.5157 50.9766 48.586 51.1289 48.8204 51.3164C48.9962 51.457 49.2189 51.5625 49.3243 51.5625C49.4181 51.5625 51.5509 50.4492 54.0587 49.0781C57.961 46.9453 58.6876 46.5234 59.1329 46.0195C60.2814 44.7422 60.2814 42.9141 59.1212 41.625C58.2892 40.6992 57.0353 40.3125 55.7696 40.582L55.3595 40.6641L55.2071 40.0664C54.9728 39.1758 54.0939 38.2969 53.1681 38.0273C52.2071 37.7461 51.6329 37.8633 50.1446 38.625C49.465 38.9766 48.879 39.2578 48.8439 39.2578C48.8087 39.2578 48.7501 39.0586 48.7032 38.8008C48.5978 38.1094 47.965 37.2891 47.2267 36.8789C46.711 36.5742 46.465 36.5156 45.8087 36.5156C45.0821 36.5039 44.9298 36.5508 43.9454 37.0664C43.3478 37.3711 42.8556 37.6172 42.8439 37.5938C42.8321 37.5703 42.7501 37.3359 42.6798 37.0664C42.2228 35.4844 40.629 34.4766 39.0118 34.7578ZM40.2423 36.6211C40.6876 36.832 41.0157 37.3477 41.0157 37.8281C41.0157 38.5078 40.6056 38.8711 38.461 40.0312L36.4337 41.1328H33.5392C31.7345 41.1328 30.7032 41.0859 30.7735 41.0273C30.8673 40.9219 38.9064 36.668 39.2696 36.5273C39.5626 36.4102 39.8556 36.4453 40.2423 36.6211ZM46.6759 38.6719C47.0743 39.1172 47.1095 39.7852 46.7579 40.2305C46.629 40.3945 45.4571 41.0859 44.1564 41.7773L41.7892 43.0312L41.6017 42.7617C41.2501 42.2227 40.7931 41.7656 40.3829 41.543C40.1485 41.4141 39.961 41.2852 39.961 41.25C39.961 41.1914 40.9103 40.6758 44.2267 38.9297C45.8087 38.0859 46.1017 38.0508 46.6759 38.6719ZM52.8517 39.7852C53.3087 40.0195 53.5548 40.4062 53.5548 40.875C53.5548 41.6602 53.3556 41.8125 49.7579 43.8047C45.5743 46.125 44.5431 46.6172 42.34 47.3438C39.1407 48.3867 35.2735 48.9258 32.6251 48.6914L31.5821 48.5977L35.5079 48.0938C37.6642 47.8125 39.6681 47.4961 39.961 47.3906C40.6642 47.1328 41.5314 46.2305 41.7892 45.4805L42.0001 44.8945L45.6329 42.9844C51.715 39.7852 52.0548 39.6094 52.2892 39.6094C52.4064 39.6094 52.6642 39.6914 52.8517 39.7852Z" fill="#CA9457"/>
<path d="M10.3477 42.5391C9.33984 43.0898 8.37891 43.6875 7.53516 44.3086L6.92578 44.7656H3.75H0.574219L0.292969 45.0586L0 45.3398V51.4219C0 57.3984 0 57.5156 0.246094 57.8203L0.480469 58.125H3.66797C6.70312 58.125 7.37109 58.1719 17.332 59.0625C23.0977 59.5781 28.1719 60 28.6055 60C29.7891 60 31.8867 59.6953 33.3516 59.3086C36.3633 58.5117 39.3047 57.1758 44.8594 54.1055C46.793 53.0391 47.1094 52.7812 47.1094 52.2891C47.1094 51.9492 46.6172 51.4453 46.2891 51.4453C46.1484 51.4453 44.9531 52.043 43.6172 52.7812C37.8516 55.9453 34.8281 57.2461 31.6406 57.8906C29.5547 58.3125 28.5469 58.3125 23.3789 57.8438C20.8008 57.6094 16.9219 57.2578 14.7656 57.0703C12.6094 56.8711 9.99609 56.6367 8.97656 56.543C7.94531 56.4492 5.90625 56.3672 4.42969 56.3672H1.75781V51.4453V46.5234H4.58203C6.50391 46.5234 7.47656 46.4766 7.65234 46.3828C7.79297 46.3125 8.28516 45.9727 8.73047 45.6445C9.1875 45.3047 10.125 44.6953 10.8164 44.2969C12.082 43.5586 12.3047 43.3477 12.3047 42.8906C12.3047 42.5625 11.8008 42.0703 11.4609 42.0703C11.3086 42.0703 10.8164 42.2812 10.3477 42.5391Z" fill="#CA9457"/>
</svg>
