<svg width="30" height="24" viewBox="0 0 30 24" fill="none" xmlns="http://www.w3.org/2000/svg">
<path d="M7.44122 2.55856C2.01258 4.53478 0.400398 5.14647 0.271424 5.26999C0.0662376 5.46996 -0.0392868 5.79345 0.0134754 6.08753C0.101412 6.54042 0.201074 6.58747 3.05023 7.64028L5.67662 8.61075V11.528C5.67662 13.1337 5.69421 14.5335 5.71766 14.6394C5.77042 14.91 6.40943 15.5746 6.98981 15.9569C8.92443 17.2391 11.586 17.8214 15.1152 17.739C17.683 17.6802 19.5472 17.3038 21.1887 16.5215C22.0915 16.098 22.9475 15.4805 23.3109 15.0041L23.4692 14.7982L23.4985 11.7398L23.5278 8.68132L24.5538 8.31078C25.1166 8.10493 25.5973 7.93436 25.6266 7.93436C25.65 7.93436 25.6676 9.58121 25.6676 11.5927V15.2511L24.4131 16.5215C22.6367 18.3095 22.6367 18.1448 24.4072 19.9329L25.6618 21.1974L25.6794 22.3267C25.6969 23.3618 25.7087 23.4677 25.8201 23.6206C26.1953 24.1265 26.8988 24.1265 27.274 23.6206C27.3853 23.4677 27.3971 23.3677 27.4147 22.3267L27.4322 21.1974L28.6223 19.9917C29.2789 19.3271 29.8593 18.7036 29.9121 18.5977C30.0293 18.3566 30.0293 18.0978 29.9121 17.8566C29.8593 17.7508 29.2789 17.1273 28.6223 16.4627L27.4264 15.257L27.4381 11.2575L27.4557 7.26385L28.2471 6.96389C29.2496 6.59335 29.2906 6.56982 29.4313 6.24634C29.5838 5.89932 29.531 5.58171 29.2789 5.31116C29.1148 5.12883 28.464 4.8818 22.0505 2.55268C16.2115 0.435297 14.9569 -0.00582504 14.7224 5.72205e-05C14.5114 0.00593758 12.7585 0.617626 7.44122 2.55856ZM20.3914 3.82899C23.4399 4.93473 25.949 5.85227 25.9725 5.86991C25.9959 5.88756 23.4399 6.8345 20.2918 7.97553L14.5758 10.04L9.01236 7.97553C5.13727 6.53453 3.47819 5.89344 3.54854 5.86403C3.99409 5.66994 14.6403 1.82336 14.7341 1.82336C14.7986 1.81748 17.3429 2.72325 20.3914 3.82899ZM10.9059 10.5634C13.6027 11.5751 14.3765 11.8398 14.5876 11.8339C14.7752 11.8339 15.8656 11.4633 18.2692 10.587C20.1511 9.9047 21.7046 9.34595 21.7163 9.34595C21.7281 9.34595 21.7398 10.4164 21.7398 11.7221V14.1042L21.5346 14.2747C20.5145 15.1158 18.4978 15.7393 16.1763 15.9392C15.168 16.0216 13.0868 15.9804 12.184 15.851C10.2259 15.5746 8.59027 15.0217 7.73435 14.3394L7.43536 14.1101V11.6986C7.43536 10.3693 7.44709 9.28713 7.45881 9.28713C7.47054 9.28713 9.02409 9.86353 10.9059 10.5634ZM27.2212 17.5802L27.8661 18.2272L27.2036 18.8918L26.547 19.5506L25.8904 18.8918L25.228 18.2272L25.8728 17.5802C26.2246 17.2273 26.5294 16.9332 26.547 16.9332C26.5646 16.9332 26.8694 17.2273 27.2212 17.5802Z" fill="#CA9457"/>
</svg>
