<svg width="138" height="25" viewBox="0 0 138 25" fill="none" xmlns="http://www.w3.org/2000/svg">
<path d="M41.1487 22C39.4012 22 37.9196 21.6533 36.704 20.96C35.4883 20.2489 34.5671 19.2533 33.9402 17.9733C33.3134 16.6933 33 15.2 33 13.4933V11.8133C33 10.1067 33.2754 8.62222 33.8263 7.36C34.3961 6.08 35.2414 5.09333 36.3621 4.4C37.4827 3.68889 38.8884 3.33333 40.5789 3.33333C42.0225 3.33333 43.2286 3.6 44.1974 4.13333C45.1661 4.64889 45.8784 5.34222 46.3343 6.21333C46.8091 7.06667 47.0086 8 46.9326 9.01333L43.599 9.78667C43.789 8.00889 43.5895 6.64889 43.0007 5.70667C42.4309 4.74667 41.5761 4.26667 40.4364 4.26667C39.2208 4.26667 38.2805 4.74667 37.6157 5.70667C36.9699 6.66667 36.647 8.25778 36.647 10.48V14.8267C36.647 17.0311 37.0174 18.6222 37.7582 19.6C38.499 20.5778 39.6291 21.0667 41.1487 21.0667C41.7755 21.0667 42.3549 20.96 42.8867 20.7467C43.4376 20.5333 43.8935 20.1689 44.2543 19.6533C44.6342 19.12 44.8717 18.3733 44.9667 17.4133L47.0181 17.92C46.7522 18.9156 46.3248 19.7156 45.7359 20.32C45.1471 20.9244 44.4538 21.36 43.656 21.6267C42.8772 21.8756 42.0415 22 41.1487 22Z" fill="white"/>
<path d="M62.6511 14.6933V15.2267C62.6511 17.2711 62.0812 18.9156 60.9415 20.16C59.8209 21.3867 58.2158 22 56.1264 22C54.037 22 52.4224 21.3867 51.2828 20.16C50.1621 18.9156 49.6017 17.2711 49.6017 15.2267V14.6933C49.6017 12.6489 50.1621 11.0133 51.2828 9.78667C52.4224 8.56 54.037 7.94667 56.1264 7.94667C58.2158 7.94667 59.8209 8.56 60.9415 9.78667C62.0812 11.0133 62.6511 12.6489 62.6511 14.6933ZM59.1466 14.16C59.1466 12.2578 58.8901 10.9067 58.3773 10.1067C57.8644 9.28889 57.1141 8.88 56.1264 8.88C55.1577 8.88 54.4074 9.28889 53.8755 10.1067C53.3627 10.9067 53.1062 12.2578 53.1062 14.16V15.76C53.1062 17.6444 53.3627 19.0044 53.8755 19.84C54.4074 20.6578 55.1577 21.0667 56.1264 21.0667C57.1141 21.0667 57.8644 20.6578 58.3773 19.84C58.8901 19.0044 59.1466 17.6444 59.1466 15.76V14.16Z" fill="white"/>
<path d="M64.7744 8.96V8.21333H70.0739V10.4C71.2326 8.76444 72.6097 7.94667 74.2052 7.94667C74.7941 7.94667 75.3639 8.12444 75.9148 8.48C76.4656 8.81778 76.9215 9.45778 77.2824 10.4L74.7466 11.68C74.4807 10.9511 74.1673 10.4622 73.8064 10.2133C73.4645 9.94667 73.0941 9.81333 72.6952 9.81333C72.2773 9.81333 71.8689 9.93778 71.47 10.1867C71.0711 10.4356 70.6627 10.8978 70.2449 11.5733V19.4933C70.2449 20.0978 70.2733 20.4622 70.3303 20.5867C70.3873 20.6933 70.5678 20.7644 70.8717 20.8L73.0086 20.9867V21.7333H64.7744V20.9867L66.3415 20.8C66.6454 20.7644 66.8258 20.6933 66.8828 20.5867C66.9398 20.4622 66.9683 20.0978 66.9683 19.4933V10.4533C66.9683 9.84889 66.9398 9.49333 66.8828 9.38667C66.8258 9.26222 66.6454 9.18222 66.3415 9.14667L64.7744 8.96Z" fill="white"/>
<path d="M90.3678 18.56C90.0259 19.8044 89.3896 20.6933 88.4588 21.2267C87.5281 21.7422 86.4454 22 85.2107 22C82.9314 22 81.2219 21.3867 80.0822 20.16C78.9425 18.9156 78.3727 17.2711 78.3727 15.2267V14.6933C78.3727 12.6489 78.9045 11.0133 79.9682 9.78667C81.0509 8.56 82.6085 7.94667 84.6409 7.94667C85.7806 7.94667 86.7873 8.16 87.661 8.58667C88.5538 8.99555 89.2471 9.59111 89.741 10.3733C90.2538 11.1556 90.5103 12.1067 90.5103 13.2267C90.5103 13.4933 90.4913 13.7778 90.4533 14.08C90.4343 14.3822 90.3868 14.6844 90.3108 14.9867H81.8772V15.76C81.8772 17.6444 82.1621 19.0044 82.7319 19.84C83.3018 20.6578 84.223 21.0667 85.4957 21.0667C86.3124 21.0667 87.0057 20.8444 87.5756 20.4C88.1454 19.9378 88.4683 19.1644 88.5443 18.08L90.3678 18.56ZM84.6409 8.88C83.7102 8.88 83.0169 9.28 82.561 10.08C82.1051 10.88 81.8772 12.2044 81.8772 14.0533H87.0342C87.1102 13.6978 87.1577 13.3689 87.1767 13.0667C87.2147 12.7467 87.2337 12.4533 87.2337 12.1867C87.2337 11.0489 86.9962 10.2133 86.5214 9.68C86.0465 9.14667 85.4197 8.88 84.6409 8.88Z" fill="white"/>
<path d="M92.3992 2.74667V2H97.8697V19.4933C97.8697 20.0978 97.8981 20.4622 97.9551 20.5867C98.0121 20.6933 98.1926 20.7644 98.4965 20.8L100.064 20.9867V21.7333H92.3992V20.9867L93.9662 20.8C94.2702 20.7644 94.4506 20.6933 94.5076 20.5867C94.5646 20.4622 94.5931 20.0978 94.5931 19.4933V4.24C94.5931 3.63555 94.5646 3.28 94.5076 3.17333C94.4506 3.04889 94.2702 2.96889 93.9662 2.93333L92.3992 2.74667Z" fill="white"/>
<path d="M115.699 21.0667C115.396 21.3333 115.025 21.5556 114.588 21.7333C114.17 21.9111 113.658 22 113.05 22C112.271 22 111.616 21.84 111.084 21.52C110.571 21.2 110.229 20.7467 110.058 20.16C109.431 20.8 108.738 21.2711 107.978 21.5733C107.237 21.8578 106.478 22 105.699 22C104.388 22 103.41 21.6622 102.764 20.9867C102.118 20.2933 101.795 19.4311 101.795 18.4C101.795 17.3511 102.204 16.5067 103.02 15.8667C103.837 15.2089 105.281 14.88 107.351 14.88H109.944V12.72C109.944 11.2444 109.735 10.24 109.317 9.70667C108.918 9.15556 108.358 8.88 107.636 8.88C107.161 8.88 106.724 8.99556 106.326 9.22667C105.927 9.44 105.642 9.84889 105.471 10.4533C105.319 11.04 105.347 11.8933 105.556 13.0133L102.422 12.5867C102.27 11.7689 102.365 11.0133 102.707 10.32C103.068 9.60889 103.666 9.04 104.502 8.61333C105.338 8.16889 106.402 7.94667 107.693 7.94667C109.156 7.94667 110.286 8.16889 111.084 8.61333C111.882 9.05778 112.432 9.64444 112.736 10.3733C113.059 11.1022 113.221 11.8844 113.221 12.72V18.88C113.221 19.7867 113.306 20.3556 113.477 20.5867C113.648 20.8178 113.838 20.9333 114.047 20.9333C114.389 20.9333 114.769 20.7467 115.187 20.3733L115.699 21.0667ZM106.952 20.5867C107.446 20.5867 107.931 20.4711 108.405 20.24C108.899 19.9911 109.412 19.5378 109.944 18.88V15.8133H107.807C106.876 15.8133 106.202 16.0178 105.784 16.4267C105.366 16.8356 105.157 17.4756 105.157 18.3467C105.157 19.0578 105.309 19.6089 105.613 20C105.917 20.3911 106.364 20.5867 106.952 20.5867Z" fill="white"/>
<path d="M135.493 10.4533L132.387 21.7333H129.794L126.375 11.0133L122.928 21.7333H120.563L117.486 10.4533C117.372 10.0444 117.277 9.76 117.201 9.6C117.144 9.42222 117.068 9.30667 116.973 9.25333C116.878 9.2 116.735 9.16444 116.546 9.14667L114.978 8.96V8.21333H122.557V8.96L120.99 9.14667C120.686 9.18222 120.515 9.26222 120.477 9.38667C120.439 9.49333 120.506 9.84889 120.677 10.4533L122.899 18.48L126.176 8.21333H128.683L132.074 18.9333L134.382 10.4533C134.552 9.84889 134.619 9.49333 134.581 9.38667C134.543 9.26222 134.372 9.18222 134.068 9.14667L132.501 8.96V8.21333H138V8.96L136.433 9.14667C136.243 9.16444 136.101 9.2 136.006 9.25333C135.911 9.30667 135.825 9.42222 135.749 9.6C135.692 9.76 135.607 10.0444 135.493 10.4533Z" fill="white"/>
<path d="M5.06517 12.4421C5.06517 8.46499 8.35927 5.23698 12.4248 5.23698C16.4903 5.23698 19.7844 8.46499 19.7844 12.4421C19.7844 16.426 16.4903 19.6541 12.4248 19.6541C8.35927 19.6541 5.06517 16.4192 5.06517 12.4421ZM12.5916 3.07816C12.4456 2.4993 10.3538 0.694609 8.6581 0.864863C6.9624 1.02831 5.31535 2.06345 5.04432 2.64912C5.44739 3.04411 7.11529 3.14626 8.55385 3.18712C10.0758 3.22117 12.0217 3.3029 12.5916 3.07816ZM7.97704 4.42657C7.55312 3.99072 4.82193 3.45953 3.43897 4.43338C2.056 5.40723 1.15951 7.10977 1.2151 7.74992C1.76412 7.89293 3.25828 7.17106 4.53005 6.49685C5.87827 5.7886 7.60176 4.90328 7.97704 4.42657ZM4.44666 7.9338C3.86289 7.77035 1.22205 8.64205 0.520145 10.1675C-0.181762 11.6862 -0.0844682 13.5998 0.290809 14.1242C0.839825 13.9812 1.76412 12.6192 2.52162 11.4138C3.31387 10.1403 4.36326 8.53309 4.44666 7.9338ZM3.07759 12.7213C2.48687 12.8712 0.645237 14.921 0.818977 16.5759C0.985767 18.2375 2.0421 19.8516 2.63977 20.1171C3.04284 19.7222 3.14708 18.0877 3.18878 16.678C3.23048 15.1866 3.31387 13.2866 3.07759 12.7213ZM4.43276 17.1752C3.99493 17.5906 3.44592 20.267 4.43971 21.6222C5.4335 22.9774 7.17089 23.8559 7.82415 23.8014C7.97009 23.2634 7.22649 21.7924 6.54543 20.553C5.82267 19.2386 4.91923 17.5429 4.43276 17.1752ZM7.75465 20.6415C7.58786 21.2136 8.47741 23.8014 10.0272 24.4893C11.5769 25.1771 13.5298 25.0817 14.0649 24.7208C13.9189 24.1828 12.529 23.2702 11.2989 22.5347C10.0063 21.7516 8.36622 20.7233 7.75465 20.6415ZM12.39 21.8129C12.536 22.3917 14.6347 24.1964 16.3235 24.0262C18.0122 23.8627 19.6662 22.8276 19.9373 22.2419C19.5342 21.8469 17.8663 21.7448 16.4277 21.7039C14.9058 21.6631 12.9668 21.5881 12.39 21.8129ZM17.1018 20.4849C17.5258 20.9139 20.2569 21.4519 21.6399 20.4781C23.0229 19.5042 23.9194 17.8017 23.8638 17.1615C23.3148 17.0185 21.8136 17.7404 20.5488 18.4146C19.2076 19.1297 17.4841 20.0082 17.1018 20.4849ZM20.5558 16.9845C21.1395 17.1479 23.7804 16.2762 24.4823 14.7576C25.1772 13.2389 25.0869 11.3184 24.7116 10.8009C24.1626 10.9439 23.2383 12.3059 22.4808 13.5113C21.6816 14.778 20.6392 16.3852 20.5558 16.9845ZM21.8345 12.5238C22.4252 12.374 24.2668 10.331 24.1001 8.66929C23.9333 7.01443 22.8769 5.39361 22.2793 5.12802C21.8762 5.523 21.7719 7.15744 21.7303 8.56714C21.6886 10.0586 21.6052 11.9586 21.8345 12.5238ZM20.5697 7.81802C21.0075 7.4026 21.5565 4.72622 20.5627 3.371C19.5689 2.01578 17.8315 1.13727 17.1783 1.19175C17.0323 1.72975 17.7759 3.20074 18.457 4.44019C19.1798 5.75455 20.0763 7.45028 20.5697 7.81802ZM17.074 4.35166C17.2408 3.77961 16.3513 1.19175 14.8015 0.510735C13.2518 -0.17709 11.292 -0.0817478 10.7569 0.27919C10.9098 0.817192 12.2997 1.72975 13.5298 2.46525C14.8224 3.24841 16.4625 4.26994 17.074 4.35166Z" fill="#DEA057"/>
</svg>
