<svg width="37" height="37" viewBox="0 0 37 37" fill="none" xmlns="http://www.w3.org/2000/svg">
<path d="M9.23555 6.66289C3.64219 10.4135 0.122852 12.8199 0.0794922 12.9211C0.0361328 13.015 0 13.1451 0 13.2102C0 13.333 1.26465 15.2842 1.53926 15.5949C1.67656 15.7395 1.75605 15.7539 2.39922 15.7539C2.78945 15.7539 3.10742 15.7684 3.10742 15.7828C3.10742 15.7973 2.92676 17.3582 2.70996 19.2516L2.3125 22.6842V24.9244C2.3125 26.9045 2.29805 27.1719 2.2041 27.1719C2.13906 27.1719 2.00898 27.2514 1.91504 27.3525C1.7416 27.5188 1.73438 27.5621 1.73438 28.5088C1.73438 29.3398 1.71992 29.4844 1.62598 29.4844C1.56094 29.4844 1.43086 29.5639 1.33691 29.665C1.16348 29.8312 1.15625 29.8746 1.15625 30.8791V31.927L0.939453 32.0137C0.635938 32.1365 0.187891 32.6641 0.0867188 33.0109C0.0361328 33.1844 0 33.8275 0 34.6803C0 36.0533 0 36.0678 0.180664 36.2412L0.354102 36.4219H18.5H36.6459L36.8193 36.2412C37 36.0678 37 36.0533 37 34.6803C37 33.8275 36.9639 33.1844 36.9133 33.0109C36.8121 32.6641 36.3641 32.1365 36.0605 32.0137L35.8438 31.927V30.8791C35.8438 29.8746 35.8365 29.8312 35.6631 29.665C35.5691 29.5639 35.4391 29.4844 35.374 29.4844C35.2801 29.4844 35.2656 29.3398 35.2656 28.5088C35.2656 27.5621 35.2584 27.5188 35.085 27.3525C34.991 27.2514 34.8609 27.1719 34.7959 27.1719C34.702 27.1719 34.6875 26.9045 34.6875 24.9244V22.6842L34.29 19.2516C34.0732 17.3582 33.8926 15.7973 33.8926 15.7828C33.8926 15.7684 34.2105 15.7539 34.6008 15.7539C35.2439 15.7539 35.3234 15.7395 35.4607 15.5877C35.7354 15.2842 37 13.333 37 13.2102C37 13.1451 36.9639 13.015 36.9205 12.9211C36.8121 12.6898 18.8252 0.628712 18.5361 0.599804C18.3482 0.578125 16.9752 1.47422 9.23555 6.66289ZM26.9768 7.52285C31.5512 10.5941 35.374 13.1596 35.4607 13.2246L35.6197 13.3475L35.2584 13.8678C35.0561 14.1496 34.8682 14.3664 34.8393 14.352C34.8104 14.3303 31.1609 11.8588 26.7311 8.85254C19.8152 4.15527 18.6518 3.38926 18.4639 3.41094C18.3193 3.43262 15.4938 5.31152 10.2617 8.85977C5.86797 11.8371 2.24023 14.3014 2.18965 14.3303C2.13906 14.3664 1.97285 14.193 1.7416 13.8678L1.37305 13.3475L1.71992 13.109C3.98184 11.5336 18.4855 1.88613 18.5578 1.91504C18.6084 1.92949 22.3951 4.45879 26.9768 7.52285ZM25.8711 9.66914L33.0832 14.5615L25.7916 14.5832C21.7809 14.5904 15.2191 14.5904 11.2084 14.5832L3.92402 14.5615L11.1939 9.62578C15.1902 6.91582 18.5072 4.71172 18.5578 4.7334C18.6156 4.75508 21.9037 6.97363 25.8711 9.66914ZM6.14258 15.8189C6.14258 15.8551 6.32324 17.4305 6.54004 19.3238L6.9375 22.7564V24.9605V27.1719H5.20312H3.46875V24.9461V22.7203L3.86621 19.2949C4.08301 17.4088 4.26367 15.8406 4.26367 15.8117C4.26367 15.7828 4.69004 15.7539 5.20312 15.7539C5.72344 15.7539 6.14258 15.7828 6.14258 15.8189ZM11.9455 15.8045C11.96 15.8406 11.801 17.3221 11.5914 19.1143L11.2084 22.3662L11.2012 24.7654C11.2012 26.7527 11.1867 27.1719 11.1 27.1719C11.0494 27.1719 10.9193 27.2369 10.8109 27.3236C10.623 27.4682 10.623 27.4754 10.623 28.4799V29.4844H9.64746H8.67188V28.5088C8.67188 27.5621 8.66465 27.5188 8.49121 27.3525C8.39727 27.2514 8.26719 27.1719 8.20215 27.1719C8.1082 27.1719 8.09375 26.9045 8.09375 24.9244V22.6842L7.69629 19.2516C7.47949 17.3582 7.29883 15.7973 7.29883 15.7828C7.29883 15.7322 11.9166 15.7539 11.9455 15.8045ZM14.9951 15.8406C15.0096 15.8912 15.2047 17.51 15.4215 19.4395C15.8262 22.9154 15.8262 22.9588 15.8262 25.0545V27.1719H14.0918H12.3574V24.8521C12.3574 22.5469 12.3574 22.5324 12.7188 19.3816C12.9139 17.6473 13.0945 16.1152 13.1162 15.9852L13.1596 15.7539H14.0629C14.7205 15.7539 14.9734 15.7756 14.9951 15.8406ZM20.8125 15.884C20.8125 15.9562 20.6318 17.5533 20.415 19.4395C20.0176 22.8504 20.0176 22.8721 20.0176 25.0111C20.0176 27.0924 20.0104 27.1646 19.873 27.208C19.7936 27.2297 19.6635 27.3381 19.584 27.4393C19.4539 27.6055 19.4395 27.7283 19.4395 28.5521V29.4844H18.5H17.5605V28.6244C17.5605 27.6416 17.5027 27.432 17.1992 27.2586L16.9824 27.1357V25.0184C16.9824 22.9154 16.9824 22.8721 16.585 19.4684C16.3682 17.575 16.1875 15.9707 16.1875 15.8912C16.1875 15.7611 16.267 15.7539 18.5 15.7539C20.6752 15.7539 20.8125 15.7611 20.8125 15.884ZM23.8838 15.9852C23.9055 16.1152 24.0861 17.6473 24.2812 19.3816C24.6426 22.5324 24.6426 22.5469 24.6426 24.8521V27.1719H22.9082H21.1738V25.0545C21.1738 22.9588 21.1738 22.9154 21.5785 19.4395C21.7953 17.51 21.9904 15.8912 22.0049 15.8406C22.0266 15.7756 22.2795 15.7539 22.9371 15.7539H23.8404L23.8838 15.9852ZM29.7012 15.7828C29.7012 15.7973 29.5205 17.3582 29.3037 19.2516L28.9062 22.6842V24.9244C28.9062 26.9045 28.8918 27.1719 28.7979 27.1719C28.7328 27.1719 28.6027 27.2514 28.5088 27.3525C28.3354 27.5188 28.3281 27.5621 28.3281 28.5088V29.4844H27.3525H26.377V28.5088C26.377 27.5621 26.3697 27.5188 26.1963 27.3525C26.1023 27.2514 25.9723 27.1719 25.9072 27.1719C25.8133 27.1719 25.7988 26.89 25.7988 24.7654L25.7916 22.3662L25.4086 19.1143C25.199 17.3221 25.04 15.8406 25.0545 15.8045C25.0834 15.7539 29.7012 15.7322 29.7012 15.7828ZM32.7363 15.8189C32.7363 15.8551 32.917 17.4305 33.1338 19.3238L33.5312 22.7564V24.9605V27.1719H31.7969H30.0625V24.9461V22.7203L30.46 19.2949C30.6768 17.4088 30.8574 15.8406 30.8574 15.8117C30.8574 15.7828 31.2838 15.7539 31.7969 15.7539C32.3172 15.7539 32.7363 15.7828 32.7363 15.8189ZM7.51562 28.9062V29.4844H5.20312H2.89062V28.9062V28.3281H5.20312H7.51562V28.9062ZM16.4043 28.9062V29.4844H14.0918H11.7793V28.9062V28.3281H14.0918H16.4043V28.9062ZM25.2207 28.9062V29.4844H22.9082H20.5957V28.9062V28.3281H22.9082H25.2207V28.9062ZM34.1094 28.9062V29.4844H31.7969H29.4844V28.9062V28.3281H31.7969H34.1094V28.9062ZM34.6875 31.2188V31.7969H18.5H2.3125V31.2188V30.6406H18.5H34.6875V31.2188ZM35.6631 33.1338C35.8365 33.3 35.8438 33.3434 35.8438 34.29V35.2656H18.5H1.15625V34.29C1.15625 33.3434 1.16348 33.3 1.33691 33.1338L1.51035 32.9531H18.5H35.4897L35.6631 33.1338Z" fill="#202020"/>
<path d="M18.312 6.57617C18.0591 6.67734 17.9218 6.9375 17.9218 7.31328V7.65293L16.6499 7.67461L15.3781 7.69629L15.2046 7.89863C15.0384 8.09375 15.0312 8.15156 15.0312 9.02598V9.9582L14.6193 9.98711C14.2869 10.016 14.1785 10.0594 14.0412 10.2184C13.8388 10.4641 13.8316 10.6881 14.0267 10.941L14.1712 11.1289H15.6093H17.0474L17.1919 10.941C17.387 10.6881 17.3798 10.4641 17.1775 10.2184C17.0402 10.0594 16.9318 10.016 16.5994 9.98711L16.1874 9.9582V9.3873V8.81641H17.0546H17.9218V10.5436V12.2707L16.939 12.2996C15.9634 12.3213 15.9562 12.3213 15.7828 12.5236C15.5732 12.7693 15.5587 13.0006 15.7611 13.2535L15.9056 13.4414H18.4999H21.0943L21.2388 13.2535C21.4412 13.0006 21.4267 12.7693 21.2171 12.5236C21.0437 12.3213 21.0365 12.3213 20.0609 12.2996L19.0781 12.2707V10.5436V8.81641H19.9453H20.8124V9.3873V9.9582L20.4005 9.98711C20.0681 10.016 19.9597 10.0594 19.8224 10.2184C19.6201 10.4641 19.6128 10.6881 19.8079 10.941L19.9525 11.1289H21.3906H22.8287L22.9732 10.941C23.1683 10.6881 23.1611 10.4641 22.9587 10.2184C22.8214 10.0594 22.713 10.016 22.3806 9.98711L21.9687 9.9582V9.02598C21.9687 8.15156 21.9615 8.09375 21.7953 7.89863L21.6218 7.69629L20.3499 7.67461L19.0781 7.65293V7.29883C19.0781 6.77129 18.7023 6.41719 18.312 6.57617Z" fill="#202020"/>
</svg>
