<svg width="55" height="55" viewBox="0 0 55 55" fill="none" xmlns="http://www.w3.org/2000/svg">
<path d="M47.6095 1.04199C47.4913 1.14941 47.0831 1.89062 46.7179 2.68555C46.3527 3.48047 45.9982 4.18945 45.9337 4.25391C45.8693 4.31836 45.1925 4.45801 44.4191 4.56543C42.8077 4.79102 42.3673 4.93066 42.2062 5.30664C41.9913 5.76855 42.1847 6.09082 43.42 7.36914L44.6232 8.60449L44.3654 10.1836C44.215 11.0537 44.1075 11.9023 44.1075 12.0742C44.1183 12.4395 44.5695 12.8906 44.924 12.8906C45.0529 12.8906 45.8263 12.5254 46.6427 12.0742L48.1251 11.2578L49.6075 12.0742C50.424 12.5254 51.1974 12.8906 51.3263 12.8906C51.6808 12.8906 52.132 12.4395 52.1427 12.0742C52.1427 11.9023 52.0353 11.0537 51.8849 10.1836L51.6271 8.60449L52.8195 7.37988C54.0333 6.14453 54.2052 5.86523 54.0978 5.41406C53.9904 4.99512 53.6036 4.84473 51.9601 4.58691C51.09 4.45801 50.3488 4.29688 50.295 4.24316C50.2413 4.17871 49.8976 3.48047 49.5323 2.68555C48.8234 1.14941 48.5978 0.859375 48.1251 0.859375C47.964 0.859375 47.7277 0.945312 47.6095 1.04199ZM48.5763 4.69434C48.7911 5.15625 49.049 5.61816 49.1779 5.72559C49.3497 5.88672 50.8644 6.23047 51.3907 6.23047C51.4445 6.23047 51.1437 6.58496 50.7247 7.01465C50.3058 7.45508 49.9298 7.92773 49.8976 8.06738C49.8654 8.21777 49.9083 8.78711 50.005 9.33496C50.1017 9.88281 50.1661 10.3555 50.1447 10.3662C50.1232 10.3877 49.7472 10.1836 49.3068 9.92578C48.8448 9.65723 48.3615 9.46387 48.1681 9.46387C47.964 9.45312 47.5021 9.63574 46.9865 9.92578C46.5138 10.1836 46.1271 10.377 46.1056 10.3662C46.0841 10.3447 46.1486 9.88281 46.2452 9.33496C46.3419 8.78711 46.3849 8.21777 46.3527 8.06738C46.3204 7.92773 45.9445 7.45508 45.5255 7.01465C45.1066 6.58496 44.8058 6.23047 44.8595 6.23047C45.3859 6.23047 46.9005 5.88672 47.0724 5.72559C47.2013 5.61816 47.4591 5.15625 47.674 4.69434C47.8781 4.24316 48.0822 3.86719 48.1251 3.86719C48.1681 3.86719 48.3722 4.24316 48.5763 4.69434Z" fill="#CA9457"/>
<path d="M3.4375 2.57812V3.4375H2.57812H1.71875V4.29688V5.15625H2.57812H3.4375V6.01562V6.875H4.29688H5.15625V6.01562V5.15625H6.01562H6.875V4.29688V3.4375H6.01562H5.15625V2.57812V1.71875H4.29688H3.4375V2.57812ZM5.15625 4.29688V5.15625H4.29688H3.4375V4.29688V3.4375H4.29688H5.15625V4.29688Z" fill="#CA9457"/>
<path d="M10.3125 5.15625V6.01562H9.45312H8.59375V6.875V7.73438H9.45312H10.3125V8.59375V9.45312H11.1719H12.0312V8.59375V7.73438H12.8906H13.75V6.875V6.01562H12.8906H12.0312V5.15625V4.29688H11.1719H10.3125V5.15625ZM12.0312 6.875V7.73438H11.1719H10.3125V6.875V6.01562H11.1719H12.0312V6.875Z" fill="#CA9457"/>
<path d="M27.5322 10.7852C26.5439 11.1074 25.6523 11.8486 25.0937 12.8047C24.3417 14.1152 24.4169 15.9629 25.2763 17.2305L25.6308 17.7676L24.9326 18.1113C24.5459 18.2939 24.0517 18.6162 23.8261 18.8096C23.3427 19.2607 16.6933 28.3379 16.3496 29.0254C16.0166 29.6914 16.0917 30.2607 16.6074 30.8301C17.1015 31.3779 17.5205 31.4639 19.0244 31.3457C20.8613 31.1953 20.7968 31.249 23.1064 28.1982C24.1806 26.7803 25.1367 25.5342 25.2334 25.4268C25.416 25.2441 25.4267 25.3301 25.5556 27.0703L25.6953 28.9072L24.6962 35.8037C24.1484 39.5957 23.6865 42.7217 23.665 42.7432C23.6435 42.7754 23.1386 42.8828 22.5371 42.9902C21.9355 43.0977 21.4306 43.1943 21.4091 43.2158C21.3769 43.2588 21.5703 44.8164 21.624 44.8594C21.6884 44.9238 24.2666 44.4297 25.6738 44.0859C30.9804 42.7646 35.9111 40.3154 40.4013 36.792C43.3339 34.4824 48.125 29.251 48.125 28.3379C48.125 27.876 47.749 27.5645 46.9648 27.3926C46.5996 27.3174 46.2988 27.2207 46.2988 27.1885C46.2988 27.1025 50.7675 24.5996 50.9072 24.5996C50.9501 24.5996 51.2187 25.6523 51.5087 26.9307C51.788 28.209 52.0459 29.3477 52.0673 29.4443C52.121 29.627 52.0673 29.6162 51.4335 29.4121C50.3916 29.0791 50.3271 29.1113 49.2421 30.7012C43.581 39.0049 37.2216 44.7197 30.0351 47.9531C26.8125 49.3926 23.2783 50.3164 19.6904 50.6494L18.9062 50.7246V51.584V52.4434L19.7441 52.3789C31.3349 51.3584 41.6044 44.6123 50.1552 32.4092C50.6386 31.7217 51.0683 31.1523 51.1113 31.1523C51.1435 31.1523 51.6484 31.3027 52.2285 31.4961C53.3994 31.8828 53.7431 31.8506 54.0224 31.3457C54.1728 31.0771 54.1298 30.7871 53.2812 26.9414C52.3037 22.5371 52.2392 22.3438 51.6162 22.3438C51.2939 22.3438 43.4521 26.6514 43.1621 26.9844C43.0546 27.1025 42.9687 27.3389 42.9687 27.5C42.9687 28.0479 43.2587 28.2412 44.5048 28.5527C45.1494 28.7139 45.665 28.8965 45.665 28.9502C45.6328 29.3047 41.4755 33.8379 41.1748 33.8379C41.1103 33.8379 40.7128 32.6455 40.2724 31.1846C39.746 29.4443 39.3916 28.4238 39.2304 28.2305C39.0908 28.0693 38.1347 27.5 37.0712 26.9521L35.1699 25.9639L34.8906 23.8584C34.7402 22.6982 34.622 21.7529 34.622 21.7422C34.6328 21.7314 36.4804 20.335 38.7148 18.627C42.3564 15.8555 42.8076 15.4795 43.0009 15.0498C43.1406 14.7383 43.1835 14.459 43.1406 14.2012C43.0332 13.5137 41.873 11.8057 41.2607 11.4512C40.8203 11.2041 40.1328 11.1826 39.6923 11.4189C39.5205 11.5049 37.8984 12.7402 36.0937 14.1582C34.289 15.5762 32.8066 16.7148 32.7851 16.7041C32.7636 16.6826 32.8281 16.4248 32.9355 16.124C33.2148 15.2646 33.1074 13.8682 32.7099 13.041C32.3125 12.2246 31.4853 11.3975 30.6689 11.0107C30.121 10.7529 29.8632 10.6992 29.0039 10.667C28.3486 10.6455 27.8222 10.6885 27.5322 10.7852ZM29.8418 12.5254C30.7656 12.9121 31.3564 13.8145 31.3671 14.8564C31.3671 16.3281 30.2929 17.4238 28.8427 17.4238C27.414 17.4238 26.3076 16.3496 26.3076 14.9424C26.2968 13.8789 26.8554 12.9873 27.7685 12.5576C28.3056 12.3105 29.2939 12.2891 29.8418 12.5254ZM40.9277 13.6426C41.1748 14.0078 41.3574 14.3408 41.3359 14.4053C41.3144 14.459 39.4453 15.9199 37.1679 17.6494C34.3212 19.8193 33 20.8936 32.9355 21.0869C32.8173 21.4199 33.4619 26.6729 33.666 26.9844C33.7304 27.0918 34.6972 27.6504 35.8037 28.2197C36.9209 28.7891 37.8662 29.3369 37.9199 29.4229C37.9628 29.5195 38.3818 30.8516 38.833 32.377L39.6709 35.1592L39.3056 35.46C39.1015 35.6318 38.747 35.9111 38.5 36.083L38.0703 36.4053L37.2216 34.0205C36.7597 32.71 36.2763 31.4639 36.1367 31.2383C35.9218 30.9053 35.5781 30.7012 33.5478 29.7021C32.2587 29.0791 31.0664 28.5527 30.9052 28.5527C30.7119 28.542 30.5078 28.6387 30.3466 28.7998C30.1318 29.0254 29.9921 29.6914 29.0683 35.0732C28.499 38.3818 28.0048 41.2178 27.9726 41.3682C27.9296 41.6152 27.8115 41.6797 26.9843 41.9268C25.4912 42.3779 25.4267 42.3887 25.4912 42.1523C25.5234 42.0342 25.9746 39.0156 26.4902 35.417L27.4355 28.8965L27.1669 25.7061L26.8876 22.5264L26.5976 22.2686C26.2324 21.957 25.8671 21.957 25.5234 22.2578C25.373 22.3975 24.0625 24.0732 22.6123 25.9961C20.1201 29.2832 19.9482 29.4873 19.5722 29.5518C18.8525 29.6807 17.9287 29.7236 17.9609 29.6377C18.0683 29.3369 24.9111 20.1309 25.1796 19.9268C25.3623 19.7871 25.663 19.6152 25.8349 19.5508C26.0068 19.4863 27.5859 19.3145 29.3261 19.1641C31.0664 19.0244 32.6025 18.8848 32.7314 18.8525C32.8496 18.8203 34.622 17.499 36.6523 15.9092C38.6718 14.3086 40.3691 13.0088 40.4121 13.0088C40.455 12.998 40.6914 13.2881 40.9277 13.6426ZM33.2793 31.4639L34.7509 32.2051L35.6425 34.708C36.1259 36.0938 36.5234 37.2754 36.5234 37.3506C36.5234 37.5117 34.8906 38.5215 33.247 39.3809C31.9794 40.0361 29.874 40.9814 29.8203 40.9062C29.7988 40.8848 31.4853 31.1631 31.5712 30.7441C31.5927 30.6475 31.9687 30.8086 33.2793 31.4639Z" fill="#CA9457"/>
<path d="M8.00293 35.5029C7.7666 35.7285 7.73438 35.8574 7.73438 36.5771V37.3936L7.34766 37.5547L6.96094 37.7158L6.33789 37.125C5.40332 36.2334 5.40332 36.2334 3.63086 38.0059C1.8584 39.7676 1.8584 39.7783 2.73926 40.7021L3.33008 41.3252L3.16895 41.7227L3.00781 42.1094H2.19141C1.48242 42.1094 1.35352 42.1416 1.12793 42.3779C0.859375 42.6357 0.859375 42.6572 0.859375 44.6875C0.859375 46.7178 0.859375 46.7393 1.12793 46.9971C1.35352 47.2334 1.48242 47.2656 2.19141 47.2656H3.00781L3.16895 47.6523L3.33008 48.0498L2.73926 48.6729C1.86914 49.5859 1.86914 49.6074 3.57715 51.3154C5.36035 53.1094 5.41406 53.1309 6.32715 52.2715L6.96094 51.6592L7.34766 51.8203L7.73438 51.9814V52.7979C7.73438 53.5176 7.7666 53.6465 8.00293 53.8721C8.26074 54.1406 8.28223 54.1406 10.3125 54.1406C12.3428 54.1406 12.3643 54.1406 12.6221 53.8721C12.8584 53.6465 12.8906 53.5176 12.8906 52.7979V51.9814L13.2666 51.8203L13.6426 51.6699L14.2012 52.207C14.8242 52.7871 15.0391 52.9053 15.3936 52.8086C15.5225 52.7764 16.2744 52.1104 17.0586 51.3154C18.7559 49.5967 18.7559 49.5859 17.875 48.6621L17.2842 48.0391L17.4453 47.6523L17.6064 47.2656H18.4229C19.1426 47.2656 19.2715 47.2334 19.4971 46.9971C19.7656 46.7393 19.7656 46.7178 19.7656 44.6875C19.7656 42.6572 19.7656 42.6357 19.4971 42.3779C19.2715 42.1416 19.1426 42.1094 18.4229 42.1094H17.6064L17.4453 41.7227L17.2842 41.3359L17.875 40.7129C18.7559 39.7891 18.7559 39.7783 17.0586 38.0596C15.2646 36.2656 15.2109 36.2441 14.2979 37.1035L13.6641 37.7158L13.2773 37.5547L12.8906 37.3936V36.5771C12.8906 35.8574 12.8584 35.7285 12.6221 35.5029C12.3643 35.2344 12.3428 35.2344 10.3125 35.2344C8.28223 35.2344 8.26074 35.2344 8.00293 35.5029ZM11.1719 37.6299C11.1719 38.4785 11.333 38.7041 12.0635 38.9512C12.3643 39.0479 12.8477 39.2412 13.127 39.3809C13.4062 39.5205 13.7393 39.6387 13.8574 39.6387C13.9863 39.6387 14.3193 39.4131 14.6201 39.1338L15.1572 38.6289L15.7588 39.2412L16.3711 39.8428L15.8662 40.3799C15.5869 40.6807 15.3613 41.0137 15.3613 41.1426C15.3613 41.2607 15.4795 41.5938 15.6191 41.873C15.7588 42.1523 15.9521 42.6357 16.0488 42.9365C16.2959 43.667 16.5215 43.8281 17.3701 43.8281H18.0469V44.6875V45.5469H17.3701C16.5215 45.5469 16.2959 45.708 16.0488 46.4385C15.9521 46.7393 15.7588 47.2227 15.6191 47.502C15.4795 47.7812 15.3613 48.1143 15.3613 48.2324C15.3613 48.3613 15.5869 48.6943 15.8662 48.9951L16.3711 49.5322L15.7588 50.1338L15.1572 50.7461L14.6201 50.2412C14.3193 49.9619 13.9863 49.7363 13.8574 49.7363C13.7393 49.7363 13.4062 49.8545 13.127 49.9941C12.8477 50.1338 12.3643 50.3271 12.0635 50.4238C11.333 50.6709 11.1719 50.8965 11.1719 51.7451V52.4219H10.3125H9.45312V51.7451C9.45312 50.8965 9.29199 50.6709 8.56152 50.4238C8.26074 50.3271 7.77734 50.1338 7.49805 49.9941C7.21875 49.8545 6.88574 49.7363 6.76758 49.7363C6.63867 49.7363 6.30566 49.9619 6.00488 50.2412L5.46777 50.7461L4.86621 50.1338L4.25391 49.5322L4.75879 48.9951C5.03809 48.6943 5.26367 48.3613 5.26367 48.2324C5.26367 48.1143 5.14551 47.7812 5.00586 47.502C4.86621 47.2227 4.67285 46.7393 4.57617 46.4385C4.3291 45.708 4.10352 45.5469 3.25488 45.5469H2.57812V44.6875V43.8281H3.25488C4.10352 43.8281 4.3291 43.667 4.57617 42.9365C4.67285 42.6357 4.86621 42.1523 5.00586 41.873C5.14551 41.5938 5.26367 41.2607 5.26367 41.1426C5.26367 41.0137 5.03809 40.6807 4.75879 40.3799L4.25391 39.8428L4.86621 39.2412L5.46777 38.6289L6.00488 39.1338C6.30566 39.4131 6.63867 39.6387 6.76758 39.6387C6.88574 39.6387 7.21875 39.5205 7.49805 39.3809C7.77734 39.2412 8.26074 39.0479 8.56152 38.9512C9.29199 38.7041 9.45312 38.4785 9.45312 37.6299V36.9531H10.3125H11.1719V37.6299Z" fill="#CA9457"/>
<path d="M9.30273 40.498C8.62598 40.6699 7.65918 41.25 7.18652 41.7549C6.9502 42.0127 6.5957 42.5498 6.41309 42.9473C6.10156 43.6025 6.06934 43.7637 6.06934 44.6982C6.06934 45.665 6.09082 45.7617 6.4668 46.5352C6.9502 47.5127 7.57324 48.1143 8.57227 48.5869C9.22754 48.8984 9.38867 48.9307 10.3125 48.9307C11.2363 48.9307 11.3975 48.8984 12.0527 48.5869C13.0518 48.1143 13.6748 47.5127 14.1582 46.5352C14.5342 45.7617 14.5557 45.665 14.5557 44.6875C14.5557 43.71 14.5342 43.6133 14.1582 42.8398C13.4277 41.3789 12.1387 40.5088 10.5488 40.4336C10.0977 40.4121 9.53906 40.4443 9.30273 40.498ZM11.1074 42.2383C11.6982 42.4102 12.5898 43.3018 12.7617 43.8926C13.0625 44.9023 12.8477 45.708 12.085 46.46C11 47.5557 9.625 47.5557 8.54004 46.46C7.44434 45.375 7.44434 44 8.54004 42.915C9.29199 42.1523 10.0977 41.9482 11.1074 42.2383Z" fill="#CA9457"/>
<path d="M49.8438 48.9844V49.8438H48.9844H48.125V50.7031V51.5625H48.9844H49.8438V52.4219V53.2812H50.7031H51.5625V52.4219V51.5625H52.4219H53.2812V50.7031V49.8438H52.4219H51.5625V48.9844V48.125H50.7031H49.8438V48.9844ZM51.5625 50.7031V51.5625H50.7031H49.8438V50.7031V49.8438H50.7031H51.5625V50.7031Z" fill="#CA9457"/>
</svg>
