<svg width="71" height="71" viewBox="0 0 71 71" fill="none" xmlns="http://www.w3.org/2000/svg">
<path d="M34.9036 2.37129C34.7649 2.45449 34.2241 3.4252 33.6833 4.54844C33.1563 5.65781 32.6987 6.58691 32.671 6.61465C32.6433 6.64238 31.6587 6.80879 30.4938 6.98906C28.5663 7.28027 28.3444 7.34961 28.0532 7.68242C27.4847 8.34805 27.5956 8.59766 29.3567 10.4975L30.9792 12.2309L30.6048 14.5189C30.2858 16.5574 30.2581 16.8486 30.4384 17.1953C30.8683 18.0273 31.3536 17.9441 33.614 16.6961L35.4999 15.6422L37.4136 16.6961C38.4675 17.2785 39.4659 17.75 39.6323 17.75C40.0899 17.75 40.6724 17.1676 40.6862 16.6961C40.6862 16.4742 40.5476 15.3787 40.3534 14.2555L40.0206 12.2031L41.5599 10.65C43.1268 9.05527 43.3487 8.69473 43.2101 8.09844C43.0714 7.55762 42.6138 7.37734 40.4227 6.98906C39.2718 6.79492 38.3288 6.61465 38.3149 6.60078C38.2872 6.58691 37.8435 5.65781 37.3026 4.53457C36.7618 3.39746 36.221 2.44063 36.0685 2.37129C35.7218 2.17715 35.2226 2.19102 34.9036 2.37129ZM36.1239 7.21094C36.429 7.83496 36.7757 8.43125 36.9005 8.54219C37.0253 8.65312 37.7186 8.84727 38.4259 8.9582C39.147 9.08301 39.7571 9.19395 39.7849 9.23555C39.8126 9.26328 39.3688 9.79023 38.7864 10.3865C38.204 10.9828 37.7186 11.593 37.7186 11.7316C37.7186 12.009 37.9405 13.5066 38.0792 14.2L38.1624 14.6021L36.9837 13.9504C36.3319 13.6037 35.6663 13.3125 35.486 13.3125C35.3196 13.3125 34.654 13.5898 34.03 13.9504C33.3089 14.3387 32.8651 14.5051 32.8651 14.3941C32.8651 14.2971 32.9622 13.7285 33.0731 13.1322C33.3921 11.4682 33.406 11.4959 32.2272 10.2617C31.6448 9.65156 31.2011 9.15234 31.2565 9.15234C31.5755 9.15234 33.4198 8.8334 33.8081 8.70859C34.1964 8.59766 34.3351 8.40352 34.8481 7.33574C35.1671 6.65625 35.4583 6.10156 35.4999 6.10156C35.5415 6.10156 35.8327 6.60078 36.1239 7.21094Z" fill="#DEA057"/>
<path d="M9.38798 11.2463C9.24931 11.3295 8.70849 12.3002 8.16767 13.4234C7.64072 14.5328 7.1831 15.4619 7.15537 15.4896C7.12763 15.5174 6.14306 15.6838 4.97822 15.8641C3.05068 16.1553 2.82881 16.2246 2.53759 16.5574C1.96904 17.223 2.07998 17.4727 3.84111 19.3725L5.46357 21.1059L5.08916 23.3939C4.77021 25.4324 4.74248 25.7236 4.92275 26.0703C5.35263 26.9023 5.83798 26.8191 8.09834 25.5711L9.98427 24.5172L11.8979 25.5711C12.9519 26.1535 13.9503 26.625 14.1167 26.625C14.5743 26.625 15.1567 26.0426 15.1706 25.5711C15.1706 25.3492 15.0319 24.2537 14.8378 23.1305L14.505 21.0781L16.0442 19.525C17.6112 17.9303 17.8331 17.5697 17.6944 16.9734C17.5558 16.4326 17.0981 16.2523 14.9071 15.8641C13.7561 15.6699 12.8132 15.4896 12.7993 15.4758C12.7716 15.4619 12.3278 14.5328 11.787 13.4096C11.2462 12.2725 10.7054 11.3156 10.5528 11.2463C10.2061 11.0521 9.70693 11.066 9.38798 11.2463ZM10.539 16.0027C11.1491 17.4172 11.3571 17.5836 12.8409 17.8332C13.5204 17.9303 14.1306 18.0273 14.186 18.0273C14.2554 18.0273 13.8255 18.5543 13.2569 19.2061C12.6745 19.8578 12.203 20.4957 12.203 20.6344C12.203 20.884 12.4249 22.4094 12.5636 23.075L12.6468 23.4633L11.4819 22.8254C10.8163 22.4648 10.1229 22.1875 9.90107 22.2014C9.67919 22.2014 9.02744 22.4787 8.45888 22.7977C7.89033 23.1305 7.40498 23.3939 7.37724 23.3662C7.34951 23.3385 7.43271 22.7977 7.54365 22.1598C7.66845 21.508 7.76552 20.8563 7.76552 20.6898C7.76552 20.5096 7.33564 19.8994 6.71162 19.2061C6.14306 18.5543 5.69931 18.0273 5.75478 18.0273C6.05986 18.0273 7.91806 17.7084 8.29248 17.5836C8.68076 17.4727 8.81943 17.2785 9.33252 16.2107C9.65146 15.5312 9.94267 14.9766 9.99814 14.9766C10.0397 14.9766 10.2894 15.4342 10.539 16.0027Z" fill="#DEA057"/>
<path d="M60.2806 11.3295C60.1696 11.4682 59.6565 12.4527 59.1435 13.5205C58.6442 14.5744 58.2144 15.4758 58.1866 15.5035C58.1589 15.5174 57.1743 15.6838 56.0095 15.8641C54.0819 16.1553 53.8601 16.2246 53.5688 16.5574C53.0003 17.223 53.1112 17.4727 54.8724 19.3725L56.4948 21.1059L56.1204 23.3939C55.8015 25.4324 55.7737 25.7236 55.954 26.0703C56.3839 26.9023 56.8692 26.8191 59.1296 25.5711L61.0155 24.5172L62.9292 25.5711C63.9831 26.1535 64.9815 26.625 65.1479 26.625C65.6056 26.625 66.188 26.0426 66.2019 25.5711C66.2019 25.3492 66.0632 24.2537 65.869 23.1305L65.5362 21.0781L67.0755 19.525C68.6425 17.9303 68.8644 17.5697 68.7257 16.9734C68.587 16.4326 68.1294 16.2523 65.9384 15.8641C64.7874 15.6699 63.8444 15.4896 63.8306 15.4758C63.8167 15.4619 63.3868 14.5744 62.8876 13.5205C62.3745 12.4527 61.8614 11.4682 61.7505 11.3295C61.6118 11.1908 61.3206 11.0938 61.0155 11.0938C60.7104 11.0938 60.4192 11.1908 60.2806 11.3295ZM61.7644 16.2107C62.4716 17.5975 62.5132 17.6391 64.3159 17.9025L65.4669 18.0689L64.3575 19.2061C63.7335 19.8301 63.2343 20.468 63.2343 20.6066C63.2343 20.884 63.4562 22.3816 63.5948 23.075L63.678 23.4771L62.4993 22.8254C61.8476 22.4787 61.1819 22.1875 61.0017 22.1875C60.8353 22.1875 60.1696 22.4648 59.5456 22.8254C58.8245 23.2137 58.3808 23.3801 58.3808 23.2691C58.3808 23.1721 58.4778 22.6035 58.5888 22.0072C58.9077 20.3432 58.9216 20.3709 57.7429 19.1367C57.1604 18.5266 56.7167 18.0273 56.7722 18.0273C56.8276 18.0273 57.3269 17.958 57.8677 17.8748C59.6565 17.6113 59.6704 17.6113 60.3915 16.2107C60.7382 15.5312 61.0571 14.9766 61.0849 14.9766C61.1265 14.9766 61.4315 15.5312 61.7644 16.2107Z" fill="#DEA057"/>
<path d="M33.4198 20.1629C28.1086 21.3 24.4061 25.7791 24.4061 31.0764C24.4061 31.95 24.3645 32.1025 23.9901 32.574C23.4631 33.2258 23.2967 33.7943 23.2967 34.9869C23.2967 36.1101 23.5463 36.7758 24.2258 37.4553C24.5448 37.8019 24.8221 38.3012 25.0579 38.9806C25.8206 41.2826 27.4846 43.4598 29.5092 44.791L29.8282 44.999L29.4399 47.0098L29.0516 49.0205L20.8006 51.1006C15.226 52.5012 12.3833 53.2777 12.0366 53.4996C11.7592 53.6799 11.3987 54.0265 11.2461 54.2762C10.7608 55.0527 6.78091 64.7875 6.6977 65.3838C6.6561 65.6889 6.6977 66.2158 6.79477 66.5625C7.01665 67.3668 8.02895 68.4068 8.80552 68.6287C9.59595 68.8506 61.4038 68.8506 62.1942 68.6287C62.9707 68.4068 63.983 67.3668 64.2049 66.5625C64.302 66.2158 64.3436 65.6889 64.302 65.3838C64.2049 64.7182 60.1834 54.9418 59.712 54.2207C59.5317 53.9433 59.1157 53.5828 58.7829 53.4025C58.4362 53.2361 54.5672 52.1822 50.0604 51.0451L41.9481 49.0066L41.5598 47.0098L41.1715 44.999L41.4905 44.791C43.5151 43.4598 45.1791 41.2826 45.9418 38.9806C46.1776 38.3012 46.4549 37.8019 46.7739 37.4553C47.4534 36.7619 47.703 36.1101 47.703 34.973C47.703 33.8498 47.5366 33.2535 47.0096 32.5879C46.6768 32.158 46.6352 31.95 46.552 30.6465C46.4272 28.4277 45.9002 26.7498 44.7909 25.058C43.2377 22.659 41.0329 21.0781 38.1346 20.2877C37.053 19.9965 34.5291 19.9271 33.4198 20.1629ZM34.335 22.8392C33.8913 25.3215 31.312 27.3599 28.178 27.6789L27.2905 27.776L27.6649 27.0271C28.4415 25.5156 29.634 24.2676 31.2426 23.2969C31.8528 22.9363 33.6 22.34 34.0993 22.3262C34.3905 22.3262 34.4182 22.3678 34.335 22.8392ZM37.5106 24.3369C38.6477 28.2058 33.9883 31.8252 29.0516 30.9099C28.1086 30.7435 26.7635 30.2582 26.7635 30.1056C26.7635 30.0363 27.3737 29.9531 28.1225 29.9254C32.1024 29.7035 35.8188 26.8191 36.4844 23.4217L36.6508 22.5896L36.9698 23.0611C37.1362 23.3246 37.3858 23.8931 37.5106 24.3369ZM40.5614 23.8099C41.1577 24.2121 42.3502 25.474 42.8079 26.1812C43.2655 26.8885 43.2793 26.9301 43.0297 27.1103C42.5028 27.5125 41.4489 27.776 40.6584 27.6928C40.2424 27.6512 39.8541 27.568 39.7848 27.4986C39.7293 27.4431 39.7293 27.1381 39.7987 26.833C40.0344 25.8623 39.9373 24.6142 39.5629 23.3662C39.4797 23.075 39.5213 23.1027 40.5614 23.8099ZM44.2916 29.759C44.3332 30.1195 44.3748 31.0347 44.3748 31.7974V33.1842L44.9434 33.6973C45.4842 34.2103 45.4981 34.2381 45.4565 35.0285C45.4149 35.7635 45.3733 35.8605 45.0266 36.0269C44.5274 36.2627 44.3055 36.6371 44.0975 37.5801C43.8479 38.7033 42.9465 40.4783 42.1422 41.3658C41.1993 42.4336 39.6184 43.4459 38.2317 43.9035C36.6508 44.4166 34.6401 44.4443 33.1424 43.9867C31.5477 43.4875 30.5493 42.8912 29.3844 41.7402C28.178 40.5476 27.3875 39.1471 26.9715 37.4553C26.7497 36.5539 26.6803 36.4152 26.195 36.1101C25.668 35.7773 25.6541 35.7496 25.6541 34.9592C25.6541 34.1965 25.6819 34.1271 26.1256 33.7805C26.3891 33.5863 26.6387 33.2535 26.6942 33.0178L26.7774 32.6156L27.7065 32.8791C29.0932 33.2812 31.2842 33.3783 32.7264 33.0871C33.3782 32.9484 34.2241 32.7127 34.5985 32.5463C35.694 32.0887 37.15 31.1041 37.9405 30.2721L38.6754 29.5094L39.5629 29.7312C41.0051 30.0918 42.5028 29.9531 43.6122 29.3568C43.8479 29.232 44.0698 29.1349 44.1114 29.1211C44.1668 29.1211 44.2362 29.4123 44.2916 29.759ZM32.9206 46.2748C34.0993 46.6076 36.9143 46.5937 38.1207 46.2609C39.0499 46.0113 39.2301 46.0668 39.244 46.6215C39.244 46.7463 39.2856 46.9404 39.3272 47.0652C39.3827 47.2178 39.0221 47.4674 37.8711 48.0359C36.5122 48.7154 36.2348 48.8125 35.4998 48.8125C34.7649 48.8125 34.4875 48.7154 33.1424 48.0498C31.4784 47.2178 31.5616 47.3287 31.8528 46.2748C31.9221 45.9836 31.8666 45.9836 32.9206 46.2748ZM32.0747 50.0051C32.4768 50.2131 32.8096 50.3795 32.8373 50.4072C32.8512 50.4211 32.7125 50.7678 32.5184 51.1838C32.3243 51.5998 32.1717 52.0297 32.1717 52.1406C32.1717 52.2654 32.3936 52.8062 32.6571 53.3748C33.0731 54.2346 33.3088 55.1359 33.0731 54.8863C32.9483 54.7615 31.201 50.0328 31.201 49.8248C31.201 49.5752 31.2426 49.589 32.0747 50.0051ZM39.9373 49.7416C39.9373 49.7832 39.7016 50.4488 39.4243 51.2254C38.8973 52.626 38.8973 52.626 38.8141 52.0713C38.7725 51.7662 38.6061 51.267 38.4536 50.9619L38.1623 50.4072L38.8696 50.0328C39.5907 49.6584 39.9373 49.5613 39.9373 49.7416ZM36.1932 51.5859L36.4706 52.1406L36.1932 52.6953C35.9575 53.1529 35.8327 53.25 35.4998 53.25C35.167 53.25 35.0422 53.1529 34.8065 52.6953L34.5291 52.1406L34.8065 51.5859C35.0422 51.1283 35.167 51.0312 35.4998 51.0312C35.8327 51.0312 35.9575 51.1283 36.1932 51.5859ZM29.6063 52.099C29.6618 52.2377 30.4661 54.401 31.409 56.9248C32.352 59.4348 33.184 61.6812 33.2811 61.917C33.4198 62.3053 33.392 62.2914 32.8235 61.709C31.3813 60.239 26.2088 54.609 26.2088 54.5119C26.2088 54.3871 29.2596 51.8633 29.4122 51.8633C29.4676 51.8633 29.5508 51.9742 29.6063 52.099ZM43.2377 53.1252C44.0836 53.8185 44.7909 54.4426 44.7909 54.5119C44.7909 54.609 39.6739 60.1974 38.1762 61.709L37.5661 62.333L37.9405 61.3623C38.1485 60.8215 38.6061 59.5734 38.9666 58.5889C39.5768 56.9387 41.1715 52.6814 41.3934 52.099C41.4489 51.9742 41.5321 51.8633 41.5875 51.8633C41.6291 51.8633 42.378 52.4318 43.2377 53.1252ZM25.2381 52.3348C25.2381 52.3625 24.836 52.7092 24.3506 53.0836C23.3799 53.8601 23.1719 54.2762 23.5047 54.8863C23.6157 55.0943 26.0702 57.7846 28.9545 60.8769L34.2102 66.4932L21.8684 66.5348C10.9827 66.5625 9.48501 66.5348 9.1938 66.3545C9.01352 66.2297 8.87485 66.0217 8.87485 65.883C8.87485 65.4115 13.0627 55.4965 13.2985 55.3855C13.4233 55.3301 16.1413 54.6228 19.3446 53.7908C22.5479 52.9726 25.1827 52.2931 25.2104 52.2931C25.2243 52.2793 25.2381 52.307 25.2381 52.3348ZM57.6735 55.3162C57.9231 55.4549 62.1248 65.3976 62.1248 65.8553C62.1248 65.9939 62.0139 66.2019 61.8752 66.3406C61.6395 66.5486 60.6133 66.5625 49.2284 66.5348L36.8311 66.4932L42.0868 60.8353C44.985 57.7152 47.4395 55.0111 47.5366 54.8308C47.8278 54.29 47.592 53.8324 46.6491 53.0697C46.1637 52.6814 45.7616 52.3625 45.7616 52.3486C45.7616 52.2793 57.4655 55.2053 57.6735 55.3162ZM38.4674 53.7769C38.1346 54.6506 37.8573 55.0527 37.8573 54.6367C37.8573 54.4703 38.7309 52.6953 38.7864 52.7508C38.8141 52.7646 38.6616 53.2361 38.4674 53.7769ZM35.9159 56.0512C36.0129 56.384 36.1932 57.0773 36.3457 57.6043L36.6092 58.575L36.0961 59.934C35.8188 60.6828 35.5553 61.293 35.4998 61.293C35.4444 61.293 35.1809 60.6828 34.9036 59.934L34.3905 58.575L34.6539 57.6043C34.8065 57.0773 34.9868 56.384 35.0838 56.0512C35.1948 55.6213 35.3057 55.4687 35.4998 55.4687C35.694 55.4687 35.8049 55.6213 35.9159 56.0512Z" fill="#DEA057"/>
<path d="M9.38798 34.5432C9.24931 34.6264 8.70849 35.5971 8.16767 36.7203C7.64072 37.8297 7.1831 38.7588 7.15537 38.7865C7.12763 38.8143 6.14306 38.9807 4.97822 39.1609C3.05068 39.4521 2.82881 39.5215 2.53759 39.8543C1.96904 40.5199 2.07998 40.7695 3.84111 42.6693L5.46357 44.4027L5.08916 46.6908C4.77021 48.7293 4.74248 49.0205 4.92275 49.3672C5.35263 50.1992 5.83798 50.116 8.09834 48.868L9.98427 47.8141L11.8979 48.868C12.9519 49.4504 13.9503 49.9219 14.1167 49.9219C14.5743 49.9219 15.1567 49.3395 15.1706 48.868C15.1706 48.6461 15.0319 47.5506 14.8378 46.4273L14.505 44.375L16.0442 42.8219C17.6112 41.2271 17.8331 40.8666 17.6944 40.2703C17.5558 39.7295 17.0981 39.5492 14.9071 39.1609C13.7561 38.9668 12.8132 38.7865 12.7993 38.7727C12.7716 38.7588 12.3278 37.8297 11.787 36.7064C11.2462 35.5693 10.7054 34.6125 10.5528 34.5432C10.2061 34.349 9.70693 34.3629 9.38798 34.5432ZM10.539 39.2996C11.1491 40.7141 11.3571 40.8805 12.8409 41.1301C13.5204 41.2271 14.1306 41.3242 14.186 41.3242C14.2554 41.3242 13.8255 41.8512 13.2569 42.5029C12.6745 43.1547 12.203 43.7926 12.203 43.9312C12.203 44.1809 12.4249 45.7062 12.5636 46.3719L12.6468 46.7602L11.4819 46.1223C10.8163 45.7617 10.1229 45.4844 9.90107 45.4982C9.67919 45.4982 9.02744 45.7756 8.45888 46.0945C7.89033 46.4273 7.40498 46.6908 7.37724 46.6631C7.34951 46.6354 7.43271 46.0945 7.54365 45.4566C7.66845 44.8049 7.76552 44.1531 7.76552 43.9867C7.76552 43.8064 7.33564 43.1963 6.71162 42.5029C6.14306 41.8512 5.69931 41.3242 5.75478 41.3242C6.05986 41.3242 7.91806 41.0053 8.29248 40.8805C8.68076 40.7695 8.81943 40.5754 9.33252 39.5076C9.65146 38.8281 9.94267 38.2734 9.99814 38.2734C10.0397 38.2734 10.2894 38.7311 10.539 39.2996Z" fill="#DEA057"/>
<path d="M60.2806 34.6264C60.1696 34.765 59.6565 35.7496 59.1435 36.8174C58.6442 37.8713 58.2144 38.7727 58.1866 38.8004C58.1589 38.8143 57.1743 38.9807 56.0095 39.1609C54.0819 39.4521 53.8601 39.5215 53.5688 39.8543C53.0003 40.5199 53.1112 40.7695 54.8724 42.6693L56.4948 44.4027L56.1204 46.6908C55.8015 48.7293 55.7737 49.0205 55.954 49.3672C56.3839 50.1992 56.8692 50.116 59.1296 48.868L61.0155 47.8141L62.9292 48.868C63.9831 49.4504 64.9815 49.9219 65.1479 49.9219C65.6056 49.9219 66.188 49.3395 66.2019 48.868C66.2019 48.6461 66.0632 47.5506 65.869 46.4273L65.5362 44.375L67.0755 42.8219C68.6425 41.2271 68.8644 40.8666 68.7257 40.2703C68.587 39.7295 68.1294 39.5492 65.9384 39.1609C64.7874 38.9668 63.8444 38.7865 63.8306 38.7727C63.8167 38.7588 63.3868 37.8713 62.8876 36.8174C62.3745 35.7496 61.8614 34.765 61.7505 34.6264C61.6118 34.4877 61.3206 34.3906 61.0155 34.3906C60.7104 34.3906 60.4192 34.4877 60.2806 34.6264ZM61.7644 39.5076C62.4716 40.8943 62.5132 40.9359 64.3159 41.1994L65.4669 41.3658L64.3575 42.5029C63.7335 43.127 63.2343 43.7648 63.2343 43.9035C63.2343 44.1809 63.4562 45.6785 63.5948 46.3719L63.678 46.774L62.4993 46.1223C61.8476 45.7756 61.1819 45.4844 61.0017 45.4844C60.8353 45.4844 60.1696 45.7617 59.5456 46.1223C58.8245 46.5105 58.3808 46.677 58.3808 46.566C58.3808 46.4689 58.4778 45.9004 58.5888 45.3041C58.9077 43.64 58.9216 43.6678 57.7429 42.4336C57.1604 41.8234 56.7167 41.3242 56.7722 41.3242C56.8276 41.3242 57.3269 41.2549 57.8677 41.1717C59.6565 40.9082 59.6704 40.9082 60.3915 39.5076C60.7382 38.8281 61.0571 38.2734 61.0849 38.2734C61.1265 38.2734 61.4315 38.8281 61.7644 39.5076Z" fill="#DEA057"/>
</svg>
