<svg width="71" height="71" viewBox="0 0 71 71" fill="none" xmlns="http://www.w3.org/2000/svg">
<path d="M36.332 4.03535C34.46 6.2541 32.782 8.20938 32.5879 8.36192C32.3938 8.52832 29.9809 9.5961 27.2213 10.7332L22.2152 12.7994L23.3246 14.616C23.9486 15.6145 25.0164 17.3756 25.7236 18.5127L26.9994 20.6066L25.6404 22.0211C21.5912 26.2506 19.7053 30.383 19.6914 35.0146C19.6775 40.7834 22.3816 45.9281 27.1658 49.2146L28.2059 49.9219H25.682H23.1721L23.0195 50.643C22.9225 51.0451 22.2291 54.3732 21.4525 58.0342L20.0381 64.6904L18.901 64.732L17.75 64.7736V67.8799V71H28.1504H38.5508V69.96V68.9199H29.1904H19.8301V67.8799V66.8398H34.3906H48.9512V67.8799V68.9199H46.8711H44.791V69.96V71H47.9111H51.0312V67.8799V64.7736L49.8941 64.732L48.7432 64.6904L47.19 57.3408C46.3303 53.2916 45.6369 49.9773 45.623 49.9496C45.623 49.9357 44.4166 49.9219 42.9328 49.9219H40.2426L39.8266 49.2701C39.1748 48.2578 38.4676 46.6492 38.0516 45.2764C37.691 44.1115 37.6633 43.8619 37.6633 41.3936C37.6633 39.1193 37.7049 38.6063 37.9545 37.691C38.5785 35.4861 39.4937 33.6279 40.7834 31.95L41.3242 31.2428L45.9004 32.3521C48.4104 32.9623 50.5043 33.4338 50.5459 33.3922C50.5875 33.3645 50.8094 30.8545 51.0451 27.8314L51.4611 22.3262L54.3732 17.5836C55.968 14.9766 57.2299 12.8133 57.1744 12.7578C57.1051 12.7023 54.8031 11.7316 52.0297 10.5945L46.982 8.52832L43.3766 4.25723C41.3936 1.91367 39.7572 0 39.7434 0C39.7434 0.0138702 38.2041 1.8166 36.332 4.03535ZM42.7803 6.78106L45.6924 10.2479L49.9635 12.009C52.307 12.9797 54.2207 13.784 54.2207 13.8117C54.2207 13.8256 53.1391 15.6145 51.8217 17.7777L49.4088 21.7021L49.1037 26.001C48.9373 28.3584 48.7709 30.4246 48.7432 30.591C48.6738 30.8684 48.5629 30.8545 44.2363 29.8006L39.785 28.7189L35.3197 29.8006C32.8652 30.3969 30.8406 30.8406 30.8268 30.799C30.8129 30.7574 30.6326 28.6773 30.4385 26.1813L30.0918 21.6467L27.7344 17.8055C26.4447 15.6977 25.377 13.9227 25.377 13.8672C25.377 13.7424 25.9316 13.5066 30.6881 11.5652L33.725 10.3311L36.6926 6.82265C38.3289 4.90899 39.7156 3.32812 39.7711 3.32812C39.8266 3.32812 41.1855 4.88125 42.7803 6.78106ZM28.608 32.3383C28.1088 34.0994 27.8869 37.1086 28.1227 38.8975C28.2197 39.577 28.2197 39.5908 28.7051 39.577C28.9686 39.577 29.4123 39.5215 29.6758 39.4799L30.1611 39.3828L30.175 36.9977C30.1889 35.4445 30.2582 34.3352 30.383 33.8498L30.5771 33.0871L34.46 32.1441C36.5955 31.6311 38.426 31.215 38.5092 31.2428C38.634 31.2566 38.5369 31.4924 38.2596 31.8945C37.1086 33.6141 36.0963 36.1518 35.708 38.3289C35.4445 39.8543 35.4445 42.8219 35.708 44.2779C35.9576 45.7201 36.5123 47.4258 37.1502 48.7293C37.4275 49.3117 37.6355 49.7832 37.6078 49.7832C37.483 49.7832 35.7496 48.5352 35.0424 47.9389C33.4477 46.5799 31.534 43.7371 30.9238 41.8373C30.8268 41.5461 30.6881 41.3381 30.591 41.3658C30.5078 41.3936 30.0779 41.5461 29.648 41.6848C29.2043 41.8234 28.8438 42.0037 28.8438 42.0869C28.8438 42.3643 29.648 44.2363 30.1611 45.1377C30.8268 46.3303 31.7281 47.5229 32.8652 48.7154C33.9607 49.8664 33.9607 49.8664 32.1025 49.3395C28.3307 48.2578 24.8639 45.1516 23.2137 41.3381C21.716 37.8713 21.4248 34.2104 22.3955 30.8545C23.1305 28.3445 24.1705 26.6527 26.5141 24.1982L28.0811 22.5619L28.4416 27.1242C28.7467 31.0625 28.7605 31.7697 28.608 32.3383ZM44.0283 52.4457C44.1947 53.1391 46.5938 64.5379 46.5938 64.6488C46.5938 64.7043 45.7201 64.7598 44.6523 64.7598H42.7109V61.5703V58.3809H34.3906H26.0703V61.5703V64.7598H24.1289C23.0611 64.7598 22.1875 64.7182 22.1875 64.6766C22.1875 64.5934 24.5727 53.25 24.7529 52.4457L24.8223 52.1406H34.3906H43.959L44.0283 52.4457ZM40.6309 62.6104V64.7598H34.3906H28.1504V62.6104V60.4609H34.3906H40.6309V62.6104Z" fill="#DEA057"/>
<path d="M30.2305 14.4912V15.5312H31.3398H32.4492V14.4912V13.4512H31.3398H30.2305V14.4912Z" fill="#DEA057"/>
<path d="M34.3906 14.4912V15.5312H35.5H36.6094V14.4912V13.4512H35.5H34.3906V14.4912Z" fill="#DEA057"/>
<path d="M26.0703 55.2607V56.3008H27.1104H28.1504V55.2607V54.2207H27.1104H26.0703V55.2607Z" fill="#DEA057"/>
<path d="M30.2305 55.2607V56.3008H31.2705H32.3105V55.2607V54.2207H31.2705H30.2305V55.2607Z" fill="#DEA057"/>
<path d="M0 32.2412V33.2812H1.04004H2.08008V32.2412V31.2012H1.04004H0V32.2412Z" fill="#DEA057"/>
<path d="M68.9199 32.3105V33.4199H69.96H71V32.3105V31.2012H69.96H68.9199V32.3105Z" fill="#DEA057"/>
<path d="M6.51758 36.54V37.5801H5.47754H4.4375V38.6201V39.6602H5.47754H6.51758V40.7002V41.7402H7.55762H8.59766V40.7002V39.6602H9.6377H10.6777V38.6201V37.5939L9.6793 37.5523L8.66699 37.5107L8.62539 36.4984L8.58379 35.5H7.55762H6.51758V36.54Z" fill="#DEA057"/>
<path d="M62.541 36.54V37.5801H61.501H60.4609V38.6201V39.6602H61.501H62.541V40.7002V41.7402H63.5811H64.6211V40.7002V39.6602H65.6611H66.7012V38.6201V37.5801H65.6611H64.6211V36.54V35.5H63.5811H62.541V36.54Z" fill="#DEA057"/>
<path d="M0 44.7217V45.7617H1.04004H2.08008V44.7217V43.6816H1.04004H0V44.7217Z" fill="#DEA057"/>
<path d="M68.9199 44.8604V45.9004H69.96H71V44.8604V43.8203H69.96H68.9199V44.8604Z" fill="#DEA057"/>
<path d="M40.6309 69.96V71H41.6709H42.7109V69.96V68.9199H41.6709H40.6309V69.96Z" fill="#DEA057"/>
</svg>
