<svg width="55" height="55" viewBox="0 0 55 55" fill="none" xmlns="http://www.w3.org/2000/svg">
<g clip-path="url(#clip0_621_39)">
<path d="M26.2645 0.075182C23.2567 0.472643 20.4852 2.45995 19.0995 5.20995C18.5194 6.33788 18.2401 7.48729 18.1757 8.90526C18.1112 10.4307 18.2401 11.3545 18.702 12.6113C19.3143 14.3086 20.5927 15.9736 22.0966 17.0371C25.0399 19.1426 28.9501 19.3252 32.1942 17.499C33.2792 16.8867 34.9227 15.2861 35.5458 14.2226C36.0184 13.4062 36.5663 12.0312 36.6737 11.333C36.7704 10.7422 36.4589 10.3125 35.9218 10.3125C35.4384 10.3125 35.1806 10.5918 35.0302 11.2685C34.869 12.0312 34.3642 13.1055 33.7841 13.9111C32.162 16.1885 29.2616 17.4668 26.5761 17.0908C24.7177 16.833 23.289 16.1133 21.9677 14.7812C21.2694 14.083 21.0009 13.7178 20.5927 12.8906C19.9696 11.623 19.7655 10.7744 19.7655 9.38866C19.7655 7.19725 20.4745 5.49999 22.0643 3.92088C23.6864 2.30956 25.2118 1.67577 27.4462 1.66503C28.9716 1.66503 29.7128 1.8369 31.0448 2.49217C31.7753 2.84667 32.1405 3.12596 32.9354 3.91014C33.7518 4.72655 33.9989 5.04881 34.4071 5.88671C34.6757 6.43456 34.9335 7.04686 34.9765 7.24022C35.0731 7.75585 35.3847 8.05663 35.8251 8.05663C36.244 8.05663 36.6308 7.72362 36.6308 7.35839C36.6308 7.0576 36.1903 5.76854 35.8788 5.15624C34.0956 1.65428 30.1425 -0.440443 26.2645 0.075182Z" fill="#CA9457"/>
<path d="M29.165 8.59374C27.9834 9.77538 26.9629 10.7422 26.9092 10.7422C26.8447 10.7422 26.1035 10.0439 25.2441 9.18456C23.8906 7.83105 23.6436 7.62695 23.3428 7.62695C22.9453 7.62695 22.5586 8.03515 22.5586 8.46484C22.5586 8.87304 26.3291 12.6435 26.834 12.7402C27.1885 12.8154 27.2422 12.7617 29.8203 10.1943C32.667 7.33691 32.7207 7.26171 32.1729 6.71386C31.6465 6.17675 31.5176 6.26269 29.165 8.59374Z" fill="#CA9457"/>
<path d="M42.1633 11.5908C41.9914 11.6982 40.509 13.1377 38.8762 14.7812C35.7072 17.9717 35.6213 18.0791 35.8683 18.8311C35.9435 19.0352 36.1369 19.3359 36.3088 19.4971C36.4914 19.6689 36.631 19.8623 36.631 19.9268C36.631 20.002 36.1476 20.5283 35.5568 21.0977C34.2033 22.4189 33.4728 22.7949 32.173 22.8594C31.4426 22.8916 31.1525 22.8486 30.2502 22.5693C29.4123 22.3008 29.0041 22.2363 28.2629 22.2363C26.4582 22.2363 25.3088 22.7412 23.7619 24.2129L22.7629 25.1797L20.6252 23.042L18.4767 20.9043L18.7453 20.625C19.0998 20.249 19.2609 19.7871 19.175 19.3359C19.1213 19.0244 18.5949 18.4551 16.0812 15.9199C14.4162 14.2441 12.923 12.8047 12.7619 12.7188C12.3967 12.5254 11.881 12.5254 11.5158 12.7188C11.3547 12.8047 8.83026 15.2861 5.8869 18.2295C1.65448 22.4727 0.548033 23.6543 0.48358 23.9229C0.322447 24.707 0.419127 24.8252 3.37323 27.8115C4.90936 29.3691 6.3703 30.7764 6.59588 30.9482C7.16522 31.3779 7.89569 31.3887 8.37909 30.9697L8.72284 30.6904L11.1828 33.1504C12.5363 34.5039 13.6428 35.6533 13.6428 35.707C13.6428 35.7607 12.5578 36.8994 11.2473 38.2314C9.17401 40.3262 8.81952 40.7344 8.66913 41.1855C8.45428 41.8086 8.4328 42.6787 8.61542 43.1943C8.95917 44.2148 9.94745 45.042 10.968 45.1816L11.4728 45.2461L11.5373 45.751C11.7092 47.0186 12.9982 48.2324 14.1799 48.2324C14.4484 48.2324 14.4806 48.2754 14.5988 48.8662C14.8029 49.8975 15.5226 50.7676 16.4894 51.1328C16.8547 51.2725 17.9826 51.3154 18.3264 51.1973C18.5197 51.1328 18.5842 51.1973 18.7346 51.5518C18.9601 52.1211 19.5832 52.8086 20.131 53.0879C20.3674 53.2061 20.8615 53.335 21.2267 53.3672C22.1506 53.4316 22.8381 53.1846 23.5793 52.5078L24.1701 51.9707L25.4377 53.1953C26.9846 54.6992 27.425 54.9355 28.6281 54.9463C29.3586 54.9463 29.5842 54.9033 30.0998 54.6455C31.1525 54.1299 31.8615 53.1201 31.9797 51.9492L32.0334 51.3799L32.4846 51.3691C34.0637 51.3047 35.5568 49.8223 35.5568 48.3076V47.8027H35.9865C37.4904 47.8027 38.9621 46.4277 39.1662 44.8379C39.2306 44.2793 39.2306 44.2793 39.6818 44.2148C40.9494 44.0215 41.884 43.3984 42.4103 42.3887C42.6574 41.916 42.7004 41.7119 42.7004 40.9277C42.7004 39.585 42.5178 39.2627 40.7346 37.4688L39.2736 35.9863L42.6467 32.6025L46.0197 29.2295L46.4816 29.6592C46.8791 30.0244 46.9972 30.0781 47.4592 30.0781C47.8674 30.0781 48.0822 30.0137 48.4045 29.7666C48.6301 29.5947 50.091 28.1875 51.6379 26.6191C54.0119 24.2344 54.4523 23.7295 54.5168 23.3965C54.6457 22.6875 54.4416 22.3652 52.8195 20.7539C51.5197 19.4756 51.2297 19.2285 50.9504 19.2285C50.5529 19.2285 50.1662 19.6152 50.1662 20.0342C50.1662 20.2812 50.424 20.5928 51.509 21.6885L52.8517 23.0527L50.1662 25.7275L47.4806 28.4131L42.4855 23.418L37.4904 18.4229L40.176 15.7373L42.8615 13.0518L45.4181 15.6084C47.631 17.8105 48.0178 18.1543 48.2971 18.1543C48.7053 18.1543 49.092 17.7676 49.092 17.3486C49.092 17.0801 48.673 16.6182 46.4387 14.3623C44.967 12.8906 43.6457 11.623 43.4846 11.5371C43.0871 11.333 42.55 11.3438 42.1633 11.5908ZM14.8459 16.9404L17.5099 19.6045L16.1564 20.958C14.9963 22.1289 14.8137 22.3545 14.8029 22.666C14.7922 23.0742 15.2111 23.5254 15.5978 23.5254C15.716 23.5254 16.1349 23.2139 16.5539 22.8057L17.3058 22.0859L19.4435 24.2236L21.5812 26.3613L20.9582 27.0273C20.0666 27.9834 19.8195 28.5312 19.8195 29.5947C19.8195 30.2393 19.884 30.5723 20.0558 30.9482C20.3781 31.6572 20.9797 32.2803 21.6779 32.624C22.1828 32.8711 22.4299 32.9248 23.0959 32.9141C24.3205 32.9141 24.6857 32.6992 26.4689 30.9482C27.3068 30.1318 28.134 29.3799 28.3273 29.2832C28.757 29.0684 29.6056 29.0576 30.0031 29.2725C30.4758 29.5088 40.799 39.7461 40.9924 40.165C41.218 40.627 41.1428 41.4863 40.8527 41.873C40.2726 42.6572 39.2199 42.8184 38.4035 42.2383C37.8342 41.8408 37.4367 41.8086 37.093 42.1309C36.7599 42.4424 36.7814 42.8184 37.1681 43.3877C37.5978 44.0107 37.673 44.4727 37.4367 45.0742C37.2004 45.708 36.674 46.1055 35.9758 46.1699C35.5031 46.2129 35.3742 46.1699 34.8156 45.8262C34.0851 45.375 33.967 45.3643 33.5803 45.665C33.2043 45.9658 33.215 46.4277 33.6232 47.04C33.881 47.416 33.9455 47.6309 33.9455 48.0605C33.9455 49.5645 32.3342 50.2949 31.0988 49.3496C30.6369 49.0059 30.1535 49.0059 29.8742 49.3711C29.5627 49.7578 29.5949 50.0693 29.9709 50.542C30.5724 51.3047 30.5295 52.1855 29.8635 52.8516C29.4015 53.3135 28.9289 53.4531 28.2844 53.335C27.9514 53.2812 27.6291 53.0234 26.6086 52.0137L25.3517 50.7676L25.8244 50.2734C26.5441 49.5322 26.7912 48.9629 26.7912 48.0713C26.7912 46.8467 26.1681 45.8262 25.1369 45.375C24.8254 45.2354 24.718 45.1387 24.7717 45.0098C24.8039 44.9238 24.8791 44.5801 24.9435 44.2578C25.1691 43.0654 24.5353 41.8193 23.3967 41.207C22.7844 40.874 22.7736 40.874 22.8596 40.498C22.9777 39.9395 22.9133 39.0908 22.7199 38.6396C22.4943 38.1025 21.8605 37.415 21.3342 37.1357C21.0549 36.9961 20.593 36.8887 20.0988 36.8564L19.3039 36.792L19.1642 36.3086C18.9709 35.6533 18.3908 34.998 17.7033 34.6543C17.0588 34.332 15.9308 34.2676 15.3185 34.5254L14.964 34.6758L12.3967 32.1084L9.82928 29.541L11.7951 27.5752C13.1056 26.2539 13.7502 25.5342 13.7502 25.373C13.7502 24.9863 13.299 24.5674 12.8908 24.5781C12.5685 24.5889 12.257 24.8574 10.0226 27.0918L7.51971 29.5947L4.83417 26.9092L2.14862 24.2236L7.11151 19.2607C9.85077 16.5215 12.1066 14.2871 12.1389 14.2871C12.1711 14.2871 13.3849 15.4795 14.8459 16.9404ZM44.7951 28.0908C44.7951 28.1553 43.3019 29.7021 41.465 31.5283L38.1349 34.8584L35.6642 32.3877C34.3107 31.0342 33.1935 29.8955 33.1935 29.8525C33.1935 29.8203 33.9133 29.5947 34.7834 29.3477C37.34 28.6279 37.4904 28.5742 37.716 28.3486C38.1457 27.9189 37.7805 27.0703 37.1574 27.0703C36.9748 27.0703 35.8254 27.3604 34.59 27.7148C33.3547 28.0693 32.2375 28.3594 32.0978 28.3594C31.9582 28.3594 31.4855 28.1875 31.0451 27.9727C30.3791 27.6396 30.089 27.5645 29.3801 27.5322C27.9406 27.4463 27.5754 27.6396 25.631 29.541C23.923 31.1953 23.5256 31.4531 22.8488 31.3242C22.0324 31.1738 21.3771 30.4111 21.3771 29.6377C21.3771 28.9609 21.7746 28.4238 23.7297 26.4902C26.05 24.2129 26.5119 23.9229 28.0373 23.8691C28.8 23.8369 29.09 23.8799 29.8097 24.1162C31.4963 24.6641 33.0861 24.5889 34.5793 23.8799C35.2131 23.5791 35.6105 23.2676 36.6203 22.29L37.8664 21.0654L41.3361 24.5244C43.2375 26.4258 44.7951 28.0264 44.7951 28.0908ZM17.1555 36.2012C17.3918 36.3408 17.5422 36.5449 17.6281 36.8457C17.8752 37.6729 17.7785 37.8232 14.8029 40.7881C12.4611 43.1084 12.0314 43.4951 11.6769 43.5596C10.8605 43.71 10.0978 43.0977 10.0978 42.2812C10.0978 42.0342 10.173 41.7119 10.2697 41.5723C10.5275 41.1855 15.0178 36.6631 15.5119 36.2979C16.0168 35.9219 16.6398 35.8789 17.1555 36.2012ZM20.8293 38.7256C21.0012 38.876 21.2053 39.166 21.2697 39.3701C21.5168 40.1006 21.3449 40.3369 18.5412 43.1729C15.3723 46.374 15.0822 46.6211 14.4377 46.6211C13.589 46.6211 12.9445 45.7832 13.1594 44.9346C13.2346 44.6123 18.6808 39.0371 19.2824 38.6611C19.7551 38.3604 20.4211 38.3926 20.8293 38.7256ZM22.6662 42.625C23.1603 42.8936 23.4611 43.4951 23.3644 44.0215C23.3 44.3652 22.924 44.7949 20.7541 46.9756C18.9064 48.8232 18.1115 49.5537 17.8537 49.6182C16.8869 49.8867 15.9094 48.9199 16.2101 47.9854C16.2853 47.7598 17.1555 46.8145 18.8205 45.1602C20.1955 43.7852 21.4201 42.6143 21.5383 42.5498C21.8605 42.3779 22.2473 42.4102 22.6662 42.625ZM24.7502 47.0508C24.9543 47.2334 25.1584 47.5234 25.1906 47.6953C25.341 48.3613 25.1691 48.6514 23.7512 50.0908C23.0099 50.8535 22.2687 51.541 22.1076 51.627C21.1301 52.1426 19.9484 51.2725 20.1525 50.1875C20.217 49.876 20.4748 49.5322 21.4201 48.5654C22.9455 46.9971 23.3107 46.7285 23.9123 46.7285C24.2775 46.7285 24.4601 46.8037 24.7502 47.0508Z" fill="#CA9457"/>
</g>
<defs>
<clipPath id="clip0_621_39">
<rect width="55" height="55" fill="white"/>
</clipPath>
</defs>
</svg>
