<svg width="71" height="71" viewBox="0 0 71 71" fill="none" xmlns="http://www.w3.org/2000/svg">
<g clip-path="url(#clip0_875_7)">
<path d="M10.6087 0.208008C9.16655 0.748825 8.32066 2.03848 8.32066 3.70254V4.71484H6.823C5.22827 4.71484 4.13277 4.92285 3.16206 5.42207C2.35777 5.82422 1.22066 6.94746 0.790773 7.73789C-0.0412578 9.26328 0.000343815 7.9043 0.000343815 33.1426C0.000343815 58.0342 -0.0273906 56.9664 0.693703 58.3947C1.40093 59.7676 3.00952 61.0018 4.57652 61.3484C5.35308 61.5287 6.53179 61.5703 11.0664 61.5703H16.5994L17.7781 62.9293C21.647 67.3807 27.0552 70.1818 33.0736 70.8613C40.5341 71.6934 48.2443 68.6564 53.2365 62.9154L54.4013 61.5703H59.9621C67.0205 61.5703 67.5197 61.4732 69.2115 59.7814C70.0851 58.8939 70.4873 58.2145 70.7923 57.0357C71.1113 55.8432 71.1113 10.442 70.7923 9.24941C70.5011 8.12617 70.1128 7.41894 69.3224 6.58691C68.0466 5.24179 66.6044 4.71484 64.1777 4.71484H62.68V3.70254C62.68 2.89824 62.6107 2.55156 62.3195 1.96914C61.2378 -0.208008 58.298 -0.651764 56.6339 1.13711C55.9406 1.8582 55.7048 2.45449 55.6355 3.6332L55.5662 4.71484H53.2503H50.9345L50.8652 3.6332C50.7959 2.45449 50.5601 1.8582 49.8668 1.13711C48.1888 -0.651764 45.2767 -0.221878 44.1812 1.96914C43.89 2.55156 43.8207 2.88437 43.8207 3.70254V4.71484H41.4771H39.1474L39.0642 3.6748C38.9255 2.03848 38.4263 1.17871 37.1783 0.443748C36.6375 0.124802 36.3878 0.0693359 35.5003 0.0693359C34.6128 0.0693359 34.3632 0.124802 33.8224 0.443748C32.5744 1.17871 32.0751 2.03848 31.9365 3.6748L31.8533 4.71484H29.5236H27.18V3.70254C27.18 2.89824 27.1107 2.55156 26.8195 1.96914C25.7517 -0.166412 23.006 -0.637894 21.2449 1.02617C20.5099 1.70566 20.2048 2.42676 20.1355 3.6332L20.0662 4.71484H17.7503H15.4345L15.3652 3.6332C15.2681 2.08008 14.6302 1.02617 13.3822 0.388275C12.675 0.0138626 11.3437 -0.0693359 10.6087 0.208008ZM12.6334 2.75957L13.0355 3.16171V5.82422C13.0355 8.50058 12.98 8.875 12.4947 9.24941C12.1203 9.54062 11.3992 9.45742 11.0248 9.083C10.6781 8.75019 10.6781 8.73632 10.6781 5.93515C10.6919 3.00918 10.7197 2.85664 11.3021 2.52383C11.7597 2.26035 12.2035 2.34355 12.6334 2.75957ZM24.1709 2.52383C24.781 2.84277 24.8087 2.99531 24.8226 5.93515C24.8226 8.73632 24.8226 8.75019 24.4759 9.083C24.1015 9.45742 23.3804 9.54062 23.006 9.24941C22.5207 8.875 22.4652 8.50058 22.4652 5.82422V3.16171L22.8673 2.75957C23.2972 2.32968 23.6855 2.26035 24.1709 2.52383ZM36.263 2.69023C36.7207 3.14785 36.7761 3.6332 36.7207 6.37891L36.6791 8.76406L36.2908 9.09687C36.0689 9.27715 35.7222 9.42968 35.5003 9.42968C35.2785 9.42968 34.9318 9.27715 34.7099 9.09687L34.3216 8.76406L34.28 6.37891C34.2523 5.06152 34.2662 3.77187 34.3216 3.50839C34.4464 2.85664 34.9595 2.35742 35.5003 2.35742C35.7638 2.35742 36.055 2.48222 36.263 2.69023ZM48.1334 2.75957L48.5355 3.16171V5.82422C48.5355 8.50058 48.48 8.875 47.9947 9.24941C47.6203 9.54062 46.8992 9.45742 46.5248 9.083C46.1781 8.75019 46.1781 8.73632 46.1781 5.93515C46.1919 3.00918 46.2197 2.85664 46.8021 2.52383C47.2597 2.26035 47.7035 2.34355 48.1334 2.75957ZM59.6709 2.52383C60.281 2.84277 60.3087 2.99531 60.3226 5.93515C60.3226 8.73632 60.3226 8.75019 59.9759 9.083C59.6015 9.45742 58.8804 9.54062 58.506 9.24941C58.0207 8.875 57.9652 8.50058 57.9652 5.82422V3.16171L58.3673 2.75957C58.7972 2.32968 59.1855 2.26035 59.6709 2.52383ZM8.32066 8.0707C8.32066 10.2894 9.74898 11.7732 11.8707 11.7871C13.9646 11.7871 15.3929 10.1924 15.3929 7.84882V7.07226H17.7503H20.1078V7.87656C20.1078 10.1924 21.55 11.7871 23.63 11.7871C25.7517 11.7732 27.18 10.2894 27.18 8.0707V7.07226H29.5236H31.8533L31.9365 8.0707C32.0335 9.42968 32.3525 10.1369 33.1429 10.858C34.5435 12.1199 36.5959 12.1061 37.9132 10.8441C38.6343 10.1508 38.981 9.33261 39.0642 8.09843L39.1474 7.07226H41.4771H43.8207V8.0707C43.8345 10.2894 45.249 11.7871 47.3707 11.7871C49.4646 11.7871 50.8929 10.1924 50.8929 7.84882V7.07226H53.2503H55.6078V7.87656C55.6078 10.1924 57.05 11.7871 59.13 11.7871C61.2517 11.7871 62.6662 10.2894 62.68 8.0707V7.07226H64.039C65.7308 7.07226 66.6599 7.33574 67.4087 8.00136C68.4349 8.93047 68.5597 9.33261 68.6152 11.8842L68.6707 14.1445H35.5003H2.33003L2.3855 11.8842C2.4271 9.90117 2.4687 9.56836 2.73218 9.083C3.50874 7.64082 4.65972 7.08613 6.9062 7.07226H8.32066V8.0707ZM68.6152 36.332C68.6429 58.2283 68.7123 56.8 67.7416 57.9371C67.4781 58.2422 66.965 58.6443 66.5906 58.8246C65.9527 59.1436 65.8556 59.1436 60.9882 59.1852C58.2564 59.2129 56.0238 59.199 56.0238 59.1574C56.0238 59.1158 56.3289 58.4779 56.7033 57.7291C59.4906 52.1406 59.9205 45.734 57.9097 39.7434C55.1779 31.5756 48.1334 25.5018 39.5773 23.9764C37.2615 23.5604 33.7392 23.5604 31.4234 23.9764C17.1263 26.5418 8.48706 41.0885 13.1048 54.8725C13.3683 55.6768 13.9091 56.9664 14.2835 57.7152C14.6718 58.4779 14.9769 59.1297 14.9769 59.1574C14.9769 59.199 12.7443 59.2129 10.0263 59.1852C5.14507 59.1436 5.048 59.1436 4.41011 58.8246C4.0357 58.6443 3.53648 58.2422 3.273 57.9371C2.3023 56.8 2.35777 58.2422 2.35777 36.4014C2.35777 25.5572 2.39937 16.6406 2.45484 16.599C2.49644 16.5436 17.4037 16.5158 35.5558 16.5297L68.5736 16.5713L68.6152 36.332ZM39.8269 26.4725C42.5033 27.0549 45.0964 28.1504 47.4261 29.6896C49.2427 30.8961 51.933 33.5863 53.1533 35.4307C58.4783 43.4875 57.8959 53.7353 51.7111 61.1127C48.688 64.7182 44.4308 67.2004 39.5218 68.2404C37.5527 68.6564 33.7253 68.698 31.7562 68.3098C25.932 67.1727 21.023 63.9555 17.8058 59.1436C12.9939 51.9187 13.0078 42.7525 17.8474 35.4307C18.9013 33.8498 21.55 31.1041 23.0199 30.0641C25.8626 28.0811 28.9273 26.8191 32.2416 26.2783C34.0443 25.9871 38.038 26.098 39.8269 26.4725Z" fill="#DEA057"/>
<path d="M32.2273 28.6912C28.2891 29.4123 25.0025 31.1457 22.1182 34.0301C20.468 35.6942 19.4695 37.067 18.5127 39.0361C14.3803 47.509 17.0982 57.743 24.8777 62.9709C27.0826 64.4547 29.1211 65.3145 31.7975 65.8969C33.6695 66.2852 37.0531 66.3268 38.8836 65.9662C48.5767 64.0248 55.025 55.6629 54.3455 45.8865C53.8185 38.3983 48.6599 31.7836 41.5322 29.4123C39.4521 28.7328 38.3705 28.5525 35.916 28.4832C34.1133 28.4416 33.3367 28.4832 32.2273 28.6912ZM37.8019 30.9377C39.466 31.1596 41.1162 31.6865 42.808 32.5186C47.1762 34.668 50.2963 38.4953 51.5443 43.224C51.9742 44.8881 52.1267 47.9943 51.8633 49.8109C51.2947 53.7354 49.0482 57.6598 45.9697 60.142C41.4213 63.7891 35.708 64.8291 30.2305 63.0264C24.5865 61.1543 20.3154 56.2037 19.1922 50.227C18.8455 48.3965 18.9842 45.0406 19.4557 43.224C20.4125 39.6047 22.5896 36.332 25.5295 34.1133C27.5402 32.6018 30.6603 31.2844 33.0732 30.9377C34.2797 30.7713 36.5678 30.7574 37.8019 30.9377Z" fill="#DEA057"/>
<path d="M40.4229 37.0115C40.201 37.1502 39.9098 37.3859 39.7711 37.5246C39.6463 37.6633 38.01 40.1316 36.124 42.9883C34.2381 45.8449 32.6711 48.2162 32.6434 48.244C32.6018 48.2856 32.0609 47.8141 31.4369 47.19C30.1057 45.8727 29.9115 45.7617 29.024 45.7617C28.0949 45.7756 27.5957 46.0945 26.3893 47.4397C25.3492 48.5906 24.8361 49.4504 24.8223 49.9912C24.8223 50.9758 25.0719 51.3225 28.0533 54.3317C29.6758 55.968 31.2428 57.424 31.534 57.5766C32.8098 58.2283 34.5709 57.9926 35.6248 57.0219C36.2072 56.4811 45.4566 42.5445 45.9281 41.4768C46.2609 40.7557 46.1777 39.9098 45.7201 39.2164C45.5398 38.9668 44.7355 38.3012 43.9174 37.7465C42.5029 36.7897 42.392 36.7481 41.6293 36.7481C41.1023 36.7481 40.7002 36.8313 40.4229 37.0115ZM43.0992 40.0484L43.8203 40.5338L43.5984 40.8943C39.2025 47.7031 34.0578 55.3162 33.7666 55.441C32.9207 55.8293 32.8236 55.76 29.9254 52.8617L27.1797 50.1299L28.0949 49.1176L29.024 48.1053L30.6465 49.7C32.0055 51.0451 32.3383 51.3086 32.6988 51.3086C32.9346 51.3086 33.2258 51.267 33.3506 51.2254C33.4754 51.1699 35.3891 48.4242 37.5939 45.11L41.6154 39.0777L41.9898 39.3274C42.1979 39.466 42.6971 39.785 43.0992 40.0484Z" fill="#DEA057"/>
</g>
<defs>
<clipPath id="clip0_875_7">
<rect width="71" height="71" fill="white"/>
</clipPath>
</defs>
</svg>
