<svg width="55" height="55" viewBox="0 0 55 55" fill="none" xmlns="http://www.w3.org/2000/svg">
<path d="M40.1973 0.0751915C39.8213 0.225582 39.7998 0.515621 39.7461 6.15527L39.6924 11.7305L36.4697 13.4814C34.6973 14.4482 33.2148 15.2109 33.1719 15.1787C33.1182 15.1572 33.0859 15.0605 33.0859 14.9746C33.0859 14.6631 31.8076 12.2891 31.4531 11.9561C30.6152 11.1504 29.5732 11.0322 28.3272 11.623C26.9629 12.2783 26.3184 13.2344 26.458 14.416C26.5439 15.082 27.7256 17.4023 28.1875 17.8105L28.5205 18.1006L28.2412 18.6807C27.8223 19.5186 27.3496 21.1836 27.4355 21.5273C27.4785 21.71 27.6397 21.8818 27.8652 21.9785C28.1768 22.1289 28.2627 22.1396 28.5313 22.0107C28.7891 21.8818 28.8857 21.7207 29.0898 21.0547C29.5195 19.6797 29.6699 19.3144 29.96 19.0029C30.1211 18.8203 32.4736 17.4775 35.4492 15.8662C41.1211 12.7832 40.917 12.8584 40.5518 13.9756C40.208 14.9961 39.6494 15.4365 35.3955 18.0039C33.2686 19.2822 31.4639 20.4102 31.3994 20.4961C31.3242 20.5928 31.2598 20.8184 31.2598 21.0117C31.2598 21.4307 31.7109 21.8496 32.0869 21.7744C32.2266 21.7529 32.334 21.7852 32.3232 21.8496C32.3232 21.9141 32.0225 22.8379 31.6572 23.8906L30.9912 25.8242L29.2295 26.5547C28.252 26.9521 27.4355 27.2637 27.4141 27.2314C27.3926 27.21 27.5537 26.5332 27.7793 25.7383C28.1123 24.5137 28.1553 24.2344 28.0586 24.0088C27.8223 23.4932 26.9951 23.418 26.6943 23.8906C26.6191 24.0088 26.2754 25.083 25.9424 26.2646C25.2764 28.6064 25.2871 28.499 25.04 33.4082L24.9434 35.3955L23.2031 39.0479C22.2363 41.0566 21.4092 42.7646 21.3447 42.8291C21.2695 42.9258 20.7969 42.9687 19.6689 42.9687C18.1865 42.9687 18.0576 42.9902 17.5313 43.248C16.3604 43.8281 16.0059 44.6123 16.0059 46.6426V48.0176L15.7266 47.9102C15.5654 47.8457 13.8252 47.8027 11.5371 47.8027C7.17578 47.8027 7.16504 47.8027 6.40234 48.5332C5.67188 49.2314 5.58594 49.543 5.58594 51.584V53.3887H4.45801C3.39453 53.3887 3.30859 53.4102 3.06152 53.6572C2.71777 53.9902 2.71777 54.3984 3.06152 54.7314L3.31934 55H27.3711H51.4229L51.6484 54.7529C51.96 54.4199 51.96 53.9258 51.6377 53.625C51.4121 53.4102 51.2725 53.3887 50.1875 53.3887H48.9844V42.668V31.9473L48.7051 31.3887C48.5547 31.0771 48.2539 30.6904 48.0391 30.5078C47.3301 29.917 46.9648 29.8633 44.0215 29.8633H41.3574V22.9131V15.9521L41.7871 15.0928C42.292 14.0723 42.4639 13.1377 42.335 12.1816C42.2168 11.3437 42.0879 11.1182 41.6797 10.9785C41.3682 10.8603 41.3574 10.8389 41.3574 10.1621V9.45312H46.2988C51.8311 9.45312 51.8096 9.45312 52.1426 8.75488C52.4863 8.04589 52.3037 7.72363 50.8106 6.43457C49.833 5.58593 49.5537 5.29589 49.6611 5.20996C49.7363 5.1455 50.3164 4.65136 50.9502 4.09277C52.2715 2.94336 52.4756 2.56738 52.1641 1.92285C51.8311 1.21386 52.0244 1.23535 46.4385 1.20312L41.3574 1.17089V0.816402C41.3574 0.236324 40.7559 -0.150394 40.1973 0.0751915ZM49.8438 2.90039C49.8438 2.9541 49.8115 3.00781 49.7686 3.00781C49.7148 3.00781 49.2529 3.40527 48.7373 3.89941C47.8779 4.69433 47.7813 4.82324 47.7275 5.25293L47.6631 5.72558L48.7803 6.78906L49.8975 7.84179L45.6543 7.82031L41.4111 7.78808L41.3789 5.4248C41.3682 4.125 41.3789 3.00781 41.4004 2.93261C41.4756 2.76074 49.8438 2.72851 49.8438 2.90039ZM30.3897 13.1699C30.7441 13.6211 31.582 15.3291 31.582 15.5977C31.582 15.9736 31.3027 16.3066 30.7227 16.5967C30.1318 16.8975 29.6914 16.9404 29.3799 16.7148C29.2617 16.6289 28.9072 16.0381 28.585 15.3828C27.9297 14.0508 27.9189 13.8252 28.5205 13.3633C29.2939 12.7725 30.0244 12.6973 30.3897 13.1699ZM39.7461 23.5791V29.8633H39.4561C39.0264 29.8633 38.1348 30.3145 37.7373 30.7227C37.0283 31.4531 37.0068 31.5391 36.9746 34.8799C36.9531 36.5557 36.9102 37.9199 36.8672 37.9199C36.8242 37.9199 36.6094 37.8662 36.3945 37.8125C36.04 37.7051 35.9971 37.6621 36.04 37.4043C36.2012 36.5234 36.6416 32.624 36.6416 32.1084C36.6523 31.2168 36.3623 30.7441 34.332 28.3379L32.5596 26.2324L33.5264 23.332L34.4932 20.4316L36.502 19.2178C37.6084 18.5518 38.7578 17.8428 39.0479 17.6602C39.3486 17.4668 39.6172 17.3057 39.6709 17.3057C39.7139 17.2949 39.7461 20.1201 39.7461 23.5791ZM29.9063 31.582C29.3262 34.7832 29.165 35.4492 28.9502 35.7715C28.7998 35.9756 27.5322 37.6728 26.125 39.5312C23.8906 42.4961 23.2031 43.291 23.2031 42.8828C23.2031 42.8184 23.9336 41.2393 24.8145 39.3701C26.6729 35.46 26.5439 36.0078 26.7588 31.7432C26.8232 30.3789 26.9092 29.2617 26.9522 29.2402C27.2744 29.0898 30.5723 27.7471 30.583 27.7578C30.5938 27.7686 30.293 29.4873 29.9063 31.582ZM33.4619 29.8203C34.9336 31.5605 35.0195 31.6895 35.0195 32.2373C35.0195 32.6455 34.5791 36.4697 34.4287 37.3506C34.375 37.6406 34.3105 37.7051 34.1064 37.7051C33.9561 37.7051 33.8379 37.6943 33.8379 37.6728C33.8379 37.6621 33.7197 36.5664 33.5801 35.2344C33.4082 33.5586 33.2793 32.71 33.1504 32.4629C33.0322 32.248 32.6992 31.9258 32.291 31.668L31.6143 31.2383L31.7432 30.5293C31.8184 30.1318 31.9365 29.4551 32.0117 29.0146C32.1191 28.3809 32.1729 28.2412 32.2695 28.3701C32.334 28.4561 32.8711 29.1113 33.4619 29.8203ZM46.7607 31.5928C46.8897 31.6572 47.083 31.8184 47.1797 31.9473C47.3516 32.1621 47.3731 32.8926 47.3731 42.7754V53.3887H42.9688H38.5645V50.9072C38.5645 47.9854 38.5107 47.8027 37.7373 47.8027C37.5225 47.8027 37.2969 47.8887 37.168 48.0176C36.9639 48.2217 36.9531 48.3721 36.9531 50.8105V53.3887H32.4951H28.0264L28.0586 46.7607C28.0908 39.4668 28.0586 39.7998 28.7461 39.4775C29.251 39.2412 35.8467 39.2412 36.3086 39.4775C36.8994 39.7783 36.9531 40.0361 36.9531 42.5391C36.9531 44.8057 36.9531 44.8057 37.2217 45.0635C37.5547 45.4072 37.9629 45.4072 38.2959 45.0635L38.5645 44.8057V38.5V32.2051L38.9297 31.8398L39.2949 31.4746H42.915C45.3643 31.4746 46.5996 31.5176 46.7607 31.5928ZM31.5928 33.1182C31.7324 33.2256 31.8184 33.7305 31.9902 35.4492C32.1084 36.6631 32.1943 37.6621 32.1729 37.6836C32.1621 37.6943 31.5605 37.6943 30.8516 37.6836L29.5518 37.6514L30.0781 36.9531C30.6475 36.2012 30.8086 35.7178 31.1094 34.0205C31.2168 33.4512 31.3242 32.9785 31.3564 32.9785C31.3887 32.9785 31.4961 33.043 31.5928 33.1182ZM26.4258 42.4961V43.0977L26.082 43.0225C25.8887 42.9795 25.7061 42.9258 25.6846 42.9043C25.6523 42.8721 26.3291 41.8945 26.3936 41.8945C26.415 41.8945 26.4258 42.1631 26.4258 42.4961ZM26.1143 44.8916L26.4258 45.2031V49.2959V53.3887H22.0215H17.6172V49.4033C17.6172 45.2676 17.6279 45.1387 18.0898 44.7734C18.2939 44.6016 18.6699 44.5801 22.0537 44.5801H25.8027L26.1143 44.8916ZM15.4795 49.5215C15.9092 49.7578 16.0059 50.1768 16.0059 51.8311V53.3887H11.6016H7.19727V51.7129V50.0371L7.50879 49.7256L7.82031 49.4141H11.5479C13.8896 49.4141 15.3398 49.457 15.4795 49.5215Z" fill="#CA9457"/>
</svg>
