<svg width="71" height="71" viewBox="0 0 71 71" fill="none" xmlns="http://www.w3.org/2000/svg">
<path d="M23.8518 2.28809C23.7408 2.31582 23.1723 2.41289 22.6037 2.49609C16.9598 3.41132 11.9953 7.55761 9.90137 13.1322C9.24961 14.8379 9 16.2801 8.9168 18.7484L8.83359 21.0504L8.09863 21.1475C7.07246 21.2723 5.5748 22.0488 4.85371 22.8254C4.53477 23.1721 4.07715 23.8654 3.84141 24.3785C3.43926 25.2244 3.39766 25.4324 3.39766 26.6389C3.39766 27.8869 3.42539 28.0117 3.92461 29.0102C4.28516 29.759 4.65957 30.2582 5.14492 30.6881L5.85215 31.2982L5.67188 32.158C5.43613 33.4061 5.58867 34.5432 6.17109 35.7219C7.2666 37.9684 9.73496 39.1887 12.2033 38.7033L13.0492 38.5369L13.6732 39.2303C15.1154 40.8389 17.7225 41.4629 19.7332 40.6863C19.9551 40.6031 19.9828 40.6586 19.9412 40.9775C19.8996 41.352 19.8164 41.3797 14.2834 43.127C11.191 44.0838 8.37598 45.0129 8.01543 45.1654C5.5748 46.2609 3.53633 48.5906 2.62109 51.3779C2.30215 52.3348 2.28828 52.418 2.24668 60.2113L2.20508 68.0879L2.55176 68.4346L2.89844 68.7812H32.1721H61.4457L61.7785 68.4346C62.1113 68.1156 62.1252 68.0047 62.1252 66.5486C62.1252 64.5518 61.9727 64.0387 61.0852 63.165C60.1838 62.2498 59.7123 62.125 57.3549 62.125H55.4689V52.1406V42.1562H58.4504C60.0867 42.1562 61.4318 42.2117 61.4318 42.2672C61.4318 42.3227 60.5859 44.2779 59.5459 46.5937L57.66 50.8232L57.7432 51.6553C57.8541 52.7785 58.6029 54.2762 59.435 55.0389C59.7816 55.3717 60.475 55.8293 60.9881 56.065C61.834 56.4672 62.042 56.5088 63.2346 56.5088C64.4272 56.5088 64.6352 56.4672 65.4811 56.065C65.9941 55.8293 66.6875 55.3717 67.0342 55.0389C67.8662 54.2762 68.615 52.7785 68.726 51.6553L68.8092 50.8232L66.9232 46.5937C65.8832 44.2779 65.0373 42.3227 65.0373 42.2672C65.0373 42.2117 65.384 42.1562 65.8 42.1562H66.5627V41.0469V39.9375H60.891H55.2193L55.0529 39.5215C54.6646 38.5785 53.2641 37.7187 52.1408 37.7187C51.0176 37.7187 49.617 38.5785 49.2287 39.5215L49.0623 39.9375H43.3906H37.7189V41.0469V42.1562H38.4816C38.8977 42.1562 39.2443 42.2117 39.2443 42.2672C39.2443 42.3227 38.5926 43.8342 37.8022 45.6092L36.36 48.8541L36.0549 47.8279C35.8885 47.2594 35.6389 46.4135 35.5002 45.9281L35.2367 45.0406L35.7775 45.1377L36.3184 45.2348L36.6096 44.2363C36.776 43.6816 36.8869 43.2102 36.8453 43.1824C36.8176 43.1408 35.5141 42.7248 33.9609 42.2395C31.2291 41.3936 31.132 41.3381 31.0904 40.9775C31.0488 40.6586 31.0766 40.6031 31.2984 40.6863C33.3092 41.4629 35.9162 40.8389 37.3584 39.2303L37.9824 38.5369L38.8283 38.7033C41.2967 39.1887 43.765 37.9684 44.8605 35.7219C45.443 34.557 45.5955 33.4061 45.3598 32.1719L45.1934 31.3398L45.9699 30.591C46.4691 30.1057 46.899 29.4955 47.1902 28.8853C47.5924 28.0256 47.634 27.8176 47.634 26.625C47.634 25.4324 47.5924 25.2244 47.1902 24.3785C46.9545 23.8654 46.4969 23.1721 46.1779 22.8254C45.4568 22.0488 43.9592 21.2723 42.933 21.1475L42.198 21.0504L42.1148 18.7484C42.0039 15.4896 41.5463 13.6592 40.1873 11.066C37.9963 6.85039 33.8777 3.70254 29.1213 2.6209C28.0396 2.37128 24.4342 2.13554 23.8518 2.28809ZM27.7762 4.64551C29.1213 4.88125 31.0072 5.4498 31.3955 5.72715C31.6451 5.90742 31.6451 5.93515 31.4094 6.67011C29.9811 11.0244 25.9318 14.8656 20.8287 16.6961C19.4004 17.2092 17.2232 17.6252 15.4621 17.7084C14.1309 17.7916 13.909 17.8332 13.6316 18.1105L13.3127 18.4295V22.9779C13.3127 27.665 13.3959 28.6912 13.8813 30.2305C14.7826 33.0732 16.8211 35.6664 19.2479 37.0531C20.2186 37.6078 20.1908 37.9129 19.1508 38.4398C17.9027 39.0777 16.6686 38.9113 15.6146 37.9684C15.2818 37.691 14.8797 37.1641 14.7133 36.8312C14.2557 35.8605 13.6455 35.6803 12.6193 36.2072C11.2881 36.9006 9.8875 36.6787 8.79199 35.5832C7.69648 34.4877 7.47461 33.0871 8.16797 31.7559C8.52852 31.0625 8.54238 30.3553 8.22344 30.0641C8.08477 29.9393 7.71035 29.7174 7.40527 29.5648C6.68418 29.2043 5.92148 28.3168 5.71348 27.6096C5.3252 26.3615 5.61641 25.3076 6.58711 24.3369C7.44688 23.4633 8.12637 23.2414 9.44375 23.3662C10.3174 23.4494 10.4145 23.4355 10.7195 23.1305C11.0523 22.7977 11.0662 22.7422 11.1355 19.6775C11.191 17.1537 11.2465 16.3771 11.4822 15.5312C11.9537 13.7424 12.5916 12.3002 13.4652 10.9689C16.5992 6.2125 22.3125 3.68867 27.7762 4.64551ZM34.4879 7.59922C36.0688 8.86113 37.4971 10.65 38.44 12.5498C39.5633 14.7963 39.9377 16.7377 39.9377 20.2738C39.9377 22.7422 39.9377 22.7561 40.2982 23.1027C40.6311 23.4355 40.7004 23.4633 41.5879 23.3662C42.9053 23.2414 43.5848 23.4633 44.4445 24.3369C45.4152 25.3076 45.7064 26.3615 45.3182 27.6096C45.1102 28.3168 44.3475 29.2043 43.6264 29.5648C43.3213 29.7174 42.9469 29.9393 42.8221 30.0641C42.4893 30.3553 42.5031 31.0625 42.8637 31.7559C43.557 33.0871 43.3352 34.4877 42.2397 35.5832C41.1441 36.6787 39.7436 36.9006 38.4123 36.2072C37.3723 35.6664 36.7898 35.8467 36.2629 36.8729C35.3893 38.6201 33.5311 39.2857 31.8809 38.4398C30.9102 37.9545 30.8408 37.6217 31.6035 37.1918C32.699 36.5678 34.1689 35.292 35.0287 34.2104C36.041 32.9207 36.7205 31.6033 37.2613 29.8699L37.6357 28.6357L37.6912 22.9918L37.7328 17.334L37.3861 16.9873C37.0811 16.6961 36.9146 16.6406 36.152 16.6406C35.0426 16.6406 33.434 16.2385 32.3385 15.6838C31.4371 15.2262 29.8146 13.9504 29.8146 13.7008C29.8146 13.6176 30.1613 13.1322 30.5773 12.6053C31.6174 11.3572 32.602 9.67929 33.1705 8.25097C33.4201 7.59922 33.6697 7.07226 33.7252 7.07226C33.7668 7.07226 34.1135 7.30801 34.4879 7.59922ZM28.2893 15.3787C28.2893 15.6283 30.1752 17.0705 31.2014 17.5975C32.2969 18.1799 34.0164 18.7207 34.7375 18.7207C35.5557 18.7207 35.5279 18.5404 35.4725 23.7268C35.417 28.4693 35.417 28.5109 35.0426 29.6064C34.5156 31.2012 33.7807 32.366 32.5188 33.6279C31.2568 34.8898 30.092 35.6248 28.4973 36.1518C27.5127 36.4707 27.166 36.5123 25.5158 36.5123C23.8656 36.5123 23.5189 36.4707 22.5344 36.1518C20.9396 35.6248 19.7748 34.8898 18.5129 33.6279C17.251 32.366 16.516 31.2012 15.9891 29.6064C15.6285 28.5248 15.6146 28.4139 15.5592 24.226C15.5314 21.3555 15.5592 19.9687 15.6563 19.9687C16.2387 19.9687 19.123 19.4973 19.9689 19.2754C22.3818 18.6098 24.8363 17.4588 26.7916 16.0859C27.9148 15.2955 28.2893 15.1152 28.2893 15.3787ZM23.8518 38.7033C25.183 38.9252 26.5697 38.8559 28.4002 38.4676L28.8439 38.3705V39.9791V41.5877L27.1799 42.8496L25.5158 44.1115L23.8518 42.8496L22.1877 41.5877V39.9791V38.3705L22.6453 38.4676C22.8811 38.523 23.4357 38.6201 23.8518 38.7033ZM52.9035 40.2842C53.5969 40.9637 53.1115 42.1562 52.1408 42.1562C51.5723 42.1562 51.0314 41.6154 51.0314 41.0469C51.0314 40.4783 51.5723 39.9375 52.1408 39.9375C52.4043 39.9375 52.6955 40.0623 52.9035 40.2842ZM48.8127 52.1406V62.125H46.9268C44.5693 62.125 44.0979 62.2498 43.1965 63.165C42.4061 63.9416 42.1564 64.5795 42.1564 65.7859V66.5625H41.0471C40.4369 66.5625 39.9377 66.5348 39.9377 66.507C39.9377 66.299 40.3537 65.3977 40.7975 64.635C41.4631 63.484 42.0039 61.8338 42.1148 60.5441C42.198 59.5596 41.9623 57.6182 41.7404 57.4795C41.685 57.4379 41.1857 57.5488 40.6311 57.7152C39.7574 57.9787 39.6465 58.048 39.7297 58.2977C39.7713 58.4641 39.8406 58.991 39.8822 59.4902C40.007 60.7799 39.6604 62.0418 38.759 63.7336C38.343 64.5102 37.927 65.4531 37.8438 65.8553L37.6912 66.5625H32.7129C29.7453 66.5625 27.7484 66.507 27.79 66.4377C27.8455 66.3684 29.5928 63.9555 31.6867 61.0711C33.8361 58.1174 35.5002 55.7045 35.5002 55.5381C35.5002 55.3855 35.2922 54.609 35.0287 53.8463L34.5572 52.4457L35.0287 51.9881C35.3615 51.6691 35.5141 51.5998 35.5418 51.7385C35.9439 53.1529 36.1104 53.5689 36.4848 54.1236C38.3291 56.9248 42.3367 57.3547 44.8467 55.0389C45.6787 54.2762 46.4275 52.7785 46.5385 51.6553L46.6217 50.8232L44.7357 46.5937C43.6957 44.2779 42.8498 42.3227 42.8498 42.2672C42.8498 42.2117 44.1949 42.1562 45.8313 42.1562H48.8127V52.1406ZM22.2016 44.375C22.9227 44.9158 23.5189 45.4012 23.5328 45.4566C23.5744 45.5814 20.6762 47.6199 20.593 47.5367C20.5514 47.509 20.3156 46.7879 20.066 45.9559C19.8025 45.1238 19.5529 44.3057 19.4975 44.1393C19.4143 43.8619 19.4697 43.8064 20.066 43.6262C20.4266 43.5152 20.7732 43.4182 20.8148 43.4182C20.8564 43.4043 21.4805 43.848 22.2016 44.375ZM30.9795 43.6262C31.548 43.8203 31.6174 43.8896 31.5342 44.1531C31.4787 44.3057 31.2291 45.1238 30.9656 45.9559C30.716 46.7879 30.4803 47.509 30.4525 47.5367C30.3832 47.5922 27.6375 45.6785 27.5404 45.4982C27.4711 45.4012 30.0504 43.4043 30.2307 43.4043C30.2861 43.4043 30.6189 43.5014 30.9795 43.6262ZM42.4061 46.8295C43.1133 48.4242 43.6818 49.7555 43.6818 49.8109C43.6818 49.8803 42.5031 49.9219 41.0471 49.9219C39.6049 49.9219 38.4123 49.8803 38.4123 49.8109C38.4123 49.6307 40.9639 43.959 41.0471 43.959C41.0887 43.959 41.6988 45.2486 42.4061 46.8295ZM64.5936 46.8295C65.3008 48.4242 65.8693 49.7555 65.8693 49.8109C65.8693 49.8803 64.6906 49.9219 63.2346 49.9219C61.7924 49.9219 60.5998 49.8803 60.5998 49.8109C60.5998 49.6307 63.1514 43.959 63.2346 43.959C63.2762 43.959 63.8863 45.2486 64.5936 46.8295ZM53.2502 53.2084V62.125H52.1408H51.0314V53.2084V44.3057H52.1408H53.2502V53.2084ZM15.1016 47.3842C14.7271 48.6738 14.4221 49.8664 14.4221 50.0467C14.4221 50.2686 14.7549 50.7123 15.4482 51.4334L16.4605 52.4873L16.0029 53.874C15.7395 54.6229 15.5314 55.3855 15.5314 55.5381C15.5314 55.7045 17.2094 58.1451 19.3449 61.0711C21.4389 63.9555 23.1861 66.3684 23.2416 66.4377C23.2832 66.507 21.2725 66.5625 18.3188 66.5625H13.3266L13.2434 66.0355C13.1879 65.7582 12.758 64.7182 12.2588 63.7197C11.1771 61.5148 10.9414 60.4609 11.2049 58.8939C11.3852 57.8262 11.9676 56.4672 12.5361 55.7045C12.7441 55.441 12.8967 55.1775 12.8967 55.1082C12.8967 54.9279 11.607 53.666 11.4268 53.666C11.1771 53.666 9.91523 55.6074 9.56855 56.5365C9.05547 57.8955 8.84746 59.1713 8.9168 60.3916C9.01387 61.6674 9.51309 63.3869 10.1371 64.4824C10.7334 65.5086 10.9137 65.883 11.0246 66.2436L11.1078 66.5625H7.77969H4.4377V60.0033C4.4377 52.6537 4.4793 52.2654 5.3668 50.5736C5.99082 49.3811 7.23887 48.0775 8.32051 47.4951C9.02773 47.1207 15.0322 45.11 15.5453 45.0822C15.7395 45.0684 15.6701 45.4428 15.1016 47.3842ZM20.1076 53.7354C21.3418 57.7707 22.368 61.1682 22.3957 61.2514C22.4234 61.3484 22.4373 61.4316 22.4096 61.4316C22.3541 61.4316 18.1801 55.7184 17.9859 55.3855C17.9305 55.3023 18.1107 54.5812 18.3742 53.7908C18.6377 53.0143 18.8596 52.21 18.8596 52.0297C18.8596 51.7939 18.5268 51.3502 17.8195 50.6291L16.7795 49.5613L17.0014 48.7986C17.6254 46.6215 17.7918 46.1223 17.8334 46.2471C17.8611 46.3164 18.8873 49.6861 20.1076 53.7354ZM33.7807 47.925L34.2522 49.5613L33.2121 50.6291C32.5049 51.3502 32.1721 51.7939 32.1721 52.0297C32.1721 52.21 32.3939 53.0143 32.6574 53.7908C32.9209 54.5812 33.1012 55.3023 33.0457 55.3855C32.8654 55.7045 28.6775 61.4316 28.6359 61.4316C28.6082 61.4316 28.6637 61.1682 28.7607 60.8354C31.0627 53.2084 33.226 46.2055 33.2537 46.2471C33.2814 46.2748 33.5172 47.0375 33.7807 47.925ZM26.1398 47.2871C26.4727 47.5229 26.7916 47.7725 26.8332 47.8418C26.8748 47.9111 26.6945 48.4104 26.4172 48.9512C25.9734 49.8248 25.8902 49.9219 25.5158 49.9219C25.1414 49.9219 25.0582 49.8248 24.6006 48.9373C24.3371 48.3965 24.1568 47.8973 24.2262 47.8279C24.3787 47.6754 25.4326 46.885 25.4881 46.8711C25.5158 46.8711 25.807 47.0652 26.1398 47.2871ZM22.7563 50.227L23.2555 51.2393L23.0336 52.9727C22.9088 53.9295 22.7701 54.6367 22.7146 54.5674C22.5898 54.3455 21.3557 50.2408 21.3557 50.0189C21.3557 49.8387 21.9797 49.2424 22.1877 49.2285C22.2293 49.2285 22.4928 49.6861 22.7563 50.227ZM29.2738 49.5197C29.4957 49.6723 29.676 49.8941 29.676 50.0189C29.676 50.2408 28.4418 54.3316 28.317 54.5674C28.2615 54.6367 28.1229 53.9295 27.998 52.9727L27.7762 51.2393L28.2754 50.227C28.5389 49.6861 28.7885 49.2285 28.8162 49.2285C28.8439 49.2285 29.052 49.3533 29.2738 49.5197ZM25.71 52.6537C25.9041 53.8602 26.6252 59.4209 26.6252 59.7537C26.6391 60.1697 25.6406 63.6504 25.5158 63.6504C25.391 63.6504 24.3926 60.1697 24.4064 59.7537C24.4064 59.4209 25.1275 53.8602 25.3217 52.6537C25.3633 52.3764 25.4465 52.1406 25.5158 52.1406C25.5852 52.1406 25.6684 52.3764 25.71 52.6537ZM44.0979 52.21C44.0979 52.7646 42.8637 53.9572 42.0316 54.193C40.9084 54.5396 39.8406 54.3178 38.967 53.5551C38.4816 53.1529 37.9963 52.4734 37.9963 52.21C37.9963 52.1684 39.3691 52.1406 41.0471 52.1406C42.725 52.1406 44.0979 52.1684 44.0979 52.21ZM66.2854 52.21C66.2854 52.2654 66.2022 52.4596 66.0912 52.6676C65.6059 53.5828 64.3162 54.3594 63.2346 54.3594C62.1529 54.3594 60.8633 53.5828 60.3779 52.6676C60.267 52.4596 60.1838 52.2654 60.1838 52.21C60.1838 52.1684 61.5566 52.1406 63.2346 52.1406C64.9125 52.1406 66.2854 52.1684 66.2854 52.21ZM59.5598 64.6904C59.851 64.9678 59.9064 65.1619 59.9064 65.7998V66.5625H52.1408H44.3752V65.7998C44.3752 65.1619 44.4307 64.9678 44.7219 64.6904L45.0547 64.3438H52.1408H59.227L59.5598 64.6904Z" fill="#DEA057"/>
<path d="M20.1768 21.2723C18.7762 21.8824 18.4434 23.7406 19.5389 24.8361C21.092 26.4031 23.6436 25.0025 23.2414 22.8115C22.9918 21.508 21.4248 20.7176 20.1768 21.2723Z" fill="#DEA057"/>
<path d="M29.0518 21.2723C27.6512 21.8824 27.3184 23.7406 28.4139 24.8361C29.967 26.4031 32.5186 25.0025 32.1164 22.8115C31.8668 21.508 30.2998 20.7176 29.0518 21.2723Z" fill="#DEA057"/>
<path d="M22.34 29.8006L21.6328 30.6326L22.0904 30.9793C22.34 31.1734 22.9225 31.5062 23.3662 31.7143C24.0873 32.0471 24.3646 32.1025 25.5295 32.1025C26.7775 32.1025 26.9023 32.0748 27.8869 31.5895C28.4555 31.2982 29.0379 30.9516 29.1766 30.799C29.4123 30.5494 29.3846 30.5078 28.6773 29.7451L27.9285 28.9547L27.4016 29.3152C26.1812 30.1334 24.85 30.1473 23.6574 29.3291C23.3801 29.135 23.1305 28.9824 23.1027 28.9824C23.075 28.9824 22.7422 29.3568 22.34 29.8006Z" fill="#DEA057"/>
</svg>
