<svg width="130" height="30" viewBox="0 0 130 30" fill="none" xmlns="http://www.w3.org/2000/svg">
<path d="M41.6062 3.54805C41.6062 4.34002 41.4455 5.16367 41.124 6.01901C40.8026 6.86906 40.3368 7.70855 39.7265 8.53749C39.1109 9.36642 38.3536 10.1663 37.4546 10.9372C36.5556 11.7027 35.5231 12.397 34.3572 13.0201C33.1858 13.6484 31.8918 14.1843 30.4753 14.6278C29.0587 15.0766 27.525 15.3933 25.8741 15.5781C25.1985 16.7767 24.4984 17.9673 23.7738 19.1499C23.0437 20.3326 22.2701 21.4572 21.4528 22.5238C20.6356 23.5956 19.7693 24.5855 18.854 25.4937C17.9441 26.4071 16.9688 27.1964 15.9282 27.8617C14.8876 28.5322 13.7707 29.0549 12.5775 29.4298C11.3843 29.8099 10.1039 30 8.7364 30C7.6086 30 6.51893 29.8416 5.4674 29.5248C4.41588 29.208 3.48421 28.7513 2.67241 28.1547C1.86061 27.5528 1.21225 26.8189 0.727353 25.953C0.242451 25.0871 0 24.0971 0 22.9831C0 21.7846 0.226106 20.7392 0.678318 19.8469C1.13053 18.9546 1.73257 18.2128 2.48444 17.6214C3.23086 17.0248 4.07535 16.5813 5.01792 16.2909C5.96048 16.0005 6.92483 15.8553 7.91098 15.8553C8.66285 15.8553 9.40655 15.9266 10.1421 16.0692C10.8776 16.2117 11.5804 16.4124 12.2506 16.6711C12.9207 16.9298 13.5473 17.2386 14.1303 17.5977C14.7078 17.9567 15.2199 18.3527 15.6667 18.7856L15.0946 19.3796C14.7895 19.0945 14.4272 18.8226 14.0077 18.5639C13.5936 18.3052 13.1196 18.0729 12.5857 17.8669C12.0463 17.6663 11.4578 17.5053 10.8204 17.3838C10.1829 17.2677 9.49372 17.2096 8.75275 17.2096C7.89736 17.2096 7.06649 17.3495 6.26014 17.6294C5.45923 17.9039 4.7455 18.3052 4.11894 18.8332C3.49238 19.3611 2.98841 20.0053 2.60703 20.7656C2.2202 21.5259 2.02678 22.3944 2.02678 23.3712C2.02678 24.1631 2.19023 24.9023 2.51713 25.5887C2.84403 26.2751 3.30442 26.8691 3.89828 27.3706C4.49215 27.8722 5.19499 28.2656 6.00679 28.5507C6.81859 28.8358 7.71484 28.9784 8.69554 28.9784C9.8179 28.9784 10.8749 28.8068 11.8665 28.4636C12.8581 28.1257 13.7843 27.6558 14.6451 27.0539C15.506 26.4572 16.3232 25.7445 17.0969 24.9155C17.8705 24.0866 18.6033 23.1785 19.2953 22.1911C19.9927 21.2091 20.6601 20.1742 21.2975 19.0866C21.935 17.9937 22.567 16.8796 23.1936 15.7445H22.6787C20.5321 15.7445 18.6006 15.5306 16.8844 15.103C15.1682 14.6753 13.7053 14.0892 12.4958 13.3448C11.2917 12.6056 10.3655 11.7371 9.7171 10.7392C9.0742 9.74657 8.75275 8.67476 8.75275 7.52376C8.75275 6.37276 8.98158 5.35639 9.43924 4.47466C9.90235 3.5982 10.5289 2.86167 11.3189 2.26505C12.1089 1.67371 13.0297 1.22492 14.0812 0.918691C15.1273 0.61774 16.236 0.467265 17.4074 0.467265C18.4208 0.467265 19.347 0.543823 20.1861 0.696939C21.0306 0.855334 21.7879 1.05333 22.458 1.29092C23.1282 1.53379 23.722 1.79778 24.2396 2.08289C24.7572 2.36801 25.1958 2.63992 25.5554 2.89863C25.9096 3.15734 26.1901 3.38701 26.3972 3.58764C26.5988 3.783 26.7323 3.91236 26.7976 3.97571L26.1438 4.5301C26.1329 4.51954 25.9477 4.36114 25.5881 4.05491C25.234 3.75396 24.73 3.42133 24.0762 3.05702C23.4278 2.69271 22.6433 2.35744 21.7225 2.05121C20.8017 1.75026 19.7802 1.59979 18.6578 1.59979C17.5191 1.59979 16.4758 1.7529 15.5278 2.05913C14.5743 2.37064 13.7516 2.80095 13.0597 3.35005C12.3732 3.90443 11.8338 4.55913 11.4415 5.31415C11.0547 6.06917 10.8613 6.89018 10.8613 7.77719C10.8613 8.83316 11.1609 9.78881 11.7602 10.6441C12.3595 11.5048 13.1931 12.2413 14.261 12.8537C15.3289 13.4662 16.5875 13.944 18.0367 14.2872C19.486 14.6251 21.066 14.7941 22.7768 14.7941H23.6921C24.3568 13.5692 25.0188 12.3548 25.678 11.151C26.3318 9.94192 27.0047 8.79092 27.6966 7.69799C28.3885 6.59979 29.105 5.58078 29.846 4.64097C30.5815 3.70116 31.3661 2.88807 32.1997 2.20169C33.0278 1.51531 33.9159 0.976767 34.8639 0.58606C35.8065 0.195352 36.8198 0 37.9041 0C38.3508 0 38.7949 0.0607177 39.2362 0.182154C39.6775 0.29831 40.0725 0.496304 40.4212 0.776135C40.7753 1.05069 41.0614 1.415 41.2793 1.86906C41.4972 2.31785 41.6062 2.87751 41.6062 3.54805ZM38.3045 1.00581C37.5036 1.00581 36.7381 1.18004 36.008 1.52851C35.2834 1.8717 34.5888 2.35745 33.9241 2.98574C33.2594 3.60876 32.6137 4.34266 31.9872 5.18743C31.3606 6.03749 30.745 6.96674 30.1402 7.97518C29.5354 8.98363 28.9252 10.0475 28.3095 11.1668C27.6993 12.2862 27.0728 13.4213 26.4299 14.5723C28.0916 14.3611 29.5981 14.0206 30.9493 13.5507C32.3059 13.0808 33.5073 12.5343 34.5533 11.9113C35.5994 11.283 36.5066 10.6045 37.2748 9.87592C38.043 9.14731 38.675 8.41869 39.1708 7.69007C39.6666 6.95618 40.0344 6.25396 40.2741 5.58342C40.5084 4.9076 40.6255 4.30306 40.6255 3.7698C40.6255 3.37381 40.5846 3.0095 40.5029 2.67688C40.4212 2.34425 40.2904 2.05385 40.1106 1.8057C39.9308 1.55755 39.6938 1.3622 39.3996 1.21964C39.1054 1.07709 38.7404 1.00581 38.3045 1.00581ZM43.3061 10.2482C43.3061 10.4963 43.2434 10.7524 43.1181 11.0164C42.9874 11.2856 42.8239 11.5259 42.6278 11.7371C42.4316 11.943 42.211 12.1146 41.9658 12.2518C41.7261 12.3891 41.4836 12.4578 41.2384 12.4578C41.0205 12.4578 40.8543 12.3812 40.7399 12.2281C40.6255 12.0697 40.5683 11.8796 40.5683 11.6579C40.5683 11.4625 40.6064 11.2276 40.6827 10.953C40.759 10.6837 40.8734 10.4277 41.026 10.1848C41.1785 9.94192 41.3638 9.73337 41.5817 9.55913C41.7996 9.39018 42.0502 9.3057 42.3336 9.3057C42.6005 9.3057 42.8294 9.40338 43.0201 9.59873C43.2107 9.79937 43.3061 10.0158 43.3061 10.2482ZM39.1136 14.113L39.7265 14.3664C39.5576 14.6885 39.3234 15.1135 39.0237 15.6415C38.724 16.1695 38.4026 16.745 38.0593 17.368C37.7161 17.991 37.3647 18.6457 37.0051 19.3321C36.6455 20.0185 36.324 20.6864 36.0407 21.3358C35.752 21.9905 35.5177 22.6003 35.3379 23.1653C35.1581 23.7355 35.0682 24.2186 35.0682 24.6146C35.0682 24.9736 35.1472 25.2191 35.3052 25.3511C35.4578 25.4778 35.673 25.5412 35.9508 25.5412C36.4739 25.5412 36.986 25.3749 37.4873 25.0422C37.9831 24.7096 38.4761 24.274 38.9665 23.7355C39.4623 23.1969 39.9445 22.5818 40.413 21.8902C40.887 21.1932 41.361 20.4937 41.835 19.7914L42.5215 20.3062C42.151 20.9504 41.7342 21.6394 41.2711 22.3733C40.8026 23.1019 40.2823 23.7777 39.7102 24.4007C39.1327 25.029 38.5007 25.5465 37.8142 25.953C37.1222 26.3596 36.3676 26.5628 35.5504 26.5628C34.7822 26.5628 34.1938 26.3411 33.7851 25.8976C33.3765 25.4488 33.1722 24.8733 33.1722 24.1711C33.1722 23.3421 33.3711 22.4762 33.7688 21.5734C34.1665 20.6705 34.6623 19.7756 35.2562 18.8886C35.85 18.0069 36.4929 17.1568 37.1849 16.3384C37.8823 15.5201 38.5252 14.7782 39.1136 14.113ZM57.7714 16.6156C58.1419 16.1932 58.5233 15.8025 58.9156 15.4435C59.3133 15.0845 59.711 14.7756 60.1088 14.5169C60.501 14.2582 60.8933 14.0576 61.2856 13.915C61.6724 13.7724 62.0456 13.7012 62.4052 13.7012C62.6831 13.7012 62.961 13.7487 63.2388 13.8437C63.5112 13.9335 63.7564 14.076 63.9744 14.2714C64.1923 14.4615 64.3639 14.7043 64.4892 15C64.62 15.2957 64.6854 15.6494 64.6854 16.0612C64.6854 16.6526 64.6009 17.236 64.432 17.8115C64.2686 18.387 64.0588 18.9467 63.8027 19.4905C63.5467 20.0343 63.2742 20.5597 62.9855 21.0665C62.7022 21.5787 62.4325 22.0644 62.1764 22.5238C61.9203 22.9884 61.7078 23.4293 61.5389 23.8464C61.3755 24.2582 61.2938 24.6383 61.2938 24.9868C61.2938 25.2614 61.3673 25.4567 61.5144 25.5729C61.6615 25.689 61.8168 25.7471 61.9803 25.7471C62.3126 25.7471 62.7076 25.5623 63.1653 25.1927C63.6175 24.8178 64.0915 24.34 64.5873 23.7592C65.0885 23.1785 65.5898 22.5396 66.091 21.8427C66.5977 21.1404 67.0799 20.4567 67.5376 19.7914L68.2241 20.3062C68.0606 20.5702 67.8481 20.9134 67.5866 21.3358C67.3251 21.7635 67.0227 22.2228 66.6795 22.7138C66.3308 23.1996 65.9521 23.6932 65.5435 24.1948C65.1348 24.6964 64.7044 25.1505 64.2522 25.557C63.8 25.9583 63.3314 26.2856 62.8465 26.5391C62.3616 26.7925 61.8767 26.9192 61.3918 26.9192C61.1194 26.9192 60.8606 26.8823 60.6155 26.8083C60.3648 26.7344 60.1442 26.613 59.9535 26.444C59.7628 26.2751 59.6102 26.056 59.4958 25.7867C59.3814 25.5121 59.3242 25.1769 59.3242 24.7809C59.3242 24.2371 59.4195 23.7064 59.6102 23.189C59.8009 22.6663 60.0434 22.1515 60.3376 21.6447C60.6318 21.1378 60.9478 20.6336 61.2856 20.132C61.6234 19.6304 61.9394 19.1315 62.2336 18.6352C62.5278 18.1441 62.7703 17.6478 62.961 17.1463C63.1517 16.6447 63.247 16.1325 63.247 15.6098C63.247 15.3511 63.1952 15.1452 63.0917 14.9921C62.9937 14.839 62.803 14.7624 62.5196 14.7624C62.0729 14.7624 61.6016 14.9366 61.1058 15.2851C60.6046 15.6389 60.087 16.114 59.553 16.7107C59.0136 17.302 58.4634 17.991 57.9022 18.7777C57.341 19.5644 56.7826 20.3933 56.2268 21.2645C55.6711 22.1357 55.1235 23.0201 54.5841 23.9176C54.0393 24.8152 53.5163 25.6785 53.015 26.5074L51.4132 25.6917C52.0888 24.3453 52.7235 23.1389 53.3174 22.0723C53.9113 21.0058 54.4316 20.0449 54.8784 19.1895C55.3251 18.3289 55.6765 17.5422 55.9326 16.8295C56.1887 16.1167 56.3167 15.4461 56.3167 14.8178C56.3167 14.6911 56.3031 14.5644 56.2759 14.4377C56.2486 14.3057 56.1969 14.1895 56.1206 14.0892C56.0443 13.9889 55.9462 13.9071 55.8264 13.8437C55.7065 13.7751 55.5485 13.7408 55.3524 13.7408C54.9219 13.7408 54.4834 13.9361 54.0366 14.3268C53.5898 14.7122 53.1158 15.2429 52.6146 15.9187C52.1188 16.5945 51.5876 17.3812 51.0209 18.2788C50.4489 19.1763 49.8359 20.1267 49.1821 21.1299C48.5229 22.1278 47.8091 23.1573 47.0409 24.2186C46.2782 25.2746 45.4418 26.2988 44.532 27.2914L43.208 26.4361C43.6166 25.8395 44.0498 25.2112 44.5074 24.5512C44.9597 23.8912 45.4064 23.2207 45.8477 22.5396C46.2891 21.8585 46.7086 21.18 47.1063 20.5042C47.5095 19.8284 47.8663 19.1869 48.1769 18.5797C48.482 17.9778 48.7245 17.4208 48.9043 16.9087C49.0786 16.4018 49.1658 15.9688 49.1658 15.6098C49.1658 15.1927 49.0595 14.8918 48.847 14.707C48.6291 14.5169 48.3458 14.4219 47.9971 14.4219C47.5885 14.4219 47.1908 14.5644 46.8039 14.8495C46.4116 15.1346 46.003 15.5385 45.578 16.0612C45.1476 16.5787 44.6872 17.199 44.1969 17.9224C43.7065 18.6457 43.1481 19.4403 42.5215 20.3062L41.835 19.7914C42.5106 18.7513 43.1208 17.8353 43.6657 17.0433C44.2051 16.2513 44.7172 15.5887 45.2021 15.0554C45.687 14.5222 46.1692 14.1209 46.6486 13.8516C47.1281 13.5771 47.6484 13.4398 48.2096 13.4398C48.3785 13.4398 48.5937 13.4715 48.8552 13.5348C49.1167 13.5982 49.3755 13.7091 49.6316 13.8675C49.8877 14.0312 50.1138 14.2529 50.3099 14.5327C50.5061 14.8178 50.6232 15.1848 50.6613 15.6336C51.3751 14.7413 52.1215 14.0285 52.9006 13.4952C53.6797 12.962 54.4152 12.6954 55.1072 12.6954C55.603 12.6954 56.0252 12.793 56.3739 12.9884C56.7172 13.1785 56.995 13.4293 57.2075 13.7408C57.4146 14.047 57.5671 14.3955 57.6652 14.7862C57.7578 15.1769 57.8041 15.5702 57.8041 15.9662C57.8041 16.0665 57.8014 16.1721 57.7959 16.283C57.7905 16.3939 57.7823 16.5048 57.7714 16.6156ZM82.15 14.113L82.7629 14.3664C82.5995 14.6885 82.3679 15.1109 82.0683 15.6336C81.7686 16.151 81.4444 16.7239 81.0957 17.3522C80.7525 17.9752 80.4065 18.6272 80.0578 19.3083C79.7037 19.9894 79.385 20.6547 79.1017 21.3041C78.8129 21.9535 78.5759 22.566 78.3906 23.1415C78.2054 23.717 78.1128 24.2027 78.1128 24.5987C78.1128 24.9947 78.1918 25.2508 78.3498 25.3669C78.5078 25.4831 78.7148 25.5412 78.9709 25.5412C79.3414 25.5412 79.7228 25.4356 80.115 25.2244C80.5019 25.0185 80.8833 24.7466 81.2592 24.4087C81.6351 24.076 82.0029 23.6985 82.3625 23.2761C82.7221 22.859 83.0571 22.4366 83.3677 22.009C83.6837 21.5813 83.967 21.1721 84.2176 20.7814C84.4737 20.3907 84.6917 20.0607 84.8714 19.7914L85.5661 20.3062C85.3482 20.7022 85.0921 21.1299 84.7979 21.5892C84.5037 22.0486 84.1795 22.5106 83.8254 22.9752C83.4767 23.4398 83.098 23.8886 82.6894 24.3215C82.2808 24.7545 81.8503 25.1373 81.3981 25.4699C80.9459 25.8025 80.4692 26.0692 79.9679 26.2698C79.4721 26.4652 78.9627 26.5628 78.4397 26.5628C77.6715 26.5628 77.1076 26.3411 76.748 25.8976C76.3938 25.4488 76.2168 24.8733 76.2168 24.1711C76.2168 24.1235 76.2195 24.0153 76.2249 23.8464C76.2304 23.6774 76.2467 23.5428 76.274 23.4424C75.6365 24.2239 75.0263 24.868 74.4433 25.3749C73.8604 25.8817 73.2992 26.2856 72.7598 26.5866C72.215 26.8823 71.6919 27.0882 71.1907 27.2043C70.684 27.3205 70.2018 27.3786 69.7441 27.3786C69.2592 27.3786 68.8016 27.302 68.3712 27.1489C67.9407 26.9958 67.5648 26.7714 67.2434 26.4757C66.9165 26.1748 66.6604 25.8078 66.4751 25.3749C66.2899 24.9419 66.1973 24.4403 66.1973 23.8701C66.1973 23.1679 66.3607 22.3627 66.6876 21.4546C67.0145 20.5412 67.592 19.5591 68.4202 18.5084C69.123 17.6056 69.8531 16.8453 70.6104 16.2276C71.3732 15.6098 72.1196 15.1109 72.8497 14.7307C73.5852 14.3559 74.2853 14.0866 74.95 13.9229C75.6147 13.7645 76.2086 13.6853 76.7316 13.6853C77.9085 13.6853 78.7965 13.8728 79.3959 14.2476C79.9952 14.6278 80.3575 15.2059 80.4828 15.982C80.7389 15.6758 81.0086 15.3669 81.2919 15.0554C81.5697 14.7492 81.8558 14.4351 82.15 14.113ZM76.8869 21.4229C77.0504 21.1642 77.2547 20.8342 77.4998 20.4329C77.7396 20.0264 77.9956 19.6119 78.2681 19.1895C78.535 18.7619 78.7965 18.3501 79.0526 17.9541C79.3087 17.5581 79.5321 17.2228 79.7228 16.9483C79.7228 16.8374 79.7064 16.6579 79.6737 16.4097C79.641 16.1616 79.5539 15.9108 79.4122 15.6573C79.2706 15.4039 79.0472 15.1848 78.7421 15C78.437 14.8152 78.0093 14.7228 77.459 14.7228C77.0613 14.7228 76.6172 14.7809 76.1269 14.897C75.6365 15.0132 75.1135 15.2112 74.5577 15.491C74.002 15.7709 73.4299 16.1404 72.8415 16.5998C72.2531 17.0539 71.6674 17.6214 71.0844 18.3025C70.2018 19.3321 69.5208 20.3643 69.0413 21.3992C68.5619 22.4287 68.3221 23.358 68.3221 24.1869C68.3221 24.8944 68.4883 25.4382 68.8206 25.8184C69.153 26.2038 69.627 26.3965 70.2427 26.3965C70.94 26.3965 71.5966 26.246 72.2122 25.9451C72.8224 25.6389 73.3972 25.2455 73.9366 24.765C74.4706 24.2793 74.98 23.7434 75.4649 23.1573C75.9498 22.5713 76.4238 21.9931 76.8869 21.4229ZM100.865 17.0829C100.865 17.6109 100.77 18.1521 100.579 18.7064C100.388 19.2555 100.146 19.8046 99.8516 20.3538C99.5574 20.9081 99.2441 21.4493 98.9118 21.9773C98.5795 22.5106 98.2662 23.0253 97.972 23.5216C97.6778 24.018 97.4353 24.4905 97.2446 24.9393C97.0539 25.3933 96.9586 25.8052 96.9586 26.1748C96.9586 26.4599 97.0212 26.6526 97.1465 26.7529C97.2773 26.8479 97.419 26.8955 97.5715 26.8955C98.0564 26.8955 98.5985 26.6658 99.1978 26.2064C99.7972 25.7418 100.407 25.1558 101.028 24.4483C101.65 23.7408 102.265 22.9725 102.875 22.1436C103.491 21.3147 104.047 20.5306 104.543 19.7914L105.237 20.3062C105.134 20.4593 104.949 20.755 104.682 21.1932C104.409 21.6315 104.077 22.1331 103.685 22.698C103.287 23.2577 102.843 23.8437 102.352 24.4562C101.862 25.0686 101.334 25.6336 100.767 26.151C100.206 26.6631 99.6283 27.0855 99.0344 27.4182C98.4405 27.7508 97.8439 27.9171 97.2446 27.9171C96.9014 27.9171 96.5881 27.8617 96.3048 27.7508C96.0269 27.6399 95.7872 27.4868 95.5856 27.2914C95.3895 27.0908 95.2342 26.8585 95.1198 26.5945C95.0053 26.3252 94.9481 26.0428 94.9481 25.7471C94.9481 25.2666 95.0598 24.7439 95.2832 24.179C95.5066 23.614 95.7845 23.0359 96.1168 22.4446C96.4492 21.8479 96.8142 21.2513 97.2119 20.6547C97.6042 20.0528 97.9665 19.4799 98.2989 18.9361C98.6312 18.3923 98.9091 17.8881 99.1325 17.4234C99.3558 16.9588 99.4675 16.5602 99.4675 16.2276C99.4675 15.8421 99.3613 15.5201 99.1488 15.2614C98.9418 15.0026 98.6448 14.8733 98.258 14.8733C97.8494 14.8733 97.3781 15.037 96.8442 15.3643C96.3102 15.6917 95.7109 16.1695 95.0462 16.7978C94.3815 17.4314 93.6569 18.2101 92.8723 19.1341C92.0878 20.0528 91.2351 21.1008 90.3143 22.2782C89.7913 22.9593 89.2791 23.614 88.7779 24.2423C88.56 24.5169 88.3448 24.7967 88.1323 25.0818C87.9143 25.3669 87.6964 25.6468 87.4785 25.9213C87.2605 26.2012 87.0562 26.4678 86.8655 26.7212C86.6748 26.9747 86.5032 27.1938 86.3507 27.3786L84.659 26.7133L86.9064 23.7276C87.2224 23.3052 87.5466 22.8537 87.8789 22.3733C88.2113 21.8875 88.5409 21.3886 88.8678 20.8765C89.1947 20.3643 89.5025 19.8469 89.7913 19.3242C90.0855 18.8068 90.3606 18.2999 90.6167 17.8036C90.9872 17.0591 91.2433 16.444 91.3849 15.9583C91.5266 15.4673 91.5974 15.0739 91.5974 14.7782C91.5974 14.4456 91.532 14.2265 91.4013 14.1209C91.276 14.0153 91.0989 13.9625 90.8701 13.9625C90.6249 13.9625 90.347 14.0839 90.0365 14.3268C89.7205 14.5644 89.3963 14.8733 89.0639 15.2534C88.7316 15.6283 88.3965 16.0533 88.0587 16.5285C87.7209 17.009 87.3995 17.4842 87.0944 17.9541C86.7893 18.424 86.5032 18.8675 86.2363 19.2846C85.9638 19.707 85.7405 20.0475 85.5661 20.3062L84.8714 19.7914C85.5252 18.7988 86.1164 17.8907 86.6449 17.0671C87.1734 16.2487 87.6828 15.5412 88.1731 14.9446C88.6689 14.3532 89.1484 13.8912 89.6115 13.5586C90.08 13.2313 90.5758 13.0676 91.0989 13.0676C91.3768 13.0676 91.6464 13.123 91.908 13.2339C92.1749 13.3501 92.4065 13.5164 92.6026 13.7328C92.7988 13.9493 92.954 14.2107 93.0685 14.5169C93.1829 14.8284 93.2401 15.1874 93.2401 15.594C93.2401 15.916 93.202 16.2513 93.1257 16.5998C93.6869 16.0665 94.2099 15.6257 94.6948 15.2772C95.1851 14.934 95.6346 14.6595 96.0433 14.4535C96.4519 14.2476 96.8278 14.1024 97.1711 14.018C97.5143 13.9282 97.8276 13.8833 98.1109 13.8833C98.3506 13.8833 98.6312 13.9282 98.9527 14.018C99.2687 14.1024 99.5683 14.2635 99.8516 14.5011C100.135 14.7334 100.375 15.0581 100.571 15.4752C100.767 15.887 100.865 16.4229 100.865 17.0829ZM105.082 11.3965H108.433C108.558 11.1906 108.784 10.8263 109.111 10.3036C109.438 9.78617 109.822 9.21067 110.263 8.57709C110.705 7.94879 111.184 7.31521 111.702 6.67635C112.214 6.03749 112.721 5.4963 113.222 5.0528L114.08 5.55174C113.535 6.43347 112.974 7.36536 112.396 8.34741C111.824 9.32946 111.258 10.3458 110.697 11.3965H116.94L116.556 12.3627H110.174C109.601 13.4768 109.062 14.5855 108.555 15.689C108.054 16.7872 107.61 17.8379 107.223 18.8411C106.842 19.8442 106.542 20.7814 106.324 21.6526C106.106 22.529 105.997 23.2867 105.997 23.9256C105.997 24.7334 106.191 25.3141 106.578 25.6679C106.959 26.0164 107.43 26.1906 107.991 26.1906C108.487 26.1906 108.999 26.0454 109.528 25.755C110.051 25.4646 110.563 25.0977 111.064 24.6542C111.571 24.2054 112.05 23.717 112.503 23.189C112.955 22.6558 113.358 22.1542 113.712 21.6843C114.061 21.2144 114.35 20.8025 114.578 20.4488C114.807 20.095 114.949 19.8759 115.003 19.7914L115.714 20.3062C115.268 21.0243 114.761 21.7872 114.194 22.595C113.633 23.3976 113.012 24.142 112.331 24.8284C111.65 25.5148 110.906 26.085 110.1 26.5391C109.294 26.9879 108.425 27.2122 107.493 27.2122C106.921 27.2122 106.42 27.1146 105.989 26.9192C105.564 26.7186 105.205 26.4414 104.91 26.0876C104.616 25.7392 104.396 25.3221 104.248 24.8363C104.101 24.3559 104.028 23.8305 104.028 23.2603C104.028 22.8907 104.088 22.3654 104.208 21.6843C104.327 21.0032 104.534 20.1954 104.829 19.2608C105.123 18.3263 105.515 17.2782 106.006 16.1167C106.501 14.9498 107.125 13.6985 107.877 12.3627H104.698L105.082 11.3965ZM125.808 21.6605C125.857 21.6763 125.906 21.6843 125.955 21.6843C126.009 21.6843 126.069 21.6843 126.134 21.6843C126.489 21.6843 126.813 21.6499 127.107 21.5813C127.401 21.5127 127.674 21.4044 127.924 21.2566C128.169 21.1088 128.409 20.9134 128.643 20.6705C128.872 20.4277 129.096 20.1346 129.314 19.7914L130 20.3062C129.39 21.151 128.758 21.7397 128.104 22.0723C127.45 22.405 126.761 22.5713 126.036 22.5713C125.769 22.5713 125.532 22.5475 125.325 22.5C124.775 23.3923 124.189 24.1499 123.568 24.773C122.942 25.396 122.302 25.9055 121.648 26.3015C120.999 26.6975 120.354 26.9852 119.711 27.1647C119.073 27.3442 118.479 27.434 117.929 27.434C117.368 27.434 116.848 27.339 116.368 27.1489C115.894 26.9588 115.483 26.6843 115.134 26.3252C114.791 25.9662 114.524 25.5385 114.333 25.0422C114.143 24.5459 114.047 23.9889 114.047 23.3712C114.047 22.7534 114.148 22.1225 114.35 21.4784C114.557 20.8342 114.835 20.198 115.183 19.5697C115.537 18.9361 115.949 18.3263 116.417 17.7402C116.891 17.1489 117.403 16.5998 117.954 16.0929C118.504 15.5861 119.071 15.1294 119.654 14.7228C120.242 14.3163 120.83 13.981 121.419 13.717L122.032 14.5011C121.356 14.971 120.67 15.5649 119.972 16.283C119.275 17.0011 118.643 17.7851 118.076 18.6352C117.51 19.4905 117.044 20.3801 116.679 21.3041C116.314 22.2228 116.131 23.1151 116.131 23.981C116.131 24.7624 116.311 25.3669 116.671 25.7946C117.025 26.2223 117.567 26.4361 118.297 26.4361C118.858 26.4361 119.414 26.3252 119.964 26.1035C120.514 25.8765 121.051 25.5729 121.574 25.1927C122.097 24.8073 122.601 24.3532 123.086 23.8305C123.571 23.3025 124.031 22.7402 124.467 22.1436C124.097 21.9377 123.77 21.6579 123.487 21.3041C123.209 20.9504 122.972 20.5465 122.776 20.0924C122.585 19.6436 122.443 19.1579 122.351 18.6352C122.252 18.1177 122.203 17.5871 122.203 17.0433C122.203 16.4995 122.274 15.9847 122.416 15.4989C122.558 15.0185 122.751 14.5961 122.996 14.2318C123.247 13.8675 123.538 13.5797 123.871 13.3685C124.203 13.1573 124.568 13.0517 124.966 13.0517C125.32 13.0517 125.639 13.1415 125.922 13.321C126.2 13.5005 126.437 13.7487 126.633 14.0655C126.824 14.377 126.968 14.7518 127.066 15.1901C127.17 15.623 127.221 16.085 127.221 16.576C127.221 16.9509 127.189 17.3601 127.123 17.8036C127.063 18.2471 126.971 18.6959 126.845 19.1499C126.726 19.5987 126.581 20.0449 126.412 20.4884C126.238 20.9266 126.036 21.3173 125.808 21.6605ZM123.2 17.0433C123.2 17.4023 123.233 17.793 123.299 18.2154C123.358 18.6325 123.459 19.0391 123.601 19.4351C123.743 19.831 123.922 20.2006 124.14 20.5438C124.358 20.8817 124.625 21.151 124.941 21.3516C125.17 20.9187 125.366 20.4752 125.53 20.0211C125.688 19.5723 125.821 19.1367 125.93 18.7144C126.039 18.292 126.115 17.8986 126.159 17.5343C126.203 17.17 126.224 16.8506 126.224 16.576C126.224 16.2064 126.194 15.8659 126.134 15.5544C126.069 15.2482 125.982 14.9789 125.873 14.7466C125.764 14.5195 125.63 14.34 125.472 14.208C125.309 14.0813 125.132 14.018 124.941 14.018C124.685 14.018 124.451 14.1024 124.238 14.2714C124.02 14.4351 123.835 14.6568 123.683 14.9366C123.525 15.2165 123.405 15.5385 123.323 15.9029C123.241 16.2672 123.2 16.6473 123.2 17.0433Z" fill="#292B31"/>
</svg>
