<svg width="40" height="40" viewBox="0 0 40 40" fill="none" xmlns="http://www.w3.org/2000/svg">
<circle cx="20" cy="20" r="19.5" stroke="#CA9457"/>
<path d="M30.3828 20.1444C30.3588 20.2389 29.1565 21.268 26.6919 23.3064C22.7725 26.5529 22.8567 26.4932 22.4359 26.349C22.0632 26.2198 21.9129 25.9165 22.0632 25.5933C22.0933 25.5188 23.4398 24.3653 25.0508 23.0329L27.9723 20.6068V19.4136L25.0208 16.9626C23.0551 15.3319 22.0512 14.4718 22.0271 14.3773C21.9309 14.0592 22.1413 13.741 22.514 13.6465C22.6102 13.6266 22.6944 13.6018 22.7064 13.6018C22.8567 13.562 23.6382 14.1735 26.728 16.7339C29.1625 18.7573 30.3588 19.7815 30.3828 19.871C30.4069 19.9505 30.4069 20.0699 30.3828 20.1444Z" fill="#CA9457"/>
<path d="M26.0811 19.4136V20.6068L12.165 20.5968C11.7502 20.5963 11.3475 20.5958 10.9567 20.5953C10.7283 20.5953 10.5035 20.5948 10.2829 20.5948C9.90356 20.5844 9.60059 20.3264 9.60059 20.0102C9.60059 19.8486 9.67994 19.7024 9.80737 19.5965C9.93121 19.4941 10.1007 19.429 10.2889 19.4255L10.7662 19.425L12.159 19.4235L26.0811 19.4136Z" fill="#CA9457"/>
</svg>
