<svg width="25" height="25" viewBox="0 0 25 25" fill="none" xmlns="http://www.w3.org/2000/svg">
<path d="M5.06517 12.4421C5.06517 8.46499 8.35927 5.23698 12.4248 5.23698C16.4903 5.23698 19.7844 8.46499 19.7844 12.4421C19.7844 16.426 16.4903 19.6541 12.4248 19.6541C8.35927 19.6541 5.06517 16.4192 5.06517 12.4421ZM12.5916 3.07816C12.4456 2.4993 10.3538 0.694609 8.6581 0.864863C6.9624 1.02831 5.31535 2.06345 5.04432 2.64912C5.44739 3.04411 7.11529 3.14626 8.55385 3.18712C10.0758 3.22117 12.0217 3.3029 12.5916 3.07816ZM7.97704 4.42657C7.55312 3.99072 4.82193 3.45953 3.43897 4.43338C2.056 5.40723 1.15951 7.10977 1.2151 7.74992C1.76412 7.89293 3.25828 7.17106 4.53005 6.49685C5.87827 5.7886 7.60176 4.90328 7.97704 4.42657ZM4.44666 7.9338C3.86289 7.77035 1.22205 8.64205 0.520145 10.1675C-0.181762 11.6862 -0.0844682 13.5998 0.290809 14.1242C0.839825 13.9812 1.76412 12.6192 2.52162 11.4138C3.31387 10.1403 4.36326 8.53309 4.44666 7.9338ZM3.07759 12.7213C2.48687 12.8712 0.645237 14.921 0.818977 16.5759C0.985767 18.2375 2.0421 19.8516 2.63977 20.1171C3.04284 19.7222 3.14708 18.0877 3.18878 16.678C3.23048 15.1866 3.31387 13.2866 3.07759 12.7213ZM4.43276 17.1752C3.99493 17.5906 3.44592 20.267 4.43971 21.6222C5.4335 22.9774 7.17089 23.8559 7.82415 23.8014C7.97009 23.2634 7.22649 21.7924 6.54543 20.553C5.82267 19.2386 4.91923 17.5429 4.43276 17.1752ZM7.75465 20.6415C7.58786 21.2136 8.47741 23.8014 10.0272 24.4893C11.5769 25.1771 13.5298 25.0817 14.0649 24.7208C13.9189 24.1828 12.529 23.2702 11.2989 22.5347C10.0063 21.7516 8.36622 20.7233 7.75465 20.6415ZM12.39 21.8129C12.536 22.3917 14.6347 24.1964 16.3235 24.0262C18.0122 23.8627 19.6662 22.8276 19.9373 22.2419C19.5342 21.8469 17.8663 21.7448 16.4277 21.7039C14.9058 21.6631 12.9668 21.5881 12.39 21.8129ZM17.1018 20.4849C17.5258 20.9139 20.2569 21.4519 21.6399 20.4781C23.0229 19.5042 23.9194 17.8017 23.8638 17.1615C23.3148 17.0185 21.8136 17.7404 20.5488 18.4146C19.2076 19.1297 17.4841 20.0082 17.1018 20.4849ZM20.5558 16.9845C21.1395 17.1479 23.7804 16.2762 24.4823 14.7576C25.1772 13.2389 25.0869 11.3184 24.7116 10.8009C24.1626 10.9439 23.2383 12.3059 22.4808 13.5113C21.6816 14.778 20.6392 16.3852 20.5558 16.9845ZM21.8345 12.5238C22.4252 12.374 24.2668 10.331 24.1001 8.66929C23.9333 7.01443 22.8769 5.39361 22.2793 5.12802C21.8762 5.523 21.7719 7.15744 21.7303 8.56714C21.6886 10.0586 21.6052 11.9586 21.8345 12.5238ZM20.5697 7.81802C21.0075 7.4026 21.5565 4.72622 20.5627 3.371C19.5689 2.01578 17.8315 1.13727 17.1783 1.19175C17.0323 1.72975 17.7759 3.20074 18.457 4.44019C19.1798 5.75455 20.0763 7.45028 20.5697 7.81802ZM17.074 4.35166C17.2408 3.77961 16.3513 1.19175 14.8015 0.510735C13.2518 -0.17709 11.292 -0.0817478 10.7569 0.27919C10.9098 0.817192 12.2997 1.72975 13.5298 2.46525C14.8224 3.24841 16.4625 4.26994 17.074 4.35166Z" fill="#D7B679"/>
</svg>
