<svg width="38" height="38" viewBox="0 0 38 38" fill="none" xmlns="http://www.w3.org/2000/svg">
<path d="M1.1875 0.0964813C0.823828 0.215229 0.200391 0.853512 0.0890625 1.23203C0.0222656 1.46953 0 5.02461 0 16.7437V31.9512L0.178125 32.3223C0.385938 32.7676 0.667969 33.0422 1.11328 33.2426C1.43242 33.3836 1.58828 33.3984 4.1043 33.3984H6.76133L6.93945 33.2129C7.19922 32.9605 7.1918 32.5746 6.93203 32.3668C6.73906 32.2184 6.65 32.2109 4.14141 32.2109H1.55117L1.37305 32.0254L1.1875 31.8473V16.6992V1.55117L1.37305 1.37304L1.55117 1.1875H9.78945H18.0277L18.05 3.28047C18.0723 5.33632 18.0797 5.38828 18.2578 5.75195C18.5027 6.25664 18.9926 6.70937 19.4898 6.89492C19.8609 7.03593 20.0613 7.05078 21.709 7.05078H23.5273V8.35703V9.66328L23.75 9.88593C23.943 10.0715 24.0172 10.1012 24.2176 10.0641C24.3512 10.0418 24.5145 9.94531 24.5887 9.85625C24.7148 9.70781 24.7223 9.54453 24.7 7.8375C24.6777 6.06367 24.6703 5.95976 24.5145 5.71484C24.2027 5.225 19.5715 0.356247 19.2598 0.192966C18.9629 0.0371056 18.9109 0.0371056 10.2051 0.0222626C3.96328 0.0148392 1.37305 0.0371056 1.1875 0.0964813ZM21.0336 4.08203L22.6441 5.82617L21.3305 5.84843C19.8906 5.8707 19.7422 5.83359 19.4156 5.3957C19.2746 5.20273 19.2598 5.07656 19.2375 3.65156C19.2152 2.3082 19.2301 2.13008 19.3266 2.22656C19.3859 2.28593 20.1504 3.12461 21.0336 4.08203Z" fill="#D7B679"/>
<path d="M26.5926 0.111311C26.4961 0.178107 26.3922 0.348811 26.3551 0.50467C26.1992 1.08358 25.8281 2.9242 25.8281 3.11717C25.8281 3.54764 26.4367 3.79256 26.7855 3.50311C26.934 3.38436 27.0082 3.13201 27.3125 1.61053L27.4016 1.18006L27.9656 1.20233L28.5297 1.22459L28.7598 2.2785C28.9156 3.03553 29.027 3.37694 29.1309 3.48084C29.2125 3.55506 29.5316 3.68865 29.8359 3.78514C30.1402 3.8742 30.6746 4.08944 31.016 4.27498C31.3574 4.45311 31.7062 4.60155 31.7953 4.60155C31.877 4.60155 32.3594 4.33436 32.8641 4.0078C33.3688 3.68123 33.8066 3.41405 33.8363 3.41405C33.9031 3.41405 34.5859 4.10428 34.5859 4.17108C34.5859 4.20076 34.3187 4.63123 33.9922 5.1285C33.6656 5.63319 33.3984 6.10819 33.3984 6.20467C33.3984 6.29373 33.5469 6.64256 33.725 6.98397C33.9105 7.32537 34.1258 7.85975 34.2148 8.16405C34.3113 8.46834 34.4449 8.78748 34.5191 8.86912C34.623 8.97303 34.9645 9.08436 35.7215 9.24022L36.7754 9.4703L36.7977 10.0418C36.8125 10.3535 36.7902 10.6133 36.7605 10.6133C36.5527 10.6133 34.623 11.0734 34.5414 11.1402C34.482 11.1847 34.3559 11.4965 34.252 11.8305C34.148 12.1644 33.918 12.7285 33.7324 13.0847C33.5469 13.441 33.3984 13.8121 33.3984 13.9086C33.3984 14.3242 34.0441 14.5765 34.3707 14.2797C34.5562 14.1164 35.1055 13.0402 35.2836 12.491L35.4098 12.1125L35.907 12.0012C36.1816 11.9418 36.6863 11.8305 37.0352 11.7562C38 11.5484 38 11.5484 38 10.1012C38 8.89139 37.948 8.59451 37.7105 8.49061C37.6438 8.46092 37.1094 8.33475 36.523 8.20858C35.8328 8.06014 35.432 7.94139 35.3949 7.86717C35.3652 7.8078 35.2316 7.48866 35.1055 7.16209C34.9793 6.83553 34.8383 6.4867 34.7937 6.3828C34.7195 6.21209 34.7789 6.09334 35.3281 5.23983C35.7512 4.59412 35.9441 4.22303 35.9441 4.06717C35.9441 3.88162 35.7957 3.69608 35.0461 2.95389C34.3039 2.20428 34.1184 2.05584 33.9328 2.05584C33.777 2.05584 33.4059 2.24881 32.7527 2.67186C31.9066 3.22108 31.7805 3.27303 31.6172 3.20623C31.5133 3.1617 31.1125 2.99842 30.7266 2.83514L30.0215 2.54569L29.8211 1.58826C29.5391 0.274592 29.5539 0.319123 29.3758 0.14842C29.2273 0.0148268 29.116 -1.71661e-05 27.9805 -1.71661e-05C26.9934 -1.71661e-05 26.7188 0.0222483 26.5926 0.111311Z" fill="#D7B679"/>
<path d="M27.5577 5.35857C27.387 5.5367 27.3425 5.81131 27.4315 6.04881C27.5057 6.22693 27.862 6.38279 28.2257 6.38279C29.3538 6.38279 30.6749 7.26599 31.239 8.40154C31.6694 9.26248 31.7288 10.3906 31.3874 11.3777C31.2315 11.8453 31.2241 11.9047 31.328 12.0828C31.4616 12.3351 31.7733 12.4465 32.0405 12.35C32.7307 12.1051 33.0425 9.83396 32.56 8.47576C32.2929 7.71873 31.9589 7.18435 31.3874 6.61287C30.5265 5.75193 29.5022 5.27693 28.3518 5.21756C27.7581 5.18045 27.7136 5.18787 27.5577 5.35857Z" fill="#D7B679"/>
<path d="M3.43633 5.32148C3.22852 5.36602 2.96875 5.68516 2.96875 5.90039C2.96875 5.98945 3.03555 6.15273 3.12461 6.26406C3.26562 6.44219 3.325 6.45703 3.78516 6.45703C4.24531 6.45703 4.30469 6.44219 4.4457 6.26406C4.88359 5.7 4.275 5.13594 3.43633 5.32148Z" fill="#D7B679"/>
<path d="M6.70195 5.32148C6.49414 5.35859 6.23438 5.68516 6.23438 5.90039C6.23438 5.98945 6.30117 6.15273 6.39023 6.26406L6.53867 6.45703H10.9473C15.0293 6.45703 15.3559 6.44961 15.5043 6.32344C15.7566 6.11562 15.7789 5.78164 15.5637 5.52188L15.3781 5.30664L11.118 5.29922C8.78008 5.2918 6.79102 5.29922 6.70195 5.32148Z" fill="#D7B679"/>
<path d="M3.15401 8.20117C2.90909 8.44609 2.91651 8.7207 3.1837 8.98789C3.36182 9.16602 3.46573 9.20312 3.74776 9.20312C4.12628 9.20312 4.48253 9.05469 4.55675 8.86914C4.64581 8.62422 4.59386 8.3793 4.41573 8.20117C4.26729 8.04531 4.16339 8.01562 3.78487 8.01562C3.40636 8.01562 3.30245 8.04531 3.15401 8.20117Z" fill="#D7B679"/>
<path d="M6.46434 8.1418C6.3827 8.21602 6.28621 8.3793 6.26395 8.51289C6.22684 8.71328 6.25652 8.7875 6.44207 8.98047L6.66473 9.20312H10.9843H15.3038L15.5264 8.98047C15.712 8.7875 15.7417 8.71328 15.7046 8.51289C15.6081 7.99336 15.8382 8.01562 10.9843 8.01562C6.93934 8.01562 6.61277 8.02305 6.46434 8.1418Z" fill="#D7B679"/>
<path d="M3.25852 10.784C2.93196 11.0363 2.9097 11.5484 3.21399 11.7637C3.31048 11.8305 3.54056 11.875 3.80774 11.875C4.16399 11.875 4.2679 11.8453 4.41634 11.6895C4.53509 11.5781 4.60188 11.4223 4.60188 11.2812C4.60188 11.1402 4.53509 10.9844 4.41634 10.873C4.2679 10.7172 4.16399 10.6875 3.80774 10.6875C3.57024 10.6875 3.32532 10.732 3.25852 10.784Z" fill="#D7B679"/>
<path d="M6.55313 10.7766C6.35274 10.873 6.2043 11.2145 6.2711 11.4297C6.30079 11.5113 6.38985 11.6523 6.47891 11.7266C6.62735 11.8676 6.7461 11.875 9.03204 11.875H11.4367L11.6149 11.6895C11.7336 11.5781 11.8004 11.4223 11.8004 11.2812C11.8004 11.1402 11.7336 10.9844 11.6149 10.873L11.4367 10.6875L9.07657 10.6949C7.58477 10.6949 6.65704 10.7246 6.55313 10.7766Z" fill="#D7B679"/>
<path d="M17.4859 11.4297C17.0184 11.6152 16.5805 12.0309 16.3578 12.5059C16.1871 12.8621 16.1797 12.9438 16.1797 14.5617V16.2465L13.2332 16.2688L10.2793 16.291L9.86367 16.484C9.18828 16.8031 8.66133 17.4266 8.44609 18.1465C8.41641 18.2727 8.38672 22.2805 8.38672 27.1418V35.9219L8.55 36.3449C8.66133 36.6566 8.83203 36.9016 9.16602 37.2355C9.55937 37.6215 9.70039 37.7105 10.1383 37.8441L10.6504 38L23.3418 37.9852L36.0332 37.9629L36.5305 37.718C37.102 37.4359 37.4953 37.0352 37.7699 36.4488L37.9629 36.0332V27.127V18.2207L37.7625 17.7977C37.5027 17.2336 37.0352 16.7438 36.523 16.4988L36.1074 16.291L33.1609 16.2688L30.2145 16.2465L30.1922 14.5246L30.1699 12.8027L29.9473 12.402C29.8285 12.1867 29.5984 11.8898 29.4352 11.7563C28.8711 11.2738 28.9602 11.2813 23.1266 11.2813C18.102 11.2887 17.8348 11.2961 17.4859 11.4297ZM28.7375 12.7508L28.9824 12.9883V14.6063V16.2168H28.3516H27.7207L27.6984 14.9699L27.6836 13.7305H23.1562H18.6289V14.9922V16.2539H17.998H17.3672V14.6953C17.3672 13.441 17.3895 13.0848 17.4785 12.9141C17.716 12.4539 17.4934 12.4688 23.2453 12.491L28.5 12.5059L28.7375 12.7508ZM26.4961 15.5859V16.2539L23.1785 16.2391L19.8535 16.2168L19.8313 15.5637L19.809 14.918H23.1562H26.4961V15.5859ZM36.0555 17.5973C36.2484 17.6938 36.4562 17.8793 36.575 18.0574L36.7754 18.3543L36.7977 20.566C36.8199 22.6664 36.8125 22.7926 36.6715 23.0746C36.5082 23.3863 36.241 23.609 35.8031 23.7945C35.6547 23.8613 33.5395 24.2918 31.1051 24.7594C28.6707 25.2195 26.5926 25.6203 26.4812 25.65L26.2734 25.6945V24.5961C26.2734 23.6461 26.2512 23.4605 26.125 23.2008C25.8207 22.5922 25.8652 22.5996 23.2676 22.5773C20.6922 22.5551 20.618 22.5699 20.284 23.0746C20.1207 23.3121 20.1133 23.4012 20.1133 24.507C20.1133 25.598 20.1059 25.6871 19.9871 25.65C19.9129 25.6277 19.1187 25.4793 18.2207 25.3086C12.684 24.2695 10.7098 23.8762 10.4203 23.7352C10.0641 23.5719 9.6707 23.1711 9.61133 22.9113C9.58906 22.8223 9.57422 21.7461 9.58906 20.5141L9.61133 18.2801L9.81914 18.0129C9.93047 17.857 10.1531 17.6715 10.3016 17.5898C10.5687 17.4488 10.8285 17.4488 23.1488 17.4414H35.7289L36.0555 17.5973ZM25.0711 26.1398C25.0488 28.8711 25.0488 28.8637 24.3883 29.4426C23.416 30.2961 21.9242 29.925 21.4121 28.7004C21.323 28.4777 21.3008 28.025 21.3008 26.0879V23.75H23.2008H25.0934L25.0711 26.1398ZM14.9848 25.9023C17.5008 26.3773 19.6754 26.793 19.8313 26.8227L20.0984 26.8746L20.1281 27.8543C20.1504 28.7746 20.1652 28.8637 20.3879 29.3164C21.1598 30.8973 22.9781 31.5355 24.5293 30.7711C25.7094 30.1922 26.2734 29.1531 26.2734 27.5945C26.2734 27.1938 26.3031 26.8672 26.3328 26.8672C26.4219 26.8672 34.4227 25.3383 35.2836 25.1527C35.6844 25.0711 36.1965 24.9227 36.4117 24.8262L36.8125 24.648V30.1551C36.8125 35.3355 36.7977 35.677 36.6715 35.959C36.5082 36.3227 36.1594 36.6344 35.7883 36.7383C35.5953 36.7977 31.7359 36.8125 23.0004 36.7977L10.4945 36.7754L10.1828 36.5676C10.0121 36.4563 9.8043 36.2336 9.72266 36.0703C9.57422 35.7883 9.57422 35.6547 9.57422 30.2145V24.648L9.98984 24.841C10.3016 24.982 11.5633 25.2492 14.9848 25.9023Z" fill="#D7B679"/>
<path d="M22.7484 27.5352C22.6668 27.6242 22.6074 27.8023 22.6074 27.9434C22.6074 28.2922 22.8152 28.5 23.1566 28.5C23.6836 28.5 23.9508 27.8988 23.5797 27.55C23.3496 27.3348 22.934 27.3348 22.7484 27.5352Z" fill="#D7B679"/>
</svg>
