<svg width="38" height="38" viewBox="0 0 38 38" fill="none" xmlns="http://www.w3.org/2000/svg">
<path d="M17.7527 0.0742416C14.012 0.601196 11.9784 3.45119 12.3273 7.70393C12.5128 10.0567 13.2402 12.1793 14.5093 14.0719L14.9917 14.7992L14.9769 15.9793L14.9546 17.1594L9.95226 19.6977C6.52336 21.4344 4.90539 22.2879 4.82375 22.4141C4.71242 22.5699 4.59367 23.6239 4.13351 28.6114C3.51008 35.3949 3.51008 34.9571 4.11867 35.1203C4.44523 35.2094 4.44523 35.2168 4.41554 35.4766C4.31164 36.2188 4.23 37.0352 4.23 37.3469C4.23 37.6289 4.26711 37.718 4.42297 37.8442C4.68273 38.0446 4.91281 38.0446 5.16515 37.8293C5.34328 37.6735 5.36554 37.5844 5.48429 36.5305C5.55109 35.9145 5.63273 35.3875 5.66242 35.3578C5.69953 35.3207 7.62922 35.5137 8.81672 35.6696L9.12843 35.7141V36.6789C9.12843 37.5992 9.13586 37.6438 9.31398 37.8145C9.55148 38.0594 9.89289 38.0594 10.1304 37.8145L10.3159 37.6364V33.3317C10.3159 30.2887 10.2937 28.975 10.2343 28.8414C10.1304 28.6262 9.7964 28.4629 9.57375 28.5371C9.49211 28.5668 9.35109 28.6559 9.27687 28.7449C9.13586 28.8934 9.12843 29.0196 9.12843 31.7137V34.5266L8.92804 34.4895C8.80929 34.4672 7.86672 34.3559 6.82765 34.2446C5.78859 34.1332 4.91281 34.0219 4.88312 33.9996C4.83859 33.9625 5.72179 23.9653 5.8257 23.327C5.87023 23.0969 5.97414 23.0375 10.212 20.8926L14.5612 18.6957L15.1179 19.0817C16.2905 19.8906 17.4261 20.2172 19.0366 20.2172C20.714 20.2098 21.9163 19.8239 23.1261 18.9184L23.4378 18.6883L27.787 20.8926C30.1769 22.1024 32.1362 23.0969 32.1437 23.1043C32.1882 23.2602 33.1456 33.9699 33.1159 33.9996C33.0862 34.0293 32.2327 34.1406 31.2085 34.2446C30.1917 34.3559 29.2417 34.4672 29.1155 34.4895L28.8706 34.5266V31.7137C28.8706 28.9899 28.8632 28.8934 28.7222 28.7375C28.4402 28.4406 28.0319 28.4629 27.7796 28.7895C27.7128 28.8785 27.6905 29.9621 27.6831 33.2723V37.6364L27.8687 37.8145C28.1062 38.0594 28.4476 38.0594 28.6851 37.8145C28.8632 37.6438 28.8706 37.5992 28.8706 36.6789V35.7141L29.1898 35.6696C30.3476 35.5137 32.2995 35.3207 32.3366 35.3578C32.3663 35.3801 32.4405 35.9145 32.5148 36.5379C32.6409 37.5844 32.6632 37.6809 32.8413 37.8293C33.0862 38.0446 33.3237 38.0446 33.5761 37.8442C33.8062 37.666 33.821 37.4063 33.6577 36.0703C33.6058 35.6028 33.5612 35.2168 33.5687 35.2168C33.8655 35.1723 34.2663 34.9571 34.3331 34.8086C34.4073 34.6602 34.3109 33.4653 33.873 28.7969C33.5761 25.5906 33.3237 22.8742 33.3237 22.7555C33.3237 22.6071 33.2495 22.4735 33.0862 22.325C32.9527 22.1989 30.637 20.9891 27.9429 19.6309L23.0444 17.1668L23.0222 15.9793L23.0073 14.7992L23.4898 14.0719C25.7534 10.6875 26.3694 6.1676 24.9741 3.28791C24.2245 1.75901 22.896 0.712524 21.0999 0.252365C20.2835 0.0445557 18.6062 -0.0445099 17.7527 0.0742416ZM20.803 1.40276C21.9905 1.71448 23.0444 2.44182 23.6308 3.36213C23.987 3.92619 24.2171 4.5051 24.1058 4.5719C24.0538 4.60159 23.7644 4.64612 23.4527 4.66096C22.7253 4.70549 22.473 4.57932 21.8124 3.86682C21.1741 3.17659 21.0777 3.17659 20.4616 3.82229C20.1573 4.13401 19.8456 4.37151 19.5562 4.5051C19.1331 4.70549 19.0663 4.71291 18.1089 4.69807C17.3964 4.69065 16.8843 4.63869 16.3277 4.52737C15.0734 4.26018 14.8952 4.25276 14.7023 4.49026C14.5093 4.7426 14.5019 4.97268 14.6948 5.21018C14.8062 5.35862 14.9917 5.44026 15.489 5.55901C16.632 5.82619 17.0847 5.88557 18.1831 5.89299C19.1331 5.90041 19.3187 5.87815 19.764 5.72971C20.0386 5.63322 20.4542 5.41057 20.6917 5.23987L21.1222 4.92073L21.4116 5.17307C21.5675 5.30666 21.8866 5.50705 22.1093 5.61838C22.473 5.79651 22.614 5.82619 23.2671 5.82619C23.6753 5.82619 24.1132 5.79651 24.2394 5.76682L24.4694 5.70744L24.5214 6.32346C24.6921 8.52034 23.7866 11.6227 22.4062 13.5821C21.189 15.3039 19.6155 16.1055 18.2499 15.7121C16.1124 15.0813 14.1308 11.9641 13.5741 8.34963C13.4405 7.49612 13.4628 5.95237 13.6187 5.23244C14.0788 3.05042 15.4519 1.7219 17.6933 1.29143C18.4429 1.15041 20.046 1.20237 20.803 1.40276ZM17.1292 16.5434C17.582 16.7735 18.5023 16.9961 18.9995 16.9961C19.7862 16.9961 20.7659 16.677 21.5081 16.1649L21.8198 15.9496V16.7215C21.8198 17.5231 21.9015 17.9164 22.087 17.9906C22.2948 18.0723 22.1761 18.1836 21.5823 18.4731C20.7066 18.8961 20.1128 19.0223 18.9995 19.0223C17.8862 19.0223 17.2925 18.8961 16.4241 18.4731C15.8081 18.1762 15.7191 18.0946 15.912 17.9832C16.1198 17.8571 16.1792 17.5824 16.1792 16.7735V15.9496L16.4984 16.1649C16.6691 16.2836 16.9511 16.4543 17.1292 16.5434Z" fill="#CA9457"/>
<path d="M0.400781 1.92969C0.192969 2.01133 0 2.28594 0 2.49375C0 2.58281 0.0667969 2.73867 0.155859 2.85L0.304297 3.04297H6.05625C11.7043 3.04297 11.8008 3.04297 11.9492 2.89453C12.1719 2.67188 12.1719 2.27852 11.9418 2.04102C11.8008 1.89258 11.6895 1.89258 6.175 1.87773C3.0875 1.87031 0.482422 1.89258 0.400781 1.92969Z" fill="#CA9457"/>
<path d="M26.2364 1.92227C25.8579 2.07812 25.754 2.59766 26.0509 2.89453C26.1993 3.04297 26.2958 3.04297 31.9439 3.04297H37.6958L37.8442 2.85C38.0521 2.59023 38.0372 2.35273 37.822 2.10039L37.6439 1.89258L32.0107 1.87773C28.9157 1.87031 26.3181 1.89258 26.2364 1.92227Z" fill="#CA9457"/>
<path d="M0.333895 8.03047C-0.044621 8.2457 -0.111418 8.65391 0.185457 8.94336L0.363582 9.12891H5.73702H11.1105L11.2663 8.9582C11.4667 8.74297 11.4741 8.38672 11.2886 8.15664L11.1476 7.97851L5.81124 7.96367C1.88507 7.94883 0.445223 7.96367 0.333895 8.03047Z" fill="#CA9457"/>
<path d="M26.8889 8.01562C26.5401 8.15664 26.4584 8.69844 26.7405 8.96562L26.9112 9.12891H32.2772H37.6358L37.8139 8.94336C38.1034 8.66133 38.0143 8.18633 37.6506 8.02305C37.4354 7.91914 27.1412 7.91914 26.8889 8.01562Z" fill="#CA9457"/>
<path d="M0.185547 14.2129C0.0667969 14.3242 0 14.4801 0 14.6211C0 14.7621 0.0667969 14.918 0.185547 15.0293L0.363672 15.2148H6.70195C13.0031 15.2148 13.0402 15.2148 13.2406 15.059C13.3891 14.9402 13.4336 14.8438 13.4336 14.6211C13.4336 14.3984 13.3891 14.302 13.2406 14.1832C13.0402 14.0273 13.0031 14.0273 6.70195 14.0273H0.363672L0.185547 14.2129Z" fill="#CA9457"/>
<path d="M24.7587 14.1832C24.4841 14.3984 24.4841 14.8438 24.7587 15.059C24.9591 15.2148 24.9962 15.2148 31.2974 15.2148H37.6356L37.8138 15.0293C37.9325 14.918 37.9993 14.7621 37.9993 14.6211C37.9993 14.4801 37.9325 14.3242 37.8138 14.2129L37.6356 14.0273H31.2974C24.9962 14.0273 24.9591 14.0273 24.7587 14.1832Z" fill="#CA9457"/>
<path d="M14.0496 19.4602C13.8641 19.5492 13.9309 19.4082 12.4836 22.9113L11.3926 25.5684L11.3703 30.452L11.3555 35.3355L11.5707 35.5582L11.7859 35.7734H18.9555C24.1211 35.7734 26.1695 35.7512 26.3031 35.6918C26.3996 35.6398 26.5258 35.5211 26.5703 35.4098C26.6223 35.2762 26.6445 33.7473 26.6297 30.3926L26.6074 25.5684L25.3234 22.6367C24.6184 21.0262 23.9652 19.6457 23.8836 19.5715C23.557 19.2969 22.9336 19.5566 22.9336 19.9797C22.9336 20.0762 23.4234 21.2785 24.0172 22.659C24.6184 24.0395 25.0934 25.1824 25.0711 25.1973C25.0488 25.2195 22.2953 25.227 18.9406 25.2195L12.8547 25.1973L13.8789 22.6738C14.4504 21.2859 14.9105 20.0539 14.918 19.9426C14.918 19.6902 14.6211 19.3711 14.3836 19.3785C14.2871 19.3785 14.1387 19.4156 14.0496 19.4602ZM25.457 30.5039V34.5859H19H12.543V30.5039V26.4219H19H25.457V30.5039Z" fill="#CA9457"/>
<path d="M15.0302 28.6855C14.7853 28.923 14.7779 29.3016 15.0154 29.5242C15.1787 29.6801 15.2529 29.6875 16.6333 29.6875C18.0509 29.6875 18.088 29.6875 18.2439 29.5168C18.4666 29.2793 18.4591 28.9156 18.2216 28.6855C18.0435 28.5 18.0287 28.5 16.6259 28.5C15.2232 28.5 15.2083 28.5 15.0302 28.6855Z" fill="#CA9457"/>
<path d="M19.7802 28.6855C19.5353 28.923 19.5279 29.3016 19.7654 29.5242C19.9287 29.6801 20.0029 29.6875 21.3834 29.6875C22.8009 29.6875 22.838 29.6875 22.9939 29.5168C23.2166 29.2793 23.2091 28.9156 22.9716 28.6855C22.7935 28.5 22.7787 28.5 21.3759 28.5C19.9732 28.5 19.9583 28.5 19.7802 28.6855Z" fill="#CA9457"/>
<path d="M15.0367 31.6246C14.8883 31.7434 14.8438 31.8398 14.8438 32.0625C14.8438 32.2852 14.8883 32.3816 15.0367 32.5004C15.2223 32.6488 15.3336 32.6562 16.625 32.6562C17.9164 32.6562 18.0277 32.6488 18.2133 32.5004C18.3617 32.3816 18.4062 32.2852 18.4062 32.0625C18.4062 31.8398 18.3617 31.7434 18.2133 31.6246C18.0277 31.4762 17.9164 31.4687 16.625 31.4687C15.3336 31.4687 15.2223 31.4762 15.0367 31.6246Z" fill="#CA9457"/>
<path d="M19.786 31.6246C19.5114 31.8398 19.5114 32.2852 19.786 32.5004C19.9716 32.6488 20.0829 32.6562 21.3743 32.6562C22.6657 32.6562 22.7771 32.6488 22.9626 32.5004C23.111 32.3816 23.1556 32.2852 23.1556 32.0625C23.1556 31.8398 23.111 31.7434 22.9626 31.6246C22.7771 31.4762 22.6657 31.4687 21.3743 31.4687C20.0829 31.4687 19.9716 31.4762 19.786 31.6246Z" fill="#CA9457"/>
<path d="M0.185517 20.2989C-0.141046 20.618 0.0148136 21.1524 0.467548 21.2638C0.55661 21.286 1.72927 21.3009 3.0652 21.286L5.507 21.2638L5.64802 21.0856C5.84098 20.8481 5.82614 20.5141 5.60348 20.2989L5.42536 20.1134H2.8945H0.363642L0.185517 20.2989Z" fill="#CA9457"/>
<path d="M32.7378 20.2395C32.6561 20.3137 32.5596 20.477 32.5374 20.6105C32.5003 20.8109 32.53 20.8852 32.7155 21.0781L32.9382 21.3008H35.2167C37.5323 21.3008 37.6956 21.2859 37.9034 21.0113C38.0518 20.8184 38.0147 20.4918 37.8143 20.2988L37.6362 20.1133H35.2686C33.1163 20.1133 32.8788 20.1281 32.7378 20.2395Z" fill="#CA9457"/>
</svg>
