<svg width="38" height="38" viewBox="0 0 38 38" fill="none" xmlns="http://www.w3.org/2000/svg">
<g clip-path="url(#clip0_600_62)">
<path d="M6.53131 0.178127C5.99694 0.326565 5.57389 0.578907 5.17311 0.979687C4.97272 1.18008 4.66842 1.39531 4.49772 1.45469C3.01335 1.98164 2.15983 3.57734 2.55319 5.10625C2.6571 5.52188 2.6571 5.61094 2.56061 5.98945C2.286 7.04336 2.54577 8.04531 3.3028 8.88399C3.58483 9.20312 3.65163 9.34414 3.711 9.70039C3.86686 10.6578 4.58678 11.593 5.46999 12.0086C5.81881 12.1645 6.04147 12.209 6.6278 12.2313L7.35514 12.2609L7.33287 12.8992L7.31061 13.5301L6.67975 13.6562C4.37897 14.1238 2.36764 15.7938 1.55124 17.9238C1.36569 18.4062 1.25436 18.577 0.950065 18.8441C6.59991e-05 19.6828 -0.244856 20.8406 0.296941 21.9391C0.645769 22.6441 1.21725 23.0746 2.02624 23.223C3.09499 23.416 4.19342 22.8371 4.661 21.8277C4.80944 21.516 4.85397 21.2563 4.89108 20.566C4.95045 19.5566 5.06178 19.282 5.55163 18.8516C5.93756 18.5102 6.24186 18.4062 6.88756 18.4062H7.34772V20.4473V22.4809L4.40866 28.0695C2.78327 31.1422 1.41764 33.7695 1.35827 33.9105C1.19499 34.2891 1.22467 35.0238 1.41764 35.4691C1.61061 35.9293 2.07819 36.3746 2.56803 36.5602C2.8946 36.6863 3.14694 36.7012 5.08405 36.7012C7.14733 36.7012 7.25123 36.6938 7.53327 36.5453C8.1567 36.2113 8.52779 35.6398 8.53522 35.0312C8.53522 34.1852 8.17897 33.7027 7.14733 33.1906L6.44967 32.8344L8.38678 30.4297C9.73014 28.7672 10.3684 28.025 10.4501 28.0398C10.9399 28.1289 12.0903 28.1363 12.454 28.0547C13.0848 27.9211 13.8864 27.5055 14.354 27.0824C14.5989 26.8598 15.1704 26.1324 15.7122 25.368C16.4544 24.2992 16.6622 24.0543 16.729 24.1359C16.7809 24.1879 17.1594 24.752 17.5751 25.3828L18.3321 26.5406V27.0898C18.3321 27.3941 18.3618 27.7578 18.3989 27.884C18.4657 28.1215 18.4657 28.1215 18.1985 28.166C16.9961 28.3367 16.4098 28.5965 15.7715 29.2273C15.1184 29.8805 14.6954 30.7711 14.6954 31.5207C14.6954 31.825 14.6879 31.8398 14.3243 31.9957C13.7676 32.2332 13.3965 32.6859 13.1962 33.3613C12.9883 34.059 12.7286 34.3855 12.1497 34.6676C11.4372 35.009 11.118 35.4023 11.0141 36.0629C10.8731 36.9684 11.6821 37.9184 12.6098 37.9258C12.8622 37.9258 14.8438 37.3395 15.7938 36.9832C15.8606 36.9535 15.8829 37.0723 15.8829 37.4359V37.9258H20.3954C25.3086 37.9258 25.3606 37.9184 26.1547 37.4953C26.7336 37.191 27.4536 36.4191 27.7208 35.8328C27.8469 35.5582 27.9583 35.3281 27.9805 35.3281C28.0028 35.3281 28.552 35.8105 29.2051 36.4043C30.6672 37.7254 30.9567 37.8887 31.8399 37.8887C32.3446 37.8887 32.5375 37.8516 32.8196 37.7105C33.6286 37.3172 34.1555 36.5156 34.1704 35.6547C34.1704 35.3949 34.1926 35.1797 34.2149 35.1797C34.2372 35.1797 34.4375 35.2465 34.6602 35.3355C34.9868 35.4617 35.1797 35.484 35.625 35.4617C36.575 35.4023 37.2727 34.9348 37.7625 34.007L38.0149 33.5395L37.6067 33.109C37.0129 32.4633 36.6641 31.632 36.6641 30.8379C36.6641 29.8359 36.345 28.7969 35.8032 27.9656L35.4024 27.357V24.6777V21.9984L35.729 21.9094C36.5454 21.6941 37.4805 20.7516 37.7403 19.8758C37.9036 19.3266 37.9036 16.1797 37.7403 15.5488C37.5399 14.7621 37.2059 14.1832 36.5973 13.5746C35.7364 12.7137 35.0016 12.3945 33.6434 12.2832L32.9532 12.2313V11.8824C32.9532 11.541 32.9532 11.541 33.3836 11.3184C34.2297 10.8805 35.1352 9.73008 35.2911 8.88399L35.343 8.60938H35.8774C36.7754 8.60938 37.5473 8.09727 37.7625 7.35508C37.8961 6.91719 37.8813 3.94102 37.7403 3.34727C37.4582 2.14492 36.5825 1.06875 35.4618 0.526955C34.5192 0.0742188 34.3411 0.0593758 30.875 0.0890617C27.884 0.118752 27.7801 0.126171 27.3348 0.289455C26.0731 0.749611 25.1083 1.72187 24.6555 2.97617C24.47 3.4957 24.4626 3.62188 24.4329 5.1582C24.3958 6.98398 24.4551 7.39219 24.7891 7.85977C25.1379 8.33477 25.5907 8.55742 26.3106 8.59453L26.9192 8.62422L27.0751 9.12148C27.3793 10.0492 28.0176 10.8211 28.8563 11.2664L29.3165 11.5113V11.8824V12.2461L27.0008 12.2387H24.6778L23.6239 10.9102L22.5626 9.58164L22.3844 8.72812C22.1321 7.54805 21.8946 7.125 21.2043 6.65C19.6086 5.55899 17.4563 6.49414 17.1446 8.40899C16.9516 9.58906 17.6567 10.9027 18.7403 11.4L19.1411 11.5855L20.3137 13.7082C20.9817 14.9105 21.6274 15.9793 21.8055 16.1871C22.2879 16.7289 23.0598 17.0852 23.8243 17.1297L24.418 17.1668V19.6605C24.418 21.1227 24.4477 22.2656 24.4922 22.4289C24.5887 22.7555 24.9821 23.1191 25.3606 23.223C25.5165 23.2676 25.9172 23.3047 26.2586 23.3047H26.8672V25.7168V28.1289H26.1993H25.5313L25.5833 27.9211C25.6723 27.6094 25.6352 27.0082 25.509 26.7113C25.368 26.3699 24.9079 25.8578 24.611 25.702C24.4922 25.6426 23.9579 25.4941 23.4235 25.3902L22.4586 25.1898L21.709 22.7332C21.2934 21.3824 20.8926 20.1355 20.8258 19.9648C20.4993 19.141 19.7497 18.2949 18.9258 17.8125C17.345 16.8848 15.4004 16.9887 13.8567 18.0797C13.6637 18.2207 13.493 18.332 13.4782 18.332C13.4708 18.332 13.4337 18.05 13.4114 17.7086C13.352 16.8996 13.0551 16.0016 12.6172 15.3336C12.2684 14.7992 11.4817 14.0051 11.1551 13.8566C10.9844 13.7824 10.977 13.7527 10.9993 13.0328L11.0215 12.2832L11.7266 12.2387C12.595 12.1867 13.1071 11.9789 13.6934 11.4223C14.4579 10.7023 14.6879 9.94531 14.6954 8.17891C14.6954 7.45156 14.7102 7.34023 14.829 7.2957C15.7196 6.99883 16.4172 6.40508 16.7958 5.64805C17.0184 5.18789 17.0333 5.11367 17.0333 4.3418C17.0333 3.56992 17.0184 3.4957 16.7883 3.02813C16.6176 2.6793 16.4172 2.41953 16.0833 2.12266C15.5637 1.65508 15.5786 1.66992 15.059 1.09844C14.8512 0.860939 14.5395 0.59375 14.3688 0.489845C13.6712 0.0816422 12.7731 -0.029686 12.0235 0.19297C11.6598 0.296875 11.593 0.296875 11.2071 0.19297C10.6059 0.0222664 10.027 0.0445328 9.40358 0.252346L8.8692 0.43047L8.34967 0.252346C7.76334 0.0593758 7.08053 0.0296898 6.53131 0.178127ZM7.77076 1.3582C7.97858 1.41016 8.30514 1.58086 8.50553 1.72187L8.8692 1.98906L9.09186 1.80352C9.75983 1.2543 10.502 1.15039 11.2145 1.49922L11.6004 1.69961L11.8825 1.55859C12.8696 1.05391 13.8344 1.32109 14.4356 2.26367C14.5766 2.47891 14.7622 2.68672 14.8512 2.70898C15.0962 2.79063 15.5044 3.19141 15.6825 3.51797C15.8903 3.91875 15.9051 4.74258 15.7047 5.12109C15.4895 5.53672 14.97 6.01172 14.7399 6.01172C14.7251 6.01172 14.6879 5.80391 14.6583 5.54414C14.5618 4.66836 14.0942 4.04492 13.352 3.82969C12.8028 3.66641 9.18092 3.65899 8.63912 3.82227C8.17897 3.95586 7.71881 4.3418 7.54069 4.73516C7.4442 4.95039 7.32545 5.06914 7.11022 5.16563C6.47936 5.44766 6.0192 6.30859 6.12311 7.00625C6.20475 7.51836 6.561 8.06758 6.98405 8.32734L7.34772 8.55742V9.76719V10.977L7.01373 11.0289C5.82623 11.1996 4.84655 10.2941 4.91334 9.07695L4.93561 8.59453L4.53483 8.32734C3.71842 7.7707 3.45124 6.77617 3.88913 5.93008L4.0821 5.55899L3.88913 5.17305C3.39186 4.20078 3.82233 3.06524 4.84655 2.63477C4.99499 2.57539 5.21764 2.52344 5.33639 2.52344C5.50709 2.52344 5.58873 2.46406 5.72233 2.24141C6.03405 1.75156 6.45709 1.43242 6.97662 1.32852C7.36256 1.2543 7.35514 1.2543 7.77076 1.3582ZM34.5489 1.43985C35.4395 1.76641 36.2336 2.56055 36.486 3.36211C36.5454 3.57734 36.6196 4.04492 36.6418 4.4086C36.679 5.01719 36.679 5.06914 36.5602 5.02461C36.486 4.99492 36.1817 4.97266 35.8774 4.97266H35.3282L35.1797 4.6832C35.1055 4.51992 34.9125 4.28984 34.7567 4.16367C34.3188 3.8 33.8958 3.71094 32.6043 3.71094C31.6172 3.71094 31.4243 3.68867 31.1793 3.56992C30.8676 3.40664 30.6524 3.12461 30.5782 2.7832L30.5336 2.56055L29.925 2.53828C29.3684 2.51602 29.3165 2.53086 29.3165 2.65703C29.3165 2.79063 29.4575 3.31016 29.5688 3.56992C29.6133 3.67383 29.5317 3.69609 28.9305 3.72578C28.0399 3.76289 27.5723 3.99297 27.179 4.5793L26.9192 4.97266H26.4145C26.1399 4.97266 25.8579 4.99492 25.7911 5.02461C25.6723 5.06172 25.6649 5.00235 25.6946 4.29727C25.7168 3.65899 25.754 3.45117 25.9172 3.09492C26.318 2.23399 27.268 1.49922 28.1735 1.33594C28.3739 1.30625 29.8063 1.28399 31.3575 1.29141C33.8958 1.29883 34.2149 1.31367 34.5489 1.43985ZM13.2481 5.1582C13.4337 5.33633 13.4337 5.35859 13.4337 6.56836C13.4337 7.38477 13.404 7.79297 13.352 7.79297C13.3075 7.79297 12.9364 7.70391 12.5208 7.6C11.5559 7.35508 10.9919 7.37734 10.5465 7.6668C10.0938 7.96367 9.84889 8.38672 9.81178 8.91367C9.74498 9.84883 10.1977 10.4203 11.3258 10.7988L11.9864 11.0215L10.8954 11.0438L9.79694 11.066V12.2832V13.5078H9.16608H8.53522V10.4648V7.42188H8.24576C7.54811 7.42188 7.19186 7.02852 7.39225 6.49414C7.46647 6.30859 7.82272 6.16016 8.20123 6.16016H8.53522V5.82617C8.53522 5.46992 8.68365 5.09141 8.84694 5.02461C8.89889 5.00235 9.87115 4.98008 11.0067 4.98008L13.07 4.97266L13.2481 5.1582ZM33.8809 5.01719C34.1555 5.12852 34.2149 5.43281 34.2149 6.85039C34.2149 8.36445 34.1407 8.75781 33.7547 9.36641C33.3911 9.93789 32.7305 10.3758 32.0477 10.502L31.7657 10.5539V12.0309V13.5004L32.3297 13.5227L32.8938 13.5449L32.6415 13.916C32.1887 14.584 31.2016 14.8957 30.4743 14.5914C30.0586 14.4207 29.4649 13.8047 29.4649 13.5449C29.4649 13.5227 29.7024 13.5078 29.9844 13.5078H30.504V12.0309V10.5539L30.2293 10.502C29.4129 10.3535 28.5743 9.64102 28.2848 8.86914C28.1438 8.49805 28.129 8.29024 28.129 6.8875C28.129 5.37344 28.1364 5.30664 28.2922 5.14336L28.4481 4.97266H31.1051C32.5672 4.97266 33.8141 4.99492 33.8809 5.01719ZM26.8672 6.79102V7.42188H26.5778C25.984 7.42188 25.6797 7.20664 25.6797 6.79102C25.6797 6.35312 25.9172 6.175 26.5184 6.16758L26.8672 6.16016V6.79102ZM36.4563 6.38281C36.6418 6.57578 36.6715 6.65 36.6344 6.85039C36.5528 7.24375 36.3524 7.37734 35.8625 7.38477H35.4395L35.4172 6.76875L35.395 6.16016H35.8106C36.1817 6.16016 36.2559 6.18984 36.4563 6.38281ZM20.284 7.52578C20.6032 7.65195 20.9817 8.09727 21.0708 8.43867C21.1079 8.59453 21.2043 9.03242 21.2711 9.40352L21.4047 10.0938L22.7704 11.8008L24.136 13.5078H24.9079H25.6797V14.7324V15.957H24.7668C23.6461 15.957 23.2157 15.8457 22.8149 15.4523C22.6219 15.2742 22.0876 14.391 21.2415 12.8695L19.9649 10.5613L19.5344 10.4055C18.8071 10.1383 18.3321 9.52227 18.3321 8.83203C18.3321 8.46836 18.5325 7.97109 18.7477 7.78555C19.1633 7.4293 19.8016 7.31797 20.284 7.52578ZM12.454 8.84688C13.3891 9.07695 13.4337 9.0918 13.4337 9.27734C13.4337 9.52969 13.2926 10.0047 13.2036 10.0566C13.0848 10.1309 11.259 9.5 11.118 9.33672C11.0438 9.25508 10.9844 9.12148 10.9844 9.04727C10.9844 8.89141 11.2294 8.60938 11.3778 8.60938C11.4223 8.60938 11.9122 8.71328 12.454 8.84688ZM28.2032 13.634C28.2032 13.9086 28.6485 14.6879 29.0047 15.0441C30.5411 16.5805 33.1461 16.0461 33.9625 14.0348C34.059 13.8047 34.1852 13.6117 34.252 13.5969C34.4598 13.5523 35.3133 14.0051 35.6993 14.3687C36.3004 14.9328 36.6641 15.8383 36.6641 16.7809V17.1445H35.4395H34.2149V16.5508V15.957H33.584H32.9532V17.1816V18.4062H32.1961H31.4465L31.0161 17.998C30.593 17.5898 29.9399 17.2188 29.6504 17.2188C29.4352 17.2188 29.3461 17.1371 29.2868 16.8848C29.2051 16.5656 28.9231 16.2242 28.6262 16.0758C28.4407 15.9941 28.1586 15.957 27.6168 15.957H26.8672V14.7324V13.5078H27.5352C28.1215 13.5078 28.2032 13.5227 28.2032 13.634ZM10.6801 15.0293C11.2145 15.4227 11.7266 16.0906 11.9493 16.677C12.1868 17.3152 12.261 18.0797 12.2313 19.7273L12.209 21.2414L12.0161 21.4047C11.8528 21.5457 11.6227 21.5977 10.4575 21.7387C9.70787 21.8277 8.96569 21.9242 8.81725 21.9465L8.53522 21.991V20.1949V18.4062H9.16608H9.80436L9.78209 17.7902L9.75983 17.1816L8.0899 17.1594L6.41998 17.1371L5.90788 16.2762C5.31413 15.2742 5.29186 15.341 6.2567 15.0367C7.04342 14.777 7.57037 14.7176 9.02506 14.7027L10.2274 14.6953L10.6801 15.0293ZM4.85397 16.8699C5.03952 17.1891 5.19538 17.4711 5.19538 17.5082C5.19538 17.5453 5.06178 17.6641 4.89108 17.7754C4.0821 18.3395 3.63678 19.3711 3.63678 20.6699C3.63678 21.1004 3.6071 21.2488 3.4735 21.4492C3.22116 21.8129 2.94655 21.9836 2.53835 22.0281C1.13561 22.1617 0.742253 20.2098 2.04108 19.5789C2.32311 19.4453 2.37506 19.3785 2.44928 19.0816C2.67936 18.1762 3.27311 17.1297 3.95592 16.4469C4.37897 16.0238 4.33444 16.009 4.85397 16.8699ZM28.1067 17.2633C28.1364 17.3523 28.0844 17.4414 27.936 17.5453C27.0379 18.1836 26.6891 19.2078 27.0157 20.2691C27.1567 20.7367 27.2383 20.8629 27.654 21.2859C28.3887 22.0207 28.3739 22.043 26.9043 22.043H25.6797V19.5938V17.1445H26.8672C27.9063 17.1445 28.0622 17.1594 28.1067 17.2633ZM17.5825 18.5473C18.4211 18.807 19.0965 19.3488 19.5344 20.1133C19.7497 20.477 21.1821 25.0563 21.1301 25.1898C21.1004 25.2641 19.5864 25.6055 19.2821 25.6055C19.1411 25.6055 17.8942 23.7352 17.5899 23.0523C17.3376 22.5031 17.1446 21.7684 17.1446 21.3602C17.1446 20.8777 17.1149 20.8555 16.4692 20.8555H15.8829V21.1078C15.8829 21.2414 15.9348 21.6496 15.9942 22.0133C16.1055 22.6293 16.1055 22.6738 15.9719 22.8594C15.8977 22.9633 15.3708 23.7055 14.8067 24.5145C14.2426 25.3309 13.6415 26.1027 13.4708 26.2363C12.2758 27.2086 10.6579 27.1641 9.54459 26.125C8.83951 25.4645 8.49069 24.5813 8.55006 23.6016L8.57233 23.1934L10.2422 22.9855C11.1626 22.8742 12.0309 22.748 12.1794 22.7109C12.5579 22.607 13.0551 22.1469 13.2555 21.7164C13.404 21.4047 13.4337 21.2191 13.4337 20.6328V19.9277L14.0942 19.4305C14.8141 18.8887 15.3559 18.5918 15.7864 18.4879C16.2836 18.3691 17.1001 18.3988 17.5825 18.5473ZM29.8434 18.6215C30.0215 18.7402 30.3333 19.0074 30.5411 19.2152L30.9047 19.5938H32.5598H34.2149V19V18.4062H35.4469H36.6864L36.6418 18.9555C36.5825 19.757 36.2485 20.2988 35.5879 20.6551C35.2985 20.8109 35.202 20.8184 32.3446 20.8406C29.1977 20.8629 28.975 20.848 28.5743 20.5141C28.2626 20.2469 28.129 19.9574 28.129 19.5418C28.129 18.6066 29.0493 18.1094 29.8434 18.6215ZM31.8399 22.1172C31.8399 22.1543 31.9067 22.3695 31.9958 22.5996C32.2704 23.3344 33.1239 24.1211 33.9032 24.3512L34.2149 24.4402V25.4273V26.4145L33.7547 26.1992C33.1833 25.932 32.5079 25.7539 32.0848 25.7539H31.7657V25.123V24.4848L31.1571 24.507L30.5411 24.5293L30.5188 25.2047L30.4965 25.8875L30.2368 25.9395C29.8657 26.0063 28.9008 26.5184 28.4852 26.8746L28.129 27.1715L28.1438 25.227L28.1661 23.275L28.4407 23.2082C28.7895 23.1266 29.2125 22.6664 29.2868 22.3102L29.3313 22.043H30.5856C31.3426 22.043 31.8399 22.0727 31.8399 22.1172ZM34.2149 22.5996C34.2149 22.9039 34.1852 23.1562 34.1481 23.1562C33.9254 23.1562 33.1016 22.325 33.1016 22.1098C33.1016 22.0727 33.354 22.043 33.6583 22.043H34.2149V22.5996ZM7.86725 25.9691C8.11217 26.4293 8.69108 27.0973 9.04733 27.3348L9.21803 27.4461L7.19928 29.9621L5.18053 32.4707L4.28991 32.6414C3.80006 32.7379 3.38444 32.7973 3.36217 32.775C3.33991 32.7602 4.21569 31.0457 5.3067 28.9676C6.39772 26.8969 7.32545 25.1305 7.36998 25.0488C7.43678 24.9227 7.45162 24.9375 7.53327 25.2047C7.5778 25.368 7.73365 25.7168 7.86725 25.9691ZM23.0079 26.548C23.854 26.7188 24.0395 26.7781 24.2176 26.9488C24.4997 27.2309 24.4922 27.6168 24.2028 27.9137L23.9876 28.1289H22.0208C20.1579 28.1289 20.0465 28.1215 19.8684 27.973C19.6458 27.8023 19.4973 27.3793 19.5344 27.0527L19.5567 26.8301L20.67 26.5926C21.286 26.4664 21.8352 26.3551 21.8946 26.3551C21.954 26.3477 22.4586 26.4367 23.0079 26.548ZM32.5375 27.0527C33.2426 27.2383 33.7696 27.5426 34.2891 28.0547C35.0239 28.7895 35.4024 29.6281 35.4024 30.5781C35.4098 31.5727 35.7364 32.6266 36.2856 33.4281L36.5157 33.7547L36.2856 33.9477C35.7883 34.3707 35.1649 34.3707 34.6528 33.9402C34.2743 33.6211 34.2149 33.3836 34.2149 32.1516C34.2149 30.7934 34.1184 30.4 33.6731 29.9547C33.5024 29.784 33.2575 29.6059 33.1239 29.5465C32.9829 29.4945 32.8567 29.3609 32.7973 29.2273C32.2704 27.9508 30.4446 27.8098 29.643 28.9898L29.4278 29.3016L29.1235 29.027C28.9602 28.8711 28.7598 28.7078 28.6856 28.6707C28.5594 28.5965 28.5594 28.5742 28.7895 28.2922C29.2274 27.7281 30.17 27.1641 30.8899 27.023C31.402 26.9191 32.07 26.934 32.5375 27.0527ZM27.5352 29.4648C27.9434 29.5762 28.2254 29.8211 29.2125 30.927L30.1329 31.9512L29.1903 32.8938C28.6708 33.4207 28.2106 33.8363 28.1735 33.8215C28.129 33.8066 28.025 33.5617 27.936 33.2648C27.5649 32.0477 26.7559 31.2016 25.5536 30.7859C25.0563 30.6227 24.9895 30.6152 22.3028 30.6152H19.5567L19.5344 31.2238L19.5122 31.8324L22.3176 31.8547L25.1231 31.877L25.4942 32.0773C25.9766 32.3297 26.4442 32.8195 26.6594 33.2871C26.8969 33.8141 26.8969 34.7715 26.6594 35.2613C26.3848 35.818 26.0137 36.1891 25.4719 36.4563L24.9747 36.7012H22.2657H19.5567L19.5344 35.4914L19.5196 34.2891H21.0411H22.5626V33.6582V33.0273H19.7051H16.8551L16.7438 32.8121C16.677 32.6934 16.4544 32.4484 16.2465 32.2629L15.8606 31.9215L15.9051 31.5504C16.0165 30.6004 16.6993 29.784 17.6122 29.4945C17.9981 29.3758 27.1122 29.3461 27.5352 29.4648ZM31.4317 29.4352C31.6172 29.5094 31.7657 29.8656 31.7657 30.2441V30.5781H32.0997C32.5153 30.5781 32.8641 30.7488 32.9161 30.9715C32.9606 31.1941 32.9977 33.25 32.9532 33.2426C32.9309 33.2426 32.3817 32.6414 31.7286 31.9066L30.5411 30.5707L30.5485 30.1477C30.5559 29.7988 30.593 29.7098 30.7563 29.5613C30.9567 29.3906 31.1942 29.3461 31.4317 29.4352ZM31.877 33.8809C32.8418 34.957 32.9532 35.1203 32.9532 35.5359C32.9532 36.3078 32.2629 36.857 31.5504 36.6641C31.3352 36.6047 30.9641 36.3301 30.2071 35.6473L29.1532 34.7121L30.0661 33.7992C30.5708 33.2945 31.0012 32.9086 31.0309 32.9383C31.0532 32.968 31.4391 33.391 31.877 33.8809ZM15.4895 33.1906C15.5489 33.2352 15.6602 33.4059 15.7419 33.5543C15.8606 33.7918 15.8829 33.9922 15.8829 34.7492V35.6621L14.2501 36.2113C12.6692 36.7309 12.6024 36.7457 12.4243 36.627C12.2684 36.5305 12.2387 36.4563 12.261 36.2336C12.2833 35.9813 12.3204 35.9441 12.7879 35.6992C13.6192 35.2687 14.1016 34.6898 14.3243 33.8438C14.4356 33.4281 14.584 33.1906 14.7919 33.1016C14.9848 33.0199 15.3411 33.0645 15.4895 33.1906ZM6.34577 34.1629C7.05084 34.5266 7.25123 34.6676 7.30319 34.8309C7.36256 34.9867 7.34772 35.0758 7.22155 35.2391L7.07311 35.4395L5.09147 35.4617C2.90944 35.484 2.78327 35.4617 2.56061 35.0312C2.44186 34.7938 2.4196 34.4598 2.51608 34.3039C2.56803 34.2148 4.8985 33.7176 5.3067 33.7027C5.38834 33.7027 5.85592 33.9105 6.34577 34.1629ZM18.3321 35.5137V36.7457L17.7235 36.7234L17.1075 36.7012L17.0852 35.4914L17.0704 34.2891H17.7012H18.3321V35.5137Z" fill="#D7B679"/>
</g>
<defs>
<clipPath id="clip0_600_62">
<rect width="38" height="38" fill="white"/>
</clipPath>
</defs>
</svg>
