<svg width="38" height="38" viewBox="0 0 38 38" fill="none" xmlns="http://www.w3.org/2000/svg">
<path d="M9.32955 0.111324C6.73932 0.601166 4.58698 2.22656 3.41432 4.56445C1.81862 7.75585 2.42721 11.4965 4.96549 14.0348C5.57409 14.6508 6.81354 15.5414 7.18463 15.6305C7.42955 15.6973 7.38502 15.7715 7.05104 15.8754C6.88776 15.9199 6.39049 16.1426 5.9526 16.3652C3.01354 17.8348 0.957679 20.5066 0.20807 23.8094C0.0522105 24.4996 0.0447886 24.7148 0.022523 29.5019C0.000257339 33.0644 0.0151011 34.6008 0.0744761 34.9199C0.349085 36.3523 1.60338 37.6215 3.02838 37.9184C3.30299 37.9777 5.69284 38 10.7842 38C18.8889 38 18.6514 38.0074 19.5421 37.5398C20.0913 37.243 20.7667 36.5676 21.0635 36.0035C21.4421 35.3059 21.5237 34.8086 21.5237 33.1609V31.6914L29.0421 31.6766C37.3546 31.6543 36.7682 31.684 37.362 31.1719C37.5104 31.0383 37.7108 30.7859 37.7999 30.6226L37.9632 30.3184V21.8574C37.9632 13.7453 37.9557 13.3891 37.8221 13.1367C37.6292 12.773 37.2729 12.4094 36.9241 12.2238C36.6346 12.0605 36.553 12.0605 33.2057 12.0383L29.7768 12.016L29.7546 11.1105C29.7249 10.2793 29.71 10.1754 29.5245 9.86367C29.2944 9.47031 28.9827 9.18085 28.5819 8.99531C28.3444 8.88398 27.9881 8.86913 25.3831 8.86913C22.0284 8.86913 21.9987 8.87656 21.4495 9.47031C20.9967 9.96015 20.9299 10.1828 20.9299 11.1699V12.0234H19.5124C18.4065 12.0234 18.1022 12.0012 18.1319 11.9269C18.7776 10.4648 18.9557 9.65586 18.9557 8.23828C18.9557 7.03593 18.837 6.32343 18.4807 5.36601C17.5307 2.81289 15.3561 0.883198 12.6768 0.215229C11.853 0.00741577 10.146 -0.0445366 9.32955 0.111324ZM12.469 1.48437C14.9108 2.10039 16.8924 4.08203 17.5085 6.53124C18.1171 8.95078 17.4194 11.4074 15.6307 13.1738C14.8217 13.9754 14.0202 14.4727 13.0034 14.8141C10.4206 15.675 7.72643 15.0367 5.82643 13.107C4.88385 12.157 4.25299 11.0066 3.96354 9.71523C3.80026 8.99531 3.79284 7.49609 3.9487 6.79101C4.49791 4.33437 6.27174 2.38242 8.66901 1.5957C9.79713 1.23203 11.2667 1.1875 12.469 1.48437ZM28.3147 10.3535C28.4854 10.5168 28.5003 10.5836 28.5003 11.2812V12.0234H25.346H22.1917V11.2664C22.1917 10.591 22.2065 10.4945 22.3549 10.3387L22.5108 10.168H25.3237H28.1366L28.3147 10.3535ZM36.5233 13.5078L36.746 13.7305L36.7237 15.7121L36.7014 17.7012L36.4936 18.1465C36.2339 18.7105 35.6772 19.2301 35.1206 19.4601L34.6975 19.6309L27.0901 19.6531L19.4827 19.6754L19.2229 19.3414C19.0819 19.1633 18.785 18.8144 18.5698 18.5695C18.3471 18.3098 18.2135 18.1019 18.2581 18.0723C18.362 18.0055 18.3471 17.5008 18.2284 17.3523C18.0874 17.1594 17.7757 17.0703 17.271 17.0703C16.8999 17.0703 16.7514 17.0332 16.5362 16.8848C16.1651 16.6324 14.9702 16.0387 14.5249 15.8902L14.1612 15.7641L14.8366 15.3633C15.6456 14.8883 16.3061 14.3613 16.8553 13.7453L17.2561 13.2852H26.7784H36.3081L36.5233 13.5078ZM12.469 16.625C12.6917 16.6769 12.8921 16.7289 12.9069 16.7437C12.9217 16.7586 12.2909 18.6437 11.4967 20.9297C10.5467 23.6832 10.0421 25.0488 10.0049 24.9598C9.93815 24.7668 9.03268 16.6918 9.08463 16.6473C9.25534 16.4766 11.712 16.4543 12.469 16.625ZM7.83034 17.2336C7.88971 17.6269 10.0198 36.3894 10.0198 36.5676V36.7383H7.86744H5.7151V27.3273V17.9164L6.23463 17.6344C6.79127 17.3375 7.55573 17.0035 7.69674 16.9961C7.74869 16.9961 7.80807 17.1074 7.83034 17.2336ZM14.8589 17.4191C15.178 17.5676 15.4378 17.716 15.4378 17.7605C15.4378 17.8273 12.8772 31.2016 12.803 31.5207C12.7659 31.684 12.7362 31.6914 11.7639 31.6914C11.2147 31.6914 10.762 31.684 10.762 31.6691C10.7546 31.6617 10.6655 30.8601 10.5542 29.8953L10.3464 28.1289L12.2389 22.6367C13.2854 19.616 14.1686 17.1445 14.2131 17.1445C14.2503 17.1445 14.5397 17.2633 14.8589 17.4191ZM17.3526 19.1633C18.7553 20.5289 19.6534 22.1617 20.0839 24.1211C20.2174 24.7 20.2249 25.1453 20.2249 29.7988V34.8457L20.0171 35.2613C19.7796 35.7586 19.2081 36.3152 18.7182 36.5379C18.4362 36.6641 18.1839 36.7012 17.4268 36.7234L16.4842 36.7531L16.7514 36.2262C16.9889 35.7586 17.026 35.6176 17.0557 35.0387C17.1077 33.9773 16.796 33.1906 16.0612 32.5078C15.6604 32.1367 14.9331 31.7805 14.4581 31.7211C14.2577 31.6914 14.1018 31.6543 14.0944 31.6246C14.0796 31.4539 16.603 18.5547 16.6549 18.5547C16.6921 18.5547 17.0038 18.8293 17.3526 19.1633ZM4.41627 31.6023C4.39401 31.6543 4.23073 31.6914 3.97096 31.6914C3.45885 31.6914 3.19166 31.9066 3.19166 32.3C3.19909 32.7379 3.48854 32.9531 4.07487 32.9531H4.45338V34.8531V36.7605L3.80026 36.7234C3.30299 36.6937 3.05065 36.6344 2.73893 36.4859C2.24909 36.2559 1.69987 35.6992 1.46237 35.2019L1.29909 34.8457V29.873C1.29909 26.1547 1.32135 24.7742 1.39557 24.4031C1.75924 22.4883 2.59791 20.8109 3.85963 19.4898L4.41627 18.9109L4.43854 25.2047C4.44596 28.6707 4.43854 31.5504 4.41627 31.6023ZM36.6569 30.066C36.4639 30.4371 36.5827 30.4297 28.7971 30.4297H21.5237V27.8098C21.5237 24.982 21.4569 24.225 21.1229 23.0746C20.9077 22.3398 20.7147 21.8203 20.4475 21.3008L20.262 20.9297H21.5237H22.7854V21.9539C22.7854 23.2676 22.8819 23.6312 23.3792 24.1211C23.8467 24.5961 24.2475 24.7148 25.3385 24.7148C25.7913 24.7148 26.2885 24.6777 26.437 24.6406C26.9194 24.507 27.4018 24.1211 27.6245 23.6832C27.8249 23.2973 27.8323 23.2527 27.8323 22.1172V20.9371L31.3428 20.9148C34.7272 20.8852 34.8608 20.8777 35.3432 20.7219C35.6104 20.6328 36.0335 20.425 36.271 20.2691L36.7014 19.9723L36.7237 24.9449C36.7311 28.4184 36.7163 29.9621 36.6569 30.066ZM26.5706 21.991C26.5706 23.4457 26.526 23.4902 25.1678 23.4383C24.0991 23.4012 24.0917 23.4012 24.062 22.0059L24.0397 20.9297H25.3014H26.5706V21.991ZM14.6956 33.109C15.1409 33.3094 15.4229 33.584 15.6307 34.0293C16.1354 35.0832 15.5342 36.3746 14.421 36.6566C14.2503 36.7012 13.4932 36.7383 12.7362 36.7383C11.3706 36.7383 11.3557 36.7383 11.3186 36.5676C11.2889 36.4191 10.9104 33.1461 10.9104 33.0051C10.9104 32.9754 11.6897 32.9531 12.6397 32.9531C14.2131 32.9531 14.3913 32.968 14.6956 33.109Z" fill="#D7B679"/>
<path d="M34.4523 14.7324C34.2223 14.9254 34.2148 14.9477 34.2148 15.4969C34.2223 16.0906 34.2742 16.2391 34.5637 16.3875C34.8234 16.5285 35.0312 16.4914 35.2613 16.2613C35.4617 16.0609 35.4766 16.0016 35.4766 15.5191C35.4766 15.0887 35.4469 14.9699 35.3133 14.8141C35.0535 14.5172 34.7344 14.4949 34.4523 14.7324Z" fill="#D7B679"/>
<path d="M20.1137 17.1223C19.661 17.3004 19.5126 17.8645 19.8391 18.1688C19.9876 18.3098 20.0989 18.332 20.5887 18.332C21.0934 18.332 21.1825 18.3098 21.3384 18.1465C21.5759 17.9164 21.5759 17.5898 21.3458 17.3227C21.1973 17.1445 21.1083 17.1148 20.7001 17.0926C20.4403 17.0852 20.1731 17.0926 20.1137 17.1223Z" fill="#D7B679"/>
<path d="M23.1714 17.1817C22.7632 17.3598 22.6816 17.857 23.0081 18.1836C23.2234 18.3988 24.2773 18.3988 24.4925 18.1836C24.8265 17.8496 24.7374 17.3524 24.307 17.1817C23.9878 17.0406 23.4906 17.0406 23.1714 17.1817Z" fill="#D7B679"/>
<path d="M26.3779 17.1371C25.9697 17.3152 25.8584 17.8496 26.1627 18.1465C26.3185 18.3098 26.4076 18.332 26.9271 18.332C27.4392 18.332 27.5283 18.3098 27.6693 18.1613C27.8994 17.9164 27.8846 17.5156 27.6471 17.293C27.4986 17.152 27.3576 17.1074 26.9939 17.0926C26.7416 17.0777 26.4596 17.1 26.3779 17.1371Z" fill="#D7B679"/>
<path d="M29.6137 17.1223C29.161 17.3004 29.0126 17.8645 29.3391 18.1688C29.4876 18.3098 29.5989 18.332 30.0887 18.332C30.5934 18.332 30.6825 18.3098 30.8384 18.1465C31.0759 17.9164 31.0759 17.5898 30.8458 17.3227C30.6973 17.1445 30.6083 17.1148 30.2001 17.0926C29.9403 17.0852 29.6731 17.0926 29.6137 17.1223Z" fill="#D7B679"/>
<path d="M32.6714 17.1817C32.2632 17.3598 32.1816 17.857 32.5081 18.1836C32.7234 18.3988 33.7773 18.3988 33.9925 18.1836C34.3265 17.8496 34.2374 17.3524 33.807 17.1817C33.4878 17.0406 32.9906 17.0406 32.6714 17.1817Z" fill="#D7B679"/>
<path d="M34.4004 22.3769C34.2371 22.5328 34.2148 22.6219 34.2148 23.1191C34.2148 23.6164 34.2371 23.7055 34.4004 23.8613C34.7047 24.173 35.1797 24.0914 35.3875 23.698C35.5137 23.4754 35.4988 22.748 35.3652 22.4957C35.1797 22.132 34.6973 22.0726 34.4004 22.3769Z" fill="#D7B679"/>
<path d="M34.6156 25.3828C34.3188 25.5016 34.2148 25.7465 34.2148 26.3106C34.2223 26.8449 34.2816 27.0008 34.5637 27.1492C34.8234 27.2902 35.0312 27.2531 35.2687 27.0156C35.484 26.793 35.4914 26.7707 35.4617 26.2363C35.4395 25.8059 35.4023 25.65 35.291 25.5387C35.1055 25.3606 34.8234 25.2938 34.6156 25.3828Z" fill="#D7B679"/>
<path d="M23.1866 27.9359C22.6819 28.1586 22.6968 28.8563 23.2014 29.0641C24.0253 29.4055 24.9085 28.9156 24.6339 28.2699C24.4706 27.8691 23.7284 27.6984 23.1866 27.9359Z" fill="#D7B679"/>
<path d="M26.4441 27.8766C26.2141 27.9285 25.9766 28.2551 25.9766 28.5074C25.9766 28.6187 26.0582 28.8117 26.1547 28.923C26.3254 29.116 26.3699 29.1309 26.8895 29.1309C27.3793 29.1309 27.4758 29.1086 27.6391 28.9527C27.8988 28.7078 27.9062 28.2996 27.6539 28.0621C27.5203 27.9359 27.3645 27.884 27.0379 27.8691C26.8004 27.8543 26.5332 27.8617 26.4441 27.8766Z" fill="#D7B679"/>
<path d="M29.6506 27.884C29.1682 28.0102 29.0049 28.6113 29.3612 28.9527C29.5244 29.1086 29.6209 29.1309 30.1108 29.1309C30.6303 29.1309 30.6748 29.116 30.8455 28.923C31.0682 28.6633 31.0756 28.3441 30.853 28.0918C30.7194 27.9285 30.6155 27.8914 30.2444 27.8691C29.9994 27.8543 29.7323 27.8617 29.6506 27.884Z" fill="#D7B679"/>
<path d="M32.6866 27.9359C32.1819 28.1586 32.1968 28.8563 32.7014 29.0641C33.5253 29.4055 34.4085 28.9156 34.1339 28.2699C33.9706 27.8691 33.2284 27.6984 32.6866 27.9359Z" fill="#D7B679"/>
</svg>
