<svg width="40" height="40" viewBox="0 0 40 40" fill="none" xmlns="http://www.w3.org/2000/svg">
<circle cx="20" cy="20" r="19.5" stroke="white"/>
<path d="M27.9701 11.9981C28.0226 12.0885 27.854 13.8141 27.4544 17.2975C26.8228 22.8408 26.844 22.7294 26.4034 22.9518C26.012 23.1476 25.6642 23.0366 25.5382 22.6738C25.5054 22.5937 25.6936 20.6604 25.9548 18.3834L26.4209 14.2467L25.5183 13.3441L21.3391 13.8151C18.5571 14.13 17.1157 14.2702 17.0253 14.2177C16.7088 14.0528 16.6339 13.6463 16.856 13.2813C16.9167 13.1905 16.9642 13.1054 16.9737 13.0959C17.062 12.9474 18.1402 12.7944 22.511 12.2973C25.9595 11.9101 27.6766 11.7425 27.7632 11.7912C27.8423 11.8325 27.9326 11.9227 27.9701 11.9981Z" fill="white"/>
<path d="M24.0284 14.8336L24.9311 15.7362L13.9611 26.6911C13.634 27.0175 13.3163 27.3344 13.0082 27.6418C12.8282 27.8218 12.6507 27.9985 12.4769 28.1723C12.1702 28.4632 11.7364 28.5067 11.4972 28.2675C11.375 28.1452 11.3269 27.9722 11.3472 27.7917C11.3673 27.6166 11.4515 27.4338 11.5971 27.283L11.9727 26.9066L13.0688 25.8083L24.0284 14.8336Z" fill="white"/>
</svg>
