<svg width="20" height="12" viewBox="0 0 20 12" fill="none" xmlns="http://www.w3.org/2000/svg">
<path d="M19.9824 6.13542C19.9593 6.22398 18.8033 7.18879 16.4335 9.09976C12.6648 12.1433 12.7458 12.0874 12.3412 11.9522C11.9828 11.8311 11.8383 11.5467 11.9828 11.2438C12.0117 11.1739 13.3064 10.0925 14.8555 8.84341L17.6646 6.56889V5.45027L14.8266 3.15245C12.9365 1.62367 11.9712 0.817333 11.9481 0.728776C11.8556 0.430478 12.0579 0.13218 12.4163 0.0436228C12.5088 0.0249792 12.5897 0.00167467 12.6013 0.00167467C12.7458 -0.0356126 13.4972 0.537679 16.4681 2.93804C18.8091 4.83503 19.9593 5.79518 19.9824 5.87908C20.0056 5.95365 20.0056 6.06551 19.9824 6.13542Z" fill="#CA9457"/>
<path d="M15.8467 5.45023V6.56884L2.46579 6.55952C2.06696 6.55906 1.67969 6.55859 1.30399 6.55812C1.08434 6.55812 0.86817 6.55766 0.65604 6.55766C0.291317 6.54787 0 6.30597 0 6.00953C0 5.85805 0.0762972 5.72102 0.198835 5.62175C0.317905 5.52573 0.480903 5.46467 0.66182 5.46141L1.12076 5.46095L2.46001 5.45955L15.8467 5.45023Z" fill="#CA9457"/>
</svg>
