<svg width="152" height="34" viewBox="0 0 152 34" fill="none" xmlns="http://www.w3.org/2000/svg">
<path d="M48.6473 4.02112C48.6473 4.91869 48.4593 5.85216 48.0835 6.82154C47.7076 7.78493 47.163 8.73636 46.4495 9.67582C45.7296 10.6153 44.8442 11.5218 43.793 12.3955C42.7419 13.2631 41.5348 14.05 40.1715 14.7561C38.8019 15.4681 37.2889 16.0755 35.6326 16.5781C33.9763 17.0868 32.1831 17.4458 30.2528 17.6552C29.4629 19.0136 28.6443 20.3629 27.7971 21.7033C26.9434 23.0436 26.0389 24.3182 25.0833 25.5269C24.1277 26.7416 23.1149 27.8636 22.0446 28.8928C20.9808 29.928 19.8405 30.8226 18.6237 31.5766C17.407 32.3365 16.1011 32.9289 14.706 33.3537C13.3109 33.7846 11.8138 34 10.2149 34C8.89621 34 7.62214 33.8205 6.39266 33.4615C5.16318 33.1024 4.07385 32.5848 3.12466 31.9087C2.17548 31.2265 1.41741 30.3948 0.850443 29.4134C0.283481 28.4321 0 27.3101 0 26.0475C0 24.6892 0.26437 23.5044 0.79311 22.4931C1.32185 21.4819 2.02577 20.6411 2.90488 19.971C3.77762 19.2948 4.76503 18.7922 5.8671 18.463C6.96917 18.1339 8.09673 17.9694 9.24976 17.9694C10.1289 17.9694 10.9984 18.0502 11.8584 18.2117C12.7184 18.3733 13.5402 18.6007 14.3238 18.8939C15.1073 19.1871 15.8399 19.5371 16.5215 19.944C17.1968 20.3509 17.7956 20.7997 18.318 21.2904L17.6491 21.9636C17.2923 21.6404 16.8687 21.3323 16.3782 21.0391C15.894 20.7459 15.3398 20.4826 14.7155 20.2492C14.0849 20.0218 13.3969 19.8393 12.6515 19.7017C11.9062 19.57 11.1004 19.5042 10.234 19.5042C9.23384 19.5042 8.26236 19.6628 7.31954 19.9799C6.3831 20.2911 5.54858 20.7459 4.81599 21.3442C4.0834 21.9426 3.49414 22.6726 3.04822 23.5343C2.59592 24.396 2.36977 25.3803 2.36977 26.4873C2.36977 27.3849 2.56089 28.2226 2.94311 29.0005C3.32533 29.7784 3.86362 30.4516 4.55799 31.0201C5.25236 31.5885 6.07414 32.0343 7.02332 32.3574C7.97251 32.6806 9.02043 32.8421 10.1671 32.8421C11.4794 32.8421 12.7152 32.6477 13.8746 32.2587C15.0341 31.8757 16.117 31.3432 17.1235 30.661C18.13 29.9849 19.0856 29.177 19.9902 28.2376C20.8948 27.2981 21.7516 26.2689 22.5606 25.1499C23.376 24.037 24.1564 22.8641 24.9017 21.6315C25.6471 20.3928 26.386 19.1302 27.1186 17.8437H26.5166C24.0067 17.8437 21.7484 17.6014 19.7417 17.1167C17.7351 16.632 16.0246 15.9678 14.6104 15.1241C13.2026 14.2863 12.1196 13.302 11.3615 12.1711C10.6098 11.0461 10.234 9.8314 10.234 8.52693C10.234 7.22246 10.5015 6.07057 11.0367 5.07128C11.5781 4.07796 12.3107 3.24322 13.2344 2.56705C14.1581 1.89687 15.2347 1.38824 16.4642 1.04118C17.6873 0.700105 18.9837 0.529567 20.3533 0.529567C21.5382 0.529567 22.6212 0.616333 23.6022 0.789864C24.5896 0.969378 25.4751 1.19377 26.2586 1.46304C27.0422 1.7383 27.7366 2.03749 28.3417 2.36061C28.9469 2.68374 29.4597 2.9919 29.8802 3.28511C30.2943 3.57832 30.6223 3.83861 30.8644 4.066C31.1001 4.2874 31.2562 4.434 31.3326 4.50581L30.5682 5.13411C30.5554 5.12214 30.3388 4.94262 29.9184 4.59556C29.5043 4.25449 28.9151 3.87751 28.1506 3.46463C27.3926 3.05174 26.4752 2.67177 25.3986 2.32471C24.322 1.98363 23.1276 1.81309 21.8153 1.81309C20.4839 1.81309 19.264 1.98662 18.1555 2.33368C17.0407 2.68673 16.0788 3.17441 15.2698 3.79673C14.4671 4.42503 13.8364 5.16702 13.3778 6.0227C12.9255 6.87839 12.6993 7.80887 12.6993 8.81415C12.6993 10.0109 13.0497 11.094 13.7504 12.0634C14.4512 13.0387 15.4258 13.8735 16.6744 14.5676C17.923 15.2617 19.3946 15.8032 21.0891 16.1922C22.7836 16.5751 24.631 16.7666 26.6313 16.7666H27.7015C28.4787 15.3784 29.2527 14.0021 30.0235 12.6378C30.788 11.2675 31.5747 9.96304 32.3837 8.72439C33.1928 7.47976 34.0305 6.32489 34.8968 5.25977C35.7568 4.19465 36.6742 3.27314 37.6488 2.49525C38.6171 1.71735 39.6555 1.107 40.7639 0.664201C41.866 0.221399 43.0509 0 44.3186 0C44.841 0 45.3602 0.0688134 45.8762 0.206441C46.3922 0.338085 46.854 0.562478 47.2617 0.879619C47.6758 1.19078 48.0102 1.60366 48.265 2.11827C48.5199 2.62689 48.6473 3.26118 48.6473 4.02112ZM44.7868 1.13992C43.8504 1.13992 42.9553 1.33738 42.1017 1.73231C41.2545 2.12126 40.4422 2.67177 39.6651 3.38384C38.8879 4.08993 38.133 4.92168 37.4004 5.87909C36.6678 6.84248 35.9479 7.89564 35.2408 9.03854C34.5337 10.1814 33.8202 11.3872 33.1004 12.6558C32.3869 13.9243 31.6543 15.2108 30.9026 16.5153C32.8456 16.276 34.607 15.89 36.1868 15.3574C37.7731 14.8249 39.1777 14.2056 40.4008 13.4995C41.6239 12.7874 42.6846 12.0185 43.5828 11.1927C44.481 10.3669 45.22 9.54118 45.7997 8.71542C46.3794 7.88367 46.8094 7.08782 47.0897 6.32788C47.3636 5.56195 47.5006 4.8768 47.5006 4.27244C47.5006 3.82365 47.4528 3.41077 47.3573 3.03379C47.2617 2.65681 47.1088 2.3277 46.8986 2.04646C46.6884 1.76522 46.4113 1.54382 46.0673 1.38226C45.7233 1.2207 45.2965 1.13992 44.7868 1.13992ZM50.6348 11.6146C50.6348 11.8958 50.5616 12.186 50.415 12.4852C50.2621 12.7904 50.071 13.0627 49.8417 13.302C49.6124 13.5354 49.3544 13.7298 49.0677 13.8854C48.7874 14.041 48.5039 14.1188 48.2173 14.1188C47.9624 14.1188 47.7682 14.032 47.6344 13.8585C47.5006 13.679 47.4337 13.4636 47.4337 13.2122C47.4337 12.9908 47.4783 12.7246 47.5675 12.4134C47.6567 12.1082 47.7904 11.818 47.9688 11.5428C48.1472 11.2675 48.3638 11.0312 48.6186 10.8337C48.8734 10.6422 49.1664 10.5465 49.4977 10.5465C49.8099 10.5465 50.0774 10.6572 50.3004 10.8786C50.5233 11.1059 50.6348 11.3513 50.6348 11.6146ZM45.7328 15.9947L46.4495 16.2819C46.252 16.647 45.9781 17.1287 45.6277 17.727C45.2773 18.3254 44.9015 18.9776 44.5002 19.6837C44.0988 20.3898 43.6879 21.1318 43.2675 21.9097C42.847 22.6876 42.4712 23.4446 42.1399 24.1806C41.8023 24.9226 41.5284 25.6137 41.3182 26.254C41.1079 26.9002 41.0028 27.4477 41.0028 27.8965C41.0028 28.3034 41.0952 28.5817 41.2799 28.7313C41.4583 28.8749 41.7099 28.9467 42.0348 28.9467C42.6464 28.9467 43.2452 28.7582 43.8313 28.3812C44.411 28.0042 44.9875 27.5106 45.5608 26.9002C46.1405 26.2899 46.7043 25.5927 47.2522 24.8089C47.8064 24.019 48.3606 23.2262 48.9148 22.4303L49.7175 23.0137C49.2843 23.7438 48.797 24.5246 48.2555 25.3564C47.7076 26.1822 47.0993 26.9481 46.4304 27.6542C45.7551 28.3662 45.0162 28.9527 44.2135 29.4134C43.4045 29.8742 42.5222 30.1045 41.5666 30.1045C40.6684 30.1045 39.9804 29.8532 39.5026 29.3506C39.0248 28.842 38.7859 28.1897 38.7859 27.3939C38.7859 26.4544 39.0185 25.4731 39.4835 24.4498C39.9485 23.4266 40.5282 22.4124 41.2226 21.4071C41.917 20.4078 42.6687 19.4444 43.4777 18.5169C44.2931 17.5894 45.0448 16.7487 45.7328 15.9947ZM67.5481 18.831C67.9813 18.3523 68.4272 17.9095 68.8859 17.5026C69.3509 17.0957 69.816 16.7457 70.281 16.4525C70.7397 16.1593 71.1983 15.9319 71.657 15.7703C72.1093 15.6088 72.5457 15.528 72.9661 15.528C73.291 15.528 73.6159 15.5818 73.9408 15.6895C74.2593 15.7913 74.546 15.9528 74.8008 16.1742C75.0556 16.3897 75.2563 16.6649 75.4028 17C75.5557 17.3351 75.6321 17.736 75.6321 18.2027C75.6321 18.8729 75.5334 19.5341 75.3359 20.1864C75.1448 20.8386 74.8995 21.4729 74.6001 22.0892C74.3007 22.7056 73.9822 23.3009 73.6446 23.8754C73.3133 24.4558 72.998 25.0063 72.6986 25.5269C72.3992 26.0535 72.1507 26.5532 71.9532 27.0259C71.7621 27.4926 71.6666 27.9234 71.6666 28.3184C71.6666 28.6295 71.7526 28.8509 71.9246 28.9826C72.0966 29.1142 72.2781 29.18 72.4692 29.18C72.8578 29.18 73.3197 28.9706 73.8548 28.5517C74.3835 28.1269 74.9377 27.5854 75.5174 26.9271C76.1035 26.2689 76.6896 25.5449 77.2757 24.755C77.8681 23.9592 78.4319 23.1843 78.967 22.4303L79.7697 23.0137C79.5786 23.3129 79.3301 23.7019 79.0243 24.1806C78.7186 24.6653 78.365 25.1859 77.9637 25.7423C77.556 26.2929 77.1132 26.8523 76.6354 27.4208C76.1577 27.9893 75.6544 28.5039 75.1257 28.9646C74.5969 29.4194 74.0491 29.7904 73.4821 30.0776C72.9152 30.3648 72.3482 30.5084 71.7812 30.5084C71.4627 30.5084 71.1601 30.4666 70.8735 30.3828C70.5804 30.299 70.3224 30.1614 70.0994 29.9699C69.8765 29.7784 69.6981 29.5301 69.5643 29.2249C69.4306 28.9138 69.3637 28.5338 69.3637 28.085C69.3637 27.4687 69.4752 26.8673 69.6981 26.2809C69.9211 25.6885 70.2046 25.1051 70.5486 24.5306C70.8926 23.9562 71.262 23.3847 71.657 22.8163C72.052 22.2478 72.4214 21.6823 72.7654 21.1199C73.1095 20.5634 73.3929 20.0009 73.6159 19.4324C73.8389 18.864 73.9503 18.2835 73.9503 17.6911C73.9503 17.3979 73.8898 17.1646 73.7688 16.991C73.6541 16.8175 73.4312 16.7307 73.0999 16.7307C72.5775 16.7307 72.0265 16.9282 71.4468 17.3231C70.8607 17.724 70.2555 18.2626 69.6312 18.9388C69.0006 19.6089 68.3572 20.3898 67.701 21.2814C67.0449 22.173 66.3919 23.1125 65.7421 24.0998C65.0924 25.0871 64.4521 26.0894 63.8215 27.1067C63.1844 28.1239 62.5729 29.1023 61.9868 30.0417L60.1139 29.1172C60.9038 27.5913 61.646 26.224 62.3404 25.0153C63.0347 23.8066 63.6431 22.7175 64.1655 21.7482C64.6878 20.7728 65.0987 19.8812 65.3981 19.0734C65.6975 18.2656 65.8472 17.5056 65.8472 16.7936C65.8472 16.6499 65.8313 16.5063 65.7995 16.3627C65.7676 16.2131 65.7071 16.0815 65.6179 15.9678C65.5287 15.8541 65.4141 15.7614 65.2739 15.6895C65.1338 15.6118 64.949 15.5729 64.7197 15.5729C64.2164 15.5729 63.7036 15.7943 63.1812 16.2371C62.6589 16.6739 62.1047 17.2753 61.5186 18.0412C60.9389 18.8071 60.3178 19.6987 59.6552 20.7159C58.9864 21.7332 58.2697 22.8103 57.5052 23.9472C56.7344 25.0781 55.8999 26.245 55.0017 27.4477C54.1098 28.6445 53.132 29.8053 52.0681 30.9303L50.5201 29.9609C50.9979 29.2848 51.5044 28.5727 52.0395 27.8247C52.5682 27.0767 53.0906 26.3168 53.6066 25.5449C54.1226 24.773 54.6131 24.004 55.0781 23.2381C55.5495 22.4722 55.9668 21.7452 56.3299 21.057C56.6867 20.3749 56.9701 19.7436 57.1804 19.1631C57.3842 18.5887 57.4861 18.098 57.4861 17.6911C57.4861 17.2184 57.3619 16.8773 57.1135 16.6679C56.8587 16.4525 56.5274 16.3448 56.1197 16.3448C55.6419 16.3448 55.1769 16.5063 54.7246 16.8295C54.2659 17.1526 53.7881 17.6103 53.2913 18.2027C52.788 18.7892 52.2497 19.4923 51.6764 20.312C51.103 21.1318 50.4501 22.0324 49.7175 23.0137L48.9148 22.4303C49.7047 21.2515 50.4182 20.2133 51.0553 19.3157C51.6859 18.4182 52.2847 17.6672 52.8517 17.0628C53.4187 16.4585 53.9824 16.0037 54.543 15.6985C55.1036 15.3874 55.712 15.2318 56.3681 15.2318C56.5656 15.2318 56.8172 15.2677 57.123 15.3395C57.4288 15.4113 57.7314 15.537 58.0308 15.7165C58.3302 15.902 58.5946 16.1533 58.8239 16.4704C59.0532 16.7936 59.1902 17.2094 59.2348 17.7181C60.0693 16.7068 60.9421 15.899 61.853 15.2946C62.764 14.6902 63.624 14.3881 64.433 14.3881C65.0127 14.3881 65.5064 14.4988 65.9141 14.7202C66.3155 14.9356 66.6403 15.2198 66.8888 15.5729C67.1309 15.9199 67.3092 16.3149 67.4239 16.7577C67.5322 17.2005 67.5863 17.6463 67.5863 18.095C67.5863 18.2087 67.5832 18.3284 67.5768 18.4541C67.5704 18.5797 67.5609 18.7054 67.5481 18.831ZM96.0523 15.9947L96.769 16.2819C96.5779 16.647 96.3071 17.1257 95.9567 17.7181C95.6064 18.3045 95.2273 18.9537 94.8196 19.6658C94.4183 20.3719 94.0138 21.1109 93.6061 21.8828C93.192 22.6547 92.8193 23.4087 92.4881 24.1447C92.1505 24.8807 91.8734 25.5748 91.6568 26.227C91.4402 26.8793 91.3319 27.4298 91.3319 27.8786C91.3319 28.3273 91.4242 28.6176 91.609 28.7492C91.7937 28.8808 92.0358 28.9467 92.3352 28.9467C92.7684 28.9467 93.2143 28.827 93.673 28.5876C94.1253 28.3543 94.5712 28.0461 95.0107 27.6631C95.4503 27.2862 95.8803 26.8583 96.3008 26.3796C96.7212 25.9069 97.113 25.4282 97.4761 24.9435C97.8456 24.4588 98.1768 23.9951 98.4699 23.5523C98.7693 23.1095 99.0241 22.7355 99.2343 22.4303L100.047 23.0137C99.7917 23.4625 99.4923 23.9472 99.1483 24.4678C98.8043 24.9884 98.4253 25.512 98.0112 26.0385C97.6035 26.5651 97.1607 27.0737 96.683 27.5644C96.2052 28.0551 95.7019 28.4889 95.1732 28.8659C94.6445 29.2429 94.0871 29.5451 93.501 29.7724C92.9213 29.9938 92.3256 30.1045 91.7141 30.1045C90.8159 30.1045 90.1565 29.8532 89.7361 29.3506C89.322 28.842 89.115 28.1897 89.115 27.3939C89.115 27.34 89.1182 27.2174 89.1245 27.0259C89.1309 26.8344 89.15 26.6818 89.1819 26.5681C88.4365 27.4537 87.7231 28.1837 87.0414 28.7582C86.3598 29.3326 85.7037 29.7904 85.073 30.1315C84.436 30.4666 83.8244 30.6999 83.2383 30.8316C82.6459 30.9632 82.0821 31.029 81.547 31.029C80.98 31.029 80.4449 30.9423 79.9417 30.7687C79.4384 30.5952 78.9988 30.3409 78.623 30.0058C78.2408 29.6647 77.9414 29.2489 77.7248 28.7582C77.5082 28.2675 77.3999 27.699 77.3999 27.0528C77.3999 26.257 77.591 25.3444 77.9732 24.3152C78.3554 23.28 79.0307 22.167 79.999 20.9762C80.8208 19.953 81.6744 19.0913 82.5599 18.3912C83.4517 17.6911 84.3245 17.1257 85.1781 16.6948C86.0381 16.27 86.8567 15.9648 87.6339 15.7793C88.4111 15.5998 89.1054 15.51 89.717 15.51C91.093 15.51 92.1313 15.7225 92.8321 16.1473C93.5328 16.5781 93.9565 17.2334 94.103 18.113C94.4024 17.7659 94.7177 17.4159 95.049 17.0628C95.3739 16.7158 95.7083 16.3597 96.0523 15.9947ZM89.8985 24.2793C90.0896 23.9861 90.3285 23.6121 90.6152 23.1573C90.8955 22.6966 91.1949 22.2269 91.5134 21.7482C91.8256 21.2635 92.1313 20.7967 92.4308 20.3479C92.7302 19.8992 92.9913 19.5192 93.2143 19.208C93.2143 19.0824 93.1952 18.8789 93.157 18.5977C93.1188 18.3164 93.0168 18.0322 92.8512 17.745C92.6856 17.4578 92.4244 17.2094 92.0676 17C91.7109 16.7906 91.2108 16.6859 90.5674 16.6859C90.1024 16.6859 89.5832 16.7517 89.0099 16.8833C88.4365 17.015 87.825 17.2394 87.1752 17.5565C86.5254 17.8736 85.8565 18.2925 85.1685 18.8131C84.4805 19.3277 83.7957 19.971 83.1141 20.7429C82.0821 21.9097 81.2858 23.0795 80.7252 24.2524C80.1646 25.4192 79.8843 26.4724 79.8843 27.4118C79.8843 28.2137 80.0786 28.83 80.4672 29.2608C80.8558 29.6976 81.41 29.916 82.1299 29.916C82.9453 29.916 83.7129 29.7455 84.4328 29.4044C85.1462 29.0574 85.8183 28.6116 86.449 28.0671C87.0733 27.5165 87.6689 26.9092 88.2359 26.245C88.8028 25.5808 89.3571 24.9256 89.8985 24.2793ZM117.934 19.3606C117.934 19.959 117.823 20.5723 117.6 21.2006C117.377 21.8229 117.094 22.4453 116.75 23.0676C116.406 23.6959 116.039 24.3092 115.651 24.9076C115.262 25.512 114.896 26.0954 114.552 26.6579C114.208 27.2203 113.924 27.7559 113.701 28.2645C113.478 28.7791 113.367 29.2459 113.367 29.6647C113.367 29.9879 113.44 30.2063 113.587 30.32C113.74 30.4277 113.905 30.4815 114.084 30.4815C114.651 30.4815 115.284 30.2212 115.985 29.7006C116.686 29.1741 117.399 28.5099 118.126 27.708C118.852 26.9062 119.572 26.0355 120.285 25.0961C121.005 24.1566 121.655 23.268 122.234 22.4303L123.047 23.0137C122.926 23.1873 122.709 23.5224 122.397 24.019C122.078 24.5157 121.69 25.0841 121.231 25.7244C120.766 26.3587 120.247 27.0229 119.674 27.717C119.1 28.4111 118.482 29.0514 117.82 29.6378C117.164 30.2182 116.488 30.6969 115.794 31.0739C115.1 31.4509 114.402 31.6394 113.701 31.6394C113.3 31.6394 112.934 31.5766 112.603 31.4509C112.278 31.3252 111.997 31.1517 111.762 30.9303C111.532 30.7029 111.351 30.4396 111.217 30.1404C111.083 29.8353 111.016 29.5151 111.016 29.18C111.016 28.6355 111.147 28.0431 111.408 27.4028C111.669 26.7626 111.994 26.1074 112.383 25.4372C112.771 24.761 113.198 24.0848 113.663 23.4087C114.122 22.7265 114.545 22.0773 114.934 21.4609C115.323 20.8446 115.648 20.2731 115.909 19.7466C116.17 19.22 116.3 18.7682 116.3 18.3912C116.3 17.9544 116.176 17.5894 115.928 17.2962C115.686 17.003 115.339 16.8564 114.886 16.8564C114.409 16.8564 113.857 17.0419 113.233 17.4129C112.609 17.7839 111.908 18.3254 111.131 19.0375C110.354 19.7555 109.507 20.6382 108.589 21.6853C107.672 22.7265 106.675 23.9143 105.598 25.2487C104.987 26.0206 104.388 26.7626 103.802 27.4747C103.547 27.7858 103.295 28.103 103.047 28.4261C102.792 28.7492 102.537 29.0663 102.283 29.3775C102.028 29.6946 101.789 29.9968 101.566 30.2841C101.343 30.5713 101.142 30.8196 100.964 31.029L98.9859 30.2751L101.614 26.8912C101.983 26.4125 102.362 25.9009 102.751 25.3564C103.139 24.8059 103.525 24.2404 103.907 23.66C104.289 23.0795 104.649 22.4931 104.987 21.9007C105.331 21.3143 105.652 20.7399 105.952 20.1774C106.385 19.3337 106.684 18.6366 106.85 18.0861C107.016 17.5296 107.099 17.0838 107.099 16.7487C107.099 16.3717 107.022 16.1234 106.869 16.0037C106.723 15.884 106.516 15.8242 106.248 15.8242C105.961 15.8242 105.637 15.9618 105.273 16.2371C104.904 16.5063 104.525 16.8564 104.136 17.2872C103.748 17.7121 103.356 18.1938 102.961 18.7323C102.566 19.2768 102.19 19.8154 101.833 20.3479C101.477 20.8805 101.142 21.3831 100.83 21.8559C100.512 22.3346 100.25 22.7205 100.047 23.0137L99.2343 22.4303C99.9987 21.3053 100.69 20.2761 101.308 19.3427C101.926 18.4152 102.521 17.6133 103.095 16.9372C103.674 16.267 104.235 15.7434 104.777 15.3664C105.324 14.9954 105.904 14.8099 106.516 14.8099C106.841 14.8099 107.156 14.8728 107.462 14.9984C107.774 15.1301 108.045 15.3186 108.274 15.5639C108.503 15.8092 108.685 16.1054 108.819 16.4525C108.952 16.8055 109.019 17.2124 109.019 17.6732C109.019 18.0382 108.975 18.4182 108.885 18.8131C109.542 18.2087 110.153 17.7091 110.72 17.3141C111.293 16.9252 111.819 16.614 112.297 16.3807C112.775 16.1473 113.214 15.9828 113.615 15.887C114.017 15.7853 114.383 15.7344 114.714 15.7344C114.995 15.7344 115.323 15.7853 115.698 15.887C116.068 15.9828 116.418 16.1653 116.75 16.4345C117.081 16.6978 117.361 17.0658 117.59 17.5385C117.82 18.0053 117.934 18.6126 117.934 19.3606ZM122.865 12.916H126.783C126.929 12.6827 127.194 12.2698 127.576 11.6774C127.958 11.091 128.407 10.4388 128.923 9.7207C129.439 9.00862 130 8.29057 130.605 7.56653C131.204 6.84249 131.796 6.22915 132.382 5.72651L133.386 6.29197C132.749 7.29127 132.093 8.34741 131.417 9.4604C130.748 10.5734 130.086 11.7253 129.43 12.916H136.73L136.281 14.0111H128.818C128.149 15.2737 127.519 16.5303 126.926 17.7809C126.34 19.0255 125.821 20.2163 125.369 21.3532C124.923 22.4901 124.572 23.5523 124.318 24.5396C124.063 25.5329 123.935 26.3916 123.935 27.1156C123.935 28.0311 124.162 28.6894 124.614 29.0903C125.06 29.4852 125.611 29.6827 126.267 29.6827C126.847 29.6827 127.445 29.5181 128.063 29.189C128.675 28.8599 129.274 28.444 129.86 27.9414C130.452 27.4328 131.013 26.8793 131.542 26.2809C132.07 25.6765 132.542 25.1081 132.956 24.5755C133.364 24.0429 133.701 23.5762 133.969 23.1753C134.236 22.7744 134.402 22.526 134.466 22.4303L135.297 23.0137C134.775 23.8275 134.182 24.6922 133.52 25.6077C132.863 26.5172 132.137 27.361 131.341 28.1389C130.545 28.9168 129.675 29.563 128.732 30.0776C127.789 30.5862 126.773 30.8405 125.684 30.8405C125.015 30.8405 124.429 30.7298 123.926 30.5084C123.429 30.2811 123.008 29.9669 122.664 29.566C122.32 29.1711 122.062 28.6983 121.89 28.1478C121.718 27.6033 121.632 27.0079 121.632 26.3617C121.632 25.9428 121.703 25.3474 121.843 24.5755C121.983 23.8036 122.225 22.8881 122.569 21.8289C122.913 20.7698 123.372 19.582 123.945 18.2656C124.525 16.9432 125.254 15.525 126.133 14.0111H122.416L122.865 12.916ZM147.098 24.5486C147.155 24.5665 147.213 24.5755 147.27 24.5755C147.334 24.5755 147.404 24.5755 147.48 24.5755C147.894 24.5755 148.273 24.5366 148.617 24.4588C148.961 24.381 149.28 24.2584 149.573 24.0908C149.86 23.9233 150.14 23.7019 150.414 23.4266C150.681 23.1514 150.943 22.8193 151.197 22.4303L152 23.0137C151.287 23.9711 150.548 24.6383 149.783 25.0153C149.019 25.3923 148.213 25.5808 147.366 25.5808C147.053 25.5808 146.776 25.5539 146.534 25.5C145.891 26.5113 145.206 27.3699 144.48 28.076C143.747 28.7821 142.999 29.3596 142.234 29.8083C141.476 30.2571 140.721 30.5832 139.97 30.7867C139.224 30.9901 138.53 31.0919 137.886 31.0919C137.23 31.0919 136.622 30.9842 136.061 30.7687C135.507 30.5533 135.026 30.2422 134.618 29.8353C134.217 29.4284 133.905 28.9437 133.682 28.3812C133.459 27.8187 133.348 27.1874 133.348 26.4873C133.348 25.7872 133.465 25.0722 133.701 24.3421C133.943 23.6121 134.268 22.8911 134.676 22.179C135.09 21.4609 135.571 20.7698 136.119 20.1056C136.673 19.4354 137.272 18.8131 137.915 18.2386C138.559 17.6642 139.221 17.1466 139.903 16.6859C140.591 16.2251 141.279 15.8451 141.967 15.5459L142.683 16.4345C141.893 16.9671 141.091 17.6403 140.275 18.4541C139.46 19.2679 138.721 20.1565 138.058 21.1199C137.396 22.0892 136.851 23.0975 136.424 24.1447C135.998 25.1859 135.784 26.1971 135.784 27.1785C135.784 28.0641 135.994 28.7492 136.415 29.2339C136.829 29.7186 137.463 29.9609 138.316 29.9609C138.973 29.9609 139.622 29.8353 140.266 29.5839C140.909 29.3266 141.537 28.9826 142.148 28.5517C142.76 28.1149 143.349 27.6003 143.916 27.0079C144.483 26.4095 145.021 25.7723 145.531 25.0961C145.098 24.8627 144.715 24.5456 144.384 24.1447C144.059 23.7438 143.782 23.286 143.553 22.7714C143.33 22.2628 143.164 21.7122 143.056 21.1199C142.941 20.5334 142.884 19.9321 142.884 19.3157C142.884 18.6994 142.967 18.116 143.132 17.5655C143.298 17.0209 143.524 16.5422 143.811 16.1294C144.104 15.7165 144.445 15.3904 144.833 15.151C145.222 14.9116 145.649 14.792 146.114 14.792C146.528 14.792 146.901 14.8937 147.232 15.0971C147.557 15.3006 147.834 15.5818 148.063 15.9409C148.286 16.2939 148.455 16.7188 148.57 17.2154C148.691 17.7061 148.751 18.2297 148.751 18.7862C148.751 19.211 148.713 19.6748 148.636 20.1774C148.566 20.68 148.458 21.1887 148.312 21.7033C148.171 22.2119 148.003 22.7175 147.805 23.2202C147.601 23.7168 147.366 24.1596 147.098 24.5486ZM144.05 19.3157C144.05 19.7226 144.088 20.1654 144.164 20.6441C144.235 21.1169 144.352 21.5776 144.518 22.0264C144.684 22.4752 144.894 22.8941 145.149 23.283C145.403 23.666 145.716 23.9711 146.085 24.1985C146.353 23.7078 146.582 23.2052 146.773 22.6906C146.958 22.182 147.114 21.6883 147.241 21.2096C147.369 20.7309 147.458 20.2851 147.509 19.8722C147.56 19.4593 147.585 19.0973 147.585 18.7862C147.585 18.3673 147.55 17.9813 147.48 17.6283C147.404 17.2812 147.302 16.9761 147.174 16.7128C147.047 16.4555 146.891 16.252 146.706 16.1024C146.515 15.9588 146.308 15.887 146.085 15.887C145.786 15.887 145.512 15.9828 145.263 16.1742C145.009 16.3597 144.792 16.6111 144.614 16.9282C144.429 17.2453 144.289 17.6103 144.193 18.0232C144.098 18.4361 144.05 18.8669 144.05 19.3157Z" fill="#D7B679"/>
</svg>
