<svg width="45" height="41" viewBox="0 0 45 41" fill="none" xmlns="http://www.w3.org/2000/svg">
<path d="M14.8969 0.733414C14.2641 0.882828 11.4077 2.36818 10.1948 3.17677C8.62155 4.22267 7.73386 4.93459 6.40671 6.26173C2.10886 10.5332 0.482885 15.0244 0.0873772 23.708C0.0258538 24.9561 -0.000513423 28.4453 0.0170647 32.2773C0.0434319 38.2803 0.0522209 38.7637 0.201635 39.0537C0.412572 39.4668 0.825658 39.8887 1.26511 40.126L1.62546 40.3193H9.228C15.4419 40.3193 16.8921 40.293 17.1733 40.1963C17.604 40.0469 18.1489 39.5547 18.395 39.0977L18.5883 38.7373L18.6147 31.2314C18.6411 22.9785 18.6499 23.1631 18.1049 22.5039C17.9643 22.3281 17.6391 22.082 17.3842 21.959L16.9272 21.7305L13.2973 21.7305H9.66745V21.0889C9.66745 19.6826 10.0102 17.7051 10.5024 16.2285C11.6186 12.8887 13.561 10.7793 17.226 8.9424C17.938 8.58204 18.6323 8.17775 18.7905 8.01076C19.1948 7.59767 19.3618 7.08791 19.3178 6.41994C19.2827 5.92775 19.1596 5.61134 18.2368 3.68654C17.1557 1.42775 16.9536 1.12013 16.312 0.856461C15.9165 0.689468 15.3012 0.636734 14.8969 0.733414Z" fill="#F5F5F5"/>
<path d="M39.9014 1.01464C33.9863 3.59863 29.4775 7.99316 27.4824 13.1172C26.9111 14.5762 26.4014 16.7998 26.1113 19.0937C25.7422 21.9678 25.707 23.0488 25.707 31.0469C25.707 38.4209 25.7158 38.7549 25.874 39.0713C26.085 39.502 26.4629 39.8799 26.9287 40.126L27.2891 40.3193H34.9355C42.5205 40.3193 42.582 40.3193 42.9775 40.1348C43.4521 39.915 43.8037 39.5723 44.0674 39.0889C44.252 38.7373 44.252 38.7197 44.2783 31.2314C44.3047 22.9785 44.3135 23.1631 43.7686 22.5039C43.6279 22.3281 43.3027 22.082 43.0478 21.959L42.5908 21.7305L38.917 21.7305C35.3398 21.7305 35.2432 21.7305 35.2432 21.5635C35.2432 20.9043 35.4717 18.9619 35.6475 18.083C35.9199 16.7295 36.21 15.8594 36.7812 14.6553C37.9941 12.1064 39.8398 10.3926 42.9775 8.88086C44.5947 8.10742 44.9463 7.69433 44.9551 6.56933C44.9551 5.96289 44.9375 5.92773 43.9443 3.8623C43.3906 2.71972 42.8193 1.62988 42.6787 1.4541C42.0547 0.698238 41.0088 0.531246 39.9014 1.01464Z" fill="#F5F5F5"/>
</svg>
