<svg width="14" height="14" viewBox="0 0 14 14" fill="none" xmlns="http://www.w3.org/2000/svg">
<path d="M6.38437 0.0410042C5.63789 0.155848 4.9707 0.511317 4.44843 1.06639C3.87421 1.67616 3.57617 2.38163 3.53515 3.22655C3.47773 4.4078 4.05742 5.5371 5.0582 6.19061C5.55039 6.51327 6.02343 6.67733 6.59765 6.72382C7.66132 6.80585 8.56914 6.47225 9.30195 5.72577C10.0184 4.99569 10.3383 4.09608 10.2508 3.06249C10.1742 2.17655 9.7832 1.41366 9.10507 0.828505C8.56914 0.369129 8.07695 0.139442 7.39609 0.0410042C7.06796 -0.00547981 6.68515 -0.00821447 6.38437 0.0410042ZM7.54921 0.899598C7.97851 1.00897 8.30117 1.19764 8.66211 1.54491C9.13242 1.99061 9.37031 2.4828 9.4332 3.11991C9.50703 3.8746 9.27461 4.56366 8.76328 5.11054C8.44609 5.4496 7.97851 5.73671 7.58203 5.83788C6.99414 5.98554 6.29414 5.92264 5.79101 5.67382C5.10468 5.33475 4.59609 4.70038 4.41015 3.95116C4.33906 3.66405 4.34726 3.016 4.42656 2.72069C4.6371 1.92772 5.32617 1.19218 6.09179 0.943348C6.50742 0.809364 7.12812 0.790223 7.54921 0.899598Z" fill="#CA9457"/>
<path d="M3.90289 6.78398C3.48453 6.82773 3.0525 6.98633 2.71071 7.21602C1.85758 7.7957 1.30524 9.0918 1.17672 10.8145C1.10563 11.7824 1.16305 12.2609 1.41188 12.7613C1.5486 13.0402 1.80836 13.3465 2.0736 13.5434C2.27594 13.691 2.615 13.8441 2.91305 13.9207L3.15914 13.9863H6.98727H10.8154L11.0615 13.9234C11.9256 13.6965 12.5298 13.1141 12.7459 12.291C12.858 11.8672 12.8443 10.8555 12.7131 10.057C12.4259 8.27969 11.6986 7.21328 10.5474 6.87969C10.2849 6.80312 9.81461 6.7457 9.67516 6.77305C9.54118 6.79766 9.35524 6.89609 8.93414 7.1668C8.48024 7.45937 8.40914 7.49766 8.07008 7.6207C7.67086 7.76562 7.37282 7.82305 7.00368 7.82305C6.62086 7.82305 6.32555 7.76836 5.93727 7.63164C5.57086 7.50039 5.55446 7.49219 4.98024 7.12852C4.67946 6.93711 4.45524 6.81406 4.36774 6.78945C4.21461 6.75117 4.21461 6.75117 3.90289 6.78398ZM4.61383 7.86406C5.12789 8.19492 5.34391 8.30156 5.79508 8.44922C6.97086 8.83477 8.17125 8.64883 9.30328 7.90781C9.81461 7.57148 9.80368 7.57695 10.0197 7.6043C11.0123 7.73008 11.633 8.56406 11.8955 10.1309C12.0021 10.7762 12.0349 11.6758 11.9638 12.0176C11.849 12.5672 11.4771 12.9555 10.9084 13.1168C10.7443 13.1633 10.5283 13.166 6.98727 13.166C3.43805 13.166 3.23297 13.1633 3.06344 13.1168C2.65602 13.002 2.30328 12.723 2.13922 12.3867C1.99703 12.0969 1.96149 11.8535 1.98336 11.2656C2.0025 10.6723 2.02985 10.3961 2.12555 9.91211C2.19664 9.53477 2.36344 8.99883 2.48102 8.76641C2.83375 8.06641 3.31227 7.68359 3.93297 7.6043C4.03414 7.59063 4.12711 7.57969 4.13805 7.57695C4.14899 7.57695 4.36227 7.70547 4.61383 7.86406Z" fill="#CA9457"/>
</svg>
