<svg width="142" height="163" viewBox="0 0 142 163" fill="none" xmlns="http://www.w3.org/2000/svg">
<path d="M5.56341 118.897C5.38447 118.783 5.23222 118.702 5.08131 118.664C4.9304 118.626 4.77214 118.626 4.59784 118.662L3.8866 118.765C3.77575 118.777 3.69294 118.728 3.64622 118.601L3.53342 118.276C3.50006 118.165 3.53615 118.087 3.65903 118.049L10.085 115.856C10.1952 115.823 10.2733 115.859 10.3114 115.982L10.4242 116.308C10.4575 116.418 10.4174 116.505 10.3126 116.572L9.12513 117.182C8.78385 117.351 8.60484 117.511 8.60482 117.648C8.60479 117.784 8.74698 117.955 9.03076 118.139L14.7904 122.178L13.4619 123.482L15.396 116.055C15.4996 115.671 15.4836 115.432 15.3694 115.337C15.2552 115.242 15.0322 115.223 14.6876 115.285L13.5383 115.471C13.4274 115.483 13.3446 115.434 13.2979 115.307L13.1851 114.981C13.1517 114.871 13.1878 114.793 13.3107 114.755L18.3823 113.032C18.4925 112.998 18.5706 113.034 18.6087 113.157L18.7215 113.483C18.7548 113.593 18.7148 113.68 18.6099 113.748L17.8445 114.174C17.6595 114.278 17.5346 114.389 17.4444 114.515C17.3543 114.642 17.2901 114.781 17.244 114.949L14.788 124.031L13.5605 124.454L5.56341 118.897ZM14.5445 129.416L12.4455 123.265L15.0194 122.39L17.1184 128.54L14.5445 129.416ZM12.7326 130.033C12.6224 130.066 12.5443 130.03 12.5063 129.907L12.3928 129.56C12.3594 129.45 12.3868 129.368 12.4877 129.309L13.7506 128.512C13.9183 128.4 14.0138 128.307 14.0365 128.213C14.0679 128.122 14.0553 127.99 13.9945 127.825L13.2457 125.615L15.8196 124.739L16.5677 126.928C16.6378 127.118 16.7059 127.244 16.7927 127.284C16.8755 127.333 16.9957 127.346 17.1747 127.324L18.74 127.172C18.8556 127.173 18.9384 127.222 18.9804 127.336L19.0939 127.683C19.1272 127.794 19.0911 127.872 18.9683 127.91L12.7326 130.033Z" fill="white"/>
<path d="M28.9572 124.34C28.1544 124.664 27.3363 124.771 26.525 124.68C25.705 124.586 24.9511 124.28 24.276 123.758C23.5923 123.231 23.0556 122.478 22.6524 121.481C22.258 120.488 22.1353 119.568 22.289 118.733C22.4428 117.898 22.7922 117.164 23.3419 116.544C23.8917 115.924 24.5656 115.445 25.373 115.133C26.1083 114.841 26.8282 114.742 27.5414 114.839C28.2546 114.937 28.8963 115.212 29.4838 115.673C30.0627 116.13 30.5147 116.77 30.8391 117.573C30.8758 117.653 30.9045 117.751 30.9545 117.848C30.9919 117.949 31.0293 118.051 31.0627 118.161C31.0753 118.293 31.0266 118.376 30.921 118.422L24.8823 120.826L24.4552 119.744L29.0907 117.893L28.7768 118.39C28.7534 118.327 28.7347 118.276 28.712 118.234C28.6933 118.183 28.6706 118.141 28.6519 118.09C28.4757 117.651 28.2421 117.29 27.9296 117.009C27.6258 116.732 27.286 116.533 26.9153 116.446C26.5447 116.359 26.1774 116.379 25.8054 116.523C25.159 116.783 24.7542 117.249 24.6078 117.908C24.4614 118.567 24.5814 119.402 24.9759 120.395C25.2222 121.025 25.5633 121.54 25.9993 121.942C26.4353 122.343 26.9228 122.61 27.4697 122.726C28.0126 122.85 28.5628 122.799 29.1205 122.572C29.9486 122.238 30.5831 121.731 31.0194 121.037C31.0888 120.932 31.1609 120.913 31.2538 121.008L31.6437 121.304C31.7185 121.371 31.7599 121.463 31.7385 121.601C31.518 122.215 31.1626 122.757 30.677 123.238C30.174 123.711 29.6037 124.08 28.9572 124.34Z" fill="white"/>
<path d="M37.2027 113.919C36.9357 113.311 36.5851 112.907 36.1511 112.707C35.7171 112.506 35.2383 112.517 34.694 112.76C34.4409 112.875 34.2098 113.011 34.0221 113.166C33.8344 113.322 33.6995 113.523 33.626 113.773C33.5524 114.024 33.5457 114.357 33.6184 114.77L33.7352 115.361C33.7432 115.481 33.7031 115.568 33.5975 115.614L33.1968 115.797C33.0786 115.848 32.9878 115.816 32.9331 115.707C32.6794 115.39 32.4384 115.068 32.1973 114.746C31.965 114.428 31.7327 114.11 31.5177 113.8C31.451 113.717 31.461 113.626 31.5432 113.517C31.8244 113.204 32.2151 112.837 32.7274 112.389C33.2357 111.95 33.8274 111.581 34.5066 111.273C35.6206 110.776 36.631 110.664 37.5378 110.935C38.4446 111.206 39.1103 111.84 39.5469 112.811L40.8117 115.659L38.4529 116.708L37.2027 113.919ZM36.9688 120.993C36.2555 121.306 35.5898 121.357 34.9541 121.137C34.331 120.913 33.8596 120.474 33.5653 119.811C33.2389 119.081 33.2557 118.384 33.5991 117.731C33.9425 117.079 34.6545 116.449 35.7051 115.839L37.8356 114.601L38.2114 115.543L36.5276 116.566C36.0074 116.895 35.658 117.218 35.4964 117.523C35.3347 117.827 35.3279 118.161 35.4888 118.52C35.6317 118.849 35.852 119.056 36.1545 119.153C36.457 119.251 36.7895 119.215 37.1609 119.049C37.5195 118.889 37.8174 118.7 38.0411 118.466C38.2736 118.236 38.4379 118.017 38.5595 117.8C38.6811 117.582 38.7486 117.413 38.788 117.305L39.0911 117.424C39.1452 117.649 39.1538 117.927 39.091 118.245C39.0368 118.568 38.9192 118.914 38.7462 119.266C38.5732 119.617 38.344 119.954 38.0328 120.263C37.7215 120.572 37.3949 120.8 36.9688 120.993ZM40.8077 115.668L41.7776 117.832L41.1607 117.389L42.7674 117.194C42.8869 117.186 42.9698 117.235 43.0205 117.353L43.1446 117.632C43.1954 117.75 43.164 117.841 43.0544 117.895L42.1601 118.441C41.5891 118.788 41.1349 119.042 40.7883 119.176C40.4417 119.311 40.1559 119.337 39.9475 119.241C39.7305 119.141 39.5483 118.92 39.3961 118.565L39.0236 117.73L38.854 117.641L38.4402 116.712L40.8077 115.668Z" fill="white"/>
<path d="M43.0545 111.397L41.8029 108.84L42.4392 109.355L40.9286 109.752C40.8184 109.786 40.7403 109.75 40.6855 109.64L40.53 109.315C40.4839 109.21 40.5027 109.124 40.6115 109.048L43.1195 107.289C43.2831 107.185 43.414 107.13 43.5168 107.135C43.6197 107.14 43.7078 107.223 43.7899 107.387L44.6764 109.208L44.9528 109.431L45.364 110.273L43.0545 111.397ZM45.6899 116.774L43.0545 111.397L45.3553 110.269L47.9907 115.646L45.6899 116.774ZM48.0425 107.255C48.0885 107.361 48.0611 107.443 47.9429 107.494L46.843 108.029C46.6787 108.111 46.5444 108.196 46.4229 108.277C46.2973 108.366 46.1851 108.472 46.0776 108.591C45.8585 108.838 45.6661 109.117 45.4957 109.418C45.3341 109.722 45.2065 110.022 45.1349 110.336L44.8212 109.738C44.7445 109.334 44.7319 108.928 44.766 108.512C44.8002 108.096 44.8864 107.704 45.02 107.324C45.1623 106.947 45.3527 106.603 45.5918 106.313C45.831 106.024 46.1189 105.788 46.4474 105.624C46.8689 105.418 47.1246 105.389 47.1981 105.549L48.0425 107.255ZM44.7963 117.204C44.6908 117.25 44.6086 117.223 44.5579 117.105L44.4211 116.831C44.3663 116.721 44.393 116.618 44.4932 116.538L44.91 116.183C45.0637 116.032 45.1458 115.923 45.1605 115.845C45.1752 115.768 45.1372 115.645 45.0504 115.468L44.1686 113.66L46.4694 112.532L47.3419 114.315C47.4373 114.496 47.5134 114.604 47.5742 114.633C47.6436 114.665 47.7719 114.661 47.9675 114.625L48.8758 114.391C48.9946 114.362 49.0774 114.41 49.1322 114.52L49.269 114.794C49.3151 114.899 49.2877 114.981 49.1695 115.032L44.7963 117.204Z" fill="white"/>
<path d="M49.9272 98.9317C49.8637 98.8182 49.8911 98.736 49.996 98.6686L54.0146 96.3749L55.9919 99.8472L53.6169 101.204L52.4587 99.174C52.3773 99.0311 52.2932 98.9395 52.2104 98.8908C52.1276 98.842 51.9867 98.8507 51.7957 98.8994L50.3718 99.3372C50.2489 99.3752 50.1581 99.3438 50.0947 99.2303L49.9272 98.9317ZM58.7071 110.137L51.6483 97.736L54.0233 96.3789L60.1501 107.149C60.2409 107.317 60.3464 107.408 60.4586 107.439C60.5708 107.47 60.7023 107.436 60.8579 107.35L65.0282 104.978C65.1965 104.888 65.3127 104.773 65.3862 104.659C65.451 104.542 65.5018 104.386 65.5131 104.202L65.577 101.988C65.569 101.869 65.6312 101.802 65.7627 101.768L66.2636 101.642C66.3785 101.621 66.4613 101.67 66.4993 101.793L67.5659 104.592C67.6133 104.74 67.6426 104.859 67.6412 104.953C67.6399 105.047 67.5871 105.138 67.4869 105.219C67.3867 105.299 67.2018 105.403 66.9406 105.535L65.9248 106.024L58.7071 110.137ZM62.0443 96.0914C61.9695 96.1621 61.8713 96.1695 61.7411 96.1093L60.1486 94.9738C59.983 94.8762 59.8401 94.8208 59.7032 94.8207C59.5663 94.8207 59.418 94.8681 59.2624 94.9542L54.6928 97.5517L54.0279 96.3916L58.9128 93.6132L60.1223 92.75C60.2733 92.6512 60.3828 92.5964 60.4636 92.5811C60.5444 92.5658 60.6226 92.6018 60.7114 92.706C60.8002 92.8102 60.9123 92.9779 61.0739 93.221L62.4838 95.5045C62.5472 95.618 62.5285 95.7042 62.4196 95.7803L62.0443 96.0914ZM63.4688 101.878C63.3553 101.942 63.2564 101.928 63.1636 101.832L62.3063 101.089C62.1615 100.969 62.0226 100.905 61.8897 100.896C61.7528 100.896 61.6085 100.935 61.4529 101.021L57.8504 103.075L57.1848 101.894L60.7707 99.8528C60.939 99.762 61.0552 99.6472 61.1113 99.5257C61.1674 99.4041 61.1928 99.2579 61.1748 99.0916L61.0502 98.1073C61.0295 97.9924 61.0736 97.8969 61.1784 97.8295L61.5651 97.6078C61.666 97.5491 61.7481 97.5765 61.8115 97.69L63.9243 101.393C63.9878 101.507 63.9604 101.589 63.8555 101.657L63.4688 101.878ZM57.0634 111.074C56.9499 111.137 56.8678 111.11 56.8003 111.005L56.6194 110.69C56.5607 110.589 56.5834 110.494 56.6836 110.414L57.777 109.392C57.9139 109.255 57.9914 109.133 58.0014 109.042C58.0115 108.952 57.9647 108.825 57.8786 108.67L56.7291 106.643L59.1041 105.286L61.0947 108.775L57.0634 111.074Z" fill="white"/>
<path d="M74.6352 100.663C74.5303 100.73 74.4442 100.712 74.368 100.603L74.2018 100.347C74.1344 100.242 74.1484 100.143 74.2486 100.063L74.4303 99.8522C74.6754 99.6179 74.7683 99.4396 74.7129 99.3087C74.6575 99.1778 74.4612 99.0556 74.1287 98.9547L66.2391 96.4488C66.0615 96.3773 65.9106 96.3392 65.7777 96.3305C65.6448 96.3218 65.5166 96.3258 65.3891 96.3511L64.9222 96.4726C64.8034 96.5019 64.7165 96.4618 64.6404 96.353L64.4742 96.0972C64.4115 96.005 64.4302 95.9189 64.5437 95.8554L68.6131 93.2692C68.7053 93.2065 68.7914 93.2252 68.8635 93.3427L69.0298 93.5985C69.0972 93.7034 69.0832 93.8022 68.983 93.8823L68.808 94.0332C68.5715 94.2716 68.4747 94.4586 68.5341 94.5808C68.5935 94.703 68.7811 94.8212 69.1096 94.9308L77.0426 97.4567C77.2409 97.5062 77.4218 97.5476 77.5801 97.547C77.7344 97.555 77.8966 97.5457 78.0583 97.515L78.3554 97.4416C78.4743 97.4123 78.5611 97.4523 78.6372 97.5612L78.8035 97.817C78.8622 97.9179 78.8475 97.9953 78.73 98.0674L74.6352 100.663ZM71.5447 93.4435C71.5882 93.0528 71.5469 92.8231 71.4287 92.7369C71.3105 92.6507 71.0801 92.6707 70.7368 92.7755L70.6313 92.8216C70.5124 92.8509 70.4216 92.8195 70.3629 92.7187L70.1966 92.4629C70.1379 92.362 70.1526 92.2845 70.2702 92.2124L73.4627 90.1797C73.5548 90.1169 73.641 90.1356 73.7131 90.2532L73.8793 90.509C73.938 90.6098 73.928 90.7 73.8325 90.7928L73.4771 91.1974C73.3489 91.3383 73.2547 91.4738 73.1866 91.6214C73.1184 91.7689 73.0676 91.9245 73.0302 92.0968L72.3422 96.2551L71.1046 97.0421L71.5447 93.4435ZM69.584 103.87C69.4918 103.933 69.4056 103.914 69.3335 103.797L69.1673 103.541C69.0999 103.436 69.1139 103.337 69.2141 103.257L69.6737 102.764C69.7725 102.641 69.854 102.51 69.9142 102.38C69.9743 102.249 70.0124 102.098 70.0198 101.923L70.75 97.1943L71.9455 96.4299L71.4979 100.615C71.4544 101.006 71.4957 101.235 71.6099 101.33C71.7281 101.416 71.9458 101.401 72.2757 101.28L72.3812 101.233C72.5128 101.199 72.6036 101.231 72.6664 101.323L72.8326 101.579C72.8913 101.68 72.8766 101.757 72.7591 101.829L69.584 103.87Z" fill="white"/>
<path d="M77.2538 91.8246L75.6155 89.4883L76.3467 89.8891L74.9201 90.5152C74.8146 90.5613 74.7238 90.5299 74.6477 90.421L74.4507 90.1405C74.388 90.0483 74.3933 89.9455 74.4715 89.8447L76.6863 87.7395C76.8319 87.6067 76.9495 87.5346 77.039 87.5233C77.1285 87.5119 77.2333 87.5814 77.3361 87.7236L78.5091 89.4027L78.8263 89.5597L79.3724 90.3385L77.2538 91.8246ZM81.2275 93.7333C81.5934 93.8075 81.9694 93.7915 82.3514 93.6941C82.7374 93.588 83.1421 93.3958 83.5776 93.0913C84.3103 92.5766 84.7011 91.9356 84.75 91.1683C84.8029 90.3924 84.5119 89.5629 83.8897 88.6753C83.3523 87.9005 82.7553 87.4142 82.1203 87.2158C81.4853 87.0173 80.8682 87.122 80.2905 87.5293C79.9305 87.7843 79.6246 88.1275 79.3854 88.5541C79.1463 88.9808 78.9899 89.4563 78.9083 89.9978L78.4683 89.742C78.3082 88.8571 78.3805 88.0164 78.6638 87.2204C78.9471 86.4244 79.4074 85.8155 80.0312 85.3769C80.6884 84.9116 81.3656 84.6767 82.0454 84.6641C82.7252 84.6516 83.407 84.84 84.074 85.2428C84.7324 85.6416 85.3413 86.2388 85.8874 87.0175C86.4963 87.8885 86.8694 88.7453 86.9988 89.6055C87.1322 90.4569 87.0332 91.2643 86.7098 92.0102C86.3864 92.756 85.8293 93.415 85.0379 93.9658C84.4014 94.4091 83.7509 94.6774 83.0951 94.7748C82.4393 94.8721 81.7441 94.8039 81.0009 94.566L81.2275 93.7333ZM82.9344 99.9348L77.2538 91.8246L79.3684 90.3472L85.049 98.4574L82.9344 99.9348ZM82.139 100.494C82.0468 100.557 81.9607 100.538 81.8932 100.433L81.7143 100.182C81.6382 100.073 81.6483 99.9833 81.7224 99.8912L82.0818 99.4779C82.2134 99.3069 82.2781 99.1894 82.2755 99.1039C82.2775 99.0311 82.2181 98.9089 82.1106 98.754L80.9644 97.1083L83.0662 95.6356L84.2078 97.2685C84.32 97.4362 84.4128 97.5317 84.4862 97.5551C84.5597 97.5785 84.6872 97.5531 84.8816 97.4744L85.7471 97.1052C85.8526 97.0592 85.9435 97.0906 86.0236 97.1908L86.2025 97.4419C86.2652 97.5341 86.2465 97.6202 86.1503 97.6917L82.139 100.494Z" fill="white"/>
<path d="M94.3334 87.0845C93.6481 87.6106 92.8928 87.9463 92.084 88.0784C91.2753 88.2105 90.4639 88.1201 89.6627 87.8028C88.8614 87.4854 88.1416 86.9003 87.482 86.048C86.8311 85.1998 86.4626 84.3556 86.3806 83.5068C86.2987 82.658 86.4364 81.8581 86.8025 81.1109C87.1599 80.3597 87.6836 79.7274 88.3729 79.1926C88.9954 78.7112 89.6666 78.4209 90.3778 78.3175C91.089 78.2142 91.7849 78.3038 92.474 78.5904C93.1631 78.877 93.7687 79.3673 94.2948 80.0526C94.3482 80.1194 94.4062 80.1989 94.473 80.2824C94.5398 80.3658 94.6025 80.458 94.6613 80.5589C94.708 80.6858 94.6853 80.7806 94.5978 80.856L89.4416 84.815L88.7325 83.8873L92.6852 80.8469L92.5188 81.4125C92.4787 81.3624 92.4474 81.3164 92.412 81.279C92.3766 81.2416 92.3539 81.1995 92.3185 81.1621C92.0288 80.786 91.7036 80.5095 91.3297 80.3158C90.9557 80.122 90.5851 80.0351 90.1965 80.0558C89.8118 80.0677 89.4652 80.2025 89.1473 80.4349C88.5916 80.8628 88.335 81.4184 88.373 82.0888C88.4069 82.768 88.76 83.5314 89.4109 84.3796C89.8255 84.9186 90.2956 85.3147 90.8217 85.5893C91.3519 85.8552 91.8948 85.9795 92.4457 85.9495C92.9967 85.9196 93.5123 85.7154 93.9932 85.3582C94.6991 84.8101 95.1707 84.1537 95.3986 83.3638C95.4334 83.2429 95.5008 83.2109 95.6097 83.2717L96.0644 83.4501C96.1599 83.4941 96.218 83.5736 96.2306 83.7058C96.1824 84.3576 95.9919 84.9753 95.6553 85.5675C95.3353 86.1465 94.8891 86.6566 94.3334 87.0845Z" fill="white"/>
<path d="M96.1945 77.7177L94.3766 75.5196L95.1191 75.8731L93.7473 76.6087C93.6551 76.6714 93.5563 76.6574 93.4762 76.5572L93.2452 76.282C93.1697 76.1945 93.1711 76.1004 93.2619 75.9949L95.2825 73.6947C95.4107 73.5538 95.5323 73.4731 95.6345 73.4571C95.7367 73.4411 95.8455 73.5018 95.961 73.6394L97.2502 75.2037L97.58 75.356L98.1756 76.0733L96.1945 77.7177ZM100.063 72.5324C100.139 72.6199 100.12 72.706 100.029 72.7902L99.0903 73.568C98.9527 73.6835 98.8365 73.7983 98.7416 73.9125C98.6468 74.0266 98.5566 74.1535 98.4798 74.2971C98.3221 74.5929 98.1992 74.9047 98.111 75.2326C98.0228 75.5604 97.9773 75.887 97.9699 76.1995L97.5266 75.6999C97.365 75.3199 97.2502 74.9299 97.1862 74.5212C97.1222 74.1125 97.1096 73.7065 97.1571 73.3071C97.2046 72.9078 97.3042 72.5325 97.4732 72.1893C97.6422 71.8461 97.8599 71.557 98.1478 71.3213C98.5105 71.0148 98.7476 70.9348 98.8631 71.0723L100.063 72.5324ZM100.004 82.331L96.1819 77.7224L98.1589 76.0867L101.981 80.6953L100.004 82.331ZM99.2366 82.9666C99.1491 83.042 99.063 83.0233 98.9789 82.9318L98.7833 82.694C98.7031 82.5938 98.7045 82.4997 98.7827 82.3988L99.1153 81.9522C99.2295 81.7732 99.2896 81.643 99.283 81.5662C99.2763 81.4894 99.2129 81.3759 99.0927 81.2256L97.8169 79.678L99.7939 78.0423L101.065 79.5772C101.194 79.7315 101.299 79.8223 101.368 79.833C101.437 79.8437 101.565 79.8184 101.742 79.7316L102.575 79.295C102.685 79.2403 102.771 79.259 102.851 79.3592L103.046 79.597C103.122 79.6845 103.103 79.7706 103.012 79.8547L99.2366 82.9666Z" fill="white"/>
<path d="M100.474 67.4245C100.137 67.7216 99.7864 67.8651 99.4098 67.8597C99.0332 67.8542 98.7207 67.7099 98.4589 67.41C98.1972 67.1101 98.0971 66.7796 98.1413 66.4103C98.1941 66.045 98.3892 65.7138 98.7178 65.4127C99.0551 65.1156 99.4057 64.9721 99.7737 64.9735C100.142 64.9749 100.454 65.1192 100.716 65.4191C100.978 65.719 101.09 66.0449 101.046 66.4142C100.998 66.7922 100.812 67.1274 100.474 67.4245ZM102.839 72.0868L100.963 69.9462L101.727 70.2989L100.378 71.0766C100.277 71.1354 100.182 71.1127 100.098 71.0212L99.8546 70.7507C99.7792 70.6632 99.7892 70.573 99.872 70.4849L101.943 68.0291C102.071 67.8669 102.188 67.7734 102.277 67.7621C102.371 67.7421 102.48 67.8029 102.595 67.9405L104.772 70.4097L102.839 72.0868ZM106.8 76.6013L102.839 72.0868L104.768 70.3971L108.732 74.9028L106.8 76.6013ZM106.054 77.2576C105.967 77.333 105.885 77.327 105.797 77.2228L105.597 76.9937C105.513 76.9022 105.51 76.7954 105.588 76.6945L105.903 76.2398C106.017 76.0609 106.069 75.9267 106.062 75.8499C106.055 75.7731 105.992 75.6595 105.859 75.5139L104.533 74.0065L106.461 72.3166L107.774 73.8074C107.912 73.9657 108.012 74.0439 108.081 74.0546C108.15 74.0653 108.282 74.0313 108.459 73.9445L109.274 73.4785C109.375 73.4198 109.47 73.4425 109.554 73.534L109.753 73.7631C109.829 73.8506 109.823 73.9321 109.723 74.0122L106.054 77.2576Z" fill="white"/>
<path d="M114.714 69.7246C114.083 70.3174 113.368 70.7247 112.575 70.9375C111.781 71.1504 110.964 71.1415 110.139 70.8976C109.31 70.6624 108.533 70.156 107.803 69.3659C107.068 68.5844 106.62 67.777 106.457 66.9435C106.294 66.1101 106.351 65.304 106.638 64.5208C106.926 63.7375 107.38 63.0518 108.012 62.4589C108.59 61.9148 109.225 61.5656 109.917 61.3901C110.617 61.2187 111.311 61.2442 112.024 61.4574C112.736 61.6705 113.382 62.0954 113.975 62.7272C114.037 62.798 114.103 62.8602 114.179 62.9477C114.25 63.0225 114.325 63.11 114.397 63.2061C114.456 63.3284 114.442 63.4272 114.363 63.5066L109.624 67.9532L108.828 67.1009L112.469 63.6852L112.359 64.2662C112.319 64.2161 112.275 64.1747 112.239 64.1373C112.204 64.0999 112.169 64.0625 112.133 64.0251C111.806 63.6844 111.456 63.4386 111.066 63.2796C110.681 63.1333 110.294 63.0811 109.915 63.1271C109.532 63.1818 109.198 63.3333 108.912 63.6117C108.405 64.0938 108.196 64.6607 108.302 65.3418C108.405 66.0103 108.825 66.7417 109.559 67.5231C110.028 68.0134 110.527 68.3701 111.081 68.5839C111.635 68.7977 112.185 68.8619 112.73 68.7766C113.275 68.6912 113.768 68.4449 114.213 68.0289C114.865 67.414 115.263 66.7129 115.417 65.8996C115.443 65.7747 115.506 65.73 115.627 65.7861L116.102 65.9211C116.202 65.9565 116.264 66.0273 116.298 66.1589C116.314 66.8086 116.188 67.4457 115.912 68.066C115.615 68.687 115.221 69.2425 114.714 69.7246Z" fill="white"/>
<path d="M115.674 60.2361L113.631 58.2503L114.41 58.5256L113.128 59.4082C113.041 59.4836 112.951 59.4736 112.854 59.3868L112.593 59.1296C112.514 59.0508 112.507 58.9526 112.576 58.8478L114.342 56.3459C114.457 56.1883 114.561 56.0995 114.659 56.0708C114.756 56.0422 114.869 56.0943 115.001 56.2185L116.453 57.6365L116.79 57.7501L117.456 58.4054L115.674 60.2361ZM120.347 55.3381C119.963 54.9607 119.569 54.789 119.163 54.8016C118.757 54.8142 118.365 55.0232 117.984 55.4157C117.681 55.7289 117.446 56.1255 117.264 56.6103C117.082 57.0951 116.979 57.6159 116.953 58.1729L116.435 58.0178C116.267 57.4241 116.193 56.8318 116.221 56.2234C116.245 55.6237 116.368 55.0381 116.59 54.4879C116.804 53.9337 117.119 53.4576 117.521 53.043C118.222 52.3239 118.93 51.9768 119.637 52.019C120.344 52.0612 121.097 52.4614 121.895 53.2409L126.487 57.71L124.684 59.5628L120.347 55.3381ZM119.961 64.4067L115.674 60.2361L117.46 58.3967L121.748 62.5673L119.961 64.4067ZM119.274 65.1211C119.195 65.2006 119.109 65.2032 119.016 65.1077L118.8 64.892C118.703 64.8051 118.696 64.707 118.769 64.5934L119.041 64.1187C119.138 63.9317 119.181 63.7935 119.162 63.7214C119.142 63.6493 119.066 63.5404 118.938 63.4075L117.5 62.0061L119.287 60.1667L120.711 61.5514C120.857 61.6923 120.97 61.7658 121.039 61.7765C121.108 61.7872 121.235 61.7405 121.398 61.637L122.178 61.1123C122.27 61.0495 122.369 61.0635 122.466 61.1504L122.682 61.3661C122.762 61.4449 122.764 61.5304 122.669 61.6232L119.274 65.1211ZM124.008 60.2512C123.929 60.3306 123.844 60.3333 123.751 60.2378L123.534 60.022C123.438 59.9352 123.43 59.837 123.487 59.7369L123.763 59.2534C123.868 59.0491 123.907 58.9195 123.887 58.8474C123.868 58.7753 123.788 58.6751 123.651 58.5382L122.213 57.1369L124.016 55.2841L125.441 56.6687C125.587 56.8097 125.7 56.8831 125.769 56.8938C125.838 56.9045 125.965 56.8578 126.128 56.7543L126.908 56.2296C127.008 56.1709 127.099 56.1809 127.195 56.2677L127.412 56.4835C127.491 56.5623 127.494 56.6478 127.398 56.7406L124.008 60.2512Z" fill="white"/>
<path d="M131.835 52.0808C131.219 52.7759 130.515 53.2512 129.727 53.4981C128.939 53.7451 128.144 53.7783 127.317 53.5858C126.489 53.3933 125.723 52.9764 124.998 52.3359C124.267 51.6826 123.761 50.9539 123.492 50.1452C123.219 49.3451 123.168 48.521 123.356 47.681C123.535 46.8369 123.947 46.0584 124.596 45.3366C124.964 44.9273 125.372 44.5468 125.827 44.1989C126.283 43.8511 126.732 43.5634 127.191 43.3438C127.318 43.297 127.413 43.3198 127.488 43.4073L129.479 45.5059C129.55 45.6021 129.54 45.6922 129.47 45.7757L129.06 46.229C128.99 46.3125 128.897 46.3325 128.788 46.2717L126.524 45.1313L127.531 44.7963C127.266 44.9371 127.003 45.1207 126.731 45.343C126.46 45.5654 126.198 45.8131 125.942 46.0948C125.355 46.7505 125.119 47.4209 125.221 48.0894C125.323 48.7579 125.772 49.4498 126.577 50.1692C127.132 50.6568 127.69 50.9988 128.243 51.1699C128.796 51.341 129.344 51.3624 129.861 51.2223C130.379 51.0822 130.828 50.7945 131.221 50.3545C131.506 50.0333 131.739 49.6881 131.903 49.3322C132.068 48.9763 132.167 48.5796 132.205 48.1549C132.213 48.022 132.285 47.9813 132.41 48.0074L132.909 48.1117C133.012 48.117 133.074 48.1878 133.1 48.3368C133.189 48.9885 133.111 49.637 132.887 50.2813C132.672 50.9511 132.314 51.544 131.835 52.0808Z" fill="white"/>
<path d="M138.715 43.9999C138.163 44.6716 137.515 45.1623 136.746 45.4814C135.99 45.7958 135.176 45.8938 134.329 45.766C133.482 45.6383 132.636 45.2368 131.814 44.5521C130.989 43.8762 130.44 43.1274 130.167 42.3274C129.898 41.5186 129.851 40.7072 130.032 39.9059C130.207 39.0919 130.57 38.3534 131.122 37.6817C131.625 37.0714 132.206 36.6342 132.874 36.3738C133.542 36.1135 134.237 36.0449 134.972 36.1633C135.703 36.2903 136.403 36.6237 137.074 37.1761C137.144 37.2295 137.219 37.2956 137.303 37.3658C137.386 37.4359 137.469 37.506 137.545 37.5935C137.621 37.7024 137.616 37.8052 137.546 37.8887L133.424 42.915L132.523 42.1729L135.685 38.3144L135.647 38.8973C135.603 38.8559 135.555 38.8232 135.516 38.7945C135.476 38.7658 135.441 38.7284 135.402 38.6996C135.033 38.4031 134.655 38.1966 134.245 38.1024C133.84 37.9995 133.451 37.9987 133.086 38.1042C132.713 38.2056 132.407 38.4119 132.151 38.715C131.71 39.2592 131.583 39.8535 131.766 40.5066C131.961 41.1551 132.465 41.8197 133.299 42.4996C133.818 42.9285 134.37 43.2151 134.947 43.3554C135.525 43.4958 136.077 43.4872 136.611 43.3337C137.145 43.1802 137.597 42.8625 137.977 42.4058C138.537 41.7167 138.843 40.9628 138.895 40.1441C138.899 40.0199 138.966 39.9665 139.087 40.0013L139.568 40.0761C139.667 40.0902 139.747 40.169 139.789 40.2832C139.89 40.9303 139.846 41.5734 139.652 42.2211C139.458 42.8689 139.164 43.4598 138.715 43.9999Z" fill="white"/>
</svg>
