<svg width="220" height="145" viewBox="0 0 220 145" fill="none" xmlns="http://www.w3.org/2000/svg">
<path d="M20.7194 14.649C20.6655 14.5473 20.6604 14.4476 20.7293 14.3266L28.9652 3.51557C29.1013 3.36183 29.1771 3.21304 29.1926 3.06918C29.2081 2.92532 29.1887 2.76309 29.1322 2.59177L28.8572 1.86499C28.8149 1.75621 28.8562 1.66787 28.9625 1.59545L29.2608 1.42234C29.3625 1.36849 29.4461 1.38893 29.507 1.50226L32.8609 7.14603C32.9218 7.25936 32.9014 7.34294 32.7973 7.40608L32.499 7.57919C32.3973 7.63305 32.3114 7.62189 32.2181 7.52032L31.413 6.50634C31.1656 6.18988 30.9654 6.04248 30.8031 6.06185C30.6432 6.07193 30.4491 6.22133 30.2163 6.48919L23.4502 14.9135L21.8016 14.0476L35.0098 11.1169C35.1256 11.0862 35.2232 11.1298 35.2841 11.2431L35.7449 12.0153C35.801 12.1078 35.7946 12.2145 35.7209 12.3146L27.8454 21.9342L26.1301 21.1799L37.5514 18.9145C37.943 18.843 38.1673 18.7305 38.2361 18.5702C38.3049 18.4098 38.2758 18.1665 38.1374 17.8471L37.6047 16.6045C37.5717 16.498 37.6037 16.4074 37.71 16.335L38.0083 16.1619C38.11 16.108 38.1843 16.1262 38.2545 16.2418L40.9863 20.8475C41.0472 20.9608 41.0268 21.0444 40.9227 21.1075L40.6244 21.2806C40.5227 21.3345 40.4275 21.3211 40.3435 21.2218L39.7276 20.4805C39.5877 20.3281 39.455 20.2268 39.3179 20.1834C39.1809 20.14 39.0325 20.1431 38.8587 20.1695L25.6669 22.671C25.5626 22.6947 25.4766 22.6441 25.4042 22.5378L24.9434 21.7656C24.8873 21.6731 24.8937 21.5664 24.9674 21.4663L32.0678 12.6415L33.9542 12.8569L21.4544 15.5474C21.3386 15.5781 21.241 15.5346 21.1801 15.4213L20.7194 14.649Z" fill="white"/>
<path d="M32.3475 33.5087C31.8546 32.7877 31.5678 32.0285 31.4825 31.2103C31.3972 30.3922 31.5346 29.5891 31.8925 28.8104C32.2503 28.0317 32.8822 27.3398 33.7604 26.7278C34.6455 26.1273 35.5112 25.8076 36.3667 25.7708C37.213 25.7317 38.0024 25.9249 38.7326 26.3201C39.4627 26.7152 40.0639 27.2757 40.5591 27.9875C41.01 28.6392 41.2569 29.3197 41.3277 30.0359C41.3986 30.7521 41.2606 31.4369 40.9393 32.1064C40.618 32.7759 40.0922 33.356 39.3828 33.842C39.3111 33.8933 39.2279 33.9517 39.1355 34.0079C39.043 34.064 38.9482 34.1294 38.8465 34.1832C38.7191 34.221 38.6262 34.1983 38.5608 34.1035L34.8929 28.7373L35.852 28.0762L38.6718 32.2014L38.1212 31.9978C38.1697 31.9604 38.2159 31.9324 38.2622 31.9043C38.3084 31.8762 38.3454 31.8459 38.3916 31.8178C38.7822 31.5492 39.0844 31.2392 39.2913 30.8764C39.4981 30.5136 39.6076 30.1466 39.6126 29.764C39.6177 29.3813 39.5092 29.0201 39.2919 28.7012C38.8924 28.1211 38.3622 27.8339 37.6828 27.835C37.0033 27.8361 36.221 28.1369 35.3358 28.7374C34.7789 29.1228 34.3452 29.5679 34.0532 30.0773C33.752 30.5844 33.6109 31.1207 33.6114 31.6819C33.6119 32.2431 33.7815 32.7571 34.1226 33.254C34.6226 33.9866 35.2652 34.4981 36.0365 34.7656C36.1549 34.8044 36.1854 34.8808 36.1188 34.9924L35.9123 35.4341C35.8687 35.5317 35.7785 35.5785 35.6464 35.5954C34.999 35.5059 34.3926 35.2887 33.8226 34.9229C33.2526 34.557 32.74 34.0772 32.3475 33.5087Z" fill="white"/>
<path d="M38.9788 42.6122C38.8949 42.5129 38.906 42.427 39.0053 42.343L39.2871 42.1167C39.3726 42.049 39.47 42.0531 39.5678 42.1361L40.7389 43.0625C40.8972 43.1799 41.0204 43.2396 41.1108 43.2322C41.2012 43.2248 41.3146 43.1639 41.4601 43.0519L43.2917 41.6002L44.9931 43.739L43.1846 45.1766C43.0252 45.305 42.9399 45.4121 42.9172 45.505C42.8945 45.5978 42.9252 45.7136 42.9956 45.8687L43.6614 47.2915C43.7014 47.4096 43.6787 47.5024 43.5932 47.5701L43.3114 47.7965C43.226 47.8642 43.1401 47.853 43.0561 47.7537L38.9788 42.6122ZM40.1598 44.102L51.3274 35.2287L53.0288 37.3675L41.8611 46.2408L40.1598 44.102ZM46.5254 39.0445C47.0745 39.8581 47.6585 40.69 48.261 41.5264C48.8635 42.3628 49.4985 43.1875 50.145 44.0052C50.7914 44.8229 51.454 45.6149 52.1282 46.4C52.8024 47.1851 53.4763 47.9307 54.1455 48.6555L53.083 49.498C52.4138 48.7732 51.7399 48.0276 51.0657 47.2425C50.3916 46.4575 49.729 45.6654 49.0825 44.8477C48.436 44.03 47.8103 43.2076 47.1985 42.3689C46.596 41.5325 46.0098 40.7099 45.463 39.8871L46.5254 39.0445ZM44.9091 50.0773C44.8251 49.978 44.8363 49.8921 44.9356 49.8081L45.2174 49.5818C45.3028 49.5141 45.4003 49.5182 45.4981 49.6012L46.6692 50.5276C46.8275 50.645 46.9507 50.7047 47.0411 50.6973C47.1315 50.6899 47.2448 50.629 47.3904 50.517L49.222 49.0653L50.9234 51.2041L49.1148 52.6417C48.9555 52.7701 48.8702 52.8772 48.8568 52.9724C48.8434 53.0675 48.8648 53.181 48.9281 53.3245L49.5939 54.7473C49.6362 54.8561 49.6112 54.9583 49.5257 55.0259L49.244 55.2523C49.1585 55.32 49.0727 55.3088 48.9887 55.2095L44.9091 50.0773ZM49.8866 33.7147C49.9836 33.64 50.0811 33.6442 50.1558 33.7412L54.2353 38.8734C54.31 38.9705 54.3081 39.0586 54.2227 39.1263L53.9524 39.3456C53.867 39.4133 53.765 39.4277 53.6534 39.3611L52.4379 38.3747C52.3074 38.264 52.1912 38.2159 52.1031 38.214C52.015 38.2121 51.8901 38.28 51.7307 38.4084L49.9014 39.8507L48.2 37.7119L50.0317 36.2603C50.1656 36.1552 50.2393 36.0551 50.2806 35.9668C50.3126 35.8762 50.2865 35.7418 50.2136 35.5567L49.5668 34.2172C49.506 34.1039 49.5309 34.0018 49.628 33.9271L49.8866 33.7147ZM46.0831 51.5555L57.2507 42.6823L58.952 44.8211L47.7844 53.6943L46.0831 51.5555ZM55.8099 41.1683C55.9092 41.0843 56.0043 41.0977 56.079 41.1947L60.1586 46.327C60.2333 46.424 60.2314 46.5121 60.1437 46.5891L59.8757 46.7992C59.7903 46.8669 59.6883 46.8813 59.5766 46.8146L58.3611 45.8282C58.2377 45.7291 58.1215 45.681 58.0334 45.6791C57.936 45.675 57.8134 45.7336 57.654 45.8619L55.8455 47.2996L54.1441 45.1607L55.9758 43.7091C56.1097 43.604 56.1834 43.504 56.2247 43.4156C56.2568 43.325 56.2306 43.1907 56.1577 43.0055L55.5109 41.666C55.4501 41.5527 55.4751 41.4506 55.5721 41.3759L55.8099 41.1683Z" fill="white"/>
<path d="M51.8843 58.743C51.3665 58.1635 51.1268 57.534 51.142 56.8683C51.1665 56.205 51.4465 55.6238 51.996 55.1479C52.5986 54.6162 53.2585 54.4134 53.9897 54.5628C54.7139 54.7006 55.5304 55.1858 56.432 56.0068L58.2515 57.6626L57.4639 58.3067L55.9895 57.0108C55.5167 56.6097 55.1097 56.3822 54.7731 56.3097C54.4365 56.2372 54.1147 56.3454 53.8238 56.609C53.5583 56.8492 53.4229 57.1212 53.4245 57.4365C53.4261 57.7519 53.5575 58.0597 53.8257 58.3714C54.087 58.6716 54.3594 58.8858 54.6477 59.0351C54.936 59.1844 55.1985 59.2782 55.4423 59.3279C55.686 59.3777 55.8693 59.3931 55.9876 59.3925L55.9683 59.7126C55.7718 59.8318 55.5033 59.9236 55.1788 59.9624C54.8521 60.0104 54.4902 60.0006 54.1004 59.9446C53.7105 59.8886 53.3272 59.7653 52.9413 59.5725C52.5484 59.3681 52.1922 59.0939 51.8843 58.743ZM58.6995 56.8371C59.2005 56.3986 59.4788 55.945 59.5367 55.467C59.6039 54.9913 59.4393 54.5376 59.0544 54.0989C58.8701 53.8865 58.6745 53.7205 58.4721 53.5824C58.2696 53.4443 58.0397 53.3782 57.773 53.3818C57.5064 53.3855 57.1961 53.4868 56.8237 53.6811L56.2918 53.9644C56.1807 54.016 56.0879 53.9933 56.0109 53.9056L55.717 53.5777C55.6331 53.4784 55.6349 53.3903 55.7179 53.2925C55.9481 52.9551 56.1761 52.6269 56.4133 52.3011C56.6482 51.9845 56.8831 51.6679 57.1043 51.3677C57.1641 51.2839 57.2591 51.2579 57.3753 51.306C57.7565 51.478 58.2332 51.7423 58.8055 52.0989C59.38 52.4461 59.9087 52.9003 60.4031 53.4544C61.2125 54.3709 61.6253 55.2988 61.6394 56.2472C61.6534 57.1956 61.2541 58.0232 60.4507 58.7322L58.1142 60.7986L56.4023 58.8639L58.6995 56.8371ZM58.1235 60.8009L56.3505 62.3752L56.5857 61.6551L57.2587 63.1289C57.3103 63.24 57.2853 63.3421 57.186 63.4261L56.9597 63.6267C56.8604 63.7107 56.7723 63.7088 56.6745 63.6258L55.8872 62.941C55.3841 62.503 55.0112 62.1361 54.7663 61.8498C54.5236 61.5542 54.418 61.302 54.4562 61.0652C54.4829 60.8355 54.6509 60.5912 54.9302 60.3347L55.6205 59.7259L55.6567 59.5379L56.4116 58.8662L58.1235 60.8009Z" fill="white"/>
<path d="M60.6075 68.0724C60.5283 67.994 60.5068 67.8805 60.5457 67.762L63.5502 59.3033C63.6164 59.1128 63.6365 58.9504 63.6241 58.7997C63.6025 58.6468 63.5484 58.5056 63.4665 58.3576L63.2961 58.1289C63.233 58.0248 63.2441 57.939 63.3318 57.862L63.5649 57.6335C63.6434 57.5543 63.7315 57.5562 63.8248 57.6577L67.3473 61.3249C67.4265 61.4033 67.4247 61.4914 67.3231 61.5847L67.1039 61.7969C67.0254 61.8761 66.9257 61.8812 66.8164 61.8053L66.4996 61.5309C66.1991 61.2704 65.969 61.1649 65.8185 61.2166C65.6681 61.2684 65.5229 61.4593 65.4017 61.7939L64.0894 65.0657C63.8947 65.5397 63.6837 65.9999 63.4772 66.4416C63.2684 66.8925 63.0527 67.3319 62.8369 67.7713L61.1719 67.7774L68.3673 64.9211C68.7376 64.7755 68.9432 64.6191 68.9725 64.4589C69.0019 64.2988 68.908 64.0789 68.6864 63.818L68.3061 63.3608C68.2429 63.2567 68.2541 63.1709 68.3418 63.0939L68.5749 62.8655C68.6533 62.7862 68.7415 62.7881 68.8347 62.8896L71.588 65.7583C71.6672 65.8367 71.6653 65.9249 71.5638 66.0181L71.3445 66.2303C71.2661 66.3095 71.1664 66.3147 71.0432 66.255L70.766 66.0198C70.5939 65.9187 70.4406 65.8615 70.2874 65.8437C70.1436 65.8282 69.9906 65.8498 69.8286 65.9086L61.5345 68.8701C61.428 68.9031 61.3259 68.8781 61.2419 68.7788L60.6075 68.0724Z" fill="white"/>
<path d="M68.8755 76.5229C68.2533 75.9278 67.8138 75.2297 67.5524 74.4471C67.2911 73.6646 67.2638 72.8508 67.459 72.0126C67.6542 71.1745 68.1162 70.3721 68.866 69.6007C69.6065 68.8271 70.3856 68.3385 71.2147 68.1279C72.0438 67.9173 72.8463 67.9365 73.643 68.1806C74.4396 68.4247 75.1444 68.8432 75.7759 69.4406C76.3514 69.985 76.7325 70.5999 76.947 71.2922C77.1616 71.9845 77.1697 72.6756 76.9925 73.4C76.8152 74.1244 76.4244 74.7966 75.8199 75.4165C75.7553 75.4794 75.6884 75.5517 75.61 75.6309C75.5316 75.7102 75.4531 75.7894 75.3676 75.8571C75.252 75.9272 75.1569 75.9138 75.0684 75.8331L70.3728 71.3277L71.1802 70.4819L74.7851 73.9329L74.205 73.85C74.2465 73.8011 74.2857 73.7615 74.3249 73.7219C74.3641 73.6823 74.3918 73.6497 74.431 73.61C74.7609 73.2675 74.9886 72.8999 75.1142 72.5074C75.2491 72.1171 75.2749 71.7297 75.2011 71.3474C75.1273 70.9652 74.9494 70.6461 74.6628 70.3692C74.1525 69.8802 73.5742 69.7092 72.9093 69.8517C72.2445 69.9942 71.5418 70.4522 70.8013 71.2259C70.3377 71.7129 70.0018 72.241 69.826 72.7984C69.6387 73.3629 69.6021 73.915 69.7161 74.4548C69.8301 74.9945 70.1062 75.4755 70.535 75.8954C71.1805 76.5159 71.9082 76.881 72.7204 76.9812C72.8457 76.9922 72.8877 77.0616 72.8489 77.18L72.733 77.6537C72.708 77.7559 72.6319 77.8258 72.5045 77.8636C71.8531 77.9109 71.2149 77.8237 70.576 77.5788C69.937 77.3339 69.3788 77.0004 68.8755 76.5229Z" fill="white"/>
<path d="M76.8594 83.7227C76.7686 83.6513 76.7704 83.5631 76.8534 83.4653L77.0886 83.1882C77.1716 83.0904 77.2665 83.0644 77.3711 83.1195L78.2452 83.5302C78.4264 83.5942 78.5865 83.6236 78.7256 83.6182C78.874 83.6151 79.0222 83.5726 79.1888 83.4953L91.073 77.3665C91.177 77.3033 91.2837 77.3097 91.3861 77.3741L92.4533 77.9207C92.5672 77.9781 92.5932 78.073 92.5358 78.187L92.0536 79.1518L88.681 91.4085C88.6333 91.6036 88.6226 91.7683 88.6535 91.9235C88.6774 92.0672 88.7385 92.2199 88.832 92.3609L89.3297 93.1028C89.3812 93.2138 89.3748 93.3205 89.3056 93.402L89.0705 93.6792C88.9991 93.77 88.911 93.7681 88.8131 93.6851L83.7596 89.4761C83.6688 89.4047 83.6707 89.3166 83.7537 89.2188L83.9888 88.9416C84.058 88.8601 84.1414 88.8411 84.2576 88.8892L85.3528 89.482C85.6946 89.6542 85.9406 89.6947 86.0979 89.6151C86.2552 89.5354 86.384 89.3307 86.4751 88.9986L89.5064 78.4991L91.3237 78.796L80.9183 84.3121C80.5668 84.5017 80.3752 84.6813 80.3529 84.853C80.3305 85.0247 80.4244 85.2445 80.6322 85.5218L81.477 86.575C81.5517 86.672 81.5405 86.7579 81.4668 86.8579L81.2317 87.1351C81.1603 87.2259 81.0721 87.224 80.9743 87.141L76.8594 83.7227ZM83.6717 81.7079C84.5547 82.5244 85.4632 83.3175 86.3947 84.0966C87.3378 84.8687 88.2784 85.6107 89.2259 86.3248L88.3592 87.3728C87.4118 86.6586 86.4596 85.9237 85.528 85.1446C84.5849 84.3725 83.6765 83.5793 82.7912 82.7721L83.6717 81.7079Z" fill="white"/>
<path d="M94.0687 97.6682C93.9686 97.5944 93.9519 97.5018 94.0256 97.4017L94.2351 97.1084C94.2973 97.0154 94.3899 96.9987 94.5154 97.049L95.8934 97.6126C96.0817 97.6881 96.2162 97.7014 96.3019 97.6731C96.3876 97.6449 96.4798 97.5493 96.5835 97.4073L97.9351 95.5035L100.165 97.0924L97.8298 100.36L94.0687 97.6682ZM95.6094 98.7735L103.895 87.1575L106.124 88.7464L98.9306 98.8379C98.8224 98.9985 98.772 99.1239 98.7935 99.2375C98.8149 99.351 98.8989 99.4503 99.0501 99.5562L102.502 102.025C102.662 102.133 102.804 102.197 102.948 102.213C103.082 102.226 103.238 102.195 103.402 102.127L105.387 101.215C105.505 101.175 105.605 101.209 105.68 101.306L105.972 101.683C106.053 101.791 106.049 101.889 105.95 101.973L103.86 104.119C103.754 104.231 103.647 104.303 103.559 104.341C103.471 104.378 103.365 104.372 103.253 104.305C103.139 104.248 102.962 104.126 102.732 103.941L101.905 103.257L95.6094 98.7735ZM102.085 86.1045C102.159 86.0044 102.251 85.9877 102.352 86.0614L107.691 89.8678C107.791 89.9415 107.81 90.0249 107.748 90.118L107.552 90.3949C107.49 90.488 107.392 90.5233 107.272 90.4937L105.826 89.8842C105.666 89.8154 105.543 89.7952 105.457 89.8234C105.371 89.8517 105.27 89.945 105.15 90.1125L103.803 91.9977L101.573 90.4089L102.925 88.5051C103.017 88.3701 103.075 88.2562 103.079 88.1588C103.083 88.0614 103.024 87.9388 102.905 87.7817L101.907 86.6713C101.821 86.5812 101.806 86.4793 101.882 86.3699L102.085 86.1045Z" fill="white"/>
<path d="M109.802 108.762C108.951 108.219 108.323 107.563 107.907 106.811C107.493 106.051 107.305 105.247 107.347 104.391C107.389 103.535 107.673 102.699 108.2 101.873C108.738 101.04 109.382 100.42 110.145 100.036C110.902 99.6399 111.719 99.4758 112.58 99.5387C113.441 99.6016 114.293 99.8988 115.143 100.451C116.01 101.008 116.656 101.668 117.07 102.429C117.485 103.19 117.672 103.993 117.63 104.849C117.588 105.705 117.302 106.551 116.764 107.384C116.237 108.21 115.586 108.818 114.83 109.214C114.073 109.61 113.256 109.774 112.395 109.711C111.539 109.629 110.67 109.318 109.802 108.762ZM110.654 107.533C111.284 107.933 111.934 108.013 112.605 107.764C113.277 107.515 113.902 106.93 114.493 106.001C114.903 105.373 115.148 104.774 115.254 104.219C115.351 103.662 115.326 103.163 115.156 102.728C114.987 102.293 114.709 101.94 114.3 101.682C113.672 101.272 113.02 101.202 112.367 101.455C111.714 101.709 111.084 102.313 110.472 103.246C109.883 104.165 109.607 105.013 109.653 105.792C109.712 106.554 110.049 107.149 110.654 107.533Z" fill="white"/>
<path d="M118.954 114.367C118.128 113.88 117.659 113.302 117.535 112.642C117.411 111.982 117.627 111.178 118.172 110.238L121.233 105.052L121.558 104.688L122.514 103.072C122.57 102.967 122.664 102.941 122.794 102.973C122.971 103.016 123.18 103.087 123.422 103.185C123.663 103.284 123.896 103.38 124.133 103.497C124.372 103.605 124.572 103.713 124.735 103.812C124.826 103.883 124.845 103.967 124.783 104.06L120.398 111.482C120.097 111.989 120.004 112.409 120.114 112.761C120.218 113.101 120.549 113.438 121.1 113.76C121.247 113.845 121.403 113.933 121.579 114.015C121.756 114.098 121.954 114.176 122.165 114.237C122.274 114.274 122.314 114.352 122.264 114.478L122.059 114.871C122.025 114.971 121.949 115.041 121.803 115.074C121.541 115.098 121.23 115.081 120.891 115.018C120.55 114.964 120.206 114.88 119.86 114.766C119.514 114.652 119.23 114.523 118.954 114.367ZM119.909 105.072C119.816 105.01 119.804 104.938 119.887 104.84L120.297 104.37C120.38 104.272 120.484 104.248 120.598 104.306L121.549 104.686L125.17 106.822L126.358 107.438C126.465 107.483 126.484 107.567 126.406 107.685C126.346 107.809 126.275 107.939 126.197 108.058C126.116 108.185 126.022 108.29 125.918 108.393C125.816 108.486 125.723 108.503 125.621 108.438L119.909 105.072Z" fill="white"/>
<path d="M134.322 122.763C132.999 122.095 131.979 121.235 131.241 120.188C130.505 119.132 130.11 117.972 130.047 116.697C129.985 115.422 130.28 114.136 130.932 112.838C131.587 111.532 132.451 110.533 133.517 109.839C134.582 109.144 135.754 108.781 137.027 108.729C138.309 108.678 139.612 108.987 140.925 109.653C142.267 110.325 143.312 111.201 144.048 112.257C144.784 113.314 145.189 114.476 145.244 115.739C145.299 117.003 145.004 118.289 144.347 119.605C143.691 120.921 142.835 121.922 141.777 122.628C140.718 123.334 139.556 123.699 138.276 123.74C136.991 123.761 135.673 123.438 134.322 122.763ZM134.994 121.343C135.845 121.767 136.69 121.935 137.513 121.831C138.336 121.727 139.111 121.375 139.829 120.773C140.556 120.174 141.183 119.343 141.718 118.282C142.253 117.222 142.538 116.219 142.591 115.277C142.635 114.333 142.459 113.483 142.059 112.745C141.658 112.007 141.025 111.419 140.174 110.995C139.351 110.577 138.538 110.437 137.743 110.548C136.946 110.668 136.19 111.024 135.481 111.628C134.772 112.232 134.145 113.063 133.608 114.133C133.073 115.193 132.779 116.194 132.717 117.134C132.654 118.073 132.823 118.912 133.207 119.636C133.579 120.367 134.178 120.936 134.994 121.343Z" fill="white"/>
<path d="M143.726 127.052C143.609 127.004 143.572 126.916 143.629 126.802L143.755 126.528C143.804 126.412 143.894 126.365 144.024 126.397L144.572 126.491C144.783 126.514 144.922 126.508 144.991 126.466C145.06 126.424 145.125 126.322 145.207 126.145L146.021 124.307L148.364 125.352L147.555 127.172C147.47 127.358 147.438 127.488 147.459 127.562C147.481 127.636 147.565 127.736 147.714 127.851L148.475 128.401C148.566 128.473 148.592 128.567 148.534 128.681L148.408 128.956C148.362 129.063 148.277 129.091 148.163 129.033L143.726 127.052ZM148.305 119.156C148.608 118.482 149.006 117.9 149.5 117.411C149.994 116.921 150.551 116.536 151.159 116.261C151.768 115.987 152.402 115.847 153.047 115.828C153.701 115.81 154.321 115.932 154.932 116.21C155.448 116.435 155.797 116.697 156.003 116.984C156.199 117.268 156.237 117.553 156.107 117.846C155.994 118.104 155.854 118.316 155.688 118.472C155.519 118.637 155.36 118.766 155.207 118.866C155.12 118.943 155.034 118.932 154.95 118.833C154.728 118.572 154.49 118.336 154.218 118.122C153.946 117.908 153.636 117.724 153.29 117.57C152.828 117.368 152.415 117.327 152.056 117.465C151.699 117.594 151.409 117.897 151.207 118.36C151.037 118.732 150.925 119.029 150.868 119.261C150.811 119.494 150.762 119.737 150.726 120.004L146.945 128.499L144.602 127.454L148.305 119.156ZM146.857 119.363C146.75 119.317 146.731 119.234 146.795 119.131L147.148 118.617C147.224 118.508 147.319 118.482 147.446 118.523L148.487 118.817L152.117 120.433L153.351 120.902C153.46 120.939 153.491 121.015 153.429 121.148C153.385 121.285 153.326 121.408 153.264 121.54C153.202 121.673 153.123 121.792 153.027 121.906C152.944 122.004 152.849 122.03 152.742 121.984L146.857 119.363Z" fill="white"/>
<path d="M155.307 132.1C155.191 132.052 155.151 131.973 155.19 131.855L155.313 131.511C155.35 131.402 155.438 131.364 155.561 131.384L157.041 131.569C157.243 131.589 157.375 131.572 157.447 131.521C157.519 131.47 157.585 131.358 157.656 131.188L158.476 129.007L161.038 129.958L160.233 132.124C160.157 132.312 160.142 132.456 160.17 132.542C160.198 132.627 160.285 132.717 160.429 132.812L161.73 133.691C161.82 133.762 161.856 133.859 161.81 133.966L161.686 134.31C161.65 134.419 161.564 134.448 161.446 134.409L155.307 132.1ZM160.057 118.841C160.105 118.725 160.184 118.685 160.302 118.724L164.64 120.346L163.242 124.089L160.681 123.128L161.501 120.947C161.558 120.793 161.578 120.67 161.564 120.568C161.547 120.476 161.456 120.365 161.295 120.257L160.048 119.44C159.937 119.373 159.901 119.276 159.949 119.16L160.057 118.841ZM157.075 132.759L162.068 119.392L164.628 120.353L159.636 133.72L157.075 132.759ZM161.796 127.949L162.274 126.678L164.086 127.357C164.897 127.664 165.625 127.665 166.255 127.386C166.886 127.097 167.356 126.543 167.654 125.73C167.961 124.919 167.964 124.221 167.673 123.638C167.383 123.055 166.815 122.601 165.985 122.29L164.173 121.61L164.638 120.356L166.45 121.035C168.137 121.665 169.291 122.459 169.931 123.423C170.562 124.384 170.66 125.471 170.205 126.689C169.747 127.915 168.944 128.703 167.807 129.045C166.661 129.385 165.267 129.251 163.626 128.633L161.796 127.949ZM165.463 135.894C165.309 135.836 165.186 135.777 165.102 135.717C165.019 135.657 164.953 135.562 164.908 135.423C164.864 135.284 164.805 135.083 164.734 134.81L163.54 129.872C163.436 129.452 163.337 129.133 163.231 128.92C163.126 128.707 163.018 128.543 162.895 128.444C162.772 128.345 162.634 128.262 162.462 128.2L163.816 128.138C164.235 128.319 164.593 128.544 164.891 128.814C165.189 129.084 165.451 129.424 165.683 129.845C165.914 130.265 166.128 130.8 166.326 131.439L167.412 134.805C167.492 135.002 167.572 135.159 167.658 135.289C167.745 135.418 167.852 135.543 167.992 135.656L168.753 136.285C168.844 136.357 168.868 136.461 168.829 136.579L168.705 136.923C168.669 137.032 168.583 137.061 168.465 137.022L165.463 135.894Z" fill="white"/>
<path d="M174.251 139.038C173.429 138.778 172.726 138.35 172.153 137.757C171.58 137.164 171.193 136.449 171.004 135.615C170.805 134.779 170.874 133.851 171.203 132.829C171.532 131.807 172.019 131.021 172.664 130.48C173.308 129.938 174.053 129.589 174.864 129.453C175.684 129.319 176.505 129.382 177.325 129.651C178.073 129.893 178.699 130.273 179.191 130.797C179.683 131.321 180.001 131.95 180.158 132.677C180.315 133.405 180.263 134.18 179.994 135C179.964 135.081 179.939 135.183 179.905 135.283C179.87 135.383 179.834 135.492 179.788 135.599C179.712 135.708 179.624 135.746 179.515 135.709L173.325 133.732L173.676 132.617L178.433 134.135L177.878 134.315C177.893 134.25 177.916 134.196 177.928 134.15C177.939 134.103 177.962 134.05 177.973 134.003C178.113 133.555 178.159 133.123 178.104 132.706C178.048 132.289 177.91 131.93 177.678 131.628C177.447 131.325 177.147 131.104 176.773 130.983C176.106 130.771 175.502 130.869 174.966 131.289C174.43 131.709 174 132.421 173.671 133.443C173.463 134.091 173.401 134.706 173.486 135.287C173.567 135.878 173.779 136.383 174.115 136.819C174.451 137.256 174.916 137.567 175.483 137.745C176.331 138.021 177.147 138.024 177.93 137.763C178.048 137.723 178.118 137.759 178.134 137.891L178.244 138.371C178.267 138.475 178.226 138.564 178.134 138.659C177.572 138.984 176.951 139.187 176.277 139.248C175.588 139.326 174.916 139.26 174.251 139.038Z" fill="white"/>
<path d="M182.555 141.552C181.807 141.349 181.253 140.958 180.912 140.382C180.57 139.806 180.488 139.176 180.689 138.477C180.898 137.701 181.352 137.173 182.04 136.898C182.729 136.614 183.673 136.579 184.875 136.774L187.307 137.173L187.002 138.141L185.052 137.861C184.442 137.781 183.971 137.813 183.654 137.942C183.337 138.072 183.118 138.323 183.013 138.711C182.92 139.052 182.954 139.356 183.125 139.624C183.295 139.892 183.575 140.079 183.972 140.186C184.35 140.288 184.705 140.326 185.027 140.296C185.35 140.267 185.621 140.205 185.852 140.104C186.081 140.013 186.25 139.926 186.345 139.861L186.501 140.145C186.4 140.357 186.23 140.571 185.981 140.785C185.731 141 185.428 141.192 185.072 141.36C184.716 141.529 184.327 141.631 183.891 141.682C183.46 141.714 183.017 141.675 182.555 141.552ZM187.24 136.241C187.415 135.604 187.399 135.069 187.2 134.636C186.991 134.201 186.609 133.911 186.047 133.754C185.78 133.679 185.523 133.645 185.277 133.644C185.031 133.643 184.797 133.714 184.584 133.859C184.362 134.001 184.153 134.255 183.944 134.627L183.654 135.167C183.59 135.269 183.492 135.304 183.383 135.268L182.958 135.154C182.838 135.124 182.788 135.043 182.811 134.911C182.823 134.501 182.832 134.099 182.861 133.703C182.889 133.306 182.905 132.916 182.938 132.54C182.945 132.434 183.009 132.371 183.134 132.342C183.542 132.285 184.094 132.242 184.766 132.23C185.441 132.208 186.137 132.299 186.848 132.493C188.028 132.821 188.877 133.373 189.402 134.161C189.928 134.949 190.042 135.853 189.759 136.887L188.926 139.892L186.436 139.204L187.24 136.241ZM188.91 139.878L188.281 142.165L188.085 141.438L189.446 142.312C189.548 142.377 189.584 142.474 189.545 142.593L189.463 142.887C189.433 143.008 189.352 143.057 189.22 143.035L188.192 142.892C187.526 142.797 187.018 142.703 186.662 142.586C186.307 142.47 186.069 142.313 185.973 142.103C185.877 141.892 185.871 141.595 185.981 141.228L186.227 140.344L186.151 140.168L186.42 139.19L188.91 139.878Z" fill="white"/>
<path d="M193.878 133.169L194.508 130.39L194.677 131.189L193.257 130.556C193.148 130.52 193.108 130.441 193.14 130.311L193.217 129.956C193.246 129.835 193.318 129.784 193.448 129.816L196.652 130.038C196.853 130.058 196.99 130.102 197.063 130.169C197.135 130.235 197.145 130.356 197.115 130.516L196.385 133.743L193.878 133.169ZM190.512 143.508C190.4 143.481 190.358 143.411 190.39 143.281L190.453 142.982C190.483 142.861 190.557 142.801 190.694 142.804L191.248 142.792C191.459 142.775 191.595 142.74 191.658 142.686C191.72 142.632 191.768 142.516 191.804 142.328L192.254 140.371L194.752 140.943L194.307 142.881C194.259 143.076 194.255 143.213 194.288 143.28C194.321 143.347 194.421 143.421 194.595 143.513L195.446 143.898C195.551 143.953 195.591 144.032 195.559 144.162L195.486 144.459C195.459 144.571 195.389 144.613 195.259 144.581L190.512 143.508ZM191.482 143.726L193.891 133.153L196.39 133.725L193.98 144.298L191.482 143.726Z" fill="white"/>
</svg>
