<svg width="221" height="424" viewBox="0 0 221 424" fill="none" xmlns="http://www.w3.org/2000/svg">
<g opacity="0.05">
<path d="M472.827 365.56C472.827 365.533 472.854 365.533 472.854 365.507C472.881 365.426 472.908 365.373 472.961 365.292C473.175 364.837 473.389 364.383 473.577 363.928C474.139 362.563 474.621 361.171 475.022 359.806C475.102 359.538 475.183 359.271 475.263 359.003C475.316 358.816 475.37 358.602 475.423 358.414C476.333 354.935 476.895 351.509 477.404 348.378C477.618 347.067 477.805 345.809 478.046 344.551C479.572 336.067 475.718 323.997 472.025 312.328C470.098 306.226 468.251 300.445 467.957 297.233C466.859 285.618 460.811 278.713 449.517 276.09C448.848 275.93 448.633 275.769 448.633 275.769C448.366 275.475 447.938 274.056 447.616 273.013C446.546 269.533 444.94 264.261 439.373 258.48C431.398 250.21 425.644 247.614 418.364 244.322C416.062 243.279 413.681 242.208 410.951 240.843C400.352 235.49 391.226 227.435 387.747 220.316C383.09 210.815 371.234 197.808 363.713 192.482C359.913 189.805 356.835 188.788 354.159 188.226C350.706 175.032 344.979 166.842 339.064 158.359C328.306 142.943 317.199 127.019 317.199 73.5456C317.199 49.9671 309.009 30.6708 293.54 17.7441C279.516 6.1288 260.354 0 237.979 0C215.632 0 196.443 6.1288 182.553 17.7441C167.083 30.6708 158.894 49.9671 158.894 73.5456C158.894 126.992 147.76 142.943 137.028 158.359C131.354 166.468 125.895 174.336 122.389 186.567C118.428 188.066 114.948 190.314 111.871 192.482C104.377 197.781 92.494 210.815 87.8372 220.316C84.358 227.435 75.2317 235.49 64.6334 240.843C61.9035 242.208 59.5216 243.305 57.22 244.322C49.9403 247.614 44.1862 250.21 36.2108 258.48C30.644 264.261 29.0382 269.533 27.9677 273.013C27.6465 274.056 27.2183 275.475 26.9507 275.769C26.9507 275.769 26.7365 275.93 26.0675 276.064C14.7733 278.686 8.72484 285.591 7.62754 297.207C6.71759 306.788 4.8174 330.393 7.06552 342.838C9.50098 356.434 14.479 360.475 23.3911 363.473C24.7293 363.928 26.0675 364.837 27.3521 365.988H0V377.256H35.8628C35.9431 377.309 35.9967 377.389 36.0769 377.443C40.0112 383.759 49.1107 390.182 51.8138 391.842L52.6702 392.377C56.9256 394.973 60.0033 396.846 64.6066 396.846C66.0251 396.846 67.5506 396.659 69.2635 396.258C69.6649 396.151 70.0664 396.044 70.441 395.936C91.1558 393.26 108.632 385.659 116.581 377.282H164.782V378.273V381.698V383.732H166.816H170.054V396.445L164.782 402.065V403.216V405.892V407.926H166.816H237.096H307.377H309.411H317.547C317.761 408.167 317.948 408.435 318.162 408.649C318.162 413.252 320.41 417.856 325.495 419.676C326.834 420.157 328.172 420.398 329.43 420.398C330.875 420.398 332.106 420.104 333.176 419.649C334.97 422.084 337.94 423.529 341.553 423.529C343.587 423.529 345.782 423.074 347.896 422.191C348.672 421.87 349.395 421.469 350.091 420.987C352.848 423.69 356.942 423.69 358.307 423.69C359.592 423.69 361.064 423.583 362.777 423.396C365.373 423.074 367.38 421.977 369.039 420.452C370.244 421.469 372.144 422.432 375.061 422.432C376.988 422.432 379.129 422.004 381.243 421.388C430.274 412.824 458.295 387.131 473.282 377.282H486.504V366.015H472.64C472.694 365.854 472.774 365.721 472.827 365.56ZM237.979 5.6203C276.572 5.6203 308.715 25.1307 311.257 67.9788C303.469 68.0323 295.387 67.8985 287.465 67.6309C287.411 67.283 287.358 66.9618 287.331 66.6406C287.706 66.3998 288.107 66.1589 288.562 65.8913C290.569 64.6869 293.299 63.1347 296.109 61.7162C298.919 60.2977 301.81 59.0131 304.031 58.1299C305.129 57.6749 306.065 57.3538 306.734 57.1129C307.403 56.872 307.778 56.7382 307.778 56.7382C307.778 56.7382 307.377 56.7917 306.681 56.872C305.985 56.9523 304.995 57.0861 303.817 57.2735C301.435 57.6482 298.277 58.2637 295.146 59.0666C292.014 59.8428 288.91 60.7795 286.608 61.5556C286.448 61.6091 286.287 61.6627 286.127 61.7162C285.725 60.5654 285.243 59.5216 284.708 58.5314C285.136 58.0229 285.725 57.3805 286.421 56.6044C288.054 54.8113 290.275 52.4829 292.63 50.2615C294.985 48.0134 297.421 45.8991 299.348 44.3736C300.311 43.5974 301.114 42.9819 301.703 42.5804C302.292 42.1522 302.613 41.9113 302.613 41.9113C302.613 41.9113 302.238 42.0719 301.596 42.3663C300.927 42.6607 300.017 43.0889 298.893 43.651C296.671 44.7483 293.781 46.3273 290.944 48.0669C288.107 49.7798 285.35 51.6264 283.316 53.0984C282.674 53.5534 282.112 53.9548 281.63 54.3028C280.694 53.3125 279.677 52.4293 278.579 51.6264C278.927 50.8771 279.382 49.8333 279.998 48.6022C281.229 46.0329 282.942 42.6072 284.788 39.2618C286.635 35.9164 288.616 32.6245 290.195 30.2158C290.997 29.0114 291.667 28.0212 292.148 27.3253C292.63 26.6295 292.924 26.2548 292.924 26.2548C292.924 26.2548 292.577 26.6027 291.988 27.1915C291.372 27.7803 290.516 28.6367 289.526 29.6805C287.518 31.7681 284.949 34.6853 282.487 37.7095C280.025 40.707 277.669 43.8383 275.957 46.2202C275.154 47.3443 274.458 48.3078 273.976 49.0036C272.879 48.4951 271.755 48.0669 270.577 47.6655C270.711 46.9161 270.898 46.0597 271.086 45.0962C271.755 41.8578 272.718 37.5222 273.842 33.2133C274.966 28.9044 276.224 24.649 277.295 21.4909C277.83 19.9119 278.312 18.6005 278.66 17.6905C279.008 16.7806 279.195 16.2453 279.195 16.2453C279.195 16.2453 278.927 16.7271 278.445 17.5835C277.937 18.4399 277.295 19.6443 276.492 21.143C274.94 24.1137 272.986 28.155 271.193 32.2766C269.4 36.3981 267.74 40.5732 266.536 43.758C266.188 44.6947 265.867 45.5512 265.599 46.2738C264.261 45.9794 262.923 45.7653 261.558 45.5512C261.585 44.8821 261.638 44.1595 261.692 43.3566C261.933 39.797 262.334 35.0867 262.896 30.3496C263.458 25.6393 264.181 20.9289 264.85 17.4229C265.198 15.6565 265.492 14.2113 265.733 13.1943C265.974 12.1773 266.108 11.5885 266.108 11.5885C266.108 11.5885 265.894 12.1505 265.519 13.114C265.117 14.0775 264.609 15.496 264.02 17.182C262.842 20.581 261.424 25.1575 260.166 29.8143C258.908 34.4444 257.811 39.1547 257.035 42.6875C256.848 43.5171 256.687 44.2933 256.526 44.9891C255.054 44.8821 253.556 44.775 252.084 44.7215C252.03 43.7848 251.977 42.5804 251.896 41.1352C251.762 37.7095 251.629 33.1062 251.682 28.5029C251.709 23.8996 251.923 19.2963 252.217 15.8439C252.378 14.131 252.512 12.6858 252.646 11.6956C252.779 10.6786 252.833 10.1165 252.833 10.1165C252.833 10.1165 252.672 10.6786 252.405 11.642C252.11 12.6055 251.762 14.024 251.334 15.7101C250.531 19.109 249.595 23.6588 248.872 28.2621C248.123 32.8653 247.534 37.4954 247.159 40.9746C246.999 42.3931 246.892 43.5974 246.785 44.5609C245.5 44.5342 244.215 44.5341 242.957 44.5341C242.154 44.5341 241.405 44.5341 240.629 44.5341L237.979 10.1433L235.357 44.5877C234.58 44.5877 233.831 44.5877 233.028 44.5877C231.77 44.5877 230.512 44.5877 229.201 44.6144C229.121 43.651 228.987 42.4466 228.826 41.0282C228.452 37.5489 227.863 32.9189 227.113 28.3156C226.364 23.7123 225.454 19.1625 224.651 15.7636C224.223 14.0775 223.875 12.659 223.581 11.6956C223.313 10.7321 223.152 10.1701 223.152 10.1701C223.152 10.1701 223.26 10.7053 223.367 11.7223C223.5 12.7126 223.634 14.1578 223.795 15.8706C224.089 19.3231 224.303 23.9264 224.33 28.5297C224.384 33.133 224.25 37.7095 224.116 41.162C224.062 42.5804 223.982 43.7848 223.929 44.7483C222.457 44.8018 220.958 44.9088 219.486 45.0159C219.352 44.32 219.165 43.5439 218.977 42.7142C218.201 39.1815 217.104 34.4979 215.846 29.8411C214.588 25.1843 213.17 20.6077 211.992 17.2088C211.403 15.5227 210.895 14.1043 210.493 13.1408C210.119 12.1773 209.905 11.6153 209.905 11.6153C209.905 11.6153 210.038 12.2041 210.279 13.2211C210.52 14.2381 210.815 15.7101 211.163 17.4497C211.832 20.9557 212.554 25.666 213.116 30.3764C213.678 35.0867 214.08 39.8238 214.321 43.3833C214.374 44.1862 214.428 44.9088 214.454 45.5779C213.089 45.7653 211.725 46.0061 210.413 46.3005C210.146 45.5512 209.824 44.7215 209.476 43.7848C208.272 40.6267 206.64 36.4249 204.82 32.3033C203.026 28.1818 201.073 24.1405 199.521 21.1698C198.744 19.671 198.075 18.4667 197.567 17.6103C197.085 16.7538 196.817 16.2721 196.817 16.2721C196.817 16.2721 197.005 16.8074 197.353 17.7173C197.701 18.6273 198.182 19.9387 198.718 21.5177C199.788 24.6758 201.073 28.9311 202.17 33.24C203.294 37.5222 204.258 41.8578 204.927 45.1229C205.114 46.0864 205.301 46.9428 205.435 47.6922C204.258 48.0937 203.134 48.5219 202.036 49.0304C201.555 48.3345 200.885 47.3711 200.056 46.247C198.343 43.8651 195.988 40.7605 193.526 37.7363C191.063 34.712 188.494 31.8216 186.487 29.7073C185.47 28.6635 184.64 27.8071 184.025 27.2183C183.409 26.6295 183.088 26.2816 183.088 26.2816C183.088 26.2816 183.355 26.683 183.864 27.3521C184.372 28.0212 185.042 29.0382 185.818 30.2425C187.397 32.6512 189.377 35.9431 191.224 39.2885C193.071 42.634 194.783 46.0597 196.014 48.6289C196.603 49.8868 197.085 50.9306 197.433 51.6532C196.336 52.4561 195.319 53.3393 194.382 54.3295C193.9 53.9281 193.338 53.5266 192.696 53.0716C190.662 51.6264 187.905 49.7798 185.068 48.0401C182.231 46.3005 179.341 44.7215 177.12 43.6242C176.022 43.0622 175.086 42.634 174.417 42.3396C173.774 42.0452 173.4 41.8846 173.4 41.8846C173.4 41.8846 173.721 42.1255 174.309 42.5537C174.898 42.9819 175.701 43.5974 176.665 44.3468C178.565 45.8723 181.027 48.0134 183.382 50.2347C185.737 52.4561 187.959 54.8113 189.591 56.5776C190.287 57.3538 190.876 57.9961 191.304 58.5046C190.769 59.4948 190.287 60.5654 189.886 61.6894C189.725 61.6359 189.565 61.5824 189.404 61.5289C187.102 60.7527 183.998 59.816 180.866 59.0399C177.735 58.237 174.577 57.6214 172.195 57.2467C171.018 57.0594 170.027 56.9256 169.331 56.8453C168.636 56.765 168.234 56.7115 168.234 56.7115C168.234 56.7115 168.609 56.8453 169.278 57.0861C169.947 57.3003 170.857 57.6482 171.981 58.1031C174.202 58.9863 177.093 60.2442 179.903 61.6894C182.713 63.1079 185.443 64.6334 187.45 65.8645C187.905 66.1321 188.307 66.3998 188.681 66.6139C188.628 66.935 188.574 67.2562 188.548 67.6041C180.626 67.8718 172.543 68.0056 164.755 67.952C167.244 25.1307 199.387 5.6203 237.979 5.6203ZM442.29 271.112C442.585 272.076 442.799 272.852 442.906 273.387C443.04 273.923 443.093 274.19 443.093 274.19C443.093 274.19 442.986 273.923 442.799 273.414C442.638 272.906 442.344 272.156 441.943 271.246C441.166 269.4 439.802 266.857 437.794 264.1C435.787 261.344 432.95 258.507 429.498 256.098C426.045 253.663 421.843 251.95 417.454 250.665C413.092 249.3 408.596 248.176 404.474 246.785C404.287 246.731 404.099 246.651 403.912 246.597C404.394 246.811 404.849 246.999 405.33 247.213C406.187 247.855 407.016 248.497 407.739 249.14C411.031 252.11 414.136 255.295 417.026 258.667C419.863 261.986 422.486 265.465 424.868 269.132C425.269 269.721 427.437 273.789 429.123 276.84C426.099 277.161 423.235 277.562 420.639 277.964C415.875 278.981 411.941 280.025 409.238 280.801C406.561 281.737 405.036 282.273 405.036 282.273C405.036 282.273 406.642 282.273 409.479 282.299C411.78 282.246 414.885 282.192 418.551 282.299C419.595 282.219 420.693 282.139 421.79 282.059C425.831 281.818 430.113 281.577 434.449 281.443C438.785 281.389 443.2 281.577 447.215 282.514C451.283 283.397 454.789 285.35 457.278 287.518C459.82 289.686 461.239 292.122 461.935 293.888C462.283 294.771 462.47 295.494 462.577 296.002C462.684 296.511 462.738 296.752 462.738 296.752C462.738 296.752 462.657 296.484 462.497 296.029C462.336 295.547 462.069 294.851 461.614 294.049C460.784 292.389 459.125 290.248 456.636 288.348C454.147 286.394 450.748 284.895 446.867 284.119C444.325 283.584 441.595 283.37 438.785 283.316C441.14 284.976 444.512 287.17 447.001 290.355C454.361 299.776 460.302 308.367 464.397 317.627C464.477 318.109 464.584 318.59 464.665 319.072C465.253 322.177 465.923 325.495 466.511 328.948C467.073 332.374 467.635 336.013 467.609 339.332C467.609 339.733 467.609 340.162 467.582 340.536L467.555 341.125L467.502 341.527C467.502 341.687 467.368 342.356 467.287 342.811V342.865C467.287 342.918 467.341 342.517 467.314 342.704L467.287 342.811L467.234 342.999L467.154 343.4L466.993 344.176C466.618 346.157 466.244 348.164 465.842 350.198C465.093 354.105 464.183 357.745 462.791 360.85C461.373 363.954 459.473 366.47 456.877 368.451C456.234 368.959 455.565 369.441 454.842 369.842C454.468 370.083 454.147 370.27 453.799 370.431L453.29 370.699L452.594 371.02C450.748 371.876 448.901 372.733 447.108 373.562C440.283 376.908 434.262 380.441 429.069 383.652C429.658 378.995 429.846 372.974 428.722 365.667C427.731 359.217 424.814 354.186 420.05 350.76C411.165 344.364 398.452 345.327 391.654 346.505C389.219 346.933 386.89 347.468 384.616 348.11C388.898 343.427 392.404 337.94 394.491 332.32C396.365 326.352 397.248 321.106 398.987 317.065C400.433 312.917 402.734 309.866 404.742 308.206C405.705 307.296 406.615 306.734 407.257 306.36C407.926 306.012 408.274 305.851 408.274 305.851C408.274 305.851 407.873 305.905 407.124 305.985C406.374 306.119 405.277 306.36 403.939 306.922C401.316 308.126 397.89 310.829 395.053 315.031C392.404 319.34 390.584 324.8 388.148 329.751C385.98 334.702 382.555 339.386 378.299 343.373C374.312 347.602 369.521 351.188 364.677 354.025C364.035 354.427 363.419 354.801 362.777 355.203C363.258 331.464 370.699 306.975 384.856 285.939C370.244 299.722 358.548 317.279 351.108 336.977C350.867 335.371 350.546 333.765 350.144 332.133C349.636 329.992 348.94 327.851 348.164 325.71C347.816 324.746 347.468 323.783 347.12 322.792C346.906 322.257 346.826 321.856 346.692 321.454L346.317 320.196C345.889 318.376 345.568 316.53 345.407 314.549C345.273 312.569 345.273 310.401 345.247 308.046C345.247 304.513 344.899 300.713 344.176 297.019C360.662 274.832 364.677 246.33 365.881 225.615C366.55 226.123 367.246 226.632 367.996 227.167C371.475 229.415 375.57 231.984 379.959 234.741C382.742 236.267 385.659 237.846 388.63 239.425C390.129 240.04 391.868 240.709 393.822 241.485C397.034 242.743 400.861 244.001 404.956 245.259C409.05 246.57 413.52 247.561 418.016 248.899C422.459 250.29 426.875 252.164 430.461 254.787C434.074 257.383 436.75 260.594 438.704 263.512C440.604 266.456 441.648 269.212 442.29 271.112ZM134.111 173.132C154.478 179.823 180.866 186.915 201.581 190.849C202.009 194.328 202.411 197.781 202.786 201.153C179.983 197.406 149.875 190.207 129.936 181.776C131.194 178.618 132.612 175.781 134.111 173.132ZM144.656 157.181C146.235 154.853 147.814 152.417 149.339 149.794C164.675 152.444 181.883 154.745 197.192 156.03C197.674 159.777 198.156 163.524 198.637 167.271C181.723 165.076 161.811 161.249 144.656 157.181ZM160.259 120.97C161.329 120.97 162.4 120.997 163.497 120.997C173.159 120.997 183.141 120.756 192.642 120.274C193.124 124.155 193.606 128.143 194.141 132.184C182.365 132.05 169.679 131.435 157.743 130.525C158.653 127.581 159.509 124.423 160.259 120.97ZM164.514 73.6794C165.611 73.6794 166.735 73.7062 167.833 73.7062C174.55 73.7062 181.455 73.5991 188.253 73.3582C188.307 76.1416 188.467 79.5138 188.762 83.341C180.679 83.6621 172.382 83.7959 164.38 83.7692C164.461 80.5308 164.514 77.2122 164.514 73.6794ZM308.126 73.7062C309.25 73.7062 310.347 73.7062 311.445 73.6794C311.445 77.1854 311.498 80.5308 311.605 83.7424C303.603 83.7692 295.306 83.6354 287.224 83.3142C287.518 79.487 287.679 76.1416 287.732 73.3315C294.504 73.5991 301.408 73.7062 308.126 73.7062ZM318.216 130.525C306.279 131.435 293.62 132.05 281.818 132.184C282.326 128.116 282.835 124.128 283.316 120.274C292.844 120.756 302.827 120.997 312.462 120.997C313.559 120.997 314.63 120.997 315.7 120.97C316.449 124.423 317.306 127.581 318.216 130.525ZM277.321 167.271C277.803 163.524 278.285 159.777 278.767 156.03C294.075 154.745 311.284 152.444 326.619 149.794C328.145 152.444 329.724 154.853 331.303 157.181C314.175 161.249 294.236 165.076 277.321 167.271ZM346.023 181.776C326.084 190.207 295.975 197.406 273.173 201.153C273.548 197.781 273.976 194.328 274.377 190.849C295.092 186.915 321.481 179.823 341.848 173.132C343.373 175.781 344.765 178.618 346.023 181.776ZM269.185 307.189C274.538 307.43 280.346 307.591 286.394 307.591C295.066 307.591 304.112 307.27 312.783 306.6C308.554 308.474 303.978 309.946 299.053 311.043C298.893 311.043 298.625 311.016 298.197 310.99C297.555 310.99 296.645 310.883 295.574 310.883C294.504 310.883 293.246 310.776 291.907 310.776C290.569 310.776 289.151 310.722 287.706 310.642C286.287 310.642 284.842 310.588 283.504 310.508C282.166 310.428 280.908 310.454 279.837 310.401C278.767 310.347 277.857 310.374 277.214 310.347C276.572 310.347 276.197 310.347 276.197 310.347C276.197 310.347 276.545 310.481 277.134 310.695C277.75 310.883 278.606 311.204 279.677 311.418C280.747 311.632 282.005 311.953 283.343 312.114C284.708 312.274 286.153 312.408 287.625 312.488C289.017 312.488 290.409 312.462 291.693 312.381C286.02 313.184 279.971 313.559 273.521 313.559C271.434 313.559 270.042 311.338 269.185 307.189ZM198.182 293.995C201.608 293.995 204.873 293.941 207.978 293.861C207.924 296.671 207.79 299.187 207.576 301.435C190.501 302.265 168.769 301.944 151.427 299.642C147.6 296.698 144.174 293.219 141.15 289.178C157.904 292.63 179.93 293.995 198.182 293.995ZM124.235 214.535C124.342 209.958 124.637 205.837 125.092 202.063C146.743 211.51 180.974 219.539 205.114 223.206C205.382 226.23 205.623 229.094 205.837 231.851C180.706 229.388 145.057 223.019 124.235 214.535ZM350.894 202.063C351.349 205.837 351.643 209.985 351.75 214.535C330.928 223.019 295.28 229.388 270.149 231.851C270.363 229.094 270.604 226.204 270.871 223.206C295.012 219.539 329.242 211.51 350.894 202.063ZM267.928 288.107C267.928 285.779 267.954 283.316 268.008 280.72C290.703 280.56 322.123 278.151 343.855 272.477C342.517 275.983 340.991 279.248 339.305 282.246C320.33 287.197 289.633 288.749 267.928 288.107ZM351.777 220.69C351.75 224.464 351.67 228.157 351.483 231.663C331.009 239.692 294.958 245.152 269.292 247.025C269.373 245.446 269.426 243.867 269.507 242.235C269.56 240.763 269.64 239.237 269.747 237.658C294.477 235.276 329.831 229.067 351.777 220.69ZM269.025 252.753C294.129 250.986 329.43 245.714 351.028 237.926C350.733 241.619 350.332 245.152 349.823 248.551C329.296 256.018 293.941 260.728 268.623 262.093C268.757 259.096 268.891 255.964 269.025 252.753ZM268.409 267.82C292.978 266.509 327.128 262.066 348.726 255.001C347.977 258.855 347.093 262.495 346.076 265.92C325.602 271.969 292.362 274.832 268.168 275.02C268.222 272.691 268.302 270.309 268.409 267.82ZM266.295 212.34L251.441 188.655C259.015 186.861 265.171 183.73 270.015 180.331C268.623 191.518 267.339 202.357 266.295 212.34ZM224.357 202.009C224.464 200.992 224.624 199.922 224.865 198.851C225.187 197.808 225.561 196.791 225.989 195.854C226.418 194.917 226.953 194.141 227.408 193.472C227.863 192.803 228.371 192.321 228.693 191.973C229.04 191.652 229.228 191.465 229.228 191.465C229.228 191.465 229.147 191.732 228.987 192.161C228.8 192.589 228.612 193.231 228.345 193.954C228.05 194.676 227.836 195.56 227.488 196.443C227.167 197.353 226.899 198.316 226.659 199.306C226.364 200.27 226.123 201.26 225.963 202.224C225.802 203.16 225.561 204.043 225.481 204.82C225.374 205.596 225.213 206.238 225.16 206.72C225.079 207.175 225.026 207.442 225.026 207.442C225.026 207.442 224.946 207.175 224.812 206.72C224.705 206.265 224.491 205.596 224.437 204.793C224.357 203.99 224.277 203.027 224.357 202.009ZM189.591 307.591C195.64 307.591 201.421 307.43 206.8 307.189C205.917 311.338 204.525 313.559 202.438 313.559C194.73 313.559 187.584 312.997 180.974 311.846C181.562 311.9 182.124 311.926 182.713 311.98C184.908 312.033 187.076 312.087 189.136 312.141C191.197 312.167 193.097 312.06 194.73 312.007C196.362 311.953 197.727 311.793 198.691 311.712C199.654 311.605 200.19 311.552 200.19 311.552C200.19 311.552 199.654 311.471 198.691 311.364C197.727 311.284 196.389 311.07 194.757 310.963C193.124 310.856 191.224 310.615 189.19 310.535C187.156 310.401 184.988 310.267 182.82 310.133C180.652 310.053 178.458 309.946 176.424 309.866C174.764 309.785 173.239 309.785 171.82 309.759C168.796 308.875 165.933 307.832 163.203 306.6C171.874 307.27 180.92 307.591 189.591 307.591ZM237.739 184.613C226.284 184.613 217.425 181.268 210.868 177.2C210.199 173.159 209.369 166.495 209.476 159.161C220.101 168.662 236.079 172.784 252.779 171.928C256.045 171.767 258.855 171.499 261.317 171.232C261.826 173.185 262.361 175.674 262.655 178.404C256.366 181.883 248.123 184.613 237.739 184.613ZM212.046 184.292C215.659 186.139 219.807 187.691 224.464 188.762L214.508 204.606C213.571 195.372 212.688 188.735 212.046 184.292ZM236.829 238.086C236.829 239.184 236.668 240.201 236.614 241.084C236.561 241.967 236.374 242.69 236.32 243.198C236.213 243.707 236.159 244.001 236.159 244.001C236.159 244.001 236.079 243.707 235.972 243.198C235.892 242.69 235.678 241.967 235.571 241.084C235.464 240.201 235.276 239.184 235.223 238.086C235.169 236.989 235.089 235.812 235.009 234.661C235.035 233.483 235.035 232.332 235.062 231.235C235.062 230.138 235.223 229.121 235.276 228.238C235.33 227.354 235.517 226.632 235.571 226.123C235.678 225.615 235.731 225.32 235.731 225.32C235.731 225.32 235.812 225.615 235.945 226.123C236.026 226.632 236.24 227.354 236.347 228.238C236.454 229.121 236.641 230.138 236.695 231.235C236.748 232.332 236.829 233.51 236.909 234.661C236.855 235.812 236.829 236.989 236.829 238.086ZM231.101 207.228C231.155 206.104 231.181 205.435 231.181 205.435C231.181 205.435 231.289 206.077 231.449 207.202C231.583 208.326 231.851 209.931 232.038 211.858C232.225 213.785 232.52 216.033 232.653 218.442C232.814 220.851 233.001 223.447 233.162 226.016C233.242 228.585 233.349 231.181 233.43 233.59C233.51 235.999 233.456 238.274 233.483 240.228C233.51 242.154 233.403 243.787 233.376 244.911C233.323 246.035 233.296 246.704 233.296 246.704C233.296 246.704 233.189 246.062 233.028 244.938C232.894 243.814 232.627 242.208 232.439 240.281C232.252 238.354 231.984 236.106 231.797 233.697C231.636 231.289 231.449 228.693 231.289 226.123C231.208 223.554 231.101 220.958 231.021 218.549C230.914 216.141 230.994 213.866 230.967 211.912C230.967 209.985 231.074 208.352 231.101 207.228ZM199.413 57.1664C216.167 51.225 248.899 56.9256 258.534 58.7455C263.619 59.709 269.56 60.5118 274.458 63.2685C275.073 64.7405 275.261 66.373 275.395 67.9788C277.562 94.0195 275.983 116.956 270.764 142.568C269.988 143.799 269.185 145.03 268.302 146.208C265.278 150.276 261.718 153.916 257.704 157.047C255.697 158.599 253.609 160.018 251.415 161.302C250.585 161.784 249.033 162.346 247.694 162.989C246.704 163.256 245.687 163.497 244.67 163.711L239.077 160.633L232.52 163.791C218.014 161.222 206.613 149.928 202.277 145.03C198.691 118.347 195.667 70.6819 199.012 57.5679C199.173 57.4341 199.28 57.3003 199.413 57.1664ZM216.462 225.909C216.114 221.547 215.766 217.532 215.418 213.812L220.021 206.452C223.741 219.245 225.775 210.333 227.943 226.257C229.174 235.383 229.014 241.218 228.612 244.697C225.079 238.702 220.931 232.118 216.462 225.909ZM247.347 244.75C246.918 241.271 246.758 235.437 248.016 226.311C250.183 210.36 252.217 219.272 255.938 206.506L264.234 219.754C257.945 227.542 252.11 236.614 247.347 244.75ZM277.776 293.995C296.029 293.995 318.055 292.63 334.809 289.178C331.785 293.219 328.359 296.698 324.532 299.642C307.189 301.917 285.431 302.265 268.383 301.435C268.195 299.187 268.061 296.671 267.981 293.861C271.086 293.941 274.351 293.995 277.776 293.995ZM366.443 209.744C367.219 210.681 367.996 211.644 368.772 212.608C370.351 214.615 371.983 216.649 373.455 218.71C374.205 219.727 374.954 220.744 375.623 221.788C376.319 222.885 376.801 223.5 377.523 224.839L378.594 226.712C378.621 226.766 378.674 226.846 378.728 226.899C375.596 225.615 372.652 224.384 370.03 223.26C368.611 222.751 367.3 222.269 366.042 221.814C366.256 217.265 366.363 213.197 366.443 209.744ZM350.037 196.175C329.51 205.515 295.681 213.518 271.434 217.318C271.755 213.999 272.129 210.574 272.504 207.041C295.681 203.321 326.941 195.934 347.896 187.183C348.726 189.939 349.449 192.91 350.037 196.175ZM279.516 150.249C280.051 146.101 280.587 141.979 281.095 137.911C293.727 137.778 307.377 137.135 320.116 136.118C321.267 139.169 322.498 141.926 323.756 144.495C309.464 146.904 293.701 149.018 279.516 150.249ZM286.742 89.0148C294.316 89.3092 302.051 89.4698 309.571 89.4698C310.321 89.4698 311.07 89.4698 311.819 89.4698C311.98 93.0025 312.221 96.3479 312.515 99.506C303.71 99.5328 294.584 99.3454 285.779 98.9707C286.153 95.438 286.474 92.1193 286.742 89.0148ZM164.139 89.4698C164.889 89.4698 165.638 89.4698 166.388 89.4698C173.908 89.4698 181.643 89.3092 189.217 89.0148C189.484 92.1193 189.832 95.438 190.207 98.9707C181.402 99.3454 172.275 99.5328 163.47 99.506C163.738 96.3479 163.952 92.9757 164.139 89.4698ZM155.843 136.118C168.582 137.135 182.258 137.778 194.864 137.911C195.372 141.979 195.907 146.101 196.443 150.249C182.258 149.018 166.468 146.904 152.176 144.468C153.461 141.926 154.692 139.169 155.843 136.118ZM203.455 207.068C203.856 210.601 204.204 214.026 204.525 217.345C180.278 213.544 146.476 205.542 125.921 196.202C126.51 192.937 127.233 189.966 128.062 187.209C149.018 195.934 180.278 203.348 203.455 207.068ZM206.238 237.658C206.345 239.237 206.425 240.763 206.479 242.235C206.559 243.841 206.613 245.446 206.693 247.025C181.054 245.179 145.004 239.692 124.503 231.663C124.316 228.157 124.235 224.491 124.209 220.69C146.154 229.067 181.482 235.276 206.238 237.658ZM206.934 252.753C207.068 255.964 207.202 259.069 207.335 262.093C182.017 260.728 146.663 256.018 126.135 248.551C125.627 245.179 125.252 241.619 124.931 237.926C146.529 245.714 181.83 250.986 206.934 252.753ZM207.549 267.82C207.63 270.283 207.737 272.691 207.79 274.993C183.623 274.806 150.356 271.969 129.882 265.893C128.865 262.468 127.982 258.828 127.233 254.974C148.831 262.093 183.008 266.536 207.549 267.82ZM207.951 280.72C208.004 283.316 208.031 285.779 208.031 288.107C186.326 288.749 155.629 287.17 136.653 282.246C134.967 279.222 133.442 275.983 132.104 272.477C153.836 278.151 185.256 280.56 207.951 280.72ZM218.63 275.261C218.924 275.716 219.245 276.197 219.539 276.626C220.128 277.536 220.664 278.392 221.199 279.222C221.681 280.078 222.136 280.881 222.564 281.657C223.447 283.183 224.196 284.521 224.651 285.672C225.722 287.946 226.337 289.258 226.337 289.258C226.337 289.258 225.856 287.893 224.999 285.511C224.598 284.307 223.955 282.915 223.206 281.309C222.831 280.506 222.43 279.65 222.002 278.767C221.52 277.91 220.985 277 220.449 276.064C219.887 275.073 219.272 274.056 218.63 273.013C218.522 264.448 218.228 255.268 217.827 246.49C219.031 248.364 220.101 249.916 220.797 251.04C221.547 252.164 221.975 252.833 221.975 252.833C221.975 252.833 221.654 252.11 221.118 250.879C220.53 249.648 219.754 247.855 218.63 245.821C218.335 245.286 218.041 244.697 217.72 244.135C217.586 241.753 217.452 239.425 217.318 237.15C226.685 251.575 233.778 266.134 235.196 269.105V310.053C234.072 307.885 232.921 305.717 231.77 303.576C228.693 297.956 225.534 292.389 222.135 286.929C221.011 285.11 219.861 283.316 218.683 281.497C218.656 279.489 218.63 277.402 218.63 275.261ZM240.816 269.105C242.529 265.546 252.539 245.018 264.796 228.291C264.609 230.486 264.475 232.546 264.314 234.58C264.047 235.009 263.806 235.437 263.538 235.838C262.414 237.685 261.585 239.318 260.996 240.442C260.434 241.566 260.113 242.235 260.113 242.235C260.113 242.235 260.541 241.646 261.317 240.629C262.013 239.692 263.003 238.354 264.181 236.775C264.074 238.568 263.967 240.335 263.886 241.994L263.645 247.561C263.351 254.011 263.11 259.899 262.896 265.278C261.879 266.723 260.862 268.142 259.899 269.56C257.302 273.387 255.054 277.054 253.154 280.212C251.227 283.37 249.809 286.073 248.765 287.973C247.775 289.873 247.186 290.971 247.186 290.971C247.186 290.971 247.882 289.954 249.059 288.161C250.237 286.367 251.977 283.825 254.037 280.774C256.071 277.696 258.587 274.244 261.237 270.47C261.718 269.774 262.28 269.052 262.789 268.356C262.735 270.176 262.655 271.969 262.602 273.655C261.397 275.368 260.22 277.107 259.069 278.82C257.302 281.497 255.563 284.2 253.877 286.929C252.164 289.633 250.558 292.416 248.952 295.199C247.347 297.983 245.794 300.766 244.242 303.576C243.064 305.717 241.94 307.885 240.816 310.053V269.105ZM275.127 184.881C275.609 181 276.09 177.066 276.599 173.132C294.744 170.83 316.53 166.628 334.809 162.239C336.174 164.193 337.512 166.12 338.797 168.1C319.393 174.417 294.851 181.027 275.127 184.881ZM283.986 114.574C284.387 111.175 284.788 107.829 285.136 104.645C293.647 105.019 302.452 105.207 311.016 105.207C311.712 105.207 312.408 105.207 313.104 105.207C313.532 108.793 314.014 112.138 314.576 115.243C304.486 115.296 293.995 115.082 283.986 114.574ZM162.855 105.207C163.551 105.207 164.246 105.207 164.942 105.207C173.48 105.207 182.285 105.019 190.822 104.645C191.17 107.829 191.572 111.148 191.973 114.574C181.991 115.082 171.473 115.296 161.41 115.27C161.945 112.138 162.453 108.793 162.855 105.207ZM141.176 162.239C159.456 166.655 181.241 170.857 199.387 173.132C199.895 177.093 200.377 181 200.859 184.881C181.134 181.027 156.565 174.39 137.189 168.1C138.473 166.12 139.812 164.193 141.176 162.239ZM64.6334 391.226C64.794 391.146 64.9546 391.039 65.1151 390.932C66.6942 389.968 67.9788 388.71 67.9788 388.71C67.9788 388.71 66.3998 389.567 64.7137 390.049C64.0446 390.263 63.3755 390.396 62.8135 390.504C61.2077 389.487 59.3343 388.095 57.22 386.435C55.8015 385.311 54.2492 384.054 52.5364 382.769C50.7432 381.431 49.0304 380.307 47.6119 378.915C46.14 377.55 45.2568 375.998 44.7215 374.178C44.213 372.358 44.1059 370.137 44.32 367.996C44.4806 365.854 44.9624 363.713 45.7117 361.679C46.1132 360.662 46.5146 359.726 47.0231 358.735C47.5584 357.692 48.0937 356.648 48.6022 355.631C49.6727 353.624 50.6362 351.697 51.6532 349.984C52.697 348.298 53.7407 346.799 54.9183 345.595C57.2735 343.186 59.9766 341.767 61.8768 340.831C62.8403 340.349 63.6164 340.001 64.1517 339.787C64.6869 339.546 64.9546 339.412 64.9546 339.412C64.9546 339.412 64.6334 339.439 64.0714 339.466C63.4826 339.493 62.6262 339.573 61.5289 339.733C59.4681 340.055 56.3635 340.697 53.1519 342.811C54.4633 341.66 55.9353 340.483 57.5947 339.252C60.5386 337.111 63.8305 336.388 66.8815 336.388C72.6624 336.388 77.5868 338.931 77.5868 338.931C77.5868 338.931 81.1464 339.305 86.0441 340.456C85.8032 340.75 85.5623 341.045 85.3482 341.313C85.2947 341.446 85.2411 341.553 85.1876 341.687C84.5988 342.544 83.9565 343.614 83.4212 344.979C82.7254 346.96 82.2972 349.529 82.6986 352.285C83.2071 354.989 84.5453 357.799 86.7399 359.967C88.6401 361.626 90.8347 362.589 92.8687 363.339C92.8955 363.365 92.8955 363.366 92.8955 363.366C93.2969 363.713 93.7251 364.061 94.1801 364.463C94.6351 364.837 94.983 365.292 95.0633 365.587C95.1436 365.721 95.09 365.721 95.09 365.774C95.1168 366.122 95.0365 366.577 94.9295 366.925C93.6716 367.701 92.3602 368.21 91.1558 368.558C91.0488 368.558 90.9417 368.584 90.8079 368.584C90.5938 368.558 90.3797 368.504 90.1388 368.451C90.2994 368.103 90.46 367.728 90.5938 367.326C91.022 366.042 91.022 364.73 91.022 364.73C91.022 364.73 90.5403 365.935 89.7374 366.871C89.3627 367.326 88.9613 367.674 88.6401 367.969C88.3189 367.862 87.9978 367.781 87.6766 367.701C87.5963 367.621 87.516 367.567 87.409 367.514C85.5623 366.283 83.5818 365.052 81.8154 363.66C79.942 362.456 78.0418 361.064 76.9981 359.699C75.7134 358.28 75.1781 356.621 74.8838 354.882C74.4555 353.195 74.1611 351.697 73.947 350.68C73.6526 349.663 73.4653 349.074 73.4653 349.074C73.4653 349.074 73.3582 349.663 73.1709 350.706C73.0638 351.75 72.823 353.195 72.6624 355.042C72.6624 355.952 72.6624 356.996 72.8765 358.147C73.0906 359.297 73.5456 360.502 74.1611 361.599C75.6866 363.874 77.6136 365.346 79.5406 366.871C81.6013 368.236 83.7156 369.334 85.6426 370.431C86.2582 370.725 86.8202 370.993 87.409 371.287C88.1316 376.265 85.6158 377.791 83.7692 378.219C84.0368 377.844 84.3312 377.416 84.5721 376.961C85.3482 375.596 85.6426 374.098 85.6426 374.098C85.6426 374.098 84.8665 375.409 83.7959 376.372C83.1536 376.988 82.431 377.443 81.976 377.737C81.0928 376.961 80.1829 376.132 79.2194 375.248C77.4798 373.857 75.6064 372.385 73.7597 370.913C71.7792 369.575 69.879 368.317 68.407 366.925C66.8012 365.64 65.6236 364.195 64.9546 362.723C64.1249 361.305 63.8573 359.913 63.8305 358.896C63.7502 357.879 63.8573 357.263 63.8573 357.263C63.8573 357.263 63.4826 357.745 63.0544 358.789C62.7064 359.833 62.4656 361.492 62.8403 363.446C63.2952 365.373 64.4193 367.487 65.9716 369.334C67.6041 371.1 69.5846 372.626 71.4313 374.098C73.385 375.436 75.3655 376.747 77.2122 378.005C78.7377 378.915 80.1294 379.718 81.414 380.494C80.2899 384 78.363 385.418 76.6234 385.927C77.0248 385.606 77.453 385.204 77.8277 384.776C79.1659 383.331 79.8617 381.591 79.8617 381.591C79.8617 381.591 78.7109 383.117 77.1854 384.054C75.8205 384.99 74.295 385.365 74.0541 385.418C73.1174 384.723 72.1271 384 71.1101 383.224C69.1296 381.912 67.0153 380.521 64.901 379.129C62.7064 377.898 60.6457 376.694 59.1737 375.222C57.6214 373.883 56.5776 372.117 56.0424 370.458C55.3465 368.825 55.1592 367.273 55.1592 366.202C55.0789 365.105 55.1592 364.436 55.1592 364.436C55.1592 364.436 54.8113 364.998 54.4098 366.069C54.0619 367.166 53.714 368.852 53.9013 370.94C54.1689 372.974 54.9986 375.409 56.7115 377.55C58.4778 379.584 60.7795 381.11 62.8938 382.501C65.1151 383.732 67.3097 384.99 69.3973 386.141C70.441 386.65 71.4848 387.158 72.4483 387.64C71.806 388.791 70.5481 390.182 67.9788 390.771C66.7209 391.092 65.6504 391.226 64.6334 391.226ZM105.207 333.498C105.715 334.22 106.304 334.97 106.946 335.746L97.6326 346.317L103.975 342.865L93.9125 353.49L105.126 346.023L95.1703 354.641C94.4745 355.256 93.5645 355.551 92.6278 355.47C91.6911 355.39 90.8347 354.989 90.2459 354.266L88.6401 352.419C88.0245 351.723 87.7301 350.814 87.8104 349.877C87.8907 348.94 88.2922 348.084 89.0148 347.495L105.207 333.498ZM118.909 302.934C118.909 302.934 120.06 302.345 121.238 302.345C121.88 302.345 122.549 302.533 123.058 303.095C124.423 304.7 122.335 307.243 122.335 307.243L123.727 308.875C123.727 308.875 127.019 309.357 131.863 315.031C136.734 320.705 136.68 324.023 136.68 324.023L138.072 325.656C138.072 325.656 139.357 324.907 140.614 324.907C141.23 324.907 141.819 325.094 142.274 325.602C143.639 327.208 141.792 329.697 141.792 329.697L143.773 331.999C143.773 331.999 144.656 331.758 145.86 331.758C147.198 331.758 148.911 332.079 150.115 333.471L137.804 344.016L130.204 350.519C128.758 349.422 127.045 347.655 127.099 345.648L140.936 330.554L124.53 344.444C123.486 343.935 121.559 342.677 120.943 340.403L137.296 326.298L118.963 338.476C118.909 338.502 118.829 338.529 118.776 338.583C111.362 333.605 107.696 326.539 106.625 324.184L121.559 307.912L105.26 321.722C103.039 320.972 101.995 319.045 101.54 317.814L117.946 303.683L101.326 314.71C99.1313 314.87 97.4987 312.97 96.5085 311.257L104.163 304.7L116.474 294.156C118.695 296.752 116.929 300.632 116.929 300.632L118.909 302.934ZM104.778 350.091C104.912 350.359 105.153 350.706 105.287 351.188C105.421 351.67 105.608 352.232 105.608 352.874C105.608 353.49 105.581 354.186 105.501 354.855C105.314 355.497 105.1 356.139 104.859 356.728C104.591 357.317 104.216 357.772 103.895 358.147C103.601 358.548 103.226 358.789 103.012 358.976C102.771 359.137 102.611 359.244 102.611 359.244C102.611 359.244 102.637 359.083 102.691 358.789C102.771 358.521 102.825 358.093 102.958 357.665C103.119 357.237 103.146 356.701 103.306 356.166C103.467 355.631 103.574 355.069 103.654 354.48C103.815 353.918 103.922 353.356 103.975 352.794C104.029 352.259 104.19 351.723 104.216 351.268C104.27 350.814 104.377 350.412 104.404 350.144C104.457 349.85 104.484 349.689 104.484 349.689C104.484 349.689 104.591 349.85 104.778 350.091ZM66.935 330.821C62.1444 330.821 57.9158 332.133 54.3563 334.756C45.6047 341.152 41.0549 346.933 37.4954 356.113C36.0502 359.833 35.0332 362.723 34.4711 365.373C32.3836 362.857 29.7876 360.341 26.8436 358.869C27.4592 354.453 30.2693 344.042 43.3833 335.05C53.2322 328.279 62.6797 328.439 69.8522 330.982C68.8888 330.902 67.9253 330.821 66.935 330.821ZM172.837 366.015C172.061 358.655 170.616 351.429 168.475 344.497C169.117 351.723 169.037 358.95 168.288 366.015C154.237 366.015 141.31 366.015 133.174 366.015C133.067 365.025 132.88 363.312 132.612 360.93C132.398 358.976 132.104 356.594 131.863 353.972L136.306 350.171C136.306 350.787 136.279 351.349 136.279 351.831C136.306 353.062 136.306 353.784 136.306 353.784C136.306 353.784 136.439 353.088 136.627 351.857C136.707 351.215 136.868 350.439 137.028 349.556L140.186 346.853L152.497 336.308C154.076 334.97 154.264 332.614 152.899 331.035C151.32 329.189 149.098 328.172 146.395 328.038C146.636 326.352 146.315 324.612 145.084 323.167C144.816 322.846 144.522 322.578 144.201 322.337C144.843 320.517 145.459 318.831 146.074 317.359C146.877 315.406 147.519 313.773 148.028 312.649C148.51 311.498 148.777 310.856 148.777 310.856C148.777 310.856 148.376 311.445 147.707 312.488C147.064 313.532 146.101 315.031 145.137 316.931C144.415 318.323 143.612 319.902 142.863 321.615C142.167 321.347 141.417 321.187 140.588 321.187C140.347 321.187 140.079 321.213 139.838 321.213C139.383 319.795 138.5 317.868 136.948 315.593C137.055 314.335 137.135 313.077 137.215 311.846C137.456 307.484 137.644 303.282 138.152 299.107C138.313 297.795 138.5 296.484 138.714 295.199C139.035 295.574 139.33 295.975 139.651 296.323C140.347 297.126 141.096 297.902 141.846 298.652C151.213 311.846 160.58 319.393 173.185 322.605C173.426 324.853 173.64 327.021 173.774 328.975C174.095 332.641 174.363 335.692 174.55 337.807C174.738 339.948 174.845 341.179 174.845 341.179C174.845 341.179 174.871 339.948 174.898 337.807C174.898 335.665 174.952 332.588 174.818 328.921C174.764 327.074 174.684 325.067 174.604 322.953C179.207 323.997 184.212 324.505 189.805 324.505C195.345 324.505 199.788 323.89 203.374 322.846C203.374 324.157 203.374 325.495 203.374 326.807C203.455 329.563 203.535 332.32 203.615 334.916C203.696 337.512 203.91 339.921 204.017 341.982C204.124 344.042 204.338 345.782 204.445 346.986C204.579 348.191 204.659 348.887 204.659 348.887C204.659 348.887 204.713 348.191 204.82 346.986C204.873 345.782 205.034 344.042 205.087 341.982C205.141 339.921 205.275 337.485 205.275 334.889C205.275 332.293 205.275 329.537 205.275 326.78C205.221 325.281 205.194 323.756 205.141 322.284C206.238 321.882 207.255 321.454 208.165 320.972C208.165 323.221 208.165 325.495 208.192 327.77C208.406 337.619 208.593 347.468 208.754 354.935H184.025H183.757L183.489 355.015L174.015 366.015C173.614 366.015 173.212 366.015 172.837 366.015ZM210.975 327.663C210.761 324.96 210.547 322.284 210.386 319.634C217.265 314.87 217.96 307.564 217.96 302.345C218.228 299.401 218.415 295.654 218.522 291.372L222.323 297.902C223.875 300.659 225.401 303.416 226.899 306.199C229.79 311.578 232.546 317.038 235.142 322.498V354.989H213.437C212.768 347.495 211.858 337.566 210.975 327.663ZM240.816 322.471C243.412 317.011 246.196 311.552 249.059 306.172C252.03 300.606 255.188 295.119 258.4 289.686C259.684 287.491 261.023 285.35 262.361 283.209C262.173 295.601 262.575 304.031 263.993 309.625C264.047 315.245 263.913 321.454 263.645 327.663C263.137 337.566 262.628 347.495 262.227 354.962H240.79V322.471H240.816ZM266.456 327.663C266.348 323.194 266.134 318.724 265.867 314.469C266.322 315.245 266.803 315.914 267.366 316.476C269.025 318.216 271.219 319.179 273.548 319.179C273.896 319.179 274.244 319.152 274.592 319.152C278.847 320.089 284.2 320.812 287.545 320.785C288.375 320.785 289.204 320.758 290.034 320.732C289.873 323.461 289.766 326.031 289.713 328.386C289.606 332.347 289.74 335.665 289.847 337.994C289.98 340.296 290.061 341.634 290.061 341.634C290.061 341.634 290.114 340.322 290.221 337.994C290.275 335.692 290.489 332.374 290.783 328.439C290.917 326.084 291.185 323.461 291.479 320.705C297.688 320.571 303.897 320.277 309.973 319.072C309.866 319.688 309.759 320.33 309.678 320.946C309.197 323.836 308.902 326.539 308.554 328.868C308.233 331.196 308.073 333.123 307.912 334.488C307.778 335.853 307.725 336.629 307.725 336.629C307.725 336.629 307.939 335.88 308.287 334.541C308.608 333.203 309.116 331.33 309.625 329.028C310.107 326.727 310.749 324.077 311.311 321.213C311.471 320.384 311.632 319.527 311.793 318.671C312.274 318.564 312.729 318.457 313.211 318.35C321.615 316.182 329.43 311.9 335.906 306.146C335.88 306.708 335.88 307.243 335.826 307.832C335.719 310.026 335.532 312.381 335.532 314.87C335.532 317.359 335.799 319.902 336.201 322.337L336.602 324.211C336.736 324.826 336.897 325.495 337.03 325.95C337.325 326.994 337.619 328.038 337.914 329.082C338.449 330.928 338.904 332.721 339.198 334.461C339.814 337.967 340.001 341.259 339.894 344.417C339.653 350.68 338.636 356.434 338.181 360.502C337.94 362.563 337.753 364.195 337.646 365.292C337.619 365.56 337.592 365.801 337.566 365.988H310.321C310.294 361.358 310.347 352.66 311.07 343.962C312.007 331.196 314.362 318.537 314.362 318.537C314.362 318.537 310.642 330.848 308.287 343.587C306.574 352.393 305.53 361.331 305.048 365.988H300.204L290.73 354.989L290.462 354.908H290.195H266.991C266.83 347.468 266.643 337.566 266.456 327.663ZM304.674 385.472C304.593 384.535 304.54 383.759 304.406 383.251C304.299 382.715 304.112 382.448 304.112 382.475C304.112 382.448 304.379 382.689 304.566 383.224C304.754 383.732 304.995 384.509 305.155 385.445C305.316 386.382 305.45 387.479 305.53 388.657C305.61 389.834 305.637 391.092 305.664 392.35C305.664 394.866 305.476 397.382 305.155 399.255C304.995 400.192 304.781 400.968 304.566 401.476C304.379 402.012 304.112 402.226 304.112 402.226C304.138 402.226 304.299 401.985 304.406 401.45C304.54 400.914 304.593 400.138 304.674 399.228C304.807 397.355 304.807 394.893 304.807 392.377C304.781 389.808 304.807 387.319 304.674 385.472ZM307.671 405.357C307.377 406.107 306.975 406.428 306.975 406.401C306.975 406.401 307.055 406.321 307.136 406.133C307.216 405.946 307.296 405.652 307.377 405.277C307.537 404.527 307.591 403.403 307.671 402.092C307.778 399.442 307.778 395.91 307.778 392.35C307.778 390.584 307.778 388.791 307.778 387.131C307.778 385.472 307.751 383.92 307.698 382.582C307.618 381.27 307.564 380.146 307.403 379.397C307.323 379.022 307.27 378.728 307.163 378.54C307.082 378.353 307.002 378.273 307.002 378.273C307.002 378.246 307.377 378.567 307.698 379.316C307.992 380.066 308.367 381.136 308.635 382.475C308.902 383.813 309.116 385.392 309.25 387.078C309.411 388.764 309.437 390.557 309.464 392.35C309.437 394.143 309.411 395.936 309.25 397.623C309.116 399.309 308.902 400.888 308.635 402.199C308.367 403.51 307.992 404.608 307.671 405.357ZM328.011 386.007L319.152 377.282H335.05C331.865 380.146 329.59 383.277 328.011 386.007ZM392.591 352.018C402.681 350.305 411.486 351.483 416.758 355.31C420.264 357.825 422.405 361.599 423.181 366.524C424.68 376.265 423.663 383.518 422.619 387.747C419.649 389.674 417.16 391.36 415.179 392.645C413.627 393.635 412.423 394.438 411.566 394.946C411.004 395.267 410.63 395.508 410.415 395.615C413.761 386.355 416.999 371.876 412.476 365.159C408.007 358.521 398.613 355.122 383.732 354.801C383.063 354.775 382.448 354.801 381.886 354.828C385.338 353.65 388.871 352.66 392.591 352.018ZM12.552 341.848C10.4912 330.313 12.2308 307.725 13.1943 297.742C13.3549 296.19 13.5958 294.771 13.9437 293.487C14.6663 292.282 15.5227 291.051 16.513 289.847C17.6638 288.455 19.0555 287.144 20.5542 285.912C22.053 284.681 23.8193 283.664 25.6393 282.674C27.4592 281.711 29.4129 280.908 31.4469 280.292C33.4541 279.623 35.5417 279.088 37.6292 278.74C39.7168 278.392 41.8043 278.044 43.8383 277.91C47.9331 277.562 51.8673 277.536 55.2662 277.536C58.6652 277.562 61.5289 277.562 63.5629 277.536C65.5701 277.509 66.7477 277.455 66.7477 277.455C66.7477 277.455 65.6504 277.054 63.7234 276.438C61.7965 275.849 59.0131 275.02 55.6142 274.324C52.2152 273.601 48.1472 273.013 43.6777 272.959C41.4564 272.959 39.128 273.013 36.7728 273.387C35.7023 273.548 34.605 273.762 33.5077 273.976C34.257 271.541 35.3008 268.65 37.6827 265.385C39.0744 264.1 40.6535 262.682 42.4734 261.237C44.2665 259.818 46.2202 258.346 48.3613 256.874C50.4756 255.376 52.8575 253.984 55.2662 252.539C57.7017 251.093 60.3245 249.836 62.9741 248.497C65.6504 247.213 68.407 246.008 71.2172 244.884C74.0273 243.733 76.8642 242.69 79.7011 241.726C82.5648 240.816 85.3482 239.826 88.1048 239.023C93.5913 237.364 98.7834 235.945 103.253 234.688C107.722 233.456 111.469 232.359 114.065 231.583C116.661 230.753 118.16 230.272 118.16 230.272C118.16 230.272 116.608 230.298 113.878 230.486C111.148 230.646 107.267 230.941 102.637 231.529C98.0072 232.091 92.6011 232.948 86.847 234.259C85.5356 234.58 84.1706 234.902 82.8325 235.25C87.3019 231.262 90.8347 226.953 92.8955 222.778C97.017 214.374 108.284 201.902 115.109 197.058C115.939 196.469 116.742 195.934 117.571 195.399C118.561 194.944 119.552 194.543 120.595 194.141C120.221 196.175 119.873 198.343 119.578 200.618C119.311 200.805 119.043 200.939 118.776 201.153C117.357 202.143 115.885 203.241 114.413 204.338C113.021 205.542 111.63 206.747 110.372 207.924C109.114 209.102 108.043 210.306 107.134 211.323C106.197 212.34 105.528 213.277 105.019 213.919C104.538 214.561 104.27 214.936 104.27 214.936C104.27 214.936 104.645 214.642 105.26 214.16C105.876 213.652 106.786 212.929 107.829 212.072C108.873 211.216 110.104 210.199 111.416 209.129C112.7 208.031 114.119 206.88 115.537 205.783C116.795 204.739 118.053 203.696 119.284 202.759C118.776 207.496 118.508 212.768 118.508 218.683C118.508 248.417 123.218 270.898 132.853 286.929C131.702 290.435 130.712 294.049 129.936 297.715C129.294 300.793 128.785 303.897 128.384 306.922C127.875 306.601 127.393 306.333 126.965 306.119C127.447 304.272 127.233 302.265 125.841 300.632C124.717 299.321 123.084 298.572 121.238 298.572C121.452 296.377 121.077 293.808 119.284 291.693C118.535 290.837 117.491 290.382 116.447 290.382C115.591 290.382 114.734 290.676 114.012 291.292L110.104 294.637C109.596 286.1 110.211 277.857 111.496 271.219C112.433 266.188 113.637 262.066 114.547 259.176C115.51 256.312 116.126 254.706 116.126 254.706C116.126 254.706 115.243 256.178 113.771 258.855C112.352 261.531 110.399 265.465 108.525 270.39C105.367 278.526 102.744 289.606 102.129 301.462L101.701 301.81L89.3895 312.355C86.847 310.454 84.358 308.822 82.0563 307.537C78.6306 305.584 75.6331 304.299 73.5188 303.496C72.4751 303.068 71.6186 302.8 71.0566 302.613C70.4946 302.425 70.1734 302.318 70.1734 302.318C70.1734 302.318 70.441 302.479 70.9495 302.8C71.458 303.121 72.2074 303.576 73.1174 304.219C74.964 305.476 77.5066 307.377 80.2899 309.946C85.8835 315.004 92.039 322.98 96 331.785C96.3747 332.588 96.6958 333.391 97.0438 334.193L93.6181 337.137C92.5475 336.522 91.4502 336.04 90.3262 335.746C88.3992 335.21 86.6061 334.809 85.0003 334.461C78.4165 326.941 59.8695 316.851 40.1182 330.393C26.5224 339.733 22.5615 350.706 21.4374 356.701C16.7806 354.534 14.2381 351.215 12.552 341.848ZM166.789 381.698V378.273L183.998 356.996H237.096H290.195L305.396 376.48L168.609 378.299L260.916 378.969L247.025 379.156C237.15 379.316 227.247 379.37 217.372 379.584C207.496 379.798 197.594 379.959 187.718 380.28C197.594 380.601 207.496 380.762 217.372 380.976C227.247 381.217 237.15 381.27 247.025 381.404L261.852 381.591C266.803 381.672 271.728 381.672 276.679 381.698H276.706H172.061H170.295H166.789ZM238.541 403.457L204.659 403.912C193.365 404.18 182.071 404.34 170.777 404.715C182.071 405.09 193.365 405.25 204.659 405.518L231.824 405.892H166.789V403.323H252.485C247.855 403.35 243.198 403.403 238.541 403.457ZM299.053 393.956L194.837 395.267L299.053 396.579L194.837 397.89L299.08 399.202L173.025 400.513L247.293 401.289H172.061V383.732H273.307L172.998 384.776L299.053 386.088L194.837 387.399L299.053 388.71L194.837 390.022L299.08 391.333L194.837 392.645L299.053 393.956ZM320.277 398.854C320.946 396.552 323.836 395.481 326.379 394.973C326.031 395.749 325.683 396.498 325.335 397.275C324.371 399.871 323.515 402.601 322.578 404.849C322.551 404.902 322.525 404.982 322.498 405.036C321.16 403.698 319.527 401.45 320.277 398.854ZM372.331 415.795C371.957 415.233 371.796 414.457 371.769 413.627C372.197 413.788 372.572 413.788 372.866 413.868C373.375 413.948 373.91 414.002 374.472 414.028C375.623 414.028 376.961 413.681 377.871 412.985C378.808 412.316 379.343 411.406 379.771 410.683C380.173 409.96 380.333 409.265 380.494 408.81C380.601 408.355 380.681 408.087 380.681 408.087C380.681 408.087 380.494 408.301 380.173 408.649C379.878 409.024 379.423 409.505 378.915 410.094C378.433 410.683 377.737 411.218 377.015 411.647C376.292 412.101 375.462 412.235 374.499 412.182C374.044 412.209 373.562 412.182 373.081 412.155C372.545 412.128 372.144 412.048 372.144 412.021C372.117 412.048 372.064 411.941 372.064 411.78C372.411 410.522 373.081 409.184 374.124 407.98C374.633 407.819 375.543 407.605 376.506 407.525C377.978 407.391 379.504 407.712 379.504 407.712C379.504 407.712 378.139 406.963 376.56 406.615C376.265 406.535 375.971 406.481 375.677 406.454C377.55 404.822 379.263 402.547 380.681 400.326C381.484 400.138 382.876 399.871 384.348 399.844C386.596 399.764 388.844 400.299 388.844 400.299C388.844 400.299 386.757 399.309 384.401 398.934C383.706 398.8 383.01 398.72 382.367 398.693C382.689 398.452 382.983 398.185 383.304 397.944C384.428 396.927 385.606 395.99 386.783 395.241C387.907 394.357 389.005 393.635 390.022 393.1C390.985 392.457 391.868 392.002 392.511 391.708C393.126 391.36 393.528 391.173 393.528 391.173C393.528 391.173 393.126 391.092 392.377 391.039C391.654 391.012 390.611 391.066 389.326 391.226C388.095 391.52 386.676 391.949 385.231 392.591C383.839 393.314 382.421 394.224 381.056 395.214C380.307 395.91 379.584 396.606 378.888 397.328C377.55 398.506 375.971 400.058 374.205 401.958C369.2 407.391 367.888 417.106 362.054 417.802C360.609 417.963 359.351 418.07 358.28 418.07C354.935 418.07 353.222 417.187 353.329 415.099C353.329 414.912 353.436 414.644 353.57 414.323C353.757 414.43 353.972 414.537 354.159 414.59C354.641 414.751 355.042 414.831 355.497 414.912C356.434 415.072 357.451 415.206 358.521 415.152C359.592 415.045 360.662 414.724 361.572 414.162C362.509 413.6 363.044 412.744 363.419 412.075C363.794 411.379 363.928 410.763 364.061 410.335C364.168 409.907 364.222 409.666 364.222 409.666C364.222 409.666 364.061 409.853 363.767 410.175C363.499 410.522 363.044 410.977 362.589 411.486C362.134 412.021 361.492 412.449 360.796 412.771C360.1 413.118 359.244 413.306 358.361 413.306C357.478 413.413 356.541 413.386 355.658 413.306C355.015 413.252 354.427 413.279 354.052 413.226C354.667 412.021 355.604 410.442 356.648 408.81C357.13 408.622 358.066 408.355 359.11 408.355C360.609 408.301 362.081 408.917 362.081 408.917C362.081 408.917 360.85 407.873 359.217 407.445C358.709 407.284 358.173 407.204 357.692 407.15C359.19 404.902 360.716 402.788 361.733 401.664C362.215 401.129 362.723 400.433 363.258 399.71C363.66 399.255 364.035 398.827 364.436 398.345C365.426 396.98 366.47 395.508 367.567 394.25C367.594 394.197 367.648 394.17 367.674 394.117C368.611 394.009 370.137 393.902 371.716 394.09C374.258 394.357 376.64 395.481 376.64 395.481C376.64 395.481 374.499 393.956 371.903 393.207C370.886 392.885 369.815 392.698 368.905 392.591C369.521 391.895 370.163 391.226 370.859 390.664C371.983 389.567 373.188 388.657 374.312 387.988C375.382 387.212 376.372 386.676 377.068 386.328C377.764 385.927 378.192 385.713 378.192 385.713C378.192 385.713 377.737 385.659 376.908 385.659C376.078 385.713 374.9 385.82 373.509 386.168C372.144 386.596 370.565 387.265 369.013 388.202C367.514 389.219 366.042 390.584 364.784 392.056C363.66 393.608 362.723 395.214 361.867 396.659C361.813 396.766 361.76 396.873 361.679 397.007C360.529 398.64 359.271 400.459 358.013 402.172C354.105 407.498 349.797 415.313 345.675 417.026C344.257 417.615 342.785 417.936 341.473 417.936C339.011 417.936 337.057 416.785 336.843 414.109C336.843 414.082 336.843 414.055 336.843 414.028C337.298 414.376 337.807 414.59 338.262 414.751C338.957 414.965 339.546 415.126 340.269 415.286C341.634 415.527 343.427 415.447 344.631 414.43C345.809 413.493 346.237 412.235 346.612 411.325C346.986 410.389 347.174 409.613 347.441 409.104C347.655 408.569 347.843 408.274 347.843 408.274C347.843 408.274 347.575 408.462 347.147 408.89C346.746 409.345 346.21 410.014 345.702 410.844C345.193 411.673 344.497 412.556 343.694 413.118C342.892 413.681 341.821 413.707 340.617 413.44C339.412 413.226 337.967 412.985 337.539 412.449C337.164 412.102 337.191 411.352 337.378 410.576C337.833 409.318 338.583 407.926 339.733 406.347C340.349 406.294 341.098 406.267 341.875 406.321C343.587 406.428 345.273 406.99 345.273 406.99C345.273 406.99 343.802 405.999 342.062 405.437C341.607 405.277 341.179 405.143 340.724 405.063C341.205 404.474 341.741 403.885 342.33 403.243C345.22 400.165 349.101 395.508 351.188 391.949C351.242 391.949 351.295 391.922 351.349 391.922C352.232 391.761 353.463 391.654 354.694 391.761C355.925 391.868 357.156 392.163 358.04 392.511C358.923 392.832 359.485 393.153 359.485 393.153C359.485 393.153 358.976 392.752 358.147 392.27C357.317 391.761 356.113 391.226 354.828 390.878C353.865 390.611 352.874 390.477 351.991 390.423C352.125 390.156 352.232 389.915 352.312 389.674C352.339 389.647 352.366 389.62 352.419 389.567C353.65 388.229 354.989 386.971 356.3 385.873C357.558 384.723 358.789 383.652 359.94 382.849C361.01 381.912 361.974 381.217 362.67 380.735C363.339 380.2 363.74 379.905 363.74 379.905C363.74 379.905 363.258 379.959 362.402 380.066C361.572 380.226 360.368 380.548 358.95 381.003C357.558 381.538 356.032 382.341 354.4 383.277C352.874 384.348 351.295 385.579 349.85 386.917C348.512 388.389 347.281 389.915 346.183 391.44C345.22 393.019 344.39 394.545 343.775 395.856C343.721 395.99 343.668 396.097 343.641 396.231C340.188 400.54 336.228 405.625 335.157 407.873C333.712 410.924 332.695 414.805 329.376 414.805C328.787 414.805 328.118 414.671 327.342 414.403C326.164 413.975 325.362 413.306 324.826 412.53C324.693 412.289 324.559 412.048 324.452 411.78C324.291 411.432 324.184 411.031 324.104 410.656C324.157 410.683 324.184 410.71 324.238 410.71C324.88 410.977 325.522 411.084 326.111 411.192C326.7 411.299 327.396 411.406 328.172 411.299C329.831 410.951 330.714 409.639 331.357 408.756C332.052 407.793 332.481 406.776 332.829 405.919C333.203 405.063 333.337 404.287 333.444 403.778C333.524 403.243 333.578 402.948 333.578 402.948C333.578 402.948 333.417 403.216 333.123 403.671C332.855 404.126 332.4 404.742 331.919 405.464C331.437 406.214 330.768 406.99 330.072 407.819C329.403 408.676 328.627 409.452 327.824 409.505C327.021 409.666 325.576 409.479 324.773 409.238C324.532 409.158 324.318 409.05 324.157 408.917C324.371 408.114 324.853 407.231 325.442 406.214C325.977 405.09 326.486 403.939 326.967 402.788C327.262 402.761 327.583 402.734 327.904 402.708C329.376 402.627 330.875 403.002 330.875 403.002C330.875 403.002 329.563 402.199 328.038 401.798C327.851 401.744 327.663 401.691 327.476 401.664C327.904 400.674 328.306 399.657 328.761 398.666C329.697 396.07 330.661 393.555 331.731 391.253C332.052 390.477 332.374 389.727 332.695 389.005C332.748 388.898 332.802 388.817 332.855 388.71L332.882 388.817C332.882 388.817 334.461 388.336 336.201 388.577C337.94 388.764 339.546 389.701 339.546 389.701C339.546 389.701 338.262 388.389 336.442 387.693C335.558 387.319 334.622 387.131 333.872 387.051C335.505 384.616 337.78 381.939 340.858 379.691C347.843 374.579 354.4 368.29 356.246 366.497C358.013 365.988 359.592 365.962 362.001 365.935C363.125 365.908 364.409 365.908 365.935 365.828C371.207 365.587 373.883 363.928 376.051 362.589C378.059 361.358 379.691 360.368 383.545 360.448C385.445 360.502 387.238 360.582 388.951 360.743C387.426 360.876 386.088 361.117 384.99 361.358C382.608 361.92 381.35 362.509 381.35 362.509C381.35 362.509 382.689 362.777 385.017 363.258C387.292 363.794 390.477 364.623 393.742 366.229C396.98 367.808 400.352 370.297 402.413 373.562C402.547 373.75 402.681 373.964 402.788 374.178C402.815 374.258 402.788 374.258 402.788 374.312C402.788 374.365 402.734 374.445 402.708 374.472C402.654 374.847 402.413 375.81 402.038 376.827C401.584 377.978 401.129 379.156 400.674 380.333C400.433 380.976 400.165 381.672 399.924 382.475C399.683 383.251 399.416 384.054 399.255 385.579C399.228 385.9 399.228 385.954 399.228 386.168V386.409V386.89V386.998L399.255 387.854C399.255 388.416 399.255 388.978 399.228 389.54C399.175 390.637 399.068 391.735 398.907 392.752C398.559 394.812 397.89 396.713 396.953 398.613C396.017 400.486 394.812 402.253 393.501 403.858C392.859 404.661 392.19 405.437 391.52 406.187C390.932 406.856 390.289 407.471 389.594 408.06C386.783 410.389 383.759 412.182 381.886 413.681C379.959 415.099 379.022 416.143 378.995 416.17C377.47 416.571 376.078 416.812 374.954 416.812C373.75 416.812 372.786 416.491 372.331 415.795Z" fill="#3F3F3F"/>
<path d="M101.648 264.287C100.818 266.241 99.8814 268.543 99.0785 271.085C98.3023 273.628 97.5797 276.358 96.9642 279.141C96.4557 281.924 96.0542 284.735 95.7866 287.384C95.5457 290.034 95.4922 292.523 95.519 294.637C95.519 296.751 95.6795 298.518 95.7866 299.749C95.9204 300.98 96.0007 301.676 96.0007 301.676C96.0007 301.676 96.0542 300.98 96.1613 299.749C96.2148 298.518 96.4022 296.778 96.5895 294.691C96.7233 292.603 97.098 290.168 97.4192 287.598C97.7671 285.002 98.2488 282.272 98.8108 279.543C99.3461 276.813 99.9617 274.083 100.658 271.567C101.38 269.051 101.969 266.669 102.638 264.689C103.28 262.682 103.789 260.996 104.217 259.845C104.618 258.667 104.833 257.998 104.833 257.998C104.833 257.998 104.485 258.614 103.896 259.684C103.307 260.755 102.451 262.307 101.648 264.287Z" fill="#3F3F3F"/>
<path d="M59.013 303.014C56.2028 302.211 53.5265 301.703 51.1981 301.408C50.0472 301.221 48.9767 301.141 48.04 301.114C47.1033 301.06 46.2736 301.034 45.6045 301.034C44.2664 301.06 43.4902 301.06 43.4902 301.06C43.4902 301.06 44.2396 301.168 45.5778 301.382C46.2469 301.462 47.0498 301.596 47.9597 301.783C48.8697 301.944 49.9134 302.158 51.0107 302.425C53.2588 302.854 55.8014 303.683 58.5045 304.54C61.2075 305.45 64.0177 306.6 66.7208 307.939C69.4506 309.25 72.1002 310.722 74.4822 312.274C76.8373 313.88 79.0587 315.352 80.7983 316.851C81.6815 317.573 82.4844 318.242 83.207 318.858C83.9296 319.447 84.5452 319.982 85.0001 320.464C85.9904 321.374 86.5524 321.909 86.5524 321.909C86.5524 321.909 86.0707 321.294 85.2678 320.223C84.8396 319.688 84.3311 319.072 83.6887 318.35C83.0732 317.627 82.3506 316.851 81.4941 316.048C79.8348 314.415 77.774 312.622 75.3921 310.909C72.9834 309.25 70.3071 307.644 67.5237 306.226C64.7135 304.968 61.7963 303.871 59.013 303.014Z" fill="#3F3F3F"/>
<path d="M35.0602 286.367C37.3618 285.886 40.1185 285.591 43.0357 285.243C45.9529 284.922 49.0842 284.762 52.2155 284.735C55.3468 284.681 58.4781 284.788 61.3953 285.029C64.3125 285.324 67.0691 285.538 69.3708 285.966C71.6992 286.341 73.6529 286.662 74.9911 286.983C76.356 287.251 77.1321 287.411 77.1321 287.411C77.1321 287.411 76.3828 287.117 75.0981 286.635C73.7867 286.18 71.9133 285.484 69.5849 284.949C67.2565 284.36 64.5266 283.798 61.5559 283.423C58.5851 283.102 55.3735 282.888 52.1887 282.861C48.9771 282.968 45.7923 283.236 42.8216 283.637C39.8508 284.092 37.121 284.708 34.8193 285.35C32.5177 285.966 30.6442 286.688 29.3328 287.17C28.0482 287.705 27.2988 288 27.2988 288C27.2988 288 28.075 287.813 29.4399 287.518C30.7781 287.17 32.7318 286.822 35.0602 286.367Z" fill="#3F3F3F"/>
<path d="M77.4259 248.122C80.5304 247.025 83.9026 245.955 87.3016 244.991C90.6737 243.974 94.0727 243.037 97.2843 242.288C100.496 241.565 103.493 240.789 106.116 240.281C108.712 239.772 110.88 239.29 112.406 239.023C113.931 238.728 114.814 238.568 114.814 238.568C114.814 238.568 113.931 238.595 112.379 238.675C110.827 238.782 108.605 238.889 105.956 239.237C103.306 239.585 100.228 240.013 96.9631 240.682C93.698 241.378 90.2455 242.234 86.7931 243.198C83.3941 244.268 80.0219 245.419 76.8906 246.597C73.7861 247.801 70.9492 249.113 68.5405 250.263C66.1318 251.388 64.2048 252.512 62.8399 253.261C61.5017 254.037 60.7256 254.492 60.7256 254.492C60.7256 254.492 61.5552 254.171 63.0005 253.582C64.4189 252.967 66.5065 252.19 68.9687 251.227C71.3774 250.237 74.3213 249.246 77.4259 248.122Z" fill="#3F3F3F"/>
<path d="M16.9409 310.588C16.3254 312.569 15.7098 314.897 15.2816 317.466C14.8802 320.035 14.6393 322.792 14.5322 325.549C14.559 328.305 14.7463 331.089 15.0675 333.658C15.4422 336.227 15.9774 338.582 16.5662 340.563C17.1015 342.57 17.7706 344.149 18.1988 345.273C18.6805 346.371 18.9482 347.013 18.9482 347.013C18.9482 347.013 18.7876 346.344 18.5467 345.166C18.2523 344.015 17.9312 342.329 17.5832 340.349C17.1818 338.368 16.9677 335.986 16.6733 333.497C16.4324 330.982 16.3521 328.279 16.4057 325.602C16.4324 322.926 16.593 320.223 16.8874 317.707C17.2353 315.218 17.503 312.863 17.9579 310.882C18.3594 308.902 18.7073 307.216 19.0552 306.065C19.3496 304.914 19.5102 304.245 19.5102 304.245C19.5102 304.245 19.2158 304.861 18.7073 305.958C18.2256 307.028 17.5297 308.608 16.9409 310.588Z" fill="#3F3F3F"/>
<path d="M44.0256 336.522C42.9818 337.271 41.7507 338.128 40.5463 339.252C39.3687 340.349 38.1912 341.607 37.0403 342.918C35.9966 344.283 35.0063 345.702 34.1499 347.093C33.3202 348.485 32.7047 349.85 32.1962 351.054C31.6609 352.232 31.3933 353.276 31.1792 353.998C30.9918 354.721 30.8848 355.149 30.8848 355.149C30.8848 355.149 31.0989 354.774 31.5003 354.159C31.8482 353.516 32.4638 352.633 33.1329 351.563C33.7752 350.465 34.6584 349.315 35.5148 348.003C36.398 346.719 37.415 345.407 38.4855 344.122C39.5026 342.811 40.5998 341.553 41.6704 340.429C42.7677 339.332 43.7312 338.208 44.6679 337.378C45.5778 336.522 46.3272 335.746 46.8892 335.264C47.4245 334.755 47.7457 334.461 47.7457 334.461C47.7457 334.461 47.371 334.648 46.6751 334.969C46.0596 335.291 45.0693 335.772 44.0256 336.522Z" fill="#3F3F3F"/>
<path d="M158.626 295.334C161.062 295.815 163.925 296.351 167.003 296.752C170.081 297.153 173.399 297.501 176.718 297.769C180.037 297.956 183.355 298.063 186.46 298.117C189.564 298.144 192.482 298.01 194.971 297.876C197.46 297.769 199.52 297.501 200.966 297.368C202.411 297.18 203.241 297.073 203.241 297.073C203.241 297.073 202.411 297.046 200.966 296.993C199.52 296.939 197.46 296.886 194.971 296.805C192.482 296.779 189.618 296.565 186.513 296.484C183.436 296.351 180.144 296.163 176.852 295.896C173.56 295.708 170.268 295.441 167.217 295.119C164.139 294.771 161.276 294.584 158.813 294.263C156.351 293.995 154.29 293.754 152.845 293.594C151.4 293.433 150.57 293.353 150.57 293.353C150.57 293.353 151.373 293.567 152.765 293.942C154.183 294.343 156.191 294.879 158.626 295.334Z" fill="#3F3F3F"/>
<path d="M147.546 280.452C150.356 281.041 153.675 281.71 157.234 282.245C160.794 282.754 164.621 283.209 168.448 283.557C172.302 283.824 176.129 283.985 179.742 284.065C183.355 284.119 186.728 283.985 189.591 283.851C192.482 283.744 194.864 283.477 196.55 283.316C198.209 283.129 199.172 283.022 199.172 283.022C199.172 283.022 198.209 282.995 196.523 282.968C194.837 282.968 192.455 282.888 189.591 282.834C186.728 282.808 183.382 282.593 179.796 282.46C176.21 282.299 172.409 282.058 168.609 281.71C164.808 281.443 161.008 281.068 157.448 280.64C153.889 280.185 150.57 279.864 147.733 279.435C144.896 279.034 142.515 278.739 140.855 278.472C139.196 278.231 138.232 278.097 138.232 278.097C138.232 278.097 139.169 278.365 140.775 278.82C142.407 279.221 144.709 279.864 147.546 280.452Z" fill="#3F3F3F"/>
<path d="M132.451 259.926C132.451 259.926 133.575 260.274 135.529 260.889C137.483 261.451 140.293 262.334 143.692 263.164C147.091 264.021 151.078 265.011 155.387 265.894C159.696 266.75 164.3 267.607 168.93 268.356C173.56 269.025 178.216 269.614 182.579 270.096C186.941 270.578 191.036 270.818 194.542 271.033C198.048 271.273 200.965 271.273 203.026 271.327C205.087 271.354 206.238 271.354 206.238 271.354C206.238 271.354 205.087 271.22 203.053 270.979C201.019 270.738 198.128 270.39 194.649 269.989C191.17 269.614 187.129 269.025 182.793 268.49C178.457 267.928 173.854 267.259 169.251 266.51C164.647 265.814 160.044 265.064 155.735 264.288C151.426 263.485 147.412 262.843 143.986 262.12C140.534 261.451 137.67 260.916 135.663 260.515C133.575 260.14 132.451 259.926 132.451 259.926Z" fill="#3F3F3F"/>
<path d="M131.354 245.955C133.361 246.597 136.251 247.561 139.757 248.497C143.263 249.434 147.385 250.505 151.854 251.415C156.324 252.298 161.115 253.127 165.905 253.823C170.723 254.412 175.567 254.894 180.09 255.215C184.64 255.509 188.868 255.59 192.508 255.616C196.148 255.67 199.172 255.483 201.286 255.402C203.401 255.268 204.605 255.215 204.605 255.215C204.605 255.215 203.401 255.161 201.286 255.054C199.172 255.001 196.148 254.787 192.535 254.573C188.922 254.412 184.72 253.984 180.197 253.609C175.701 253.208 170.91 252.646 166.119 251.977C161.329 251.361 156.565 250.612 152.122 249.809C147.679 248.979 143.504 248.256 139.972 247.48C136.439 246.731 133.468 246.115 131.407 245.607C129.347 245.152 128.169 244.884 128.169 244.884C128.169 244.884 129.347 245.259 131.354 245.955Z" fill="#3F3F3F"/>
<path d="M131.916 229.87C129.909 229.389 128.731 229.121 128.731 229.121C128.731 229.121 129.856 229.523 131.809 230.218C133.79 230.861 136.573 231.878 139.999 232.841C143.425 233.831 147.412 234.982 151.748 236.026C156.084 237.043 160.714 238.06 165.37 238.97C170.054 239.8 174.738 240.522 179.154 241.111C183.569 241.7 187.718 242.075 191.251 242.369C194.783 242.69 197.754 242.77 199.842 242.851C201.929 242.904 203.107 242.931 203.107 242.931C203.107 242.931 201.929 242.77 199.868 242.476C197.808 242.235 194.89 241.78 191.358 241.298C187.852 240.843 183.757 240.148 179.368 239.479C174.978 238.809 170.348 237.98 165.692 237.097C161.035 236.267 156.405 235.357 152.069 234.393C147.76 233.43 143.692 232.627 140.24 231.771C136.814 230.995 133.924 230.379 131.916 229.87Z" fill="#3F3F3F"/>
<path d="M191.036 226.685C194.542 227.194 197.486 227.435 199.52 227.649C201.581 227.836 202.758 227.916 202.758 227.916C202.758 227.916 201.608 227.676 199.574 227.274C197.566 226.873 194.676 226.311 191.197 225.642C187.717 224.999 183.703 224.089 179.394 223.233C175.085 222.35 170.509 221.306 165.932 220.209C161.356 219.165 156.779 218.068 152.524 216.97C148.268 215.846 144.254 214.883 140.855 213.946C137.456 213.036 134.592 212.26 132.612 211.725C130.631 211.189 129.48 210.895 129.48 210.895C129.48 210.895 130.578 211.323 132.505 212.073C134.432 212.795 137.188 213.866 140.56 214.936C143.906 216.034 147.84 217.345 152.095 218.523C156.351 219.7 160.927 220.904 165.504 222.002C170.107 223.019 174.737 223.956 179.073 224.785C183.435 225.615 187.53 226.204 191.036 226.685Z" fill="#3F3F3F"/>
<path d="M140.427 196.389C137.135 195.292 134.379 194.436 132.478 193.767C130.551 193.124 129.454 192.776 129.454 192.776C129.454 192.776 130.498 193.258 132.345 194.115C134.191 194.917 136.841 196.149 140.079 197.406C143.318 198.691 147.091 200.163 151.213 201.528C155.334 202.893 159.75 204.285 164.22 205.569C168.689 206.774 173.185 207.871 177.441 208.861C181.669 209.798 185.684 210.52 189.11 211.109C192.535 211.725 195.399 212.046 197.406 212.314C199.413 212.554 200.564 212.662 200.564 212.662C200.564 212.662 199.44 212.394 197.46 211.939C195.479 211.511 192.669 210.842 189.297 210.065C185.925 209.316 182.017 208.299 177.815 207.282C173.614 206.238 169.171 205.061 164.728 203.776C160.285 202.572 155.843 201.26 151.721 199.976C147.6 198.638 143.719 197.513 140.427 196.389Z" fill="#3F3F3F"/>
<path d="M139.089 179.368C140.695 180.117 142.97 181.241 145.78 182.392C148.59 183.57 151.855 184.934 155.415 186.192C159.001 187.45 162.828 188.735 166.709 189.939C170.616 191.037 174.524 192.08 178.217 192.99C181.91 193.873 185.39 194.516 188.387 195.078C191.358 195.64 193.874 195.934 195.64 196.202C197.406 196.416 198.397 196.523 198.397 196.523C198.397 196.523 197.406 196.282 195.694 195.827C193.981 195.426 191.545 194.757 188.601 194.034C185.657 193.338 182.258 192.348 178.619 191.411C174.979 190.448 171.098 189.324 167.244 188.146C163.39 187.022 159.536 185.844 155.95 184.667C152.364 183.463 148.992 182.446 146.155 181.402C143.291 180.411 140.909 179.609 139.25 179.02C137.564 178.458 136.627 178.11 136.627 178.11C136.627 178.11 137.51 178.565 139.089 179.368Z" fill="#3F3F3F"/>
<path d="M148.671 167.164C149.955 167.645 151.748 168.422 153.97 169.171C156.191 169.92 158.76 170.857 161.57 171.66C164.381 172.49 167.405 173.319 170.429 174.122C173.48 174.845 176.531 175.514 179.395 176.129C182.258 176.718 184.988 177.12 187.29 177.521C189.592 177.896 191.545 178.083 192.91 178.244C194.275 178.377 195.051 178.458 195.051 178.458C195.051 178.458 194.302 178.244 192.964 177.896C191.652 177.548 189.752 177.066 187.477 176.477C185.202 175.915 182.553 175.246 179.743 174.55C176.906 173.881 173.882 173.105 170.884 172.329C167.86 171.606 164.836 170.857 162.025 170.108C159.189 169.385 156.539 168.743 154.291 168.154C152.016 167.592 150.116 167.137 148.804 166.816C147.466 166.521 146.717 166.334 146.717 166.334C146.717 166.334 147.413 166.628 148.671 167.164Z" fill="#3F3F3F"/>
<path d="M193.311 160.767C194.462 160.714 195.131 160.66 195.131 160.66C195.131 160.66 194.462 160.553 193.311 160.392C192.16 160.232 190.501 160.044 188.547 159.777C186.566 159.536 184.292 159.242 181.829 158.947C179.367 158.68 176.744 158.332 174.122 157.957C171.499 157.663 168.876 157.315 166.414 156.967C163.951 156.646 161.65 156.324 159.696 156.057C157.716 155.816 156.083 155.602 154.932 155.441C153.781 155.307 153.112 155.227 153.112 155.227C153.112 155.227 153.755 155.441 154.852 155.789C155.976 156.11 157.555 156.619 159.509 157.074C161.462 157.529 163.711 158.091 166.173 158.546C168.635 158.974 171.258 159.402 173.881 159.777C176.53 160.071 179.18 160.312 181.669 160.526C184.158 160.714 186.486 160.74 188.493 160.794C190.474 160.874 192.133 160.767 193.311 160.767Z" fill="#3F3F3F"/>
<path d="M158.841 141.39C159.804 141.578 161.142 141.926 162.802 142.193C164.434 142.461 166.361 142.862 168.422 143.13C170.483 143.424 172.677 143.719 174.872 144.013C177.066 144.227 179.288 144.441 181.348 144.656C183.409 144.87 185.363 144.923 187.022 145.03C188.682 145.137 190.073 145.111 191.064 145.164C192.054 145.164 192.589 145.164 192.589 145.164C192.589 145.164 192.054 145.03 191.09 144.816C190.127 144.629 188.789 144.281 187.129 144.013C185.497 143.746 183.57 143.344 181.509 143.076C179.448 142.782 177.254 142.488 175.059 142.193C172.865 141.979 170.643 141.765 168.582 141.551C166.522 141.337 164.568 141.283 162.909 141.176C161.249 141.069 159.858 141.096 158.867 141.042C157.877 141.042 157.342 141.042 157.342 141.042C157.342 141.042 157.904 141.15 158.841 141.39Z" fill="#3F3F3F"/>
<path d="M164.005 125.359C164.728 125.573 165.745 125.921 167.03 126.189C168.288 126.457 169.76 126.804 171.365 127.019C172.971 127.206 174.684 127.393 176.424 127.527C178.163 127.554 179.876 127.554 181.509 127.527C183.115 127.474 184.64 127.259 185.925 127.126C187.209 126.992 188.28 126.724 189.002 126.59C189.752 126.403 190.153 126.323 190.153 126.323C190.153 126.323 189.725 126.296 188.976 126.242C188.226 126.216 187.156 126.162 185.871 126.109C184.586 126.109 183.088 125.948 181.509 125.948C179.93 125.921 178.217 125.841 176.531 125.707C174.845 125.654 173.132 125.573 171.553 125.466C169.974 125.386 168.475 125.279 167.19 125.225C165.906 125.172 164.835 125.118 164.086 125.065C163.336 125.038 162.908 125.038 162.908 125.038C162.908 125.038 163.283 125.092 164.005 125.359Z" fill="#3F3F3F"/>
<path d="M169.867 111.255C170.884 111.336 172.088 111.523 173.346 111.577C174.631 111.63 175.996 111.684 177.36 111.737C178.725 111.71 180.09 111.684 181.375 111.63C182.66 111.603 183.837 111.443 184.881 111.362C185.898 111.282 186.754 111.095 187.343 111.041C187.932 110.934 188.28 110.854 188.28 110.854C188.28 110.854 187.932 110.774 187.343 110.667C186.754 110.586 185.898 110.399 184.881 110.319C183.864 110.238 182.66 110.051 181.402 109.997C180.117 109.944 178.752 109.89 177.387 109.837C176.022 109.864 174.657 109.89 173.373 109.944C172.088 109.971 170.91 110.131 169.867 110.212C168.85 110.292 167.993 110.479 167.404 110.533C166.816 110.64 166.468 110.72 166.468 110.72C166.468 110.72 166.816 110.8 167.404 110.907C167.993 110.961 168.823 111.148 169.867 111.255Z" fill="#3F3F3F"/>
<path d="M169.759 95.7863C170.696 95.8398 171.82 95.9736 172.998 95.9736C174.175 95.9736 175.433 95.9736 176.691 95.9736C177.949 95.8933 179.207 95.813 180.384 95.7328C181.562 95.6525 182.659 95.4651 183.596 95.3581C184.533 95.251 185.309 95.0369 185.871 94.9566C186.406 94.8228 186.727 94.7425 186.727 94.7425C186.727 94.7425 186.406 94.689 185.871 94.5819C185.309 94.5284 184.533 94.3678 183.596 94.3143C182.659 94.2608 181.535 94.127 180.358 94.127C179.18 94.127 177.922 94.127 176.664 94.127C175.406 94.2072 174.148 94.2875 172.971 94.3678C171.793 94.4481 170.696 94.6355 169.759 94.7425C168.823 94.8496 168.046 95.0637 167.484 95.1707C166.949 95.3045 166.628 95.3848 166.628 95.3848C166.628 95.3848 166.949 95.4384 167.484 95.5454C168.046 95.5722 168.823 95.7328 169.759 95.7863Z" fill="#3F3F3F"/>
<path d="M184.854 78.6577C184.372 78.6042 183.676 78.4169 182.847 78.3633C182.017 78.3098 181.054 78.1492 180.01 78.1492C178.966 78.1225 177.869 78.1225 176.772 78.0957C175.674 78.176 174.577 78.2295 173.533 78.283C172.489 78.3366 171.553 78.5507 170.723 78.631C169.893 78.738 169.224 78.9254 168.743 79.0324C168.261 79.1662 167.993 79.2198 167.993 79.2198C167.993 79.2198 168.261 79.2733 168.743 79.3803C169.224 79.4339 169.92 79.6212 170.75 79.6747C171.579 79.7283 172.543 79.8888 173.587 79.8888C174.63 79.9156 175.728 79.9156 176.825 79.9424C177.922 79.8621 179.02 79.8086 180.063 79.755C181.107 79.7015 182.044 79.4874 182.874 79.4071C183.703 79.3001 184.372 79.1127 184.854 79.0057C185.336 78.8718 185.603 78.8183 185.603 78.8183C185.603 78.8183 185.336 78.738 184.854 78.6577Z" fill="#3F3F3F"/>
<path d="M168.475 64.7672C168.876 64.8742 169.438 65.1151 170.134 65.2489C170.83 65.3827 171.606 65.6236 172.489 65.7306C173.346 65.8377 174.283 65.9715 175.193 66.0786C176.129 66.1053 177.039 66.1589 177.922 66.1856C178.806 66.2124 179.608 66.1053 180.304 66.1053C181 66.0786 181.589 65.9448 182.017 65.8912C182.419 65.8109 182.659 65.7574 182.659 65.7574C182.659 65.7574 182.445 65.6771 182.044 65.5165C181.642 65.4095 181.08 65.1686 180.385 65.0348C179.689 64.901 178.913 64.6601 178.029 64.5531C177.173 64.446 176.236 64.3122 175.326 64.2051C174.39 64.1784 173.48 64.1249 172.596 64.0981C171.713 64.0446 170.91 64.1784 170.215 64.1784C169.519 64.2051 168.93 64.339 168.502 64.3925C168.1 64.4728 167.859 64.5263 167.859 64.5263C167.859 64.5263 168.1 64.6334 168.475 64.7672Z" fill="#3F3F3F"/>
<path d="M174.417 51.8408C174.979 52.2423 175.568 52.7776 176.29 53.2325C177.013 53.6875 177.762 54.1693 178.539 54.651C179.341 55.0524 180.144 55.4539 180.894 55.8553C181.643 56.23 182.419 56.4709 183.035 56.7385C183.65 57.0062 184.239 57.1132 184.614 57.247C185.015 57.3273 185.229 57.3809 185.229 57.3809C185.229 57.3809 185.069 57.2203 184.774 56.9259C184.48 56.6582 184.079 56.23 183.516 55.8286C182.954 55.4271 182.366 54.8919 181.643 54.4369C180.92 53.9819 180.171 53.5002 179.395 53.0184C178.592 52.617 177.789 52.2155 177.04 51.8141C176.29 51.4394 175.514 51.1985 174.899 50.9309C174.283 50.6633 173.694 50.5562 173.32 50.4224C172.918 50.3421 172.704 50.2886 172.704 50.2886C172.704 50.2886 172.865 50.4491 173.159 50.7435C173.48 50.9844 173.882 51.4394 174.417 51.8408Z" fill="#3F3F3F"/>
<path d="M180.09 38.1377C180.76 38.7265 181.455 39.5027 182.285 40.2253C183.115 40.9479 183.971 41.7508 184.828 42.5804C185.711 43.3298 186.594 44.1327 187.397 44.8821C188.2 45.6315 189.029 46.2738 189.672 46.8893C190.341 47.4781 190.956 47.9331 191.358 48.281C191.786 48.6022 192.027 48.7895 192.027 48.7895C192.027 48.7895 191.893 48.5219 191.625 48.0402C191.358 47.5852 191.01 46.9161 190.448 46.1935C189.913 45.4709 189.297 44.5877 188.548 43.758C187.772 42.9284 186.942 42.0719 186.085 41.2155C185.149 40.4394 184.212 39.69 183.329 38.9942C182.419 38.2983 181.482 37.7898 180.733 37.3348C179.957 36.8531 179.234 36.5855 178.779 36.3446C178.297 36.1573 178.003 36.0234 178.003 36.0234C178.003 36.0234 178.217 36.2375 178.565 36.639C178.94 36.9602 179.448 37.5489 180.09 38.1377Z" fill="#3F3F3F"/>
<path d="M192.294 26.0942C192.669 26.8971 193.017 27.8874 193.525 28.8776C194.034 29.8679 194.569 30.9116 195.131 31.9822C195.747 32.9992 196.362 34.0162 196.951 34.9529C197.54 35.9164 198.182 36.7193 198.691 37.4686C199.199 38.1913 199.735 38.7533 200.056 39.1815C200.404 39.5829 200.618 39.7971 200.618 39.7971C200.618 39.7971 200.537 39.5027 200.377 38.9942C200.19 38.5124 199.975 37.763 199.627 36.9601C199.253 36.1572 198.905 35.167 198.396 34.1768C197.888 33.1865 197.353 32.1427 196.791 31.0722C196.175 30.0552 195.559 29.0382 194.971 28.1015C194.409 27.138 193.74 26.3351 193.231 25.5857C192.696 24.8631 192.161 24.3011 191.839 23.8729C191.491 23.4714 191.277 23.2573 191.277 23.2573C191.277 23.2573 191.358 23.5517 191.518 24.0602C191.706 24.542 191.92 25.2913 192.294 26.0942Z" fill="#3F3F3F"/>
<path d="M204.525 18.0652C204.766 19.0822 204.954 20.3133 205.328 21.5712C205.676 22.829 206.051 24.194 206.452 25.5321C206.907 26.8435 207.362 28.1817 207.791 29.4128C208.219 30.6439 208.754 31.768 209.129 32.7582C209.53 33.7217 209.958 34.5246 210.226 35.0866C210.52 35.6487 210.681 35.9431 210.681 35.9431C210.681 35.9431 210.628 35.5951 210.574 34.9796C210.467 34.364 210.387 33.4808 210.146 32.4638C209.905 31.4468 209.691 30.2157 209.343 28.9578C208.995 27.7 208.62 26.335 208.219 24.9969C207.764 23.6855 207.309 22.3473 206.881 21.1162C206.452 19.8851 205.917 18.761 205.543 17.7708C205.141 16.8073 204.713 16.0044 204.445 15.4424C204.151 14.8803 203.99 14.5859 203.99 14.5859C203.99 14.5859 204.044 14.9339 204.097 15.5494C204.204 16.1382 204.285 17.0214 204.525 18.0652Z" fill="#3F3F3F"/>
<path d="M218.496 21.4644C218.63 22.6152 218.737 23.8195 218.871 25.0239C219.085 26.2282 219.299 27.4326 219.487 28.5566C219.674 29.6807 219.995 30.7245 220.209 31.6077C220.423 32.4909 220.718 33.2402 220.852 33.7487C221.039 34.2572 221.146 34.5516 221.146 34.5516C221.146 34.5516 221.173 34.2305 221.199 33.6952C221.199 33.1599 221.28 32.3838 221.226 31.4471C221.173 30.5371 221.199 29.4398 221.066 28.3158C220.932 27.165 220.825 25.9606 220.691 24.7563C220.477 23.5519 220.263 22.3476 220.075 21.2235C219.888 20.0994 219.567 19.0557 219.353 18.1725C219.139 17.2893 218.844 16.5399 218.71 16.0314C218.523 15.5229 218.416 15.2285 218.416 15.2285C218.416 15.2285 218.389 15.5497 218.363 16.0849C218.363 16.6202 218.282 17.3963 218.336 18.3331C218.389 19.243 218.363 20.3403 218.496 21.4644Z" fill="#3F3F3F"/>
<path d="M216.435 92.7079C218.174 92.6008 219.861 92.1726 221.413 91.4768C220.985 91.8247 220.556 92.1726 220.128 92.467C219.379 92.9755 218.736 93.5376 218.121 93.939C217.505 94.3405 217.05 94.7687 216.676 95.0095C216.328 95.2772 216.114 95.4378 216.114 95.4378C216.114 95.4378 216.355 95.411 216.809 95.3307C217.238 95.2236 217.88 95.1434 218.576 94.8757C219.272 94.6081 220.128 94.3137 220.958 93.832C221.787 93.3502 222.644 92.815 223.447 92.1994C224.223 91.5303 224.946 90.8345 225.615 90.1386C226.257 89.4428 226.739 88.6934 227.167 88.0778C227.595 87.4623 227.836 86.8467 228.023 86.4453C228.104 86.2579 228.157 86.0974 228.211 85.9903C228.344 86.0171 228.505 86.0171 228.639 86.0438C229.281 86.1241 229.629 86.1509 229.629 86.1509C229.629 86.1509 229.308 85.9903 228.746 85.6959C228.157 85.455 227.327 85.0001 226.284 84.6789C225.24 84.3577 224.009 83.9563 222.644 83.7154C221.279 83.4746 219.834 83.314 218.362 83.1802C216.89 83.1534 215.418 83.2069 214.053 83.314C212.688 83.421 211.403 83.7154 210.333 83.9295C209.262 84.1436 208.379 84.4916 207.79 84.6789C207.201 84.9198 206.854 85.0536 206.854 85.0536C206.854 85.0536 207.228 85.0536 207.871 85.0536C208.513 85.0001 209.423 85.0536 210.493 85.0001C211.082 84.9465 211.751 84.9733 212.42 84.9733C210.065 85.455 207.871 86.2847 205.917 87.4891L204.873 88.1581L205.783 88.9878C208.62 91.5571 212.42 92.8952 216.221 92.7079C216.328 92.7079 216.381 92.7079 216.435 92.7079ZM219.031 86.4988C220.717 86.6594 222.43 86.9806 224.116 87.5158C222.858 88.6399 221.359 89.4963 219.753 90.0851C219.941 89.6836 220.021 89.2554 220.021 88.8005C220.048 87.8905 219.646 87.0876 219.031 86.4988ZM213.598 86.6326C213.063 87.2214 212.715 87.9708 212.715 88.8272C212.715 89.4695 212.929 90.0851 213.277 90.5936C211.43 90.2457 209.61 89.5231 208.085 88.4258C209.771 87.5426 211.644 86.9538 213.598 86.6326Z" fill="#3F3F3F"/>
<path d="M203.428 79.5672C204.284 79.8616 205.569 80.156 207.095 80.2096C208.62 80.2898 210.386 80.1293 212.18 79.8081C213.063 79.6208 213.973 79.5137 214.829 79.2728C215.686 79.0587 216.569 78.8446 217.425 78.7108C218.255 78.4967 219.085 78.3094 219.861 78.2023C220.637 78.0953 221.44 77.9347 222.162 77.8811C222.885 77.8544 223.608 77.8009 224.303 77.8276C224.972 77.8811 225.642 77.9347 226.257 78.015C228.719 78.3896 230.512 79.5672 230.512 79.5672C230.512 79.5672 230.486 79.032 230.111 78.1755C229.763 77.3191 228.987 76.1148 227.649 75.1245C227.006 74.616 226.23 74.1343 225.32 73.7596C224.437 73.3849 223.474 73.0638 222.43 72.9299C221.386 72.7961 220.342 72.6891 219.299 72.7694C218.255 72.8496 217.211 73.0102 216.194 73.1976C215.204 73.4384 214.24 73.7328 213.33 74.0272C212.42 74.2949 211.564 74.7231 210.761 75.0442C209.155 75.7401 207.737 76.4359 206.479 77.0247C204.044 78.2023 202.09 78.9784 202.09 78.9784C202.09 78.9784 202.572 79.2728 203.428 79.5672Z" fill="#3F3F3F"/>
<path d="M256.981 134.619C255.991 134.994 254.492 135.101 252.806 134.673C251.093 134.405 249.14 133.468 246.544 132.88C245.259 132.666 243.626 132.666 242.261 133.014C240.897 133.335 239.826 133.656 238.996 133.602C237.23 133.763 234.661 132.559 231.931 132.398C229.254 132.318 226.873 132.906 224.999 133.683C223.152 134.593 221.841 135.61 220.985 136.386C220.182 137.215 219.78 137.751 219.78 137.751C219.78 137.751 220.342 137.429 221.386 137.028C222.376 136.573 223.848 136.038 225.641 135.797C227.381 135.449 229.469 135.342 231.529 135.797C232.573 135.957 233.563 136.252 234.768 136.653C235.972 137.028 237.337 137.51 239.023 137.537C240.763 137.456 242.101 136.867 243.145 136.573C244.162 136.252 245.045 136.198 246.115 136.279C248.23 136.305 250.505 136.921 252.619 136.867C254.706 136.734 256.419 136.038 257.356 135.262C257.811 134.86 258.079 134.485 258.266 134.245C258.426 133.977 258.507 133.843 258.507 133.843C258.507 133.843 258.373 133.923 258.132 134.111C257.891 134.271 257.517 134.485 256.981 134.619Z" fill="#3F3F3F"/>
<path d="M220.53 119.23C220.53 119.23 220.235 119.471 219.7 119.873C219.191 120.328 218.442 120.917 217.639 121.746C216.836 122.576 215.9 123.513 215.016 124.663C214.133 125.787 213.223 127.045 212.367 128.303C211.564 129.615 210.815 130.953 210.145 132.211C209.476 133.495 208.995 134.753 208.566 135.797C208.138 136.867 207.897 137.804 207.71 138.447C207.549 139.089 207.442 139.464 207.442 139.464C207.442 139.464 207.656 139.142 208.031 138.58C208.379 138.018 208.888 137.215 209.503 136.252C210.065 135.262 210.841 134.191 211.537 132.987C212.26 131.782 213.063 130.525 213.919 129.293C214.695 128.009 215.525 126.751 216.301 125.6C217.104 124.449 217.773 123.298 218.442 122.389C219.058 121.452 219.593 120.649 219.968 120.087C220.342 119.552 220.53 119.23 220.53 119.23Z" fill="#3F3F3F"/>
<path d="M189.511 374.285C195.051 373.483 201.554 372.626 208.486 371.582C215.418 370.539 222.804 369.415 230.191 368.29C237.578 367.086 244.964 365.909 251.869 364.784C258.801 363.66 265.224 362.51 270.764 361.573C276.304 360.636 280.881 359.753 284.092 359.164C287.304 358.549 289.151 358.201 289.151 358.201C289.151 358.201 287.304 358.442 284.039 358.843C280.8 359.271 276.144 359.833 270.604 360.636C265.064 361.439 258.56 362.295 251.628 363.339C244.697 364.383 237.31 365.507 229.923 366.631C222.537 367.835 215.15 369.013 208.245 370.137C201.313 371.261 194.89 372.412 189.35 373.349C183.81 374.285 179.234 375.169 176.022 375.757C172.811 376.373 170.964 376.721 170.964 376.721C170.964 376.721 172.811 376.48 176.076 376.079C179.314 375.65 183.944 375.088 189.511 374.285Z" fill="#3F3F3F"/>
<path d="M208.915 373.643C210.521 373.455 212.796 373.268 215.526 372.92C218.256 372.572 221.44 372.198 224.839 371.716C228.238 371.261 231.878 370.699 235.491 370.137C239.104 369.548 242.717 368.986 246.116 368.37C249.488 367.782 252.646 367.139 255.35 366.658C258.053 366.149 260.301 365.641 261.853 365.319C263.432 364.971 264.315 364.757 264.315 364.757C264.315 364.757 263.405 364.838 261.799 364.998C260.194 365.186 257.919 365.373 255.189 365.721C252.459 366.069 249.274 366.417 245.875 366.925C242.476 367.38 238.863 367.942 235.223 368.504C231.61 369.093 227.997 369.682 224.598 370.271C221.226 370.859 218.068 371.475 215.365 371.983C212.662 372.492 210.414 373 208.862 373.322C207.283 373.67 206.399 373.884 206.399 373.884C206.399 373.884 207.309 373.803 208.915 373.643Z" fill="#3F3F3F"/>
</g>
</svg>
